M48
; DRILL file {KiCad 8.0.6} date 2025-08-21T09:45:07+0200
; FORMAT={-:-/ absolute / metric / decimal}
; #@! TF.CreationDate,2025-08-21T09:45:07+02:00
; #@! TF.GenerationSoftware,Kicad,Pcbnew,8.0.6
; #@! TF.FileFunction,Plated,1,2,PTH
FMAT,2
METRIC
; #@! TA.AperFunction,Plated,PTH,ViaDrill
T1C0.300
; #@! TA.AperFunction,Plated,PTH,ComponentDrill
T2C1.000
%
G90
G05
T1
X147.32Y-108.78
X147.32Y-110.78
X147.32Y-112.78
X147.32Y-114.78
X147.32Y-116.78
X147.32Y-118.78
X147.32Y-120.78
X147.32Y-122.78
X147.32Y-124.78
X147.32Y-126.78
X147.32Y-128.78
X147.32Y-130.78
X147.32Y-132.78
X147.32Y-134.78
X147.32Y-136.78
X147.32Y-138.78
X147.32Y-140.78
X147.32Y-142.78
X147.32Y-144.78
X149.32Y-108.78
X149.32Y-110.78
X149.32Y-112.78
X149.32Y-114.78
X149.32Y-116.78
X149.32Y-118.78
X149.32Y-120.78
X149.32Y-122.78
X149.32Y-124.78
X149.32Y-126.78
X149.32Y-128.78
X149.32Y-130.78
X149.32Y-132.78
X149.32Y-134.78
X149.32Y-136.78
X149.32Y-138.78
X149.32Y-140.78
X149.32Y-142.78
X149.32Y-144.78
X151.32Y-108.78
X151.32Y-110.78
X151.32Y-112.78
X151.32Y-114.78
X151.32Y-116.78
X151.32Y-118.78
X151.32Y-120.78
X151.32Y-130.78
X151.32Y-132.78
X151.32Y-134.78
X151.32Y-136.78
X151.32Y-138.78
X151.32Y-140.78
X151.32Y-142.78
X151.32Y-144.78
X153.32Y-108.78
X153.32Y-110.78
X153.32Y-112.78
X153.32Y-114.78
X153.32Y-116.78
X153.32Y-118.78
X153.32Y-120.78
X153.32Y-122.78
X153.32Y-124.78
X153.32Y-128.78
X153.32Y-130.78
X153.32Y-132.78
X153.32Y-134.78
X153.32Y-136.78
X153.32Y-138.78
X153.32Y-140.78
X153.32Y-142.78
X153.32Y-144.78
X155.32Y-108.78
X155.32Y-110.78
X155.32Y-112.78
X155.32Y-114.78
X155.32Y-116.78
X155.32Y-118.78
X155.32Y-120.78
X155.32Y-124.78
X155.32Y-128.78
X155.32Y-130.78
X155.32Y-132.78
X155.32Y-134.78
X155.32Y-136.78
X155.32Y-138.78
X155.32Y-140.78
X155.32Y-142.78
X155.32Y-144.78
X157.32Y-108.78
X157.32Y-110.78
X157.32Y-112.78
X157.32Y-114.78
X157.32Y-116.78
X157.32Y-118.78
X157.32Y-122.78
X157.32Y-124.78
X157.32Y-128.78
X157.32Y-130.78
X157.32Y-132.78
X157.32Y-134.78
X157.32Y-136.78
X157.32Y-138.78
X157.32Y-140.78
X157.32Y-142.78
X157.32Y-144.78
X159.32Y-108.78
X159.32Y-110.78
X159.32Y-112.78
X159.32Y-114.78
X159.32Y-116.78
X159.32Y-120.78
X159.32Y-122.78
X159.32Y-124.78
X159.32Y-128.78
X159.32Y-130.78
X159.32Y-132.78
X159.32Y-134.78
X159.32Y-136.78
X159.32Y-138.78
X159.32Y-140.78
X159.32Y-142.78
X159.32Y-144.78
X161.32Y-108.78
X161.32Y-114.78
X161.32Y-118.78
X161.32Y-120.78
X161.32Y-122.78
X161.32Y-124.78
X161.32Y-144.78
X162.56Y-128.27
X162.56Y-130.81
X162.56Y-132.715
X162.56Y-134.62
X162.56Y-136.525
X162.56Y-139.065
X163.32Y-108.78
X163.32Y-116.78
X163.32Y-118.78
X163.32Y-120.78
X163.32Y-144.78
X164.0Y-116.0
X164.005Y-126.105
X165.0Y-121.0
X165.32Y-108.78
X165.32Y-132.78
X165.32Y-134.78
X165.32Y-136.78
X165.32Y-138.78
X165.32Y-144.78
X166.0Y-131.0
X167.32Y-108.78
X167.32Y-114.78
X167.32Y-116.78
X167.32Y-126.78
X167.32Y-132.78
X167.32Y-134.78
X167.32Y-136.78
X167.32Y-138.78
X167.32Y-144.78
X169.32Y-108.78
X169.32Y-114.78
X169.32Y-116.78
X169.32Y-118.78
X169.32Y-120.78
X169.32Y-126.78
X169.32Y-128.78
X169.32Y-130.78
X169.32Y-132.78
X169.32Y-134.78
X169.32Y-136.78
X169.32Y-138.78
X169.32Y-144.78
X171.32Y-108.78
X171.32Y-122.78
X171.32Y-124.78
X171.32Y-144.78
X173.32Y-108.78
X173.32Y-110.78
X173.32Y-112.78
X173.32Y-114.78
X173.32Y-116.78
X173.32Y-118.78
X173.32Y-120.78
X173.32Y-122.78
X173.32Y-124.78
X173.32Y-126.78
X173.32Y-128.78
X173.32Y-130.78
X173.32Y-132.78
X173.32Y-134.78
X173.32Y-136.78
X173.32Y-138.78
X173.32Y-140.78
X173.32Y-142.78
X173.32Y-144.78
X175.32Y-108.78
X175.32Y-110.78
X175.32Y-112.78
X175.32Y-114.78
X175.32Y-116.78
X175.32Y-118.78
X175.32Y-120.78
X175.32Y-122.78
X175.32Y-124.78
X175.32Y-126.78
X175.32Y-128.78
X175.32Y-130.78
X175.32Y-132.78
X175.32Y-134.78
X175.32Y-136.78
X175.32Y-138.78
X175.32Y-140.78
X175.32Y-142.78
X175.32Y-144.78
X177.32Y-108.78
X177.32Y-110.78
X177.32Y-112.78
X177.32Y-114.78
X177.32Y-116.78
X177.32Y-118.78
X177.32Y-120.78
X177.32Y-122.78
X177.32Y-124.78
X177.32Y-126.78
X177.32Y-128.78
X177.32Y-130.78
X177.32Y-132.78
X177.32Y-134.78
X177.32Y-136.78
X177.32Y-138.78
X177.32Y-140.78
X177.32Y-142.78
X177.32Y-144.78
X179.32Y-108.78
X179.32Y-110.78
X179.32Y-112.78
X179.32Y-114.78
X179.32Y-116.78
X179.32Y-118.78
X179.32Y-120.78
X179.32Y-122.78
X179.32Y-124.78
X179.32Y-126.78
X179.32Y-128.78
X179.32Y-130.78
X179.32Y-132.78
X179.32Y-134.78
X179.32Y-136.78
X179.32Y-138.78
X179.32Y-140.78
X179.32Y-142.78
X179.32Y-144.78
X181.32Y-108.78
X181.32Y-110.78
X181.32Y-112.78
X181.32Y-114.78
X181.32Y-116.78
X181.32Y-118.78
X181.32Y-120.78
X181.32Y-122.78
X181.32Y-124.78
X181.32Y-126.78
X181.32Y-128.78
X181.32Y-130.78
X181.32Y-132.78
X181.32Y-134.78
X181.32Y-136.78
X181.32Y-138.78
X181.32Y-140.78
X181.32Y-142.78
X181.32Y-144.78
X183.32Y-108.78
X183.32Y-110.78
X183.32Y-112.78
X183.32Y-114.78
X183.32Y-116.78
X183.32Y-118.78
X183.32Y-120.78
X183.32Y-122.78
X183.32Y-124.78
X183.32Y-126.78
X183.32Y-128.78
X183.32Y-130.78
X183.32Y-132.78
X183.32Y-134.78
X183.32Y-136.78
X183.32Y-138.78
X183.32Y-140.78
X183.32Y-142.78
X183.32Y-144.78
T2
X151.0Y-124.0
X151.0Y-126.54
X151.0Y-129.08
X160.92Y-112.0
X160.92Y-142.0
X163.46Y-112.0
X163.46Y-142.0
X166.0Y-112.0
X166.0Y-142.0
X168.54Y-112.0
X168.54Y-142.0
X171.08Y-112.0
X171.08Y-142.0
M30
