G04 #@! TF.GenerationSoftware,KiCad,Pcbnew,8.0.6*
G04 #@! TF.CreationDate,2025-08-21T09:44:45+02:00*
G04 #@! TF.ProjectId,StackBoard_OPA836,53746163-6b42-46f6-9172-645f4f504138,rev?*
G04 #@! TF.SameCoordinates,Original*
G04 #@! TF.FileFunction,Legend,Top*
G04 #@! TF.FilePolarity,Positive*
%FSLAX46Y46*%
G04 Gerber Fmt 4.6, Leading zero omitted, Abs format (unit mm)*
G04 Created by KiCad (PCBNEW 8.0.6) date 2025-08-21 09:44:45*
%MOMM*%
%LPD*%
G01*
G04 APERTURE LIST*
G04 Aperture macros list*
%AMRoundRect*
0 Rectangle with rounded corners*
0 $1 Rounding radius*
0 $2 $3 $4 $5 $6 $7 $8 $9 X,Y pos of 4 corners*
0 Add a 4 corners polygon primitive as box body*
4,1,4,$2,$3,$4,$5,$6,$7,$8,$9,$2,$3,0*
0 Add four circle primitives for the rounded corners*
1,1,$1+$1,$2,$3*
1,1,$1+$1,$4,$5*
1,1,$1+$1,$6,$7*
1,1,$1+$1,$8,$9*
0 Add four rect primitives between the rounded corners*
20,1,$1+$1,$2,$3,$4,$5,0*
20,1,$1+$1,$4,$5,$6,$7,0*
20,1,$1+$1,$6,$7,$8,$9,0*
20,1,$1+$1,$8,$9,$2,$3,0*%
G04 Aperture macros list end*
%ADD10C,0.100000*%
%ADD11C,0.200000*%
%ADD12C,0.150000*%
%ADD13C,0.254000*%
%ADD14C,0.120000*%
%ADD15RoundRect,0.250000X-0.337500X-0.475000X0.337500X-0.475000X0.337500X0.475000X-0.337500X0.475000X0*%
%ADD16RoundRect,0.250000X0.337500X0.475000X-0.337500X0.475000X-0.337500X-0.475000X0.337500X-0.475000X0*%
%ADD17R,0.600000X1.200000*%
%ADD18R,1.700000X1.700000*%
%ADD19O,1.700000X1.700000*%
G04 APERTURE END LIST*
D10*
X175385024Y-138743734D02*
X175432643Y-138600877D01*
X175432643Y-138600877D02*
X175432643Y-138362782D01*
X175432643Y-138362782D02*
X175385024Y-138267544D01*
X175385024Y-138267544D02*
X175337404Y-138219925D01*
X175337404Y-138219925D02*
X175242166Y-138172306D01*
X175242166Y-138172306D02*
X175146928Y-138172306D01*
X175146928Y-138172306D02*
X175051690Y-138219925D01*
X175051690Y-138219925D02*
X175004071Y-138267544D01*
X175004071Y-138267544D02*
X174956452Y-138362782D01*
X174956452Y-138362782D02*
X174908833Y-138553258D01*
X174908833Y-138553258D02*
X174861214Y-138648496D01*
X174861214Y-138648496D02*
X174813595Y-138696115D01*
X174813595Y-138696115D02*
X174718357Y-138743734D01*
X174718357Y-138743734D02*
X174623119Y-138743734D01*
X174623119Y-138743734D02*
X174527881Y-138696115D01*
X174527881Y-138696115D02*
X174480262Y-138648496D01*
X174480262Y-138648496D02*
X174432643Y-138553258D01*
X174432643Y-138553258D02*
X174432643Y-138315163D01*
X174432643Y-138315163D02*
X174480262Y-138172306D01*
X174765976Y-137315163D02*
X175432643Y-137315163D01*
X174765976Y-137743734D02*
X175289785Y-137743734D01*
X175289785Y-137743734D02*
X175385024Y-137696115D01*
X175385024Y-137696115D02*
X175432643Y-137600877D01*
X175432643Y-137600877D02*
X175432643Y-137458020D01*
X175432643Y-137458020D02*
X175385024Y-137362782D01*
X175385024Y-137362782D02*
X175337404Y-137315163D01*
X174765976Y-136838972D02*
X175765976Y-136838972D01*
X174813595Y-136838972D02*
X174765976Y-136743734D01*
X174765976Y-136743734D02*
X174765976Y-136553258D01*
X174765976Y-136553258D02*
X174813595Y-136458020D01*
X174813595Y-136458020D02*
X174861214Y-136410401D01*
X174861214Y-136410401D02*
X174956452Y-136362782D01*
X174956452Y-136362782D02*
X175242166Y-136362782D01*
X175242166Y-136362782D02*
X175337404Y-136410401D01*
X175337404Y-136410401D02*
X175385024Y-136458020D01*
X175385024Y-136458020D02*
X175432643Y-136553258D01*
X175432643Y-136553258D02*
X175432643Y-136743734D01*
X175432643Y-136743734D02*
X175385024Y-136838972D01*
X174765976Y-135934210D02*
X175765976Y-135934210D01*
X174813595Y-135934210D02*
X174765976Y-135838972D01*
X174765976Y-135838972D02*
X174765976Y-135648496D01*
X174765976Y-135648496D02*
X174813595Y-135553258D01*
X174813595Y-135553258D02*
X174861214Y-135505639D01*
X174861214Y-135505639D02*
X174956452Y-135458020D01*
X174956452Y-135458020D02*
X175242166Y-135458020D01*
X175242166Y-135458020D02*
X175337404Y-135505639D01*
X175337404Y-135505639D02*
X175385024Y-135553258D01*
X175385024Y-135553258D02*
X175432643Y-135648496D01*
X175432643Y-135648496D02*
X175432643Y-135838972D01*
X175432643Y-135838972D02*
X175385024Y-135934210D01*
X175432643Y-134886591D02*
X175385024Y-134981829D01*
X175385024Y-134981829D02*
X175289785Y-135029448D01*
X175289785Y-135029448D02*
X174432643Y-135029448D01*
X174765976Y-134600876D02*
X175432643Y-134362781D01*
X174765976Y-134124686D02*
X175432643Y-134362781D01*
X175432643Y-134362781D02*
X175670738Y-134458019D01*
X175670738Y-134458019D02*
X175718357Y-134505638D01*
X175718357Y-134505638D02*
X175765976Y-134600876D01*
X174432643Y-133124685D02*
X175432643Y-132791352D01*
X175432643Y-132791352D02*
X174432643Y-132458019D01*
X175432643Y-131981828D02*
X175385024Y-132077066D01*
X175385024Y-132077066D02*
X175337404Y-132124685D01*
X175337404Y-132124685D02*
X175242166Y-132172304D01*
X175242166Y-132172304D02*
X174956452Y-132172304D01*
X174956452Y-132172304D02*
X174861214Y-132124685D01*
X174861214Y-132124685D02*
X174813595Y-132077066D01*
X174813595Y-132077066D02*
X174765976Y-131981828D01*
X174765976Y-131981828D02*
X174765976Y-131838971D01*
X174765976Y-131838971D02*
X174813595Y-131743733D01*
X174813595Y-131743733D02*
X174861214Y-131696114D01*
X174861214Y-131696114D02*
X174956452Y-131648495D01*
X174956452Y-131648495D02*
X175242166Y-131648495D01*
X175242166Y-131648495D02*
X175337404Y-131696114D01*
X175337404Y-131696114D02*
X175385024Y-131743733D01*
X175385024Y-131743733D02*
X175432643Y-131838971D01*
X175432643Y-131838971D02*
X175432643Y-131981828D01*
X175432643Y-131077066D02*
X175385024Y-131172304D01*
X175385024Y-131172304D02*
X175289785Y-131219923D01*
X175289785Y-131219923D02*
X174432643Y-131219923D01*
X174765976Y-130838970D02*
X174765976Y-130458018D01*
X174432643Y-130696113D02*
X175289785Y-130696113D01*
X175289785Y-130696113D02*
X175385024Y-130648494D01*
X175385024Y-130648494D02*
X175432643Y-130553256D01*
X175432643Y-130553256D02*
X175432643Y-130458018D01*
X175432643Y-129696113D02*
X174908833Y-129696113D01*
X174908833Y-129696113D02*
X174813595Y-129743732D01*
X174813595Y-129743732D02*
X174765976Y-129838970D01*
X174765976Y-129838970D02*
X174765976Y-130029446D01*
X174765976Y-130029446D02*
X174813595Y-130124684D01*
X175385024Y-129696113D02*
X175432643Y-129791351D01*
X175432643Y-129791351D02*
X175432643Y-130029446D01*
X175432643Y-130029446D02*
X175385024Y-130124684D01*
X175385024Y-130124684D02*
X175289785Y-130172303D01*
X175289785Y-130172303D02*
X175194547Y-130172303D01*
X175194547Y-130172303D02*
X175099309Y-130124684D01*
X175099309Y-130124684D02*
X175051690Y-130029446D01*
X175051690Y-130029446D02*
X175051690Y-129791351D01*
X175051690Y-129791351D02*
X175004071Y-129696113D01*
X174765976Y-128791351D02*
X175575500Y-128791351D01*
X175575500Y-128791351D02*
X175670738Y-128838970D01*
X175670738Y-128838970D02*
X175718357Y-128886589D01*
X175718357Y-128886589D02*
X175765976Y-128981827D01*
X175765976Y-128981827D02*
X175765976Y-129124684D01*
X175765976Y-129124684D02*
X175718357Y-129219922D01*
X175385024Y-128791351D02*
X175432643Y-128886589D01*
X175432643Y-128886589D02*
X175432643Y-129077065D01*
X175432643Y-129077065D02*
X175385024Y-129172303D01*
X175385024Y-129172303D02*
X175337404Y-129219922D01*
X175337404Y-129219922D02*
X175242166Y-129267541D01*
X175242166Y-129267541D02*
X174956452Y-129267541D01*
X174956452Y-129267541D02*
X174861214Y-129219922D01*
X174861214Y-129219922D02*
X174813595Y-129172303D01*
X174813595Y-129172303D02*
X174765976Y-129077065D01*
X174765976Y-129077065D02*
X174765976Y-128886589D01*
X174765976Y-128886589D02*
X174813595Y-128791351D01*
X175385024Y-127934208D02*
X175432643Y-128029446D01*
X175432643Y-128029446D02*
X175432643Y-128219922D01*
X175432643Y-128219922D02*
X175385024Y-128315160D01*
X175385024Y-128315160D02*
X175289785Y-128362779D01*
X175289785Y-128362779D02*
X174908833Y-128362779D01*
X174908833Y-128362779D02*
X174813595Y-128315160D01*
X174813595Y-128315160D02*
X174765976Y-128219922D01*
X174765976Y-128219922D02*
X174765976Y-128029446D01*
X174765976Y-128029446D02*
X174813595Y-127934208D01*
X174813595Y-127934208D02*
X174908833Y-127886589D01*
X174908833Y-127886589D02*
X175004071Y-127886589D01*
X175004071Y-127886589D02*
X175099309Y-128362779D01*
X175337404Y-127458017D02*
X175385024Y-127410398D01*
X175385024Y-127410398D02*
X175432643Y-127458017D01*
X175432643Y-127458017D02*
X175385024Y-127505636D01*
X175385024Y-127505636D02*
X175337404Y-127458017D01*
X175337404Y-127458017D02*
X175432643Y-127458017D01*
X174813595Y-127458017D02*
X174861214Y-127410398D01*
X174861214Y-127410398D02*
X174908833Y-127458017D01*
X174908833Y-127458017D02*
X174861214Y-127505636D01*
X174861214Y-127505636D02*
X174813595Y-127458017D01*
X174813595Y-127458017D02*
X174908833Y-127458017D01*
X174527881Y-126267541D02*
X174480262Y-126219922D01*
X174480262Y-126219922D02*
X174432643Y-126124684D01*
X174432643Y-126124684D02*
X174432643Y-125886589D01*
X174432643Y-125886589D02*
X174480262Y-125791351D01*
X174480262Y-125791351D02*
X174527881Y-125743732D01*
X174527881Y-125743732D02*
X174623119Y-125696113D01*
X174623119Y-125696113D02*
X174718357Y-125696113D01*
X174718357Y-125696113D02*
X174861214Y-125743732D01*
X174861214Y-125743732D02*
X175432643Y-126315160D01*
X175432643Y-126315160D02*
X175432643Y-125696113D01*
X175337404Y-125267541D02*
X175385024Y-125219922D01*
X175385024Y-125219922D02*
X175432643Y-125267541D01*
X175432643Y-125267541D02*
X175385024Y-125315160D01*
X175385024Y-125315160D02*
X175337404Y-125267541D01*
X175337404Y-125267541D02*
X175432643Y-125267541D01*
X174432643Y-124315161D02*
X174432643Y-124791351D01*
X174432643Y-124791351D02*
X174908833Y-124838970D01*
X174908833Y-124838970D02*
X174861214Y-124791351D01*
X174861214Y-124791351D02*
X174813595Y-124696113D01*
X174813595Y-124696113D02*
X174813595Y-124458018D01*
X174813595Y-124458018D02*
X174861214Y-124362780D01*
X174861214Y-124362780D02*
X174908833Y-124315161D01*
X174908833Y-124315161D02*
X175004071Y-124267542D01*
X175004071Y-124267542D02*
X175242166Y-124267542D01*
X175242166Y-124267542D02*
X175337404Y-124315161D01*
X175337404Y-124315161D02*
X175385024Y-124362780D01*
X175385024Y-124362780D02*
X175432643Y-124458018D01*
X175432643Y-124458018D02*
X175432643Y-124696113D01*
X175432643Y-124696113D02*
X175385024Y-124791351D01*
X175385024Y-124791351D02*
X175337404Y-124838970D01*
X174432643Y-123219922D02*
X175432643Y-122886589D01*
X175432643Y-122886589D02*
X174432643Y-122553256D01*
X174765976Y-121600874D02*
X174765976Y-121219922D01*
X174432643Y-121458017D02*
X175289785Y-121458017D01*
X175289785Y-121458017D02*
X175385024Y-121410398D01*
X175385024Y-121410398D02*
X175432643Y-121315160D01*
X175432643Y-121315160D02*
X175432643Y-121219922D01*
X175432643Y-120743731D02*
X175385024Y-120838969D01*
X175385024Y-120838969D02*
X175337404Y-120886588D01*
X175337404Y-120886588D02*
X175242166Y-120934207D01*
X175242166Y-120934207D02*
X174956452Y-120934207D01*
X174956452Y-120934207D02*
X174861214Y-120886588D01*
X174861214Y-120886588D02*
X174813595Y-120838969D01*
X174813595Y-120838969D02*
X174765976Y-120743731D01*
X174765976Y-120743731D02*
X174765976Y-120600874D01*
X174765976Y-120600874D02*
X174813595Y-120505636D01*
X174813595Y-120505636D02*
X174861214Y-120458017D01*
X174861214Y-120458017D02*
X174956452Y-120410398D01*
X174956452Y-120410398D02*
X175242166Y-120410398D01*
X175242166Y-120410398D02*
X175337404Y-120458017D01*
X175337404Y-120458017D02*
X175385024Y-120505636D01*
X175385024Y-120505636D02*
X175432643Y-120600874D01*
X175432643Y-120600874D02*
X175432643Y-120743731D01*
X174432643Y-118743731D02*
X174432643Y-119219921D01*
X174432643Y-119219921D02*
X174908833Y-119267540D01*
X174908833Y-119267540D02*
X174861214Y-119219921D01*
X174861214Y-119219921D02*
X174813595Y-119124683D01*
X174813595Y-119124683D02*
X174813595Y-118886588D01*
X174813595Y-118886588D02*
X174861214Y-118791350D01*
X174861214Y-118791350D02*
X174908833Y-118743731D01*
X174908833Y-118743731D02*
X175004071Y-118696112D01*
X175004071Y-118696112D02*
X175242166Y-118696112D01*
X175242166Y-118696112D02*
X175337404Y-118743731D01*
X175337404Y-118743731D02*
X175385024Y-118791350D01*
X175385024Y-118791350D02*
X175432643Y-118886588D01*
X175432643Y-118886588D02*
X175432643Y-119124683D01*
X175432643Y-119124683D02*
X175385024Y-119219921D01*
X175385024Y-119219921D02*
X175337404Y-119267540D01*
X175337404Y-118267540D02*
X175385024Y-118219921D01*
X175385024Y-118219921D02*
X175432643Y-118267540D01*
X175432643Y-118267540D02*
X175385024Y-118315159D01*
X175385024Y-118315159D02*
X175337404Y-118267540D01*
X175337404Y-118267540D02*
X175432643Y-118267540D01*
X174432643Y-117315160D02*
X174432643Y-117791350D01*
X174432643Y-117791350D02*
X174908833Y-117838969D01*
X174908833Y-117838969D02*
X174861214Y-117791350D01*
X174861214Y-117791350D02*
X174813595Y-117696112D01*
X174813595Y-117696112D02*
X174813595Y-117458017D01*
X174813595Y-117458017D02*
X174861214Y-117362779D01*
X174861214Y-117362779D02*
X174908833Y-117315160D01*
X174908833Y-117315160D02*
X175004071Y-117267541D01*
X175004071Y-117267541D02*
X175242166Y-117267541D01*
X175242166Y-117267541D02*
X175337404Y-117315160D01*
X175337404Y-117315160D02*
X175385024Y-117362779D01*
X175385024Y-117362779D02*
X175432643Y-117458017D01*
X175432643Y-117458017D02*
X175432643Y-117696112D01*
X175432643Y-117696112D02*
X175385024Y-117791350D01*
X175385024Y-117791350D02*
X175337404Y-117838969D01*
X174432643Y-116219921D02*
X175432643Y-115886588D01*
X175432643Y-115886588D02*
X174432643Y-115553255D01*
X176518777Y-138362782D02*
X176566396Y-138219925D01*
X176566396Y-138219925D02*
X176614015Y-138172306D01*
X176614015Y-138172306D02*
X176709253Y-138124687D01*
X176709253Y-138124687D02*
X176852110Y-138124687D01*
X176852110Y-138124687D02*
X176947348Y-138172306D01*
X176947348Y-138172306D02*
X176994968Y-138219925D01*
X176994968Y-138219925D02*
X177042587Y-138315163D01*
X177042587Y-138315163D02*
X177042587Y-138696115D01*
X177042587Y-138696115D02*
X176042587Y-138696115D01*
X176042587Y-138696115D02*
X176042587Y-138362782D01*
X176042587Y-138362782D02*
X176090206Y-138267544D01*
X176090206Y-138267544D02*
X176137825Y-138219925D01*
X176137825Y-138219925D02*
X176233063Y-138172306D01*
X176233063Y-138172306D02*
X176328301Y-138172306D01*
X176328301Y-138172306D02*
X176423539Y-138219925D01*
X176423539Y-138219925D02*
X176471158Y-138267544D01*
X176471158Y-138267544D02*
X176518777Y-138362782D01*
X176518777Y-138362782D02*
X176518777Y-138696115D01*
X177042587Y-137267544D02*
X176518777Y-137267544D01*
X176518777Y-137267544D02*
X176423539Y-137315163D01*
X176423539Y-137315163D02*
X176375920Y-137410401D01*
X176375920Y-137410401D02*
X176375920Y-137600877D01*
X176375920Y-137600877D02*
X176423539Y-137696115D01*
X176994968Y-137267544D02*
X177042587Y-137362782D01*
X177042587Y-137362782D02*
X177042587Y-137600877D01*
X177042587Y-137600877D02*
X176994968Y-137696115D01*
X176994968Y-137696115D02*
X176899729Y-137743734D01*
X176899729Y-137743734D02*
X176804491Y-137743734D01*
X176804491Y-137743734D02*
X176709253Y-137696115D01*
X176709253Y-137696115D02*
X176661634Y-137600877D01*
X176661634Y-137600877D02*
X176661634Y-137362782D01*
X176661634Y-137362782D02*
X176614015Y-137267544D01*
X176375920Y-136791353D02*
X177042587Y-136791353D01*
X176471158Y-136791353D02*
X176423539Y-136743734D01*
X176423539Y-136743734D02*
X176375920Y-136648496D01*
X176375920Y-136648496D02*
X176375920Y-136505639D01*
X176375920Y-136505639D02*
X176423539Y-136410401D01*
X176423539Y-136410401D02*
X176518777Y-136362782D01*
X176518777Y-136362782D02*
X177042587Y-136362782D01*
X177042587Y-135458020D02*
X176042587Y-135458020D01*
X176994968Y-135458020D02*
X177042587Y-135553258D01*
X177042587Y-135553258D02*
X177042587Y-135743734D01*
X177042587Y-135743734D02*
X176994968Y-135838972D01*
X176994968Y-135838972D02*
X176947348Y-135886591D01*
X176947348Y-135886591D02*
X176852110Y-135934210D01*
X176852110Y-135934210D02*
X176566396Y-135934210D01*
X176566396Y-135934210D02*
X176471158Y-135886591D01*
X176471158Y-135886591D02*
X176423539Y-135838972D01*
X176423539Y-135838972D02*
X176375920Y-135743734D01*
X176375920Y-135743734D02*
X176375920Y-135553258D01*
X176375920Y-135553258D02*
X176423539Y-135458020D01*
X176375920Y-135077067D02*
X177042587Y-134886591D01*
X177042587Y-134886591D02*
X176566396Y-134696115D01*
X176566396Y-134696115D02*
X177042587Y-134505639D01*
X177042587Y-134505639D02*
X176375920Y-134315163D01*
X177042587Y-133934210D02*
X176375920Y-133934210D01*
X176042587Y-133934210D02*
X176090206Y-133981829D01*
X176090206Y-133981829D02*
X176137825Y-133934210D01*
X176137825Y-133934210D02*
X176090206Y-133886591D01*
X176090206Y-133886591D02*
X176042587Y-133934210D01*
X176042587Y-133934210D02*
X176137825Y-133934210D01*
X177042587Y-133029449D02*
X176042587Y-133029449D01*
X176994968Y-133029449D02*
X177042587Y-133124687D01*
X177042587Y-133124687D02*
X177042587Y-133315163D01*
X177042587Y-133315163D02*
X176994968Y-133410401D01*
X176994968Y-133410401D02*
X176947348Y-133458020D01*
X176947348Y-133458020D02*
X176852110Y-133505639D01*
X176852110Y-133505639D02*
X176566396Y-133505639D01*
X176566396Y-133505639D02*
X176471158Y-133458020D01*
X176471158Y-133458020D02*
X176423539Y-133410401D01*
X176423539Y-133410401D02*
X176375920Y-133315163D01*
X176375920Y-133315163D02*
X176375920Y-133124687D01*
X176375920Y-133124687D02*
X176423539Y-133029449D01*
X176375920Y-132696115D02*
X176375920Y-132315163D01*
X176042587Y-132553258D02*
X176899729Y-132553258D01*
X176899729Y-132553258D02*
X176994968Y-132505639D01*
X176994968Y-132505639D02*
X177042587Y-132410401D01*
X177042587Y-132410401D02*
X177042587Y-132315163D01*
X177042587Y-131981829D02*
X176042587Y-131981829D01*
X177042587Y-131553258D02*
X176518777Y-131553258D01*
X176518777Y-131553258D02*
X176423539Y-131600877D01*
X176423539Y-131600877D02*
X176375920Y-131696115D01*
X176375920Y-131696115D02*
X176375920Y-131838972D01*
X176375920Y-131838972D02*
X176423539Y-131934210D01*
X176423539Y-131934210D02*
X176471158Y-131981829D01*
X176947348Y-131077067D02*
X176994968Y-131029448D01*
X176994968Y-131029448D02*
X177042587Y-131077067D01*
X177042587Y-131077067D02*
X176994968Y-131124686D01*
X176994968Y-131124686D02*
X176947348Y-131077067D01*
X176947348Y-131077067D02*
X177042587Y-131077067D01*
X176423539Y-131077067D02*
X176471158Y-131029448D01*
X176471158Y-131029448D02*
X176518777Y-131077067D01*
X176518777Y-131077067D02*
X176471158Y-131124686D01*
X176471158Y-131124686D02*
X176423539Y-131077067D01*
X176423539Y-131077067D02*
X176518777Y-131077067D01*
X176137825Y-129886591D02*
X176090206Y-129838972D01*
X176090206Y-129838972D02*
X176042587Y-129743734D01*
X176042587Y-129743734D02*
X176042587Y-129505639D01*
X176042587Y-129505639D02*
X176090206Y-129410401D01*
X176090206Y-129410401D02*
X176137825Y-129362782D01*
X176137825Y-129362782D02*
X176233063Y-129315163D01*
X176233063Y-129315163D02*
X176328301Y-129315163D01*
X176328301Y-129315163D02*
X176471158Y-129362782D01*
X176471158Y-129362782D02*
X177042587Y-129934210D01*
X177042587Y-129934210D02*
X177042587Y-129315163D01*
X176042587Y-128696115D02*
X176042587Y-128600877D01*
X176042587Y-128600877D02*
X176090206Y-128505639D01*
X176090206Y-128505639D02*
X176137825Y-128458020D01*
X176137825Y-128458020D02*
X176233063Y-128410401D01*
X176233063Y-128410401D02*
X176423539Y-128362782D01*
X176423539Y-128362782D02*
X176661634Y-128362782D01*
X176661634Y-128362782D02*
X176852110Y-128410401D01*
X176852110Y-128410401D02*
X176947348Y-128458020D01*
X176947348Y-128458020D02*
X176994968Y-128505639D01*
X176994968Y-128505639D02*
X177042587Y-128600877D01*
X177042587Y-128600877D02*
X177042587Y-128696115D01*
X177042587Y-128696115D02*
X176994968Y-128791353D01*
X176994968Y-128791353D02*
X176947348Y-128838972D01*
X176947348Y-128838972D02*
X176852110Y-128886591D01*
X176852110Y-128886591D02*
X176661634Y-128934210D01*
X176661634Y-128934210D02*
X176423539Y-128934210D01*
X176423539Y-128934210D02*
X176233063Y-128886591D01*
X176233063Y-128886591D02*
X176137825Y-128838972D01*
X176137825Y-128838972D02*
X176090206Y-128791353D01*
X176090206Y-128791353D02*
X176042587Y-128696115D01*
X176042587Y-127458020D02*
X176042587Y-127934210D01*
X176042587Y-127934210D02*
X176518777Y-127981829D01*
X176518777Y-127981829D02*
X176471158Y-127934210D01*
X176471158Y-127934210D02*
X176423539Y-127838972D01*
X176423539Y-127838972D02*
X176423539Y-127600877D01*
X176423539Y-127600877D02*
X176471158Y-127505639D01*
X176471158Y-127505639D02*
X176518777Y-127458020D01*
X176518777Y-127458020D02*
X176614015Y-127410401D01*
X176614015Y-127410401D02*
X176852110Y-127410401D01*
X176852110Y-127410401D02*
X176947348Y-127458020D01*
X176947348Y-127458020D02*
X176994968Y-127505639D01*
X176994968Y-127505639D02*
X177042587Y-127600877D01*
X177042587Y-127600877D02*
X177042587Y-127838972D01*
X177042587Y-127838972D02*
X176994968Y-127934210D01*
X176994968Y-127934210D02*
X176947348Y-127981829D01*
X177042587Y-126219924D02*
X176042587Y-126219924D01*
X176042587Y-126219924D02*
X176756872Y-125886591D01*
X176756872Y-125886591D02*
X176042587Y-125553258D01*
X176042587Y-125553258D02*
X177042587Y-125553258D01*
X177042587Y-125077067D02*
X176042587Y-125077067D01*
X176518777Y-125077067D02*
X176518777Y-124505639D01*
X177042587Y-124505639D02*
X176042587Y-124505639D01*
X176375920Y-124124686D02*
X176375920Y-123600877D01*
X176375920Y-123600877D02*
X177042587Y-124124686D01*
X177042587Y-124124686D02*
X177042587Y-123600877D01*
X178652531Y-138696115D02*
X177652531Y-138696115D01*
X177985864Y-138219925D02*
X178652531Y-138219925D01*
X178081102Y-138219925D02*
X178033483Y-138172306D01*
X178033483Y-138172306D02*
X177985864Y-138077068D01*
X177985864Y-138077068D02*
X177985864Y-137934211D01*
X177985864Y-137934211D02*
X178033483Y-137838973D01*
X178033483Y-137838973D02*
X178128721Y-137791354D01*
X178128721Y-137791354D02*
X178652531Y-137791354D01*
X177985864Y-137315163D02*
X178985864Y-137315163D01*
X178033483Y-137315163D02*
X177985864Y-137219925D01*
X177985864Y-137219925D02*
X177985864Y-137029449D01*
X177985864Y-137029449D02*
X178033483Y-136934211D01*
X178033483Y-136934211D02*
X178081102Y-136886592D01*
X178081102Y-136886592D02*
X178176340Y-136838973D01*
X178176340Y-136838973D02*
X178462054Y-136838973D01*
X178462054Y-136838973D02*
X178557292Y-136886592D01*
X178557292Y-136886592D02*
X178604912Y-136934211D01*
X178604912Y-136934211D02*
X178652531Y-137029449D01*
X178652531Y-137029449D02*
X178652531Y-137219925D01*
X178652531Y-137219925D02*
X178604912Y-137315163D01*
X177985864Y-135981830D02*
X178652531Y-135981830D01*
X177985864Y-136410401D02*
X178509673Y-136410401D01*
X178509673Y-136410401D02*
X178604912Y-136362782D01*
X178604912Y-136362782D02*
X178652531Y-136267544D01*
X178652531Y-136267544D02*
X178652531Y-136124687D01*
X178652531Y-136124687D02*
X178604912Y-136029449D01*
X178604912Y-136029449D02*
X178557292Y-135981830D01*
X177985864Y-135648496D02*
X177985864Y-135267544D01*
X177652531Y-135505639D02*
X178509673Y-135505639D01*
X178509673Y-135505639D02*
X178604912Y-135458020D01*
X178604912Y-135458020D02*
X178652531Y-135362782D01*
X178652531Y-135362782D02*
X178652531Y-135267544D01*
X177652531Y-134315162D02*
X178652531Y-133981829D01*
X178652531Y-133981829D02*
X177652531Y-133648496D01*
X178652531Y-133172305D02*
X178604912Y-133267543D01*
X178604912Y-133267543D02*
X178557292Y-133315162D01*
X178557292Y-133315162D02*
X178462054Y-133362781D01*
X178462054Y-133362781D02*
X178176340Y-133362781D01*
X178176340Y-133362781D02*
X178081102Y-133315162D01*
X178081102Y-133315162D02*
X178033483Y-133267543D01*
X178033483Y-133267543D02*
X177985864Y-133172305D01*
X177985864Y-133172305D02*
X177985864Y-133029448D01*
X177985864Y-133029448D02*
X178033483Y-132934210D01*
X178033483Y-132934210D02*
X178081102Y-132886591D01*
X178081102Y-132886591D02*
X178176340Y-132838972D01*
X178176340Y-132838972D02*
X178462054Y-132838972D01*
X178462054Y-132838972D02*
X178557292Y-132886591D01*
X178557292Y-132886591D02*
X178604912Y-132934210D01*
X178604912Y-132934210D02*
X178652531Y-133029448D01*
X178652531Y-133029448D02*
X178652531Y-133172305D01*
X178652531Y-132267543D02*
X178604912Y-132362781D01*
X178604912Y-132362781D02*
X178509673Y-132410400D01*
X178509673Y-132410400D02*
X177652531Y-132410400D01*
X177985864Y-132029447D02*
X177985864Y-131648495D01*
X177652531Y-131886590D02*
X178509673Y-131886590D01*
X178509673Y-131886590D02*
X178604912Y-131838971D01*
X178604912Y-131838971D02*
X178652531Y-131743733D01*
X178652531Y-131743733D02*
X178652531Y-131648495D01*
X178652531Y-130886590D02*
X178128721Y-130886590D01*
X178128721Y-130886590D02*
X178033483Y-130934209D01*
X178033483Y-130934209D02*
X177985864Y-131029447D01*
X177985864Y-131029447D02*
X177985864Y-131219923D01*
X177985864Y-131219923D02*
X178033483Y-131315161D01*
X178604912Y-130886590D02*
X178652531Y-130981828D01*
X178652531Y-130981828D02*
X178652531Y-131219923D01*
X178652531Y-131219923D02*
X178604912Y-131315161D01*
X178604912Y-131315161D02*
X178509673Y-131362780D01*
X178509673Y-131362780D02*
X178414435Y-131362780D01*
X178414435Y-131362780D02*
X178319197Y-131315161D01*
X178319197Y-131315161D02*
X178271578Y-131219923D01*
X178271578Y-131219923D02*
X178271578Y-130981828D01*
X178271578Y-130981828D02*
X178223959Y-130886590D01*
X177985864Y-129981828D02*
X178795388Y-129981828D01*
X178795388Y-129981828D02*
X178890626Y-130029447D01*
X178890626Y-130029447D02*
X178938245Y-130077066D01*
X178938245Y-130077066D02*
X178985864Y-130172304D01*
X178985864Y-130172304D02*
X178985864Y-130315161D01*
X178985864Y-130315161D02*
X178938245Y-130410399D01*
X178604912Y-129981828D02*
X178652531Y-130077066D01*
X178652531Y-130077066D02*
X178652531Y-130267542D01*
X178652531Y-130267542D02*
X178604912Y-130362780D01*
X178604912Y-130362780D02*
X178557292Y-130410399D01*
X178557292Y-130410399D02*
X178462054Y-130458018D01*
X178462054Y-130458018D02*
X178176340Y-130458018D01*
X178176340Y-130458018D02*
X178081102Y-130410399D01*
X178081102Y-130410399D02*
X178033483Y-130362780D01*
X178033483Y-130362780D02*
X177985864Y-130267542D01*
X177985864Y-130267542D02*
X177985864Y-130077066D01*
X177985864Y-130077066D02*
X178033483Y-129981828D01*
X178604912Y-129124685D02*
X178652531Y-129219923D01*
X178652531Y-129219923D02*
X178652531Y-129410399D01*
X178652531Y-129410399D02*
X178604912Y-129505637D01*
X178604912Y-129505637D02*
X178509673Y-129553256D01*
X178509673Y-129553256D02*
X178128721Y-129553256D01*
X178128721Y-129553256D02*
X178033483Y-129505637D01*
X178033483Y-129505637D02*
X177985864Y-129410399D01*
X177985864Y-129410399D02*
X177985864Y-129219923D01*
X177985864Y-129219923D02*
X178033483Y-129124685D01*
X178033483Y-129124685D02*
X178128721Y-129077066D01*
X178128721Y-129077066D02*
X178223959Y-129077066D01*
X178223959Y-129077066D02*
X178319197Y-129553256D01*
X178652531Y-127886589D02*
X177652531Y-127886589D01*
X177652531Y-127886589D02*
X178652531Y-127315161D01*
X178652531Y-127315161D02*
X177652531Y-127315161D01*
X178652531Y-126696113D02*
X178604912Y-126791351D01*
X178604912Y-126791351D02*
X178557292Y-126838970D01*
X178557292Y-126838970D02*
X178462054Y-126886589D01*
X178462054Y-126886589D02*
X178176340Y-126886589D01*
X178176340Y-126886589D02*
X178081102Y-126838970D01*
X178081102Y-126838970D02*
X178033483Y-126791351D01*
X178033483Y-126791351D02*
X177985864Y-126696113D01*
X177985864Y-126696113D02*
X177985864Y-126553256D01*
X177985864Y-126553256D02*
X178033483Y-126458018D01*
X178033483Y-126458018D02*
X178081102Y-126410399D01*
X178081102Y-126410399D02*
X178176340Y-126362780D01*
X178176340Y-126362780D02*
X178462054Y-126362780D01*
X178462054Y-126362780D02*
X178557292Y-126410399D01*
X178557292Y-126410399D02*
X178604912Y-126458018D01*
X178604912Y-126458018D02*
X178652531Y-126553256D01*
X178652531Y-126553256D02*
X178652531Y-126696113D01*
X178652531Y-125934208D02*
X177985864Y-125934208D01*
X177652531Y-125934208D02*
X177700150Y-125981827D01*
X177700150Y-125981827D02*
X177747769Y-125934208D01*
X177747769Y-125934208D02*
X177700150Y-125886589D01*
X177700150Y-125886589D02*
X177652531Y-125934208D01*
X177652531Y-125934208D02*
X177747769Y-125934208D01*
X178604912Y-125505637D02*
X178652531Y-125410399D01*
X178652531Y-125410399D02*
X178652531Y-125219923D01*
X178652531Y-125219923D02*
X178604912Y-125124685D01*
X178604912Y-125124685D02*
X178509673Y-125077066D01*
X178509673Y-125077066D02*
X178462054Y-125077066D01*
X178462054Y-125077066D02*
X178366816Y-125124685D01*
X178366816Y-125124685D02*
X178319197Y-125219923D01*
X178319197Y-125219923D02*
X178319197Y-125362780D01*
X178319197Y-125362780D02*
X178271578Y-125458018D01*
X178271578Y-125458018D02*
X178176340Y-125505637D01*
X178176340Y-125505637D02*
X178128721Y-125505637D01*
X178128721Y-125505637D02*
X178033483Y-125458018D01*
X178033483Y-125458018D02*
X177985864Y-125362780D01*
X177985864Y-125362780D02*
X177985864Y-125219923D01*
X177985864Y-125219923D02*
X178033483Y-125124685D01*
X178604912Y-124267542D02*
X178652531Y-124362780D01*
X178652531Y-124362780D02*
X178652531Y-124553256D01*
X178652531Y-124553256D02*
X178604912Y-124648494D01*
X178604912Y-124648494D02*
X178509673Y-124696113D01*
X178509673Y-124696113D02*
X178128721Y-124696113D01*
X178128721Y-124696113D02*
X178033483Y-124648494D01*
X178033483Y-124648494D02*
X177985864Y-124553256D01*
X177985864Y-124553256D02*
X177985864Y-124362780D01*
X177985864Y-124362780D02*
X178033483Y-124267542D01*
X178033483Y-124267542D02*
X178128721Y-124219923D01*
X178128721Y-124219923D02*
X178223959Y-124219923D01*
X178223959Y-124219923D02*
X178319197Y-124696113D01*
X178557292Y-123791351D02*
X178604912Y-123743732D01*
X178604912Y-123743732D02*
X178652531Y-123791351D01*
X178652531Y-123791351D02*
X178604912Y-123838970D01*
X178604912Y-123838970D02*
X178557292Y-123791351D01*
X178557292Y-123791351D02*
X178652531Y-123791351D01*
X178033483Y-123791351D02*
X178081102Y-123743732D01*
X178081102Y-123743732D02*
X178128721Y-123791351D01*
X178128721Y-123791351D02*
X178081102Y-123838970D01*
X178081102Y-123838970D02*
X178033483Y-123791351D01*
X178033483Y-123791351D02*
X178128721Y-123791351D01*
X177985864Y-122124685D02*
X178652531Y-122124685D01*
X177604912Y-122362780D02*
X178319197Y-122600875D01*
X178319197Y-122600875D02*
X178319197Y-121981828D01*
X178557292Y-121600875D02*
X178604912Y-121553256D01*
X178604912Y-121553256D02*
X178652531Y-121600875D01*
X178652531Y-121600875D02*
X178604912Y-121648494D01*
X178604912Y-121648494D02*
X178557292Y-121600875D01*
X178557292Y-121600875D02*
X178652531Y-121600875D01*
X177652531Y-120696114D02*
X177652531Y-120886590D01*
X177652531Y-120886590D02*
X177700150Y-120981828D01*
X177700150Y-120981828D02*
X177747769Y-121029447D01*
X177747769Y-121029447D02*
X177890626Y-121124685D01*
X177890626Y-121124685D02*
X178081102Y-121172304D01*
X178081102Y-121172304D02*
X178462054Y-121172304D01*
X178462054Y-121172304D02*
X178557292Y-121124685D01*
X178557292Y-121124685D02*
X178604912Y-121077066D01*
X178604912Y-121077066D02*
X178652531Y-120981828D01*
X178652531Y-120981828D02*
X178652531Y-120791352D01*
X178652531Y-120791352D02*
X178604912Y-120696114D01*
X178604912Y-120696114D02*
X178557292Y-120648495D01*
X178557292Y-120648495D02*
X178462054Y-120600876D01*
X178462054Y-120600876D02*
X178223959Y-120600876D01*
X178223959Y-120600876D02*
X178128721Y-120648495D01*
X178128721Y-120648495D02*
X178081102Y-120696114D01*
X178081102Y-120696114D02*
X178033483Y-120791352D01*
X178033483Y-120791352D02*
X178033483Y-120981828D01*
X178033483Y-120981828D02*
X178081102Y-121077066D01*
X178081102Y-121077066D02*
X178128721Y-121124685D01*
X178128721Y-121124685D02*
X178223959Y-121172304D01*
X177985864Y-119410399D02*
X178652531Y-119410399D01*
X178081102Y-119410399D02*
X178033483Y-119362780D01*
X178033483Y-119362780D02*
X177985864Y-119267542D01*
X177985864Y-119267542D02*
X177985864Y-119124685D01*
X177985864Y-119124685D02*
X178033483Y-119029447D01*
X178033483Y-119029447D02*
X178128721Y-118981828D01*
X178128721Y-118981828D02*
X178652531Y-118981828D01*
X177652531Y-118648494D02*
X178652531Y-118315161D01*
X178652531Y-118315161D02*
X177652531Y-117981828D01*
X177604912Y-116934209D02*
X178890626Y-117791351D01*
X178319197Y-116648494D02*
X178271578Y-116458018D01*
X178271578Y-116458018D02*
X178652531Y-116362780D01*
X178652531Y-116362780D02*
X177462054Y-115648494D01*
X178652531Y-114648494D02*
X177652531Y-114648494D01*
X178128721Y-114648494D02*
X178128721Y-114077066D01*
X178652531Y-114077066D02*
X177652531Y-114077066D01*
X177985864Y-113696113D02*
X177985864Y-113172304D01*
X177985864Y-113172304D02*
X178652531Y-113696113D01*
X178652531Y-113696113D02*
X178652531Y-113172304D01*
X180262475Y-138696115D02*
X179262475Y-138696115D01*
X179595808Y-138219925D02*
X180262475Y-138219925D01*
X179691046Y-138219925D02*
X179643427Y-138172306D01*
X179643427Y-138172306D02*
X179595808Y-138077068D01*
X179595808Y-138077068D02*
X179595808Y-137934211D01*
X179595808Y-137934211D02*
X179643427Y-137838973D01*
X179643427Y-137838973D02*
X179738665Y-137791354D01*
X179738665Y-137791354D02*
X180262475Y-137791354D01*
X179595808Y-137315163D02*
X180595808Y-137315163D01*
X179643427Y-137315163D02*
X179595808Y-137219925D01*
X179595808Y-137219925D02*
X179595808Y-137029449D01*
X179595808Y-137029449D02*
X179643427Y-136934211D01*
X179643427Y-136934211D02*
X179691046Y-136886592D01*
X179691046Y-136886592D02*
X179786284Y-136838973D01*
X179786284Y-136838973D02*
X180071998Y-136838973D01*
X180071998Y-136838973D02*
X180167236Y-136886592D01*
X180167236Y-136886592D02*
X180214856Y-136934211D01*
X180214856Y-136934211D02*
X180262475Y-137029449D01*
X180262475Y-137029449D02*
X180262475Y-137219925D01*
X180262475Y-137219925D02*
X180214856Y-137315163D01*
X179595808Y-135981830D02*
X180262475Y-135981830D01*
X179595808Y-136410401D02*
X180119617Y-136410401D01*
X180119617Y-136410401D02*
X180214856Y-136362782D01*
X180214856Y-136362782D02*
X180262475Y-136267544D01*
X180262475Y-136267544D02*
X180262475Y-136124687D01*
X180262475Y-136124687D02*
X180214856Y-136029449D01*
X180214856Y-136029449D02*
X180167236Y-135981830D01*
X179595808Y-135648496D02*
X179595808Y-135267544D01*
X179262475Y-135505639D02*
X180119617Y-135505639D01*
X180119617Y-135505639D02*
X180214856Y-135458020D01*
X180214856Y-135458020D02*
X180262475Y-135362782D01*
X180262475Y-135362782D02*
X180262475Y-135267544D01*
X179262475Y-134315162D02*
X180262475Y-133981829D01*
X180262475Y-133981829D02*
X179262475Y-133648496D01*
X180262475Y-133172305D02*
X180214856Y-133267543D01*
X180214856Y-133267543D02*
X180167236Y-133315162D01*
X180167236Y-133315162D02*
X180071998Y-133362781D01*
X180071998Y-133362781D02*
X179786284Y-133362781D01*
X179786284Y-133362781D02*
X179691046Y-133315162D01*
X179691046Y-133315162D02*
X179643427Y-133267543D01*
X179643427Y-133267543D02*
X179595808Y-133172305D01*
X179595808Y-133172305D02*
X179595808Y-133029448D01*
X179595808Y-133029448D02*
X179643427Y-132934210D01*
X179643427Y-132934210D02*
X179691046Y-132886591D01*
X179691046Y-132886591D02*
X179786284Y-132838972D01*
X179786284Y-132838972D02*
X180071998Y-132838972D01*
X180071998Y-132838972D02*
X180167236Y-132886591D01*
X180167236Y-132886591D02*
X180214856Y-132934210D01*
X180214856Y-132934210D02*
X180262475Y-133029448D01*
X180262475Y-133029448D02*
X180262475Y-133172305D01*
X180262475Y-132267543D02*
X180214856Y-132362781D01*
X180214856Y-132362781D02*
X180119617Y-132410400D01*
X180119617Y-132410400D02*
X179262475Y-132410400D01*
X179595808Y-132029447D02*
X179595808Y-131648495D01*
X179262475Y-131886590D02*
X180119617Y-131886590D01*
X180119617Y-131886590D02*
X180214856Y-131838971D01*
X180214856Y-131838971D02*
X180262475Y-131743733D01*
X180262475Y-131743733D02*
X180262475Y-131648495D01*
X180262475Y-130886590D02*
X179738665Y-130886590D01*
X179738665Y-130886590D02*
X179643427Y-130934209D01*
X179643427Y-130934209D02*
X179595808Y-131029447D01*
X179595808Y-131029447D02*
X179595808Y-131219923D01*
X179595808Y-131219923D02*
X179643427Y-131315161D01*
X180214856Y-130886590D02*
X180262475Y-130981828D01*
X180262475Y-130981828D02*
X180262475Y-131219923D01*
X180262475Y-131219923D02*
X180214856Y-131315161D01*
X180214856Y-131315161D02*
X180119617Y-131362780D01*
X180119617Y-131362780D02*
X180024379Y-131362780D01*
X180024379Y-131362780D02*
X179929141Y-131315161D01*
X179929141Y-131315161D02*
X179881522Y-131219923D01*
X179881522Y-131219923D02*
X179881522Y-130981828D01*
X179881522Y-130981828D02*
X179833903Y-130886590D01*
X179595808Y-129981828D02*
X180405332Y-129981828D01*
X180405332Y-129981828D02*
X180500570Y-130029447D01*
X180500570Y-130029447D02*
X180548189Y-130077066D01*
X180548189Y-130077066D02*
X180595808Y-130172304D01*
X180595808Y-130172304D02*
X180595808Y-130315161D01*
X180595808Y-130315161D02*
X180548189Y-130410399D01*
X180214856Y-129981828D02*
X180262475Y-130077066D01*
X180262475Y-130077066D02*
X180262475Y-130267542D01*
X180262475Y-130267542D02*
X180214856Y-130362780D01*
X180214856Y-130362780D02*
X180167236Y-130410399D01*
X180167236Y-130410399D02*
X180071998Y-130458018D01*
X180071998Y-130458018D02*
X179786284Y-130458018D01*
X179786284Y-130458018D02*
X179691046Y-130410399D01*
X179691046Y-130410399D02*
X179643427Y-130362780D01*
X179643427Y-130362780D02*
X179595808Y-130267542D01*
X179595808Y-130267542D02*
X179595808Y-130077066D01*
X179595808Y-130077066D02*
X179643427Y-129981828D01*
X180214856Y-129124685D02*
X180262475Y-129219923D01*
X180262475Y-129219923D02*
X180262475Y-129410399D01*
X180262475Y-129410399D02*
X180214856Y-129505637D01*
X180214856Y-129505637D02*
X180119617Y-129553256D01*
X180119617Y-129553256D02*
X179738665Y-129553256D01*
X179738665Y-129553256D02*
X179643427Y-129505637D01*
X179643427Y-129505637D02*
X179595808Y-129410399D01*
X179595808Y-129410399D02*
X179595808Y-129219923D01*
X179595808Y-129219923D02*
X179643427Y-129124685D01*
X179643427Y-129124685D02*
X179738665Y-129077066D01*
X179738665Y-129077066D02*
X179833903Y-129077066D01*
X179833903Y-129077066D02*
X179929141Y-129553256D01*
X180262475Y-127315161D02*
X179786284Y-127648494D01*
X180262475Y-127886589D02*
X179262475Y-127886589D01*
X179262475Y-127886589D02*
X179262475Y-127505637D01*
X179262475Y-127505637D02*
X179310094Y-127410399D01*
X179310094Y-127410399D02*
X179357713Y-127362780D01*
X179357713Y-127362780D02*
X179452951Y-127315161D01*
X179452951Y-127315161D02*
X179595808Y-127315161D01*
X179595808Y-127315161D02*
X179691046Y-127362780D01*
X179691046Y-127362780D02*
X179738665Y-127410399D01*
X179738665Y-127410399D02*
X179786284Y-127505637D01*
X179786284Y-127505637D02*
X179786284Y-127886589D01*
X180262475Y-126458018D02*
X179738665Y-126458018D01*
X179738665Y-126458018D02*
X179643427Y-126505637D01*
X179643427Y-126505637D02*
X179595808Y-126600875D01*
X179595808Y-126600875D02*
X179595808Y-126791351D01*
X179595808Y-126791351D02*
X179643427Y-126886589D01*
X180214856Y-126458018D02*
X180262475Y-126553256D01*
X180262475Y-126553256D02*
X180262475Y-126791351D01*
X180262475Y-126791351D02*
X180214856Y-126886589D01*
X180214856Y-126886589D02*
X180119617Y-126934208D01*
X180119617Y-126934208D02*
X180024379Y-126934208D01*
X180024379Y-126934208D02*
X179929141Y-126886589D01*
X179929141Y-126886589D02*
X179881522Y-126791351D01*
X179881522Y-126791351D02*
X179881522Y-126553256D01*
X179881522Y-126553256D02*
X179833903Y-126458018D01*
X179595808Y-125981827D02*
X180262475Y-125981827D01*
X179691046Y-125981827D02*
X179643427Y-125934208D01*
X179643427Y-125934208D02*
X179595808Y-125838970D01*
X179595808Y-125838970D02*
X179595808Y-125696113D01*
X179595808Y-125696113D02*
X179643427Y-125600875D01*
X179643427Y-125600875D02*
X179738665Y-125553256D01*
X179738665Y-125553256D02*
X180262475Y-125553256D01*
X179595808Y-124648494D02*
X180405332Y-124648494D01*
X180405332Y-124648494D02*
X180500570Y-124696113D01*
X180500570Y-124696113D02*
X180548189Y-124743732D01*
X180548189Y-124743732D02*
X180595808Y-124838970D01*
X180595808Y-124838970D02*
X180595808Y-124981827D01*
X180595808Y-124981827D02*
X180548189Y-125077065D01*
X180214856Y-124648494D02*
X180262475Y-124743732D01*
X180262475Y-124743732D02*
X180262475Y-124934208D01*
X180262475Y-124934208D02*
X180214856Y-125029446D01*
X180214856Y-125029446D02*
X180167236Y-125077065D01*
X180167236Y-125077065D02*
X180071998Y-125124684D01*
X180071998Y-125124684D02*
X179786284Y-125124684D01*
X179786284Y-125124684D02*
X179691046Y-125077065D01*
X179691046Y-125077065D02*
X179643427Y-125029446D01*
X179643427Y-125029446D02*
X179595808Y-124934208D01*
X179595808Y-124934208D02*
X179595808Y-124743732D01*
X179595808Y-124743732D02*
X179643427Y-124648494D01*
X180214856Y-123791351D02*
X180262475Y-123886589D01*
X180262475Y-123886589D02*
X180262475Y-124077065D01*
X180262475Y-124077065D02*
X180214856Y-124172303D01*
X180214856Y-124172303D02*
X180119617Y-124219922D01*
X180119617Y-124219922D02*
X179738665Y-124219922D01*
X179738665Y-124219922D02*
X179643427Y-124172303D01*
X179643427Y-124172303D02*
X179595808Y-124077065D01*
X179595808Y-124077065D02*
X179595808Y-123886589D01*
X179595808Y-123886589D02*
X179643427Y-123791351D01*
X179643427Y-123791351D02*
X179738665Y-123743732D01*
X179738665Y-123743732D02*
X179833903Y-123743732D01*
X179833903Y-123743732D02*
X179929141Y-124219922D01*
X180167236Y-123315160D02*
X180214856Y-123267541D01*
X180214856Y-123267541D02*
X180262475Y-123315160D01*
X180262475Y-123315160D02*
X180214856Y-123362779D01*
X180214856Y-123362779D02*
X180167236Y-123315160D01*
X180167236Y-123315160D02*
X180262475Y-123315160D01*
X179643427Y-123315160D02*
X179691046Y-123267541D01*
X179691046Y-123267541D02*
X179738665Y-123315160D01*
X179738665Y-123315160D02*
X179691046Y-123362779D01*
X179691046Y-123362779D02*
X179643427Y-123315160D01*
X179643427Y-123315160D02*
X179738665Y-123315160D01*
X179881522Y-122077065D02*
X179881522Y-121315161D01*
X179262475Y-120648494D02*
X179262475Y-120553256D01*
X179262475Y-120553256D02*
X179310094Y-120458018D01*
X179310094Y-120458018D02*
X179357713Y-120410399D01*
X179357713Y-120410399D02*
X179452951Y-120362780D01*
X179452951Y-120362780D02*
X179643427Y-120315161D01*
X179643427Y-120315161D02*
X179881522Y-120315161D01*
X179881522Y-120315161D02*
X180071998Y-120362780D01*
X180071998Y-120362780D02*
X180167236Y-120410399D01*
X180167236Y-120410399D02*
X180214856Y-120458018D01*
X180214856Y-120458018D02*
X180262475Y-120553256D01*
X180262475Y-120553256D02*
X180262475Y-120648494D01*
X180262475Y-120648494D02*
X180214856Y-120743732D01*
X180214856Y-120743732D02*
X180167236Y-120791351D01*
X180167236Y-120791351D02*
X180071998Y-120838970D01*
X180071998Y-120838970D02*
X179881522Y-120886589D01*
X179881522Y-120886589D02*
X179643427Y-120886589D01*
X179643427Y-120886589D02*
X179452951Y-120838970D01*
X179452951Y-120838970D02*
X179357713Y-120791351D01*
X179357713Y-120791351D02*
X179310094Y-120743732D01*
X179310094Y-120743732D02*
X179262475Y-120648494D01*
X180167236Y-119886589D02*
X180214856Y-119838970D01*
X180214856Y-119838970D02*
X180262475Y-119886589D01*
X180262475Y-119886589D02*
X180214856Y-119934208D01*
X180214856Y-119934208D02*
X180167236Y-119886589D01*
X180167236Y-119886589D02*
X180262475Y-119886589D01*
X179357713Y-119458018D02*
X179310094Y-119410399D01*
X179310094Y-119410399D02*
X179262475Y-119315161D01*
X179262475Y-119315161D02*
X179262475Y-119077066D01*
X179262475Y-119077066D02*
X179310094Y-118981828D01*
X179310094Y-118981828D02*
X179357713Y-118934209D01*
X179357713Y-118934209D02*
X179452951Y-118886590D01*
X179452951Y-118886590D02*
X179548189Y-118886590D01*
X179548189Y-118886590D02*
X179691046Y-118934209D01*
X179691046Y-118934209D02*
X180262475Y-119505637D01*
X180262475Y-119505637D02*
X180262475Y-118886590D01*
X179262475Y-117838970D02*
X180262475Y-117505637D01*
X180262475Y-117505637D02*
X179262475Y-117172304D01*
X179595808Y-116219922D02*
X179595808Y-115838970D01*
X179262475Y-116077065D02*
X180119617Y-116077065D01*
X180119617Y-116077065D02*
X180214856Y-116029446D01*
X180214856Y-116029446D02*
X180262475Y-115934208D01*
X180262475Y-115934208D02*
X180262475Y-115838970D01*
X180262475Y-115362779D02*
X180214856Y-115458017D01*
X180214856Y-115458017D02*
X180167236Y-115505636D01*
X180167236Y-115505636D02*
X180071998Y-115553255D01*
X180071998Y-115553255D02*
X179786284Y-115553255D01*
X179786284Y-115553255D02*
X179691046Y-115505636D01*
X179691046Y-115505636D02*
X179643427Y-115458017D01*
X179643427Y-115458017D02*
X179595808Y-115362779D01*
X179595808Y-115362779D02*
X179595808Y-115219922D01*
X179595808Y-115219922D02*
X179643427Y-115124684D01*
X179643427Y-115124684D02*
X179691046Y-115077065D01*
X179691046Y-115077065D02*
X179786284Y-115029446D01*
X179786284Y-115029446D02*
X180071998Y-115029446D01*
X180071998Y-115029446D02*
X180167236Y-115077065D01*
X180167236Y-115077065D02*
X180214856Y-115124684D01*
X180214856Y-115124684D02*
X180262475Y-115219922D01*
X180262475Y-115219922D02*
X180262475Y-115362779D01*
X179881522Y-113838969D02*
X179881522Y-113077065D01*
X180262475Y-113458017D02*
X179500570Y-113458017D01*
X179262475Y-112696112D02*
X179262475Y-112077065D01*
X179262475Y-112077065D02*
X179643427Y-112410398D01*
X179643427Y-112410398D02*
X179643427Y-112267541D01*
X179643427Y-112267541D02*
X179691046Y-112172303D01*
X179691046Y-112172303D02*
X179738665Y-112124684D01*
X179738665Y-112124684D02*
X179833903Y-112077065D01*
X179833903Y-112077065D02*
X180071998Y-112077065D01*
X180071998Y-112077065D02*
X180167236Y-112124684D01*
X180167236Y-112124684D02*
X180214856Y-112172303D01*
X180214856Y-112172303D02*
X180262475Y-112267541D01*
X180262475Y-112267541D02*
X180262475Y-112553255D01*
X180262475Y-112553255D02*
X180214856Y-112648493D01*
X180214856Y-112648493D02*
X180167236Y-112696112D01*
X180167236Y-111648493D02*
X180214856Y-111600874D01*
X180214856Y-111600874D02*
X180262475Y-111648493D01*
X180262475Y-111648493D02*
X180214856Y-111696112D01*
X180214856Y-111696112D02*
X180167236Y-111648493D01*
X180167236Y-111648493D02*
X180262475Y-111648493D01*
X180262475Y-111124684D02*
X180262475Y-110934208D01*
X180262475Y-110934208D02*
X180214856Y-110838970D01*
X180214856Y-110838970D02*
X180167236Y-110791351D01*
X180167236Y-110791351D02*
X180024379Y-110696113D01*
X180024379Y-110696113D02*
X179833903Y-110648494D01*
X179833903Y-110648494D02*
X179452951Y-110648494D01*
X179452951Y-110648494D02*
X179357713Y-110696113D01*
X179357713Y-110696113D02*
X179310094Y-110743732D01*
X179310094Y-110743732D02*
X179262475Y-110838970D01*
X179262475Y-110838970D02*
X179262475Y-111029446D01*
X179262475Y-111029446D02*
X179310094Y-111124684D01*
X179310094Y-111124684D02*
X179357713Y-111172303D01*
X179357713Y-111172303D02*
X179452951Y-111219922D01*
X179452951Y-111219922D02*
X179691046Y-111219922D01*
X179691046Y-111219922D02*
X179786284Y-111172303D01*
X179786284Y-111172303D02*
X179833903Y-111124684D01*
X179833903Y-111124684D02*
X179881522Y-111029446D01*
X179881522Y-111029446D02*
X179881522Y-110838970D01*
X179881522Y-110838970D02*
X179833903Y-110743732D01*
X179833903Y-110743732D02*
X179786284Y-110696113D01*
X179786284Y-110696113D02*
X179691046Y-110648494D01*
X179262475Y-109600874D02*
X180262475Y-109267541D01*
X180262475Y-109267541D02*
X179262475Y-108934208D01*
X182253371Y-118077067D02*
X182205752Y-118124686D01*
X182205752Y-118124686D02*
X182062895Y-118219924D01*
X182062895Y-118219924D02*
X181967657Y-118267543D01*
X181967657Y-118267543D02*
X181824800Y-118315162D01*
X181824800Y-118315162D02*
X181586704Y-118362781D01*
X181586704Y-118362781D02*
X181396228Y-118362781D01*
X181396228Y-118362781D02*
X181158133Y-118315162D01*
X181158133Y-118315162D02*
X181015276Y-118267543D01*
X181015276Y-118267543D02*
X180920038Y-118219924D01*
X180920038Y-118219924D02*
X180777180Y-118124686D01*
X180777180Y-118124686D02*
X180729561Y-118077067D01*
X180872419Y-117219924D02*
X180872419Y-117696114D01*
X180872419Y-117696114D02*
X181348609Y-117743733D01*
X181348609Y-117743733D02*
X181300990Y-117696114D01*
X181300990Y-117696114D02*
X181253371Y-117600876D01*
X181253371Y-117600876D02*
X181253371Y-117362781D01*
X181253371Y-117362781D02*
X181300990Y-117267543D01*
X181300990Y-117267543D02*
X181348609Y-117219924D01*
X181348609Y-117219924D02*
X181443847Y-117172305D01*
X181443847Y-117172305D02*
X181681942Y-117172305D01*
X181681942Y-117172305D02*
X181777180Y-117219924D01*
X181777180Y-117219924D02*
X181824800Y-117267543D01*
X181824800Y-117267543D02*
X181872419Y-117362781D01*
X181872419Y-117362781D02*
X181872419Y-117600876D01*
X181872419Y-117600876D02*
X181824800Y-117696114D01*
X181824800Y-117696114D02*
X181777180Y-117743733D01*
X181491466Y-116743733D02*
X181491466Y-115981829D01*
X180872419Y-115648495D02*
X181872419Y-115315162D01*
X181872419Y-115315162D02*
X180872419Y-114981829D01*
X181824800Y-113934209D02*
X181872419Y-113791352D01*
X181872419Y-113791352D02*
X181872419Y-113553257D01*
X181872419Y-113553257D02*
X181824800Y-113458019D01*
X181824800Y-113458019D02*
X181777180Y-113410400D01*
X181777180Y-113410400D02*
X181681942Y-113362781D01*
X181681942Y-113362781D02*
X181586704Y-113362781D01*
X181586704Y-113362781D02*
X181491466Y-113410400D01*
X181491466Y-113410400D02*
X181443847Y-113458019D01*
X181443847Y-113458019D02*
X181396228Y-113553257D01*
X181396228Y-113553257D02*
X181348609Y-113743733D01*
X181348609Y-113743733D02*
X181300990Y-113838971D01*
X181300990Y-113838971D02*
X181253371Y-113886590D01*
X181253371Y-113886590D02*
X181158133Y-113934209D01*
X181158133Y-113934209D02*
X181062895Y-113934209D01*
X181062895Y-113934209D02*
X180967657Y-113886590D01*
X180967657Y-113886590D02*
X180920038Y-113838971D01*
X180920038Y-113838971D02*
X180872419Y-113743733D01*
X180872419Y-113743733D02*
X180872419Y-113505638D01*
X180872419Y-113505638D02*
X180920038Y-113362781D01*
X181205752Y-112505638D02*
X181872419Y-112505638D01*
X181205752Y-112934209D02*
X181729561Y-112934209D01*
X181729561Y-112934209D02*
X181824800Y-112886590D01*
X181824800Y-112886590D02*
X181872419Y-112791352D01*
X181872419Y-112791352D02*
X181872419Y-112648495D01*
X181872419Y-112648495D02*
X181824800Y-112553257D01*
X181824800Y-112553257D02*
X181777180Y-112505638D01*
X181205752Y-112029447D02*
X182205752Y-112029447D01*
X181253371Y-112029447D02*
X181205752Y-111934209D01*
X181205752Y-111934209D02*
X181205752Y-111743733D01*
X181205752Y-111743733D02*
X181253371Y-111648495D01*
X181253371Y-111648495D02*
X181300990Y-111600876D01*
X181300990Y-111600876D02*
X181396228Y-111553257D01*
X181396228Y-111553257D02*
X181681942Y-111553257D01*
X181681942Y-111553257D02*
X181777180Y-111600876D01*
X181777180Y-111600876D02*
X181824800Y-111648495D01*
X181824800Y-111648495D02*
X181872419Y-111743733D01*
X181872419Y-111743733D02*
X181872419Y-111934209D01*
X181872419Y-111934209D02*
X181824800Y-112029447D01*
X181205752Y-111124685D02*
X182205752Y-111124685D01*
X181253371Y-111124685D02*
X181205752Y-111029447D01*
X181205752Y-111029447D02*
X181205752Y-110838971D01*
X181205752Y-110838971D02*
X181253371Y-110743733D01*
X181253371Y-110743733D02*
X181300990Y-110696114D01*
X181300990Y-110696114D02*
X181396228Y-110648495D01*
X181396228Y-110648495D02*
X181681942Y-110648495D01*
X181681942Y-110648495D02*
X181777180Y-110696114D01*
X181777180Y-110696114D02*
X181824800Y-110743733D01*
X181824800Y-110743733D02*
X181872419Y-110838971D01*
X181872419Y-110838971D02*
X181872419Y-111029447D01*
X181872419Y-111029447D02*
X181824800Y-111124685D01*
X181872419Y-110077066D02*
X181824800Y-110172304D01*
X181824800Y-110172304D02*
X181729561Y-110219923D01*
X181729561Y-110219923D02*
X180872419Y-110219923D01*
X181205752Y-109791351D02*
X181872419Y-109553256D01*
X181205752Y-109315161D02*
X181872419Y-109553256D01*
X181872419Y-109553256D02*
X182110514Y-109648494D01*
X182110514Y-109648494D02*
X182158133Y-109696113D01*
X182158133Y-109696113D02*
X182205752Y-109791351D01*
X182253371Y-109029446D02*
X182205752Y-108981827D01*
X182205752Y-108981827D02*
X182062895Y-108886589D01*
X182062895Y-108886589D02*
X181967657Y-108838970D01*
X181967657Y-108838970D02*
X181824800Y-108791351D01*
X181824800Y-108791351D02*
X181586704Y-108743732D01*
X181586704Y-108743732D02*
X181396228Y-108743732D01*
X181396228Y-108743732D02*
X181158133Y-108791351D01*
X181158133Y-108791351D02*
X181015276Y-108838970D01*
X181015276Y-108838970D02*
X180920038Y-108886589D01*
X180920038Y-108886589D02*
X180777180Y-108981827D01*
X180777180Y-108981827D02*
X180729561Y-109029446D01*
X165372419Y-117338972D02*
X166372419Y-117005639D01*
X166372419Y-117005639D02*
X165372419Y-116672306D01*
X166324800Y-116386591D02*
X166372419Y-116243734D01*
X166372419Y-116243734D02*
X166372419Y-116005639D01*
X166372419Y-116005639D02*
X166324800Y-115910401D01*
X166324800Y-115910401D02*
X166277180Y-115862782D01*
X166277180Y-115862782D02*
X166181942Y-115815163D01*
X166181942Y-115815163D02*
X166086704Y-115815163D01*
X166086704Y-115815163D02*
X165991466Y-115862782D01*
X165991466Y-115862782D02*
X165943847Y-115910401D01*
X165943847Y-115910401D02*
X165896228Y-116005639D01*
X165896228Y-116005639D02*
X165848609Y-116196115D01*
X165848609Y-116196115D02*
X165800990Y-116291353D01*
X165800990Y-116291353D02*
X165753371Y-116338972D01*
X165753371Y-116338972D02*
X165658133Y-116386591D01*
X165658133Y-116386591D02*
X165562895Y-116386591D01*
X165562895Y-116386591D02*
X165467657Y-116338972D01*
X165467657Y-116338972D02*
X165420038Y-116291353D01*
X165420038Y-116291353D02*
X165372419Y-116196115D01*
X165372419Y-116196115D02*
X165372419Y-115958020D01*
X165372419Y-115958020D02*
X165420038Y-115815163D01*
X165991466Y-115386591D02*
X165991466Y-114624687D01*
X166372419Y-115005639D02*
X165610514Y-115005639D01*
X163824800Y-139743734D02*
X163872419Y-139600877D01*
X163872419Y-139600877D02*
X163872419Y-139362782D01*
X163872419Y-139362782D02*
X163824800Y-139267544D01*
X163824800Y-139267544D02*
X163777180Y-139219925D01*
X163777180Y-139219925D02*
X163681942Y-139172306D01*
X163681942Y-139172306D02*
X163586704Y-139172306D01*
X163586704Y-139172306D02*
X163491466Y-139219925D01*
X163491466Y-139219925D02*
X163443847Y-139267544D01*
X163443847Y-139267544D02*
X163396228Y-139362782D01*
X163396228Y-139362782D02*
X163348609Y-139553258D01*
X163348609Y-139553258D02*
X163300990Y-139648496D01*
X163300990Y-139648496D02*
X163253371Y-139696115D01*
X163253371Y-139696115D02*
X163158133Y-139743734D01*
X163158133Y-139743734D02*
X163062895Y-139743734D01*
X163062895Y-139743734D02*
X162967657Y-139696115D01*
X162967657Y-139696115D02*
X162920038Y-139648496D01*
X162920038Y-139648496D02*
X162872419Y-139553258D01*
X162872419Y-139553258D02*
X162872419Y-139315163D01*
X162872419Y-139315163D02*
X162920038Y-139172306D01*
X163872419Y-138743734D02*
X162872419Y-138743734D01*
X162920038Y-137743735D02*
X162872419Y-137838973D01*
X162872419Y-137838973D02*
X162872419Y-137981830D01*
X162872419Y-137981830D02*
X162920038Y-138124687D01*
X162920038Y-138124687D02*
X163015276Y-138219925D01*
X163015276Y-138219925D02*
X163110514Y-138267544D01*
X163110514Y-138267544D02*
X163300990Y-138315163D01*
X163300990Y-138315163D02*
X163443847Y-138315163D01*
X163443847Y-138315163D02*
X163634323Y-138267544D01*
X163634323Y-138267544D02*
X163729561Y-138219925D01*
X163729561Y-138219925D02*
X163824800Y-138124687D01*
X163824800Y-138124687D02*
X163872419Y-137981830D01*
X163872419Y-137981830D02*
X163872419Y-137886592D01*
X163872419Y-137886592D02*
X163824800Y-137743735D01*
X163824800Y-137743735D02*
X163777180Y-137696116D01*
X163777180Y-137696116D02*
X163443847Y-137696116D01*
X163443847Y-137696116D02*
X163443847Y-137886592D01*
X163491466Y-137267544D02*
X163491466Y-136505640D01*
X168791353Y-115627580D02*
X168124687Y-114627580D01*
X168124687Y-115627580D02*
X168791353Y-114627580D01*
X171872419Y-116196115D02*
X170872419Y-116196115D01*
X170872419Y-116196115D02*
X170872419Y-115815163D01*
X170872419Y-115815163D02*
X170920038Y-115719925D01*
X170920038Y-115719925D02*
X170967657Y-115672306D01*
X170967657Y-115672306D02*
X171062895Y-115624687D01*
X171062895Y-115624687D02*
X171205752Y-115624687D01*
X171205752Y-115624687D02*
X171300990Y-115672306D01*
X171300990Y-115672306D02*
X171348609Y-115719925D01*
X171348609Y-115719925D02*
X171396228Y-115815163D01*
X171396228Y-115815163D02*
X171396228Y-116196115D01*
X171872419Y-115196115D02*
X170872419Y-115196115D01*
X170872419Y-115196115D02*
X170872419Y-114958020D01*
X170872419Y-114958020D02*
X170920038Y-114815163D01*
X170920038Y-114815163D02*
X171015276Y-114719925D01*
X171015276Y-114719925D02*
X171110514Y-114672306D01*
X171110514Y-114672306D02*
X171300990Y-114624687D01*
X171300990Y-114624687D02*
X171443847Y-114624687D01*
X171443847Y-114624687D02*
X171634323Y-114672306D01*
X171634323Y-114672306D02*
X171729561Y-114719925D01*
X171729561Y-114719925D02*
X171824800Y-114815163D01*
X171824800Y-114815163D02*
X171872419Y-114958020D01*
X171872419Y-114958020D02*
X171872419Y-115196115D01*
X170594800Y-116334211D02*
X170594800Y-114534211D01*
X160372419Y-117005639D02*
X160372419Y-116815163D01*
X160372419Y-116815163D02*
X160420038Y-116719925D01*
X160420038Y-116719925D02*
X160515276Y-116624687D01*
X160515276Y-116624687D02*
X160705752Y-116577068D01*
X160705752Y-116577068D02*
X161039085Y-116577068D01*
X161039085Y-116577068D02*
X161229561Y-116624687D01*
X161229561Y-116624687D02*
X161324800Y-116719925D01*
X161324800Y-116719925D02*
X161372419Y-116815163D01*
X161372419Y-116815163D02*
X161372419Y-117005639D01*
X161372419Y-117005639D02*
X161324800Y-117100877D01*
X161324800Y-117100877D02*
X161229561Y-117196115D01*
X161229561Y-117196115D02*
X161039085Y-117243734D01*
X161039085Y-117243734D02*
X160705752Y-117243734D01*
X160705752Y-117243734D02*
X160515276Y-117196115D01*
X160515276Y-117196115D02*
X160420038Y-117100877D01*
X160420038Y-117100877D02*
X160372419Y-117005639D01*
X160372419Y-116148496D02*
X161181942Y-116148496D01*
X161181942Y-116148496D02*
X161277180Y-116100877D01*
X161277180Y-116100877D02*
X161324800Y-116053258D01*
X161324800Y-116053258D02*
X161372419Y-115958020D01*
X161372419Y-115958020D02*
X161372419Y-115767544D01*
X161372419Y-115767544D02*
X161324800Y-115672306D01*
X161324800Y-115672306D02*
X161277180Y-115624687D01*
X161277180Y-115624687D02*
X161181942Y-115577068D01*
X161181942Y-115577068D02*
X160372419Y-115577068D01*
X160372419Y-115243734D02*
X160372419Y-114672306D01*
X161372419Y-114958020D02*
X160372419Y-114958020D01*
X147780074Y-131872419D02*
X147303884Y-131872419D01*
X147303884Y-131872419D02*
X147303884Y-130872419D01*
X148256265Y-131872419D02*
X148161027Y-131824800D01*
X148161027Y-131824800D02*
X148113408Y-131777180D01*
X148113408Y-131777180D02*
X148065789Y-131681942D01*
X148065789Y-131681942D02*
X148065789Y-131396228D01*
X148065789Y-131396228D02*
X148113408Y-131300990D01*
X148113408Y-131300990D02*
X148161027Y-131253371D01*
X148161027Y-131253371D02*
X148256265Y-131205752D01*
X148256265Y-131205752D02*
X148399122Y-131205752D01*
X148399122Y-131205752D02*
X148494360Y-131253371D01*
X148494360Y-131253371D02*
X148541979Y-131300990D01*
X148541979Y-131300990D02*
X148589598Y-131396228D01*
X148589598Y-131396228D02*
X148589598Y-131681942D01*
X148589598Y-131681942D02*
X148541979Y-131777180D01*
X148541979Y-131777180D02*
X148494360Y-131824800D01*
X148494360Y-131824800D02*
X148399122Y-131872419D01*
X148399122Y-131872419D02*
X148256265Y-131872419D01*
X148922932Y-131205752D02*
X149113408Y-131872419D01*
X149113408Y-131872419D02*
X149303884Y-131396228D01*
X149303884Y-131396228D02*
X149494360Y-131872419D01*
X149494360Y-131872419D02*
X149684836Y-131205752D01*
X150827694Y-131872419D02*
X150827694Y-130872419D01*
X150827694Y-130872419D02*
X151208646Y-130872419D01*
X151208646Y-130872419D02*
X151303884Y-130920038D01*
X151303884Y-130920038D02*
X151351503Y-130967657D01*
X151351503Y-130967657D02*
X151399122Y-131062895D01*
X151399122Y-131062895D02*
X151399122Y-131205752D01*
X151399122Y-131205752D02*
X151351503Y-131300990D01*
X151351503Y-131300990D02*
X151303884Y-131348609D01*
X151303884Y-131348609D02*
X151208646Y-131396228D01*
X151208646Y-131396228D02*
X150827694Y-131396228D01*
X151970551Y-131872419D02*
X151875313Y-131824800D01*
X151875313Y-131824800D02*
X151827694Y-131777180D01*
X151827694Y-131777180D02*
X151780075Y-131681942D01*
X151780075Y-131681942D02*
X151780075Y-131396228D01*
X151780075Y-131396228D02*
X151827694Y-131300990D01*
X151827694Y-131300990D02*
X151875313Y-131253371D01*
X151875313Y-131253371D02*
X151970551Y-131205752D01*
X151970551Y-131205752D02*
X152113408Y-131205752D01*
X152113408Y-131205752D02*
X152208646Y-131253371D01*
X152208646Y-131253371D02*
X152256265Y-131300990D01*
X152256265Y-131300990D02*
X152303884Y-131396228D01*
X152303884Y-131396228D02*
X152303884Y-131681942D01*
X152303884Y-131681942D02*
X152256265Y-131777180D01*
X152256265Y-131777180D02*
X152208646Y-131824800D01*
X152208646Y-131824800D02*
X152113408Y-131872419D01*
X152113408Y-131872419D02*
X151970551Y-131872419D01*
X152637218Y-131205752D02*
X152827694Y-131872419D01*
X152827694Y-131872419D02*
X153018170Y-131396228D01*
X153018170Y-131396228D02*
X153208646Y-131872419D01*
X153208646Y-131872419D02*
X153399122Y-131205752D01*
X154161027Y-131824800D02*
X154065789Y-131872419D01*
X154065789Y-131872419D02*
X153875313Y-131872419D01*
X153875313Y-131872419D02*
X153780075Y-131824800D01*
X153780075Y-131824800D02*
X153732456Y-131729561D01*
X153732456Y-131729561D02*
X153732456Y-131348609D01*
X153732456Y-131348609D02*
X153780075Y-131253371D01*
X153780075Y-131253371D02*
X153875313Y-131205752D01*
X153875313Y-131205752D02*
X154065789Y-131205752D01*
X154065789Y-131205752D02*
X154161027Y-131253371D01*
X154161027Y-131253371D02*
X154208646Y-131348609D01*
X154208646Y-131348609D02*
X154208646Y-131443847D01*
X154208646Y-131443847D02*
X153732456Y-131539085D01*
X154637218Y-131872419D02*
X154637218Y-131205752D01*
X154637218Y-131396228D02*
X154684837Y-131300990D01*
X154684837Y-131300990D02*
X154732456Y-131253371D01*
X154732456Y-131253371D02*
X154827694Y-131205752D01*
X154827694Y-131205752D02*
X154922932Y-131205752D01*
X165420038Y-139172306D02*
X165372419Y-139267544D01*
X165372419Y-139267544D02*
X165372419Y-139410401D01*
X165372419Y-139410401D02*
X165420038Y-139553258D01*
X165420038Y-139553258D02*
X165515276Y-139648496D01*
X165515276Y-139648496D02*
X165610514Y-139696115D01*
X165610514Y-139696115D02*
X165800990Y-139743734D01*
X165800990Y-139743734D02*
X165943847Y-139743734D01*
X165943847Y-139743734D02*
X166134323Y-139696115D01*
X166134323Y-139696115D02*
X166229561Y-139648496D01*
X166229561Y-139648496D02*
X166324800Y-139553258D01*
X166324800Y-139553258D02*
X166372419Y-139410401D01*
X166372419Y-139410401D02*
X166372419Y-139315163D01*
X166372419Y-139315163D02*
X166324800Y-139172306D01*
X166324800Y-139172306D02*
X166277180Y-139124687D01*
X166277180Y-139124687D02*
X165943847Y-139124687D01*
X165943847Y-139124687D02*
X165943847Y-139315163D01*
X166372419Y-138696115D02*
X165372419Y-138696115D01*
X165372419Y-138696115D02*
X166372419Y-138124687D01*
X166372419Y-138124687D02*
X165372419Y-138124687D01*
X166372419Y-137648496D02*
X165372419Y-137648496D01*
X165372419Y-137648496D02*
X165372419Y-137410401D01*
X165372419Y-137410401D02*
X165420038Y-137267544D01*
X165420038Y-137267544D02*
X165515276Y-137172306D01*
X165515276Y-137172306D02*
X165610514Y-137124687D01*
X165610514Y-137124687D02*
X165800990Y-137077068D01*
X165800990Y-137077068D02*
X165943847Y-137077068D01*
X165943847Y-137077068D02*
X166134323Y-137124687D01*
X166134323Y-137124687D02*
X166229561Y-137172306D01*
X166229561Y-137172306D02*
X166324800Y-137267544D01*
X166324800Y-137267544D02*
X166372419Y-137410401D01*
X166372419Y-137410401D02*
X166372419Y-137648496D01*
X162872419Y-117005639D02*
X162872419Y-116815163D01*
X162872419Y-116815163D02*
X162920038Y-116719925D01*
X162920038Y-116719925D02*
X163015276Y-116624687D01*
X163015276Y-116624687D02*
X163205752Y-116577068D01*
X163205752Y-116577068D02*
X163539085Y-116577068D01*
X163539085Y-116577068D02*
X163729561Y-116624687D01*
X163729561Y-116624687D02*
X163824800Y-116719925D01*
X163824800Y-116719925D02*
X163872419Y-116815163D01*
X163872419Y-116815163D02*
X163872419Y-117005639D01*
X163872419Y-117005639D02*
X163824800Y-117100877D01*
X163824800Y-117100877D02*
X163729561Y-117196115D01*
X163729561Y-117196115D02*
X163539085Y-117243734D01*
X163539085Y-117243734D02*
X163205752Y-117243734D01*
X163205752Y-117243734D02*
X163015276Y-117196115D01*
X163015276Y-117196115D02*
X162920038Y-117100877D01*
X162920038Y-117100877D02*
X162872419Y-117005639D01*
X162872419Y-116148496D02*
X163681942Y-116148496D01*
X163681942Y-116148496D02*
X163777180Y-116100877D01*
X163777180Y-116100877D02*
X163824800Y-116053258D01*
X163824800Y-116053258D02*
X163872419Y-115958020D01*
X163872419Y-115958020D02*
X163872419Y-115767544D01*
X163872419Y-115767544D02*
X163824800Y-115672306D01*
X163824800Y-115672306D02*
X163777180Y-115624687D01*
X163777180Y-115624687D02*
X163681942Y-115577068D01*
X163681942Y-115577068D02*
X162872419Y-115577068D01*
X162872419Y-115243734D02*
X162872419Y-114672306D01*
X163872419Y-114958020D02*
X162872419Y-114958020D01*
X148637217Y-142738665D02*
X148303884Y-142738665D01*
X148303884Y-143262475D02*
X148303884Y-142262475D01*
X148303884Y-142262475D02*
X148780074Y-142262475D01*
X149589598Y-143262475D02*
X149589598Y-142738665D01*
X149589598Y-142738665D02*
X149541979Y-142643427D01*
X149541979Y-142643427D02*
X149446741Y-142595808D01*
X149446741Y-142595808D02*
X149256265Y-142595808D01*
X149256265Y-142595808D02*
X149161027Y-142643427D01*
X149589598Y-143214856D02*
X149494360Y-143262475D01*
X149494360Y-143262475D02*
X149256265Y-143262475D01*
X149256265Y-143262475D02*
X149161027Y-143214856D01*
X149161027Y-143214856D02*
X149113408Y-143119617D01*
X149113408Y-143119617D02*
X149113408Y-143024379D01*
X149113408Y-143024379D02*
X149161027Y-142929141D01*
X149161027Y-142929141D02*
X149256265Y-142881522D01*
X149256265Y-142881522D02*
X149494360Y-142881522D01*
X149494360Y-142881522D02*
X149589598Y-142833903D01*
X150065789Y-143262475D02*
X150065789Y-142262475D01*
X150065789Y-142643427D02*
X150161027Y-142595808D01*
X150161027Y-142595808D02*
X150351503Y-142595808D01*
X150351503Y-142595808D02*
X150446741Y-142643427D01*
X150446741Y-142643427D02*
X150494360Y-142691046D01*
X150494360Y-142691046D02*
X150541979Y-142786284D01*
X150541979Y-142786284D02*
X150541979Y-143071998D01*
X150541979Y-143071998D02*
X150494360Y-143167236D01*
X150494360Y-143167236D02*
X150446741Y-143214856D01*
X150446741Y-143214856D02*
X150351503Y-143262475D01*
X150351503Y-143262475D02*
X150161027Y-143262475D01*
X150161027Y-143262475D02*
X150065789Y-143214856D01*
X150970551Y-143262475D02*
X150970551Y-142595808D01*
X150970551Y-142262475D02*
X150922932Y-142310094D01*
X150922932Y-142310094D02*
X150970551Y-142357713D01*
X150970551Y-142357713D02*
X151018170Y-142310094D01*
X151018170Y-142310094D02*
X150970551Y-142262475D01*
X150970551Y-142262475D02*
X150970551Y-142357713D01*
X151875312Y-143262475D02*
X151875312Y-142738665D01*
X151875312Y-142738665D02*
X151827693Y-142643427D01*
X151827693Y-142643427D02*
X151732455Y-142595808D01*
X151732455Y-142595808D02*
X151541979Y-142595808D01*
X151541979Y-142595808D02*
X151446741Y-142643427D01*
X151875312Y-143214856D02*
X151780074Y-143262475D01*
X151780074Y-143262475D02*
X151541979Y-143262475D01*
X151541979Y-143262475D02*
X151446741Y-143214856D01*
X151446741Y-143214856D02*
X151399122Y-143119617D01*
X151399122Y-143119617D02*
X151399122Y-143024379D01*
X151399122Y-143024379D02*
X151446741Y-142929141D01*
X151446741Y-142929141D02*
X151541979Y-142881522D01*
X151541979Y-142881522D02*
X151780074Y-142881522D01*
X151780074Y-142881522D02*
X151875312Y-142833903D01*
X152351503Y-142595808D02*
X152351503Y-143262475D01*
X152351503Y-142691046D02*
X152399122Y-142643427D01*
X152399122Y-142643427D02*
X152494360Y-142595808D01*
X152494360Y-142595808D02*
X152637217Y-142595808D01*
X152637217Y-142595808D02*
X152732455Y-142643427D01*
X152732455Y-142643427D02*
X152780074Y-142738665D01*
X152780074Y-142738665D02*
X152780074Y-143262475D01*
X154541979Y-142310094D02*
X154446741Y-142262475D01*
X154446741Y-142262475D02*
X154303884Y-142262475D01*
X154303884Y-142262475D02*
X154161027Y-142310094D01*
X154161027Y-142310094D02*
X154065789Y-142405332D01*
X154065789Y-142405332D02*
X154018170Y-142500570D01*
X154018170Y-142500570D02*
X153970551Y-142691046D01*
X153970551Y-142691046D02*
X153970551Y-142833903D01*
X153970551Y-142833903D02*
X154018170Y-143024379D01*
X154018170Y-143024379D02*
X154065789Y-143119617D01*
X154065789Y-143119617D02*
X154161027Y-143214856D01*
X154161027Y-143214856D02*
X154303884Y-143262475D01*
X154303884Y-143262475D02*
X154399122Y-143262475D01*
X154399122Y-143262475D02*
X154541979Y-143214856D01*
X154541979Y-143214856D02*
X154589598Y-143167236D01*
X154589598Y-143167236D02*
X154589598Y-142833903D01*
X154589598Y-142833903D02*
X154399122Y-142833903D01*
X155161027Y-143262475D02*
X155065789Y-143214856D01*
X155065789Y-143214856D02*
X155018170Y-143119617D01*
X155018170Y-143119617D02*
X155018170Y-142262475D01*
X155970551Y-142595808D02*
X155970551Y-143262475D01*
X155541980Y-142595808D02*
X155541980Y-143119617D01*
X155541980Y-143119617D02*
X155589599Y-143214856D01*
X155589599Y-143214856D02*
X155684837Y-143262475D01*
X155684837Y-143262475D02*
X155827694Y-143262475D01*
X155827694Y-143262475D02*
X155922932Y-143214856D01*
X155922932Y-143214856D02*
X155970551Y-143167236D01*
X156303885Y-142595808D02*
X156684837Y-142595808D01*
X156446742Y-142262475D02*
X156446742Y-143119617D01*
X156446742Y-143119617D02*
X156494361Y-143214856D01*
X156494361Y-143214856D02*
X156589599Y-143262475D01*
X156589599Y-143262475D02*
X156684837Y-143262475D01*
X156922933Y-142595808D02*
X157446742Y-142595808D01*
X157446742Y-142595808D02*
X156922933Y-143262475D01*
X156922933Y-143262475D02*
X157446742Y-143262475D01*
X148303884Y-144872419D02*
X148303884Y-143872419D01*
X148732455Y-144872419D02*
X148732455Y-144348609D01*
X148732455Y-144348609D02*
X148684836Y-144253371D01*
X148684836Y-144253371D02*
X148589598Y-144205752D01*
X148589598Y-144205752D02*
X148446741Y-144205752D01*
X148446741Y-144205752D02*
X148351503Y-144253371D01*
X148351503Y-144253371D02*
X148303884Y-144300990D01*
X149065789Y-144205752D02*
X149446741Y-144205752D01*
X149208646Y-143872419D02*
X149208646Y-144729561D01*
X149208646Y-144729561D02*
X149256265Y-144824800D01*
X149256265Y-144824800D02*
X149351503Y-144872419D01*
X149351503Y-144872419D02*
X149446741Y-144872419D01*
X149637218Y-144205752D02*
X150018170Y-144205752D01*
X149780075Y-143872419D02*
X149780075Y-144729561D01*
X149780075Y-144729561D02*
X149827694Y-144824800D01*
X149827694Y-144824800D02*
X149922932Y-144872419D01*
X149922932Y-144872419D02*
X150018170Y-144872419D01*
X150351504Y-144205752D02*
X150351504Y-145205752D01*
X150351504Y-144253371D02*
X150446742Y-144205752D01*
X150446742Y-144205752D02*
X150637218Y-144205752D01*
X150637218Y-144205752D02*
X150732456Y-144253371D01*
X150732456Y-144253371D02*
X150780075Y-144300990D01*
X150780075Y-144300990D02*
X150827694Y-144396228D01*
X150827694Y-144396228D02*
X150827694Y-144681942D01*
X150827694Y-144681942D02*
X150780075Y-144777180D01*
X150780075Y-144777180D02*
X150732456Y-144824800D01*
X150732456Y-144824800D02*
X150637218Y-144872419D01*
X150637218Y-144872419D02*
X150446742Y-144872419D01*
X150446742Y-144872419D02*
X150351504Y-144824800D01*
X151208647Y-144824800D02*
X151303885Y-144872419D01*
X151303885Y-144872419D02*
X151494361Y-144872419D01*
X151494361Y-144872419D02*
X151589599Y-144824800D01*
X151589599Y-144824800D02*
X151637218Y-144729561D01*
X151637218Y-144729561D02*
X151637218Y-144681942D01*
X151637218Y-144681942D02*
X151589599Y-144586704D01*
X151589599Y-144586704D02*
X151494361Y-144539085D01*
X151494361Y-144539085D02*
X151351504Y-144539085D01*
X151351504Y-144539085D02*
X151256266Y-144491466D01*
X151256266Y-144491466D02*
X151208647Y-144396228D01*
X151208647Y-144396228D02*
X151208647Y-144348609D01*
X151208647Y-144348609D02*
X151256266Y-144253371D01*
X151256266Y-144253371D02*
X151351504Y-144205752D01*
X151351504Y-144205752D02*
X151494361Y-144205752D01*
X151494361Y-144205752D02*
X151589599Y-144253371D01*
X152065790Y-144777180D02*
X152113409Y-144824800D01*
X152113409Y-144824800D02*
X152065790Y-144872419D01*
X152065790Y-144872419D02*
X152018171Y-144824800D01*
X152018171Y-144824800D02*
X152065790Y-144777180D01*
X152065790Y-144777180D02*
X152065790Y-144872419D01*
X152065790Y-144253371D02*
X152113409Y-144300990D01*
X152113409Y-144300990D02*
X152065790Y-144348609D01*
X152065790Y-144348609D02*
X152018171Y-144300990D01*
X152018171Y-144300990D02*
X152065790Y-144253371D01*
X152065790Y-144253371D02*
X152065790Y-144348609D01*
X153256265Y-143824800D02*
X152399123Y-145110514D01*
X154303884Y-143824800D02*
X153446742Y-145110514D01*
X155065789Y-144205752D02*
X155065789Y-145015276D01*
X155065789Y-145015276D02*
X155018170Y-145110514D01*
X155018170Y-145110514D02*
X154970551Y-145158133D01*
X154970551Y-145158133D02*
X154875313Y-145205752D01*
X154875313Y-145205752D02*
X154732456Y-145205752D01*
X154732456Y-145205752D02*
X154637218Y-145158133D01*
X155065789Y-144824800D02*
X154970551Y-144872419D01*
X154970551Y-144872419D02*
X154780075Y-144872419D01*
X154780075Y-144872419D02*
X154684837Y-144824800D01*
X154684837Y-144824800D02*
X154637218Y-144777180D01*
X154637218Y-144777180D02*
X154589599Y-144681942D01*
X154589599Y-144681942D02*
X154589599Y-144396228D01*
X154589599Y-144396228D02*
X154637218Y-144300990D01*
X154637218Y-144300990D02*
X154684837Y-144253371D01*
X154684837Y-144253371D02*
X154780075Y-144205752D01*
X154780075Y-144205752D02*
X154970551Y-144205752D01*
X154970551Y-144205752D02*
X155065789Y-144253371D01*
X155541980Y-144872419D02*
X155541980Y-144205752D01*
X155541980Y-143872419D02*
X155494361Y-143920038D01*
X155494361Y-143920038D02*
X155541980Y-143967657D01*
X155541980Y-143967657D02*
X155589599Y-143920038D01*
X155589599Y-143920038D02*
X155541980Y-143872419D01*
X155541980Y-143872419D02*
X155541980Y-143967657D01*
X155875313Y-144205752D02*
X156256265Y-144205752D01*
X156018170Y-143872419D02*
X156018170Y-144729561D01*
X156018170Y-144729561D02*
X156065789Y-144824800D01*
X156065789Y-144824800D02*
X156161027Y-144872419D01*
X156161027Y-144872419D02*
X156256265Y-144872419D01*
X156589599Y-144872419D02*
X156589599Y-143872419D01*
X157018170Y-144872419D02*
X157018170Y-144348609D01*
X157018170Y-144348609D02*
X156970551Y-144253371D01*
X156970551Y-144253371D02*
X156875313Y-144205752D01*
X156875313Y-144205752D02*
X156732456Y-144205752D01*
X156732456Y-144205752D02*
X156637218Y-144253371D01*
X156637218Y-144253371D02*
X156589599Y-144300990D01*
X157922932Y-144205752D02*
X157922932Y-144872419D01*
X157494361Y-144205752D02*
X157494361Y-144729561D01*
X157494361Y-144729561D02*
X157541980Y-144824800D01*
X157541980Y-144824800D02*
X157637218Y-144872419D01*
X157637218Y-144872419D02*
X157780075Y-144872419D01*
X157780075Y-144872419D02*
X157875313Y-144824800D01*
X157875313Y-144824800D02*
X157922932Y-144777180D01*
X158399123Y-144872419D02*
X158399123Y-143872419D01*
X158399123Y-144253371D02*
X158494361Y-144205752D01*
X158494361Y-144205752D02*
X158684837Y-144205752D01*
X158684837Y-144205752D02*
X158780075Y-144253371D01*
X158780075Y-144253371D02*
X158827694Y-144300990D01*
X158827694Y-144300990D02*
X158875313Y-144396228D01*
X158875313Y-144396228D02*
X158875313Y-144681942D01*
X158875313Y-144681942D02*
X158827694Y-144777180D01*
X158827694Y-144777180D02*
X158780075Y-144824800D01*
X158780075Y-144824800D02*
X158684837Y-144872419D01*
X158684837Y-144872419D02*
X158494361Y-144872419D01*
X158494361Y-144872419D02*
X158399123Y-144824800D01*
X159303885Y-144777180D02*
X159351504Y-144824800D01*
X159351504Y-144824800D02*
X159303885Y-144872419D01*
X159303885Y-144872419D02*
X159256266Y-144824800D01*
X159256266Y-144824800D02*
X159303885Y-144777180D01*
X159303885Y-144777180D02*
X159303885Y-144872419D01*
X160208646Y-144824800D02*
X160113408Y-144872419D01*
X160113408Y-144872419D02*
X159922932Y-144872419D01*
X159922932Y-144872419D02*
X159827694Y-144824800D01*
X159827694Y-144824800D02*
X159780075Y-144777180D01*
X159780075Y-144777180D02*
X159732456Y-144681942D01*
X159732456Y-144681942D02*
X159732456Y-144396228D01*
X159732456Y-144396228D02*
X159780075Y-144300990D01*
X159780075Y-144300990D02*
X159827694Y-144253371D01*
X159827694Y-144253371D02*
X159922932Y-144205752D01*
X159922932Y-144205752D02*
X160113408Y-144205752D01*
X160113408Y-144205752D02*
X160208646Y-144253371D01*
X160780075Y-144872419D02*
X160684837Y-144824800D01*
X160684837Y-144824800D02*
X160637218Y-144777180D01*
X160637218Y-144777180D02*
X160589599Y-144681942D01*
X160589599Y-144681942D02*
X160589599Y-144396228D01*
X160589599Y-144396228D02*
X160637218Y-144300990D01*
X160637218Y-144300990D02*
X160684837Y-144253371D01*
X160684837Y-144253371D02*
X160780075Y-144205752D01*
X160780075Y-144205752D02*
X160922932Y-144205752D01*
X160922932Y-144205752D02*
X161018170Y-144253371D01*
X161018170Y-144253371D02*
X161065789Y-144300990D01*
X161065789Y-144300990D02*
X161113408Y-144396228D01*
X161113408Y-144396228D02*
X161113408Y-144681942D01*
X161113408Y-144681942D02*
X161065789Y-144777180D01*
X161065789Y-144777180D02*
X161018170Y-144824800D01*
X161018170Y-144824800D02*
X160922932Y-144872419D01*
X160922932Y-144872419D02*
X160780075Y-144872419D01*
X161541980Y-144872419D02*
X161541980Y-144205752D01*
X161541980Y-144300990D02*
X161589599Y-144253371D01*
X161589599Y-144253371D02*
X161684837Y-144205752D01*
X161684837Y-144205752D02*
X161827694Y-144205752D01*
X161827694Y-144205752D02*
X161922932Y-144253371D01*
X161922932Y-144253371D02*
X161970551Y-144348609D01*
X161970551Y-144348609D02*
X161970551Y-144872419D01*
X161970551Y-144348609D02*
X162018170Y-144253371D01*
X162018170Y-144253371D02*
X162113408Y-144205752D01*
X162113408Y-144205752D02*
X162256265Y-144205752D01*
X162256265Y-144205752D02*
X162351504Y-144253371D01*
X162351504Y-144253371D02*
X162399123Y-144348609D01*
X162399123Y-144348609D02*
X162399123Y-144872419D01*
X163589598Y-143824800D02*
X162732456Y-145110514D01*
X164446741Y-143920038D02*
X164351503Y-143872419D01*
X164351503Y-143872419D02*
X164208646Y-143872419D01*
X164208646Y-143872419D02*
X164065789Y-143920038D01*
X164065789Y-143920038D02*
X163970551Y-144015276D01*
X163970551Y-144015276D02*
X163922932Y-144110514D01*
X163922932Y-144110514D02*
X163875313Y-144300990D01*
X163875313Y-144300990D02*
X163875313Y-144443847D01*
X163875313Y-144443847D02*
X163922932Y-144634323D01*
X163922932Y-144634323D02*
X163970551Y-144729561D01*
X163970551Y-144729561D02*
X164065789Y-144824800D01*
X164065789Y-144824800D02*
X164208646Y-144872419D01*
X164208646Y-144872419D02*
X164303884Y-144872419D01*
X164303884Y-144872419D02*
X164446741Y-144824800D01*
X164446741Y-144824800D02*
X164494360Y-144777180D01*
X164494360Y-144777180D02*
X164494360Y-144443847D01*
X164494360Y-144443847D02*
X164303884Y-144443847D01*
X165303884Y-144824800D02*
X165208646Y-144872419D01*
X165208646Y-144872419D02*
X165018170Y-144872419D01*
X165018170Y-144872419D02*
X164922932Y-144824800D01*
X164922932Y-144824800D02*
X164875313Y-144729561D01*
X164875313Y-144729561D02*
X164875313Y-144348609D01*
X164875313Y-144348609D02*
X164922932Y-144253371D01*
X164922932Y-144253371D02*
X165018170Y-144205752D01*
X165018170Y-144205752D02*
X165208646Y-144205752D01*
X165208646Y-144205752D02*
X165303884Y-144253371D01*
X165303884Y-144253371D02*
X165351503Y-144348609D01*
X165351503Y-144348609D02*
X165351503Y-144443847D01*
X165351503Y-144443847D02*
X164875313Y-144539085D01*
X165780075Y-144872419D02*
X165780075Y-143872419D01*
X166208646Y-144872419D02*
X166208646Y-144348609D01*
X166208646Y-144348609D02*
X166161027Y-144253371D01*
X166161027Y-144253371D02*
X166065789Y-144205752D01*
X166065789Y-144205752D02*
X165922932Y-144205752D01*
X165922932Y-144205752D02*
X165827694Y-144253371D01*
X165827694Y-144253371D02*
X165780075Y-144300990D01*
X166541980Y-144205752D02*
X166922932Y-144205752D01*
X166684837Y-143872419D02*
X166684837Y-144729561D01*
X166684837Y-144729561D02*
X166732456Y-144824800D01*
X166732456Y-144824800D02*
X166827694Y-144872419D01*
X166827694Y-144872419D02*
X166922932Y-144872419D01*
X167208647Y-144824800D02*
X167303885Y-144872419D01*
X167303885Y-144872419D02*
X167494361Y-144872419D01*
X167494361Y-144872419D02*
X167589599Y-144824800D01*
X167589599Y-144824800D02*
X167637218Y-144729561D01*
X167637218Y-144729561D02*
X167637218Y-144681942D01*
X167637218Y-144681942D02*
X167589599Y-144586704D01*
X167589599Y-144586704D02*
X167494361Y-144539085D01*
X167494361Y-144539085D02*
X167351504Y-144539085D01*
X167351504Y-144539085D02*
X167256266Y-144491466D01*
X167256266Y-144491466D02*
X167208647Y-144396228D01*
X167208647Y-144396228D02*
X167208647Y-144348609D01*
X167208647Y-144348609D02*
X167256266Y-144253371D01*
X167256266Y-144253371D02*
X167351504Y-144205752D01*
X167351504Y-144205752D02*
X167494361Y-144205752D01*
X167494361Y-144205752D02*
X167589599Y-144253371D01*
X168494361Y-144824800D02*
X168399123Y-144872419D01*
X168399123Y-144872419D02*
X168208647Y-144872419D01*
X168208647Y-144872419D02*
X168113409Y-144824800D01*
X168113409Y-144824800D02*
X168065790Y-144777180D01*
X168065790Y-144777180D02*
X168018171Y-144681942D01*
X168018171Y-144681942D02*
X168018171Y-144396228D01*
X168018171Y-144396228D02*
X168065790Y-144300990D01*
X168065790Y-144300990D02*
X168113409Y-144253371D01*
X168113409Y-144253371D02*
X168208647Y-144205752D01*
X168208647Y-144205752D02*
X168399123Y-144205752D01*
X168399123Y-144205752D02*
X168494361Y-144253371D01*
X168922933Y-144872419D02*
X168922933Y-143872419D01*
X169351504Y-144872419D02*
X169351504Y-144348609D01*
X169351504Y-144348609D02*
X169303885Y-144253371D01*
X169303885Y-144253371D02*
X169208647Y-144205752D01*
X169208647Y-144205752D02*
X169065790Y-144205752D01*
X169065790Y-144205752D02*
X168970552Y-144253371D01*
X168970552Y-144253371D02*
X168922933Y-144300990D01*
X169970552Y-144872419D02*
X169875314Y-144824800D01*
X169875314Y-144824800D02*
X169827695Y-144777180D01*
X169827695Y-144777180D02*
X169780076Y-144681942D01*
X169780076Y-144681942D02*
X169780076Y-144396228D01*
X169780076Y-144396228D02*
X169827695Y-144300990D01*
X169827695Y-144300990D02*
X169875314Y-144253371D01*
X169875314Y-144253371D02*
X169970552Y-144205752D01*
X169970552Y-144205752D02*
X170113409Y-144205752D01*
X170113409Y-144205752D02*
X170208647Y-144253371D01*
X170208647Y-144253371D02*
X170256266Y-144300990D01*
X170256266Y-144300990D02*
X170303885Y-144396228D01*
X170303885Y-144396228D02*
X170303885Y-144681942D01*
X170303885Y-144681942D02*
X170256266Y-144777180D01*
X170256266Y-144777180D02*
X170208647Y-144824800D01*
X170208647Y-144824800D02*
X170113409Y-144872419D01*
X170113409Y-144872419D02*
X169970552Y-144872419D01*
X170732457Y-144205752D02*
X170732457Y-144872419D01*
X170732457Y-144300990D02*
X170780076Y-144253371D01*
X170780076Y-144253371D02*
X170875314Y-144205752D01*
X170875314Y-144205752D02*
X171018171Y-144205752D01*
X171018171Y-144205752D02*
X171113409Y-144253371D01*
X171113409Y-144253371D02*
X171161028Y-144348609D01*
X171161028Y-144348609D02*
X171161028Y-144872419D01*
X172351504Y-143824800D02*
X171494362Y-145110514D01*
X172875314Y-143872419D02*
X173065790Y-143872419D01*
X173065790Y-143872419D02*
X173161028Y-143920038D01*
X173161028Y-143920038D02*
X173256266Y-144015276D01*
X173256266Y-144015276D02*
X173303885Y-144205752D01*
X173303885Y-144205752D02*
X173303885Y-144539085D01*
X173303885Y-144539085D02*
X173256266Y-144729561D01*
X173256266Y-144729561D02*
X173161028Y-144824800D01*
X173161028Y-144824800D02*
X173065790Y-144872419D01*
X173065790Y-144872419D02*
X172875314Y-144872419D01*
X172875314Y-144872419D02*
X172780076Y-144824800D01*
X172780076Y-144824800D02*
X172684838Y-144729561D01*
X172684838Y-144729561D02*
X172637219Y-144539085D01*
X172637219Y-144539085D02*
X172637219Y-144205752D01*
X172637219Y-144205752D02*
X172684838Y-144015276D01*
X172684838Y-144015276D02*
X172780076Y-143920038D01*
X172780076Y-143920038D02*
X172875314Y-143872419D01*
X173732457Y-144205752D02*
X173732457Y-145205752D01*
X173732457Y-144253371D02*
X173827695Y-144205752D01*
X173827695Y-144205752D02*
X174018171Y-144205752D01*
X174018171Y-144205752D02*
X174113409Y-144253371D01*
X174113409Y-144253371D02*
X174161028Y-144300990D01*
X174161028Y-144300990D02*
X174208647Y-144396228D01*
X174208647Y-144396228D02*
X174208647Y-144681942D01*
X174208647Y-144681942D02*
X174161028Y-144777180D01*
X174161028Y-144777180D02*
X174113409Y-144824800D01*
X174113409Y-144824800D02*
X174018171Y-144872419D01*
X174018171Y-144872419D02*
X173827695Y-144872419D01*
X173827695Y-144872419D02*
X173732457Y-144824800D01*
X174589600Y-144586704D02*
X175065790Y-144586704D01*
X174494362Y-144872419D02*
X174827695Y-143872419D01*
X174827695Y-143872419D02*
X175161028Y-144872419D01*
X175494362Y-144872419D02*
X175494362Y-144205752D01*
X175494362Y-144300990D02*
X175541981Y-144253371D01*
X175541981Y-144253371D02*
X175637219Y-144205752D01*
X175637219Y-144205752D02*
X175780076Y-144205752D01*
X175780076Y-144205752D02*
X175875314Y-144253371D01*
X175875314Y-144253371D02*
X175922933Y-144348609D01*
X175922933Y-144348609D02*
X175922933Y-144872419D01*
X175922933Y-144348609D02*
X175970552Y-144253371D01*
X175970552Y-144253371D02*
X176065790Y-144205752D01*
X176065790Y-144205752D02*
X176208647Y-144205752D01*
X176208647Y-144205752D02*
X176303886Y-144253371D01*
X176303886Y-144253371D02*
X176351505Y-144348609D01*
X176351505Y-144348609D02*
X176351505Y-144872419D01*
X176827695Y-144205752D02*
X176827695Y-145205752D01*
X176827695Y-144253371D02*
X176922933Y-144205752D01*
X176922933Y-144205752D02*
X177113409Y-144205752D01*
X177113409Y-144205752D02*
X177208647Y-144253371D01*
X177208647Y-144253371D02*
X177256266Y-144300990D01*
X177256266Y-144300990D02*
X177303885Y-144396228D01*
X177303885Y-144396228D02*
X177303885Y-144681942D01*
X177303885Y-144681942D02*
X177256266Y-144777180D01*
X177256266Y-144777180D02*
X177208647Y-144824800D01*
X177208647Y-144824800D02*
X177113409Y-144872419D01*
X177113409Y-144872419D02*
X176922933Y-144872419D01*
X176922933Y-144872419D02*
X176827695Y-144824800D01*
X177732457Y-144872419D02*
X177732457Y-143872419D01*
X177732457Y-143872419D02*
X177970552Y-143872419D01*
X177970552Y-143872419D02*
X178113409Y-143920038D01*
X178113409Y-143920038D02*
X178208647Y-144015276D01*
X178208647Y-144015276D02*
X178256266Y-144110514D01*
X178256266Y-144110514D02*
X178303885Y-144300990D01*
X178303885Y-144300990D02*
X178303885Y-144443847D01*
X178303885Y-144443847D02*
X178256266Y-144634323D01*
X178256266Y-144634323D02*
X178208647Y-144729561D01*
X178208647Y-144729561D02*
X178113409Y-144824800D01*
X178113409Y-144824800D02*
X177970552Y-144872419D01*
X177970552Y-144872419D02*
X177732457Y-144872419D01*
X179113409Y-144824800D02*
X179018171Y-144872419D01*
X179018171Y-144872419D02*
X178827695Y-144872419D01*
X178827695Y-144872419D02*
X178732457Y-144824800D01*
X178732457Y-144824800D02*
X178684838Y-144729561D01*
X178684838Y-144729561D02*
X178684838Y-144348609D01*
X178684838Y-144348609D02*
X178732457Y-144253371D01*
X178732457Y-144253371D02*
X178827695Y-144205752D01*
X178827695Y-144205752D02*
X179018171Y-144205752D01*
X179018171Y-144205752D02*
X179113409Y-144253371D01*
X179113409Y-144253371D02*
X179161028Y-144348609D01*
X179161028Y-144348609D02*
X179161028Y-144443847D01*
X179161028Y-144443847D02*
X178684838Y-144539085D01*
X179494362Y-144205752D02*
X179732457Y-144872419D01*
X179732457Y-144872419D02*
X179970552Y-144205752D01*
X180684838Y-144348609D02*
X180827695Y-144396228D01*
X180827695Y-144396228D02*
X180875314Y-144443847D01*
X180875314Y-144443847D02*
X180922933Y-144539085D01*
X180922933Y-144539085D02*
X180922933Y-144681942D01*
X180922933Y-144681942D02*
X180875314Y-144777180D01*
X180875314Y-144777180D02*
X180827695Y-144824800D01*
X180827695Y-144824800D02*
X180732457Y-144872419D01*
X180732457Y-144872419D02*
X180351505Y-144872419D01*
X180351505Y-144872419D02*
X180351505Y-143872419D01*
X180351505Y-143872419D02*
X180684838Y-143872419D01*
X180684838Y-143872419D02*
X180780076Y-143920038D01*
X180780076Y-143920038D02*
X180827695Y-143967657D01*
X180827695Y-143967657D02*
X180875314Y-144062895D01*
X180875314Y-144062895D02*
X180875314Y-144158133D01*
X180875314Y-144158133D02*
X180827695Y-144253371D01*
X180827695Y-144253371D02*
X180780076Y-144300990D01*
X180780076Y-144300990D02*
X180684838Y-144348609D01*
X180684838Y-144348609D02*
X180351505Y-144348609D01*
X181494362Y-144872419D02*
X181399124Y-144824800D01*
X181399124Y-144824800D02*
X181351505Y-144777180D01*
X181351505Y-144777180D02*
X181303886Y-144681942D01*
X181303886Y-144681942D02*
X181303886Y-144396228D01*
X181303886Y-144396228D02*
X181351505Y-144300990D01*
X181351505Y-144300990D02*
X181399124Y-144253371D01*
X181399124Y-144253371D02*
X181494362Y-144205752D01*
X181494362Y-144205752D02*
X181637219Y-144205752D01*
X181637219Y-144205752D02*
X181732457Y-144253371D01*
X181732457Y-144253371D02*
X181780076Y-144300990D01*
X181780076Y-144300990D02*
X181827695Y-144396228D01*
X181827695Y-144396228D02*
X181827695Y-144681942D01*
X181827695Y-144681942D02*
X181780076Y-144777180D01*
X181780076Y-144777180D02*
X181732457Y-144824800D01*
X181732457Y-144824800D02*
X181637219Y-144872419D01*
X181637219Y-144872419D02*
X181494362Y-144872419D01*
X182684838Y-144872419D02*
X182684838Y-144348609D01*
X182684838Y-144348609D02*
X182637219Y-144253371D01*
X182637219Y-144253371D02*
X182541981Y-144205752D01*
X182541981Y-144205752D02*
X182351505Y-144205752D01*
X182351505Y-144205752D02*
X182256267Y-144253371D01*
X182684838Y-144824800D02*
X182589600Y-144872419D01*
X182589600Y-144872419D02*
X182351505Y-144872419D01*
X182351505Y-144872419D02*
X182256267Y-144824800D01*
X182256267Y-144824800D02*
X182208648Y-144729561D01*
X182208648Y-144729561D02*
X182208648Y-144634323D01*
X182208648Y-144634323D02*
X182256267Y-144539085D01*
X182256267Y-144539085D02*
X182351505Y-144491466D01*
X182351505Y-144491466D02*
X182589600Y-144491466D01*
X182589600Y-144491466D02*
X182684838Y-144443847D01*
X183161029Y-144872419D02*
X183161029Y-144205752D01*
X183161029Y-144396228D02*
X183208648Y-144300990D01*
X183208648Y-144300990D02*
X183256267Y-144253371D01*
X183256267Y-144253371D02*
X183351505Y-144205752D01*
X183351505Y-144205752D02*
X183446743Y-144205752D01*
X184208648Y-144872419D02*
X184208648Y-143872419D01*
X184208648Y-144824800D02*
X184113410Y-144872419D01*
X184113410Y-144872419D02*
X183922934Y-144872419D01*
X183922934Y-144872419D02*
X183827696Y-144824800D01*
X183827696Y-144824800D02*
X183780077Y-144777180D01*
X183780077Y-144777180D02*
X183732458Y-144681942D01*
X183732458Y-144681942D02*
X183732458Y-144396228D01*
X183732458Y-144396228D02*
X183780077Y-144300990D01*
X183780077Y-144300990D02*
X183827696Y-144253371D01*
X183827696Y-144253371D02*
X183922934Y-144205752D01*
X183922934Y-144205752D02*
X184113410Y-144205752D01*
X184113410Y-144205752D02*
X184208648Y-144253371D01*
X148303884Y-121872419D02*
X148303884Y-120872419D01*
X148303884Y-120872419D02*
X148875312Y-121872419D01*
X148875312Y-121872419D02*
X148875312Y-120872419D01*
X149494360Y-121872419D02*
X149399122Y-121824800D01*
X149399122Y-121824800D02*
X149351503Y-121777180D01*
X149351503Y-121777180D02*
X149303884Y-121681942D01*
X149303884Y-121681942D02*
X149303884Y-121396228D01*
X149303884Y-121396228D02*
X149351503Y-121300990D01*
X149351503Y-121300990D02*
X149399122Y-121253371D01*
X149399122Y-121253371D02*
X149494360Y-121205752D01*
X149494360Y-121205752D02*
X149637217Y-121205752D01*
X149637217Y-121205752D02*
X149732455Y-121253371D01*
X149732455Y-121253371D02*
X149780074Y-121300990D01*
X149780074Y-121300990D02*
X149827693Y-121396228D01*
X149827693Y-121396228D02*
X149827693Y-121681942D01*
X149827693Y-121681942D02*
X149780074Y-121777180D01*
X149780074Y-121777180D02*
X149732455Y-121824800D01*
X149732455Y-121824800D02*
X149637217Y-121872419D01*
X149637217Y-121872419D02*
X149494360Y-121872419D01*
X150256265Y-121872419D02*
X150256265Y-121205752D01*
X150256265Y-121396228D02*
X150303884Y-121300990D01*
X150303884Y-121300990D02*
X150351503Y-121253371D01*
X150351503Y-121253371D02*
X150446741Y-121205752D01*
X150446741Y-121205752D02*
X150541979Y-121205752D01*
X150875313Y-121872419D02*
X150875313Y-121205752D01*
X150875313Y-121300990D02*
X150922932Y-121253371D01*
X150922932Y-121253371D02*
X151018170Y-121205752D01*
X151018170Y-121205752D02*
X151161027Y-121205752D01*
X151161027Y-121205752D02*
X151256265Y-121253371D01*
X151256265Y-121253371D02*
X151303884Y-121348609D01*
X151303884Y-121348609D02*
X151303884Y-121872419D01*
X151303884Y-121348609D02*
X151351503Y-121253371D01*
X151351503Y-121253371D02*
X151446741Y-121205752D01*
X151446741Y-121205752D02*
X151589598Y-121205752D01*
X151589598Y-121205752D02*
X151684837Y-121253371D01*
X151684837Y-121253371D02*
X151732456Y-121348609D01*
X151732456Y-121348609D02*
X151732456Y-121872419D01*
X152637217Y-121872419D02*
X152637217Y-121348609D01*
X152637217Y-121348609D02*
X152589598Y-121253371D01*
X152589598Y-121253371D02*
X152494360Y-121205752D01*
X152494360Y-121205752D02*
X152303884Y-121205752D01*
X152303884Y-121205752D02*
X152208646Y-121253371D01*
X152637217Y-121824800D02*
X152541979Y-121872419D01*
X152541979Y-121872419D02*
X152303884Y-121872419D01*
X152303884Y-121872419D02*
X152208646Y-121824800D01*
X152208646Y-121824800D02*
X152161027Y-121729561D01*
X152161027Y-121729561D02*
X152161027Y-121634323D01*
X152161027Y-121634323D02*
X152208646Y-121539085D01*
X152208646Y-121539085D02*
X152303884Y-121491466D01*
X152303884Y-121491466D02*
X152541979Y-121491466D01*
X152541979Y-121491466D02*
X152637217Y-121443847D01*
X153256265Y-121872419D02*
X153161027Y-121824800D01*
X153161027Y-121824800D02*
X153113408Y-121729561D01*
X153113408Y-121729561D02*
X153113408Y-120872419D01*
X161324800Y-139743734D02*
X161372419Y-139600877D01*
X161372419Y-139600877D02*
X161372419Y-139362782D01*
X161372419Y-139362782D02*
X161324800Y-139267544D01*
X161324800Y-139267544D02*
X161277180Y-139219925D01*
X161277180Y-139219925D02*
X161181942Y-139172306D01*
X161181942Y-139172306D02*
X161086704Y-139172306D01*
X161086704Y-139172306D02*
X160991466Y-139219925D01*
X160991466Y-139219925D02*
X160943847Y-139267544D01*
X160943847Y-139267544D02*
X160896228Y-139362782D01*
X160896228Y-139362782D02*
X160848609Y-139553258D01*
X160848609Y-139553258D02*
X160800990Y-139648496D01*
X160800990Y-139648496D02*
X160753371Y-139696115D01*
X160753371Y-139696115D02*
X160658133Y-139743734D01*
X160658133Y-139743734D02*
X160562895Y-139743734D01*
X160562895Y-139743734D02*
X160467657Y-139696115D01*
X160467657Y-139696115D02*
X160420038Y-139648496D01*
X160420038Y-139648496D02*
X160372419Y-139553258D01*
X160372419Y-139553258D02*
X160372419Y-139315163D01*
X160372419Y-139315163D02*
X160420038Y-139172306D01*
X161372419Y-138743734D02*
X160372419Y-138743734D01*
X160420038Y-137743735D02*
X160372419Y-137838973D01*
X160372419Y-137838973D02*
X160372419Y-137981830D01*
X160372419Y-137981830D02*
X160420038Y-138124687D01*
X160420038Y-138124687D02*
X160515276Y-138219925D01*
X160515276Y-138219925D02*
X160610514Y-138267544D01*
X160610514Y-138267544D02*
X160800990Y-138315163D01*
X160800990Y-138315163D02*
X160943847Y-138315163D01*
X160943847Y-138315163D02*
X161134323Y-138267544D01*
X161134323Y-138267544D02*
X161229561Y-138219925D01*
X161229561Y-138219925D02*
X161324800Y-138124687D01*
X161324800Y-138124687D02*
X161372419Y-137981830D01*
X161372419Y-137981830D02*
X161372419Y-137886592D01*
X161372419Y-137886592D02*
X161324800Y-137743735D01*
X161324800Y-137743735D02*
X161277180Y-137696116D01*
X161277180Y-137696116D02*
X160943847Y-137696116D01*
X160943847Y-137696116D02*
X160943847Y-137886592D01*
X160991466Y-137267544D02*
X160991466Y-136505640D01*
X161372419Y-136886592D02*
X160610514Y-136886592D01*
X170372419Y-139838972D02*
X171372419Y-139505639D01*
X171372419Y-139505639D02*
X170372419Y-139172306D01*
X171324800Y-138886591D02*
X171372419Y-138743734D01*
X171372419Y-138743734D02*
X171372419Y-138505639D01*
X171372419Y-138505639D02*
X171324800Y-138410401D01*
X171324800Y-138410401D02*
X171277180Y-138362782D01*
X171277180Y-138362782D02*
X171181942Y-138315163D01*
X171181942Y-138315163D02*
X171086704Y-138315163D01*
X171086704Y-138315163D02*
X170991466Y-138362782D01*
X170991466Y-138362782D02*
X170943847Y-138410401D01*
X170943847Y-138410401D02*
X170896228Y-138505639D01*
X170896228Y-138505639D02*
X170848609Y-138696115D01*
X170848609Y-138696115D02*
X170800990Y-138791353D01*
X170800990Y-138791353D02*
X170753371Y-138838972D01*
X170753371Y-138838972D02*
X170658133Y-138886591D01*
X170658133Y-138886591D02*
X170562895Y-138886591D01*
X170562895Y-138886591D02*
X170467657Y-138838972D01*
X170467657Y-138838972D02*
X170420038Y-138791353D01*
X170420038Y-138791353D02*
X170372419Y-138696115D01*
X170372419Y-138696115D02*
X170372419Y-138458020D01*
X170372419Y-138458020D02*
X170420038Y-138315163D01*
X170991466Y-137886591D02*
X170991466Y-137124687D01*
X168791353Y-139627580D02*
X168124687Y-138627580D01*
X168124687Y-139627580D02*
X168791353Y-138627580D01*
X148872419Y-126696115D02*
X147872419Y-126696115D01*
X147872419Y-126696115D02*
X147872419Y-126315163D01*
X147872419Y-126315163D02*
X147920038Y-126219925D01*
X147920038Y-126219925D02*
X147967657Y-126172306D01*
X147967657Y-126172306D02*
X148062895Y-126124687D01*
X148062895Y-126124687D02*
X148205752Y-126124687D01*
X148205752Y-126124687D02*
X148300990Y-126172306D01*
X148300990Y-126172306D02*
X148348609Y-126219925D01*
X148348609Y-126219925D02*
X148396228Y-126315163D01*
X148396228Y-126315163D02*
X148396228Y-126696115D01*
X148872419Y-125696115D02*
X147872419Y-125696115D01*
X147872419Y-125696115D02*
X147872419Y-125458020D01*
X147872419Y-125458020D02*
X147920038Y-125315163D01*
X147920038Y-125315163D02*
X148015276Y-125219925D01*
X148015276Y-125219925D02*
X148110514Y-125172306D01*
X148110514Y-125172306D02*
X148300990Y-125124687D01*
X148300990Y-125124687D02*
X148443847Y-125124687D01*
X148443847Y-125124687D02*
X148634323Y-125172306D01*
X148634323Y-125172306D02*
X148729561Y-125219925D01*
X148729561Y-125219925D02*
X148824800Y-125315163D01*
X148824800Y-125315163D02*
X148872419Y-125458020D01*
X148872419Y-125458020D02*
X148872419Y-125696115D01*
X147594800Y-126834211D02*
X147594800Y-125034211D01*
D11*
X147560149Y-108257275D02*
X147750625Y-108257275D01*
X147750625Y-108257275D02*
X147845863Y-108304894D01*
X147845863Y-108304894D02*
X147941101Y-108400132D01*
X147941101Y-108400132D02*
X147988720Y-108590608D01*
X147988720Y-108590608D02*
X147988720Y-108923941D01*
X147988720Y-108923941D02*
X147941101Y-109114417D01*
X147941101Y-109114417D02*
X147845863Y-109209656D01*
X147845863Y-109209656D02*
X147750625Y-109257275D01*
X147750625Y-109257275D02*
X147560149Y-109257275D01*
X147560149Y-109257275D02*
X147464911Y-109209656D01*
X147464911Y-109209656D02*
X147369673Y-109114417D01*
X147369673Y-109114417D02*
X147322054Y-108923941D01*
X147322054Y-108923941D02*
X147322054Y-108590608D01*
X147322054Y-108590608D02*
X147369673Y-108400132D01*
X147369673Y-108400132D02*
X147464911Y-108304894D01*
X147464911Y-108304894D02*
X147560149Y-108257275D01*
X148417292Y-109257275D02*
X148417292Y-108257275D01*
X148417292Y-108257275D02*
X148798244Y-108257275D01*
X148798244Y-108257275D02*
X148893482Y-108304894D01*
X148893482Y-108304894D02*
X148941101Y-108352513D01*
X148941101Y-108352513D02*
X148988720Y-108447751D01*
X148988720Y-108447751D02*
X148988720Y-108590608D01*
X148988720Y-108590608D02*
X148941101Y-108685846D01*
X148941101Y-108685846D02*
X148893482Y-108733465D01*
X148893482Y-108733465D02*
X148798244Y-108781084D01*
X148798244Y-108781084D02*
X148417292Y-108781084D01*
X149369673Y-108971560D02*
X149845863Y-108971560D01*
X149274435Y-109257275D02*
X149607768Y-108257275D01*
X149607768Y-108257275D02*
X149941101Y-109257275D01*
X151179197Y-108685846D02*
X151083959Y-108638227D01*
X151083959Y-108638227D02*
X151036340Y-108590608D01*
X151036340Y-108590608D02*
X150988721Y-108495370D01*
X150988721Y-108495370D02*
X150988721Y-108447751D01*
X150988721Y-108447751D02*
X151036340Y-108352513D01*
X151036340Y-108352513D02*
X151083959Y-108304894D01*
X151083959Y-108304894D02*
X151179197Y-108257275D01*
X151179197Y-108257275D02*
X151369673Y-108257275D01*
X151369673Y-108257275D02*
X151464911Y-108304894D01*
X151464911Y-108304894D02*
X151512530Y-108352513D01*
X151512530Y-108352513D02*
X151560149Y-108447751D01*
X151560149Y-108447751D02*
X151560149Y-108495370D01*
X151560149Y-108495370D02*
X151512530Y-108590608D01*
X151512530Y-108590608D02*
X151464911Y-108638227D01*
X151464911Y-108638227D02*
X151369673Y-108685846D01*
X151369673Y-108685846D02*
X151179197Y-108685846D01*
X151179197Y-108685846D02*
X151083959Y-108733465D01*
X151083959Y-108733465D02*
X151036340Y-108781084D01*
X151036340Y-108781084D02*
X150988721Y-108876322D01*
X150988721Y-108876322D02*
X150988721Y-109066798D01*
X150988721Y-109066798D02*
X151036340Y-109162036D01*
X151036340Y-109162036D02*
X151083959Y-109209656D01*
X151083959Y-109209656D02*
X151179197Y-109257275D01*
X151179197Y-109257275D02*
X151369673Y-109257275D01*
X151369673Y-109257275D02*
X151464911Y-109209656D01*
X151464911Y-109209656D02*
X151512530Y-109162036D01*
X151512530Y-109162036D02*
X151560149Y-109066798D01*
X151560149Y-109066798D02*
X151560149Y-108876322D01*
X151560149Y-108876322D02*
X151512530Y-108781084D01*
X151512530Y-108781084D02*
X151464911Y-108733465D01*
X151464911Y-108733465D02*
X151369673Y-108685846D01*
X151893483Y-108257275D02*
X152512530Y-108257275D01*
X152512530Y-108257275D02*
X152179197Y-108638227D01*
X152179197Y-108638227D02*
X152322054Y-108638227D01*
X152322054Y-108638227D02*
X152417292Y-108685846D01*
X152417292Y-108685846D02*
X152464911Y-108733465D01*
X152464911Y-108733465D02*
X152512530Y-108828703D01*
X152512530Y-108828703D02*
X152512530Y-109066798D01*
X152512530Y-109066798D02*
X152464911Y-109162036D01*
X152464911Y-109162036D02*
X152417292Y-109209656D01*
X152417292Y-109209656D02*
X152322054Y-109257275D01*
X152322054Y-109257275D02*
X152036340Y-109257275D01*
X152036340Y-109257275D02*
X151941102Y-109209656D01*
X151941102Y-109209656D02*
X151893483Y-109162036D01*
X153369673Y-108257275D02*
X153179197Y-108257275D01*
X153179197Y-108257275D02*
X153083959Y-108304894D01*
X153083959Y-108304894D02*
X153036340Y-108352513D01*
X153036340Y-108352513D02*
X152941102Y-108495370D01*
X152941102Y-108495370D02*
X152893483Y-108685846D01*
X152893483Y-108685846D02*
X152893483Y-109066798D01*
X152893483Y-109066798D02*
X152941102Y-109162036D01*
X152941102Y-109162036D02*
X152988721Y-109209656D01*
X152988721Y-109209656D02*
X153083959Y-109257275D01*
X153083959Y-109257275D02*
X153274435Y-109257275D01*
X153274435Y-109257275D02*
X153369673Y-109209656D01*
X153369673Y-109209656D02*
X153417292Y-109162036D01*
X153417292Y-109162036D02*
X153464911Y-109066798D01*
X153464911Y-109066798D02*
X153464911Y-108828703D01*
X153464911Y-108828703D02*
X153417292Y-108733465D01*
X153417292Y-108733465D02*
X153369673Y-108685846D01*
X153369673Y-108685846D02*
X153274435Y-108638227D01*
X153274435Y-108638227D02*
X153083959Y-108638227D01*
X153083959Y-108638227D02*
X152988721Y-108685846D01*
X152988721Y-108685846D02*
X152941102Y-108733465D01*
X152941102Y-108733465D02*
X152893483Y-108828703D01*
X147226816Y-109867219D02*
X147560149Y-110867219D01*
X147560149Y-110867219D02*
X147893482Y-109867219D01*
X148226816Y-110771980D02*
X148274435Y-110819600D01*
X148274435Y-110819600D02*
X148226816Y-110867219D01*
X148226816Y-110867219D02*
X148179197Y-110819600D01*
X148179197Y-110819600D02*
X148226816Y-110771980D01*
X148226816Y-110771980D02*
X148226816Y-110867219D01*
X148893482Y-109867219D02*
X148988720Y-109867219D01*
X148988720Y-109867219D02*
X149083958Y-109914838D01*
X149083958Y-109914838D02*
X149131577Y-109962457D01*
X149131577Y-109962457D02*
X149179196Y-110057695D01*
X149179196Y-110057695D02*
X149226815Y-110248171D01*
X149226815Y-110248171D02*
X149226815Y-110486266D01*
X149226815Y-110486266D02*
X149179196Y-110676742D01*
X149179196Y-110676742D02*
X149131577Y-110771980D01*
X149131577Y-110771980D02*
X149083958Y-110819600D01*
X149083958Y-110819600D02*
X148988720Y-110867219D01*
X148988720Y-110867219D02*
X148893482Y-110867219D01*
X148893482Y-110867219D02*
X148798244Y-110819600D01*
X148798244Y-110819600D02*
X148750625Y-110771980D01*
X148750625Y-110771980D02*
X148703006Y-110676742D01*
X148703006Y-110676742D02*
X148655387Y-110486266D01*
X148655387Y-110486266D02*
X148655387Y-110248171D01*
X148655387Y-110248171D02*
X148703006Y-110057695D01*
X148703006Y-110057695D02*
X148750625Y-109962457D01*
X148750625Y-109962457D02*
X148798244Y-109914838D01*
X148798244Y-109914838D02*
X148893482Y-109867219D01*
X149655387Y-110771980D02*
X149703006Y-110819600D01*
X149703006Y-110819600D02*
X149655387Y-110867219D01*
X149655387Y-110867219D02*
X149607768Y-110819600D01*
X149607768Y-110819600D02*
X149655387Y-110771980D01*
X149655387Y-110771980D02*
X149655387Y-110867219D01*
X150655386Y-110867219D02*
X150083958Y-110867219D01*
X150369672Y-110867219D02*
X150369672Y-109867219D01*
X150369672Y-109867219D02*
X150274434Y-110010076D01*
X150274434Y-110010076D02*
X150179196Y-110105314D01*
X150179196Y-110105314D02*
X150083958Y-110152933D01*
D12*
X162880952Y-132359580D02*
X162833333Y-132407200D01*
X162833333Y-132407200D02*
X162690476Y-132454819D01*
X162690476Y-132454819D02*
X162595238Y-132454819D01*
X162595238Y-132454819D02*
X162452381Y-132407200D01*
X162452381Y-132407200D02*
X162357143Y-132311961D01*
X162357143Y-132311961D02*
X162309524Y-132216723D01*
X162309524Y-132216723D02*
X162261905Y-132026247D01*
X162261905Y-132026247D02*
X162261905Y-131883390D01*
X162261905Y-131883390D02*
X162309524Y-131692914D01*
X162309524Y-131692914D02*
X162357143Y-131597676D01*
X162357143Y-131597676D02*
X162452381Y-131502438D01*
X162452381Y-131502438D02*
X162595238Y-131454819D01*
X162595238Y-131454819D02*
X162690476Y-131454819D01*
X162690476Y-131454819D02*
X162833333Y-131502438D01*
X162833333Y-131502438D02*
X162880952Y-131550057D01*
X163833333Y-132454819D02*
X163261905Y-132454819D01*
X163547619Y-132454819D02*
X163547619Y-131454819D01*
X163547619Y-131454819D02*
X163452381Y-131597676D01*
X163452381Y-131597676D02*
X163357143Y-131692914D01*
X163357143Y-131692914D02*
X163261905Y-131740533D01*
X164452381Y-131454819D02*
X164547619Y-131454819D01*
X164547619Y-131454819D02*
X164642857Y-131502438D01*
X164642857Y-131502438D02*
X164690476Y-131550057D01*
X164690476Y-131550057D02*
X164738095Y-131645295D01*
X164738095Y-131645295D02*
X164785714Y-131835771D01*
X164785714Y-131835771D02*
X164785714Y-132073866D01*
X164785714Y-132073866D02*
X164738095Y-132264342D01*
X164738095Y-132264342D02*
X164690476Y-132359580D01*
X164690476Y-132359580D02*
X164642857Y-132407200D01*
X164642857Y-132407200D02*
X164547619Y-132454819D01*
X164547619Y-132454819D02*
X164452381Y-132454819D01*
X164452381Y-132454819D02*
X164357143Y-132407200D01*
X164357143Y-132407200D02*
X164309524Y-132359580D01*
X164309524Y-132359580D02*
X164261905Y-132264342D01*
X164261905Y-132264342D02*
X164214286Y-132073866D01*
X164214286Y-132073866D02*
X164214286Y-131835771D01*
X164214286Y-131835771D02*
X164261905Y-131645295D01*
X164261905Y-131645295D02*
X164309524Y-131550057D01*
X164309524Y-131550057D02*
X164357143Y-131502438D01*
X164357143Y-131502438D02*
X164452381Y-131454819D01*
X165738095Y-132454819D02*
X165166667Y-132454819D01*
X165452381Y-132454819D02*
X165452381Y-131454819D01*
X165452381Y-131454819D02*
X165357143Y-131597676D01*
X165357143Y-131597676D02*
X165261905Y-131692914D01*
X165261905Y-131692914D02*
X165166667Y-131740533D01*
X167880952Y-132359580D02*
X167833333Y-132407200D01*
X167833333Y-132407200D02*
X167690476Y-132454819D01*
X167690476Y-132454819D02*
X167595238Y-132454819D01*
X167595238Y-132454819D02*
X167452381Y-132407200D01*
X167452381Y-132407200D02*
X167357143Y-132311961D01*
X167357143Y-132311961D02*
X167309524Y-132216723D01*
X167309524Y-132216723D02*
X167261905Y-132026247D01*
X167261905Y-132026247D02*
X167261905Y-131883390D01*
X167261905Y-131883390D02*
X167309524Y-131692914D01*
X167309524Y-131692914D02*
X167357143Y-131597676D01*
X167357143Y-131597676D02*
X167452381Y-131502438D01*
X167452381Y-131502438D02*
X167595238Y-131454819D01*
X167595238Y-131454819D02*
X167690476Y-131454819D01*
X167690476Y-131454819D02*
X167833333Y-131502438D01*
X167833333Y-131502438D02*
X167880952Y-131550057D01*
X168833333Y-132454819D02*
X168261905Y-132454819D01*
X168547619Y-132454819D02*
X168547619Y-131454819D01*
X168547619Y-131454819D02*
X168452381Y-131597676D01*
X168452381Y-131597676D02*
X168357143Y-131692914D01*
X168357143Y-131692914D02*
X168261905Y-131740533D01*
X169452381Y-131454819D02*
X169547619Y-131454819D01*
X169547619Y-131454819D02*
X169642857Y-131502438D01*
X169642857Y-131502438D02*
X169690476Y-131550057D01*
X169690476Y-131550057D02*
X169738095Y-131645295D01*
X169738095Y-131645295D02*
X169785714Y-131835771D01*
X169785714Y-131835771D02*
X169785714Y-132073866D01*
X169785714Y-132073866D02*
X169738095Y-132264342D01*
X169738095Y-132264342D02*
X169690476Y-132359580D01*
X169690476Y-132359580D02*
X169642857Y-132407200D01*
X169642857Y-132407200D02*
X169547619Y-132454819D01*
X169547619Y-132454819D02*
X169452381Y-132454819D01*
X169452381Y-132454819D02*
X169357143Y-132407200D01*
X169357143Y-132407200D02*
X169309524Y-132359580D01*
X169309524Y-132359580D02*
X169261905Y-132264342D01*
X169261905Y-132264342D02*
X169214286Y-132073866D01*
X169214286Y-132073866D02*
X169214286Y-131835771D01*
X169214286Y-131835771D02*
X169261905Y-131645295D01*
X169261905Y-131645295D02*
X169309524Y-131550057D01*
X169309524Y-131550057D02*
X169357143Y-131502438D01*
X169357143Y-131502438D02*
X169452381Y-131454819D01*
X170166667Y-131550057D02*
X170214286Y-131502438D01*
X170214286Y-131502438D02*
X170309524Y-131454819D01*
X170309524Y-131454819D02*
X170547619Y-131454819D01*
X170547619Y-131454819D02*
X170642857Y-131502438D01*
X170642857Y-131502438D02*
X170690476Y-131550057D01*
X170690476Y-131550057D02*
X170738095Y-131645295D01*
X170738095Y-131645295D02*
X170738095Y-131740533D01*
X170738095Y-131740533D02*
X170690476Y-131883390D01*
X170690476Y-131883390D02*
X170119048Y-132454819D01*
X170119048Y-132454819D02*
X170738095Y-132454819D01*
D13*
X162574318Y-128699286D02*
X161304318Y-128699286D01*
X162453365Y-127368809D02*
X162513842Y-127429285D01*
X162513842Y-127429285D02*
X162574318Y-127610714D01*
X162574318Y-127610714D02*
X162574318Y-127731666D01*
X162574318Y-127731666D02*
X162513842Y-127913095D01*
X162513842Y-127913095D02*
X162392889Y-128034047D01*
X162392889Y-128034047D02*
X162271937Y-128094524D01*
X162271937Y-128094524D02*
X162030032Y-128155000D01*
X162030032Y-128155000D02*
X161848603Y-128155000D01*
X161848603Y-128155000D02*
X161606699Y-128094524D01*
X161606699Y-128094524D02*
X161485746Y-128034047D01*
X161485746Y-128034047D02*
X161364794Y-127913095D01*
X161364794Y-127913095D02*
X161304318Y-127731666D01*
X161304318Y-127731666D02*
X161304318Y-127610714D01*
X161304318Y-127610714D02*
X161364794Y-127429285D01*
X161364794Y-127429285D02*
X161425270Y-127368809D01*
X162574318Y-126159285D02*
X162574318Y-126885000D01*
X162574318Y-126522143D02*
X161304318Y-126522143D01*
X161304318Y-126522143D02*
X161485746Y-126643095D01*
X161485746Y-126643095D02*
X161606699Y-126764047D01*
X161606699Y-126764047D02*
X161667175Y-126885000D01*
X161304318Y-125373095D02*
X161304318Y-125252142D01*
X161304318Y-125252142D02*
X161364794Y-125131190D01*
X161364794Y-125131190D02*
X161425270Y-125070714D01*
X161425270Y-125070714D02*
X161546222Y-125010238D01*
X161546222Y-125010238D02*
X161788127Y-124949761D01*
X161788127Y-124949761D02*
X162090508Y-124949761D01*
X162090508Y-124949761D02*
X162332413Y-125010238D01*
X162332413Y-125010238D02*
X162453365Y-125070714D01*
X162453365Y-125070714D02*
X162513842Y-125131190D01*
X162513842Y-125131190D02*
X162574318Y-125252142D01*
X162574318Y-125252142D02*
X162574318Y-125373095D01*
X162574318Y-125373095D02*
X162513842Y-125494047D01*
X162513842Y-125494047D02*
X162453365Y-125554523D01*
X162453365Y-125554523D02*
X162332413Y-125615000D01*
X162332413Y-125615000D02*
X162090508Y-125675476D01*
X162090508Y-125675476D02*
X161788127Y-125675476D01*
X161788127Y-125675476D02*
X161546222Y-125615000D01*
X161546222Y-125615000D02*
X161425270Y-125554523D01*
X161425270Y-125554523D02*
X161364794Y-125494047D01*
X161364794Y-125494047D02*
X161304318Y-125373095D01*
X162574318Y-123740237D02*
X162574318Y-124465952D01*
X162574318Y-124103095D02*
X161304318Y-124103095D01*
X161304318Y-124103095D02*
X161485746Y-124224047D01*
X161485746Y-124224047D02*
X161606699Y-124344999D01*
X161606699Y-124344999D02*
X161667175Y-124465952D01*
D12*
X153454819Y-128285714D02*
X154169104Y-128285714D01*
X154169104Y-128285714D02*
X154311961Y-128333333D01*
X154311961Y-128333333D02*
X154407200Y-128428571D01*
X154407200Y-128428571D02*
X154454819Y-128571428D01*
X154454819Y-128571428D02*
X154454819Y-128666666D01*
X154454819Y-127285714D02*
X154454819Y-127857142D01*
X154454819Y-127571428D02*
X153454819Y-127571428D01*
X153454819Y-127571428D02*
X153597676Y-127666666D01*
X153597676Y-127666666D02*
X153692914Y-127761904D01*
X153692914Y-127761904D02*
X153740533Y-127857142D01*
X153454819Y-126666666D02*
X153454819Y-126571428D01*
X153454819Y-126571428D02*
X153502438Y-126476190D01*
X153502438Y-126476190D02*
X153550057Y-126428571D01*
X153550057Y-126428571D02*
X153645295Y-126380952D01*
X153645295Y-126380952D02*
X153835771Y-126333333D01*
X153835771Y-126333333D02*
X154073866Y-126333333D01*
X154073866Y-126333333D02*
X154264342Y-126380952D01*
X154264342Y-126380952D02*
X154359580Y-126428571D01*
X154359580Y-126428571D02*
X154407200Y-126476190D01*
X154407200Y-126476190D02*
X154454819Y-126571428D01*
X154454819Y-126571428D02*
X154454819Y-126666666D01*
X154454819Y-126666666D02*
X154407200Y-126761904D01*
X154407200Y-126761904D02*
X154359580Y-126809523D01*
X154359580Y-126809523D02*
X154264342Y-126857142D01*
X154264342Y-126857142D02*
X154073866Y-126904761D01*
X154073866Y-126904761D02*
X153835771Y-126904761D01*
X153835771Y-126904761D02*
X153645295Y-126857142D01*
X153645295Y-126857142D02*
X153550057Y-126809523D01*
X153550057Y-126809523D02*
X153502438Y-126761904D01*
X153502438Y-126761904D02*
X153454819Y-126666666D01*
X154454819Y-125380952D02*
X154454819Y-125952380D01*
X154454819Y-125666666D02*
X153454819Y-125666666D01*
X153454819Y-125666666D02*
X153597676Y-125761904D01*
X153597676Y-125761904D02*
X153692914Y-125857142D01*
X153692914Y-125857142D02*
X153740533Y-125952380D01*
X165890952Y-120359580D02*
X165843333Y-120407200D01*
X165843333Y-120407200D02*
X165700476Y-120454819D01*
X165700476Y-120454819D02*
X165605238Y-120454819D01*
X165605238Y-120454819D02*
X165462381Y-120407200D01*
X165462381Y-120407200D02*
X165367143Y-120311961D01*
X165367143Y-120311961D02*
X165319524Y-120216723D01*
X165319524Y-120216723D02*
X165271905Y-120026247D01*
X165271905Y-120026247D02*
X165271905Y-119883390D01*
X165271905Y-119883390D02*
X165319524Y-119692914D01*
X165319524Y-119692914D02*
X165367143Y-119597676D01*
X165367143Y-119597676D02*
X165462381Y-119502438D01*
X165462381Y-119502438D02*
X165605238Y-119454819D01*
X165605238Y-119454819D02*
X165700476Y-119454819D01*
X165700476Y-119454819D02*
X165843333Y-119502438D01*
X165843333Y-119502438D02*
X165890952Y-119550057D01*
X166843333Y-120454819D02*
X166271905Y-120454819D01*
X166557619Y-120454819D02*
X166557619Y-119454819D01*
X166557619Y-119454819D02*
X166462381Y-119597676D01*
X166462381Y-119597676D02*
X166367143Y-119692914D01*
X166367143Y-119692914D02*
X166271905Y-119740533D01*
X167462381Y-119454819D02*
X167557619Y-119454819D01*
X167557619Y-119454819D02*
X167652857Y-119502438D01*
X167652857Y-119502438D02*
X167700476Y-119550057D01*
X167700476Y-119550057D02*
X167748095Y-119645295D01*
X167748095Y-119645295D02*
X167795714Y-119835771D01*
X167795714Y-119835771D02*
X167795714Y-120073866D01*
X167795714Y-120073866D02*
X167748095Y-120264342D01*
X167748095Y-120264342D02*
X167700476Y-120359580D01*
X167700476Y-120359580D02*
X167652857Y-120407200D01*
X167652857Y-120407200D02*
X167557619Y-120454819D01*
X167557619Y-120454819D02*
X167462381Y-120454819D01*
X167462381Y-120454819D02*
X167367143Y-120407200D01*
X167367143Y-120407200D02*
X167319524Y-120359580D01*
X167319524Y-120359580D02*
X167271905Y-120264342D01*
X167271905Y-120264342D02*
X167224286Y-120073866D01*
X167224286Y-120073866D02*
X167224286Y-119835771D01*
X167224286Y-119835771D02*
X167271905Y-119645295D01*
X167271905Y-119645295D02*
X167319524Y-119550057D01*
X167319524Y-119550057D02*
X167367143Y-119502438D01*
X167367143Y-119502438D02*
X167462381Y-119454819D01*
X168652857Y-119788152D02*
X168652857Y-120454819D01*
X168414762Y-119407200D02*
X168176667Y-120121485D01*
X168176667Y-120121485D02*
X168795714Y-120121485D01*
X161918452Y-120359580D02*
X161870833Y-120407200D01*
X161870833Y-120407200D02*
X161727976Y-120454819D01*
X161727976Y-120454819D02*
X161632738Y-120454819D01*
X161632738Y-120454819D02*
X161489881Y-120407200D01*
X161489881Y-120407200D02*
X161394643Y-120311961D01*
X161394643Y-120311961D02*
X161347024Y-120216723D01*
X161347024Y-120216723D02*
X161299405Y-120026247D01*
X161299405Y-120026247D02*
X161299405Y-119883390D01*
X161299405Y-119883390D02*
X161347024Y-119692914D01*
X161347024Y-119692914D02*
X161394643Y-119597676D01*
X161394643Y-119597676D02*
X161489881Y-119502438D01*
X161489881Y-119502438D02*
X161632738Y-119454819D01*
X161632738Y-119454819D02*
X161727976Y-119454819D01*
X161727976Y-119454819D02*
X161870833Y-119502438D01*
X161870833Y-119502438D02*
X161918452Y-119550057D01*
X162870833Y-120454819D02*
X162299405Y-120454819D01*
X162585119Y-120454819D02*
X162585119Y-119454819D01*
X162585119Y-119454819D02*
X162489881Y-119597676D01*
X162489881Y-119597676D02*
X162394643Y-119692914D01*
X162394643Y-119692914D02*
X162299405Y-119740533D01*
X163489881Y-119454819D02*
X163585119Y-119454819D01*
X163585119Y-119454819D02*
X163680357Y-119502438D01*
X163680357Y-119502438D02*
X163727976Y-119550057D01*
X163727976Y-119550057D02*
X163775595Y-119645295D01*
X163775595Y-119645295D02*
X163823214Y-119835771D01*
X163823214Y-119835771D02*
X163823214Y-120073866D01*
X163823214Y-120073866D02*
X163775595Y-120264342D01*
X163775595Y-120264342D02*
X163727976Y-120359580D01*
X163727976Y-120359580D02*
X163680357Y-120407200D01*
X163680357Y-120407200D02*
X163585119Y-120454819D01*
X163585119Y-120454819D02*
X163489881Y-120454819D01*
X163489881Y-120454819D02*
X163394643Y-120407200D01*
X163394643Y-120407200D02*
X163347024Y-120359580D01*
X163347024Y-120359580D02*
X163299405Y-120264342D01*
X163299405Y-120264342D02*
X163251786Y-120073866D01*
X163251786Y-120073866D02*
X163251786Y-119835771D01*
X163251786Y-119835771D02*
X163299405Y-119645295D01*
X163299405Y-119645295D02*
X163347024Y-119550057D01*
X163347024Y-119550057D02*
X163394643Y-119502438D01*
X163394643Y-119502438D02*
X163489881Y-119454819D01*
X164156548Y-119454819D02*
X164775595Y-119454819D01*
X164775595Y-119454819D02*
X164442262Y-119835771D01*
X164442262Y-119835771D02*
X164585119Y-119835771D01*
X164585119Y-119835771D02*
X164680357Y-119883390D01*
X164680357Y-119883390D02*
X164727976Y-119931009D01*
X164727976Y-119931009D02*
X164775595Y-120026247D01*
X164775595Y-120026247D02*
X164775595Y-120264342D01*
X164775595Y-120264342D02*
X164727976Y-120359580D01*
X164727976Y-120359580D02*
X164680357Y-120407200D01*
X164680357Y-120407200D02*
X164585119Y-120454819D01*
X164585119Y-120454819D02*
X164299405Y-120454819D01*
X164299405Y-120454819D02*
X164204167Y-120407200D01*
X164204167Y-120407200D02*
X164156548Y-120359580D01*
D14*
X163738748Y-129265000D02*
X164261252Y-129265000D01*
X163738748Y-130735000D02*
X164261252Y-130735000D01*
X168271252Y-129265000D02*
X167748748Y-129265000D01*
X168271252Y-130735000D02*
X167748748Y-130735000D01*
D11*
X163550000Y-125950000D02*
X166450000Y-125950000D01*
X163550000Y-126550000D02*
X163550000Y-125950000D01*
X166450000Y-125950000D02*
X166450000Y-126550000D01*
X166450000Y-126550000D02*
X163550000Y-126550000D01*
X166600000Y-124400000D02*
X166600000Y-125600000D01*
D14*
X159590000Y-110670000D02*
X160920000Y-110670000D01*
X159590000Y-112000000D02*
X159590000Y-110670000D01*
X159590000Y-140670000D02*
X160920000Y-140670000D01*
X159590000Y-142000000D02*
X159590000Y-140670000D01*
X160700000Y-142000000D02*
X170920000Y-142000000D01*
X162190000Y-110670000D02*
X172410000Y-110670000D01*
X162190000Y-113330000D02*
X162190000Y-110670000D01*
X162190000Y-113330000D02*
X172410000Y-113330000D01*
X162190000Y-143330000D02*
X162190000Y-140670000D01*
X162190000Y-143330000D02*
X172410000Y-143330000D01*
X172410000Y-113330000D02*
X172410000Y-110670000D01*
X172410000Y-143330000D02*
X172410000Y-140670000D01*
D12*
X146000000Y-147000000D02*
X186000000Y-147000000D01*
X186000000Y-107000000D01*
X146000000Y-107000000D01*
X146000000Y-147000000D01*
D14*
X149670000Y-127810000D02*
X149670000Y-122670000D01*
X152330000Y-122670000D02*
X149670000Y-122670000D01*
X152330000Y-127810000D02*
X149670000Y-127810000D01*
X152330000Y-127810000D02*
X152330000Y-122670000D01*
X152330000Y-129080000D02*
X152330000Y-130410000D01*
X152330000Y-130410000D02*
X151000000Y-130410000D01*
X166748748Y-121302500D02*
X167271252Y-121302500D01*
X166748748Y-122772500D02*
X167271252Y-122772500D01*
X163298752Y-121265000D02*
X162776248Y-121265000D01*
X163298752Y-122735000D02*
X162776248Y-122735000D01*
%LPC*%
D15*
X162962500Y-130000000D03*
X165037500Y-130000000D03*
D16*
X169047500Y-130000000D03*
X166972500Y-130000000D03*
D17*
X165950000Y-125000000D03*
X165000000Y-125000000D03*
X164050000Y-125000000D03*
X164050000Y-127500000D03*
X165000000Y-127500000D03*
X165950000Y-127500000D03*
D18*
X160920000Y-142000000D03*
D19*
X163460000Y-142000000D03*
X166000000Y-142000000D03*
X168540000Y-142000000D03*
X171080000Y-142000000D03*
X160920000Y-112000000D03*
X163460000Y-112000000D03*
X166000000Y-112000000D03*
X168540000Y-112000000D03*
X171080000Y-112000000D03*
D18*
X151000000Y-129080000D03*
D19*
X151000000Y-126540000D03*
X151000000Y-124000000D03*
D15*
X165972500Y-122037500D03*
X168047500Y-122037500D03*
D16*
X164075000Y-122000000D03*
X162000000Y-122000000D03*
%LPD*%
M02*
