G04 #@! TF.GenerationSoftware,KiCad,Pcbnew,8.0.6*
G04 #@! TF.CreationDate,2025-08-21T09:44:44+02:00*
G04 #@! TF.ProjectId,StackBoard_OPA836,53746163-6b42-46f6-9172-645f4f504138,rev?*
G04 #@! TF.SameCoordinates,Original*
G04 #@! TF.FileFunction,Copper,L1,Top*
G04 #@! TF.FilePolarity,Positive*
%FSLAX46Y46*%
G04 Gerber Fmt 4.6, Leading zero omitted, Abs format (unit mm)*
G04 Created by KiCad (PCBNEW 8.0.6) date 2025-08-21 09:44:44*
%MOMM*%
%LPD*%
G01*
G04 APERTURE LIST*
G04 Aperture macros list*
%AMRoundRect*
0 Rectangle with rounded corners*
0 $1 Rounding radius*
0 $2 $3 $4 $5 $6 $7 $8 $9 X,Y pos of 4 corners*
0 Add a 4 corners polygon primitive as box body*
4,1,4,$2,$3,$4,$5,$6,$7,$8,$9,$2,$3,0*
0 Add four circle primitives for the rounded corners*
1,1,$1+$1,$2,$3*
1,1,$1+$1,$4,$5*
1,1,$1+$1,$6,$7*
1,1,$1+$1,$8,$9*
0 Add four rect primitives between the rounded corners*
20,1,$1+$1,$2,$3,$4,$5,0*
20,1,$1+$1,$4,$5,$6,$7,0*
20,1,$1+$1,$6,$7,$8,$9,0*
20,1,$1+$1,$8,$9,$2,$3,0*%
G04 Aperture macros list end*
G04 #@! TA.AperFunction,SMDPad,CuDef*
%ADD10RoundRect,0.250000X-0.337500X-0.475000X0.337500X-0.475000X0.337500X0.475000X-0.337500X0.475000X0*%
G04 #@! TD*
G04 #@! TA.AperFunction,SMDPad,CuDef*
%ADD11RoundRect,0.250000X0.337500X0.475000X-0.337500X0.475000X-0.337500X-0.475000X0.337500X-0.475000X0*%
G04 #@! TD*
G04 #@! TA.AperFunction,SMDPad,CuDef*
%ADD12R,0.600000X1.200000*%
G04 #@! TD*
G04 #@! TA.AperFunction,ComponentPad*
%ADD13R,1.700000X1.700000*%
G04 #@! TD*
G04 #@! TA.AperFunction,ComponentPad*
%ADD14O,1.700000X1.700000*%
G04 #@! TD*
G04 #@! TA.AperFunction,ViaPad*
%ADD15C,0.600000*%
G04 #@! TD*
G04 #@! TA.AperFunction,Conductor*
%ADD16C,0.500000*%
G04 #@! TD*
G04 APERTURE END LIST*
D10*
X162962500Y-130000000D03*
X165037500Y-130000000D03*
D11*
X169047500Y-130000000D03*
X166972500Y-130000000D03*
D12*
X165950000Y-125000000D03*
X165000000Y-125000000D03*
X164050000Y-125000000D03*
X164050000Y-127500000D03*
X165000000Y-127500000D03*
X165950000Y-127500000D03*
D13*
X160920000Y-142000000D03*
D14*
X163460000Y-142000000D03*
X166000000Y-142000000D03*
X168540000Y-142000000D03*
X171080000Y-142000000D03*
X160920000Y-112000000D03*
X163460000Y-112000000D03*
X166000000Y-112000000D03*
X168540000Y-112000000D03*
X171080000Y-112000000D03*
D13*
X151000000Y-129080000D03*
D14*
X151000000Y-126540000D03*
X151000000Y-124000000D03*
D10*
X165972500Y-122037500D03*
X168047500Y-122037500D03*
D11*
X164075000Y-122000000D03*
X162000000Y-122000000D03*
D15*
X162560000Y-128270000D03*
X162560000Y-130810000D03*
X162560000Y-132715000D03*
X162560000Y-134620000D03*
X162560000Y-136525000D03*
X162560000Y-139065000D03*
X183320000Y-108780000D03*
X181320000Y-108780000D03*
X179320000Y-108780000D03*
X177320000Y-108780000D03*
X175320000Y-108780000D03*
X173320000Y-108780000D03*
X171320000Y-108780000D03*
X169320000Y-108780000D03*
X167320000Y-108780000D03*
X165320000Y-108780000D03*
X163320000Y-108780000D03*
X161320000Y-108780000D03*
X159320000Y-108780000D03*
X157320000Y-108780000D03*
X155320000Y-108780000D03*
X153320000Y-108780000D03*
X151320000Y-108780000D03*
X149320000Y-108780000D03*
X147320000Y-108780000D03*
X183320000Y-110780000D03*
X181320000Y-110780000D03*
X179320000Y-110780000D03*
X177320000Y-110780000D03*
X175320000Y-110780000D03*
X173320000Y-110780000D03*
X159320000Y-110780000D03*
X157320000Y-110780000D03*
X155320000Y-110780000D03*
X153320000Y-110780000D03*
X151320000Y-110780000D03*
X149320000Y-110780000D03*
X147320000Y-110780000D03*
X183320000Y-112780000D03*
X181320000Y-112780000D03*
X179320000Y-112780000D03*
X177320000Y-112780000D03*
X175320000Y-112780000D03*
X173320000Y-112780000D03*
X159320000Y-112780000D03*
X157320000Y-112780000D03*
X155320000Y-112780000D03*
X153320000Y-112780000D03*
X151320000Y-112780000D03*
X149320000Y-112780000D03*
X147320000Y-112780000D03*
X183320000Y-114780000D03*
X181320000Y-114780000D03*
X179320000Y-114780000D03*
X177320000Y-114780000D03*
X175320000Y-114780000D03*
X173320000Y-114780000D03*
X169320000Y-114780000D03*
X167320000Y-114780000D03*
X161320000Y-114780000D03*
X159320000Y-114780000D03*
X157320000Y-114780000D03*
X155320000Y-114780000D03*
X153320000Y-114780000D03*
X151320000Y-114780000D03*
X149320000Y-114780000D03*
X147320000Y-114780000D03*
X183320000Y-116780000D03*
X181320000Y-116780000D03*
X179320000Y-116780000D03*
X177320000Y-116780000D03*
X175320000Y-116780000D03*
X173320000Y-116780000D03*
X169320000Y-116780000D03*
X167320000Y-116780000D03*
X163320000Y-116780000D03*
X159320000Y-116780000D03*
X157320000Y-116780000D03*
X155320000Y-116780000D03*
X153320000Y-116780000D03*
X151320000Y-116780000D03*
X149320000Y-116780000D03*
X147320000Y-116780000D03*
X183320000Y-118780000D03*
X181320000Y-118780000D03*
X179320000Y-118780000D03*
X177320000Y-118780000D03*
X175320000Y-118780000D03*
X173320000Y-118780000D03*
X169320000Y-118780000D03*
X163320000Y-118780000D03*
X161320000Y-118780000D03*
X157320000Y-118780000D03*
X155320000Y-118780000D03*
X153320000Y-118780000D03*
X151320000Y-118780000D03*
X149320000Y-118780000D03*
X147320000Y-118780000D03*
X183320000Y-120780000D03*
X181320000Y-120780000D03*
X179320000Y-120780000D03*
X177320000Y-120780000D03*
X175320000Y-120780000D03*
X173320000Y-120780000D03*
X169320000Y-120780000D03*
X163320000Y-120780000D03*
X161320000Y-120780000D03*
X159320000Y-120780000D03*
X155320000Y-120780000D03*
X153320000Y-120780000D03*
X151320000Y-120780000D03*
X149320000Y-120780000D03*
X147320000Y-120780000D03*
X183320000Y-122780000D03*
X181320000Y-122780000D03*
X179320000Y-122780000D03*
X177320000Y-122780000D03*
X175320000Y-122780000D03*
X173320000Y-122780000D03*
X171320000Y-122780000D03*
X161320000Y-122780000D03*
X159320000Y-122780000D03*
X157320000Y-122780000D03*
X153320000Y-122780000D03*
X149320000Y-122780000D03*
X147320000Y-122780000D03*
X183320000Y-124780000D03*
X181320000Y-124780000D03*
X179320000Y-124780000D03*
X177320000Y-124780000D03*
X175320000Y-124780000D03*
X173320000Y-124780000D03*
X171320000Y-124780000D03*
X161320000Y-124780000D03*
X159320000Y-124780000D03*
X157320000Y-124780000D03*
X155320000Y-124780000D03*
X153320000Y-124780000D03*
X149320000Y-124780000D03*
X147320000Y-124780000D03*
X183320000Y-126780000D03*
X181320000Y-126780000D03*
X179320000Y-126780000D03*
X177320000Y-126780000D03*
X175320000Y-126780000D03*
X173320000Y-126780000D03*
X169320000Y-126780000D03*
X167320000Y-126780000D03*
X149320000Y-126780000D03*
X147320000Y-126780000D03*
X183320000Y-128780000D03*
X181320000Y-128780000D03*
X179320000Y-128780000D03*
X177320000Y-128780000D03*
X175320000Y-128780000D03*
X173320000Y-128780000D03*
X169320000Y-128780000D03*
X159320000Y-128780000D03*
X157320000Y-128780000D03*
X155320000Y-128780000D03*
X153320000Y-128780000D03*
X149320000Y-128780000D03*
X147320000Y-128780000D03*
X183320000Y-130780000D03*
X181320000Y-130780000D03*
X179320000Y-130780000D03*
X177320000Y-130780000D03*
X175320000Y-130780000D03*
X173320000Y-130780000D03*
X169320000Y-130780000D03*
X159320000Y-130780000D03*
X157320000Y-130780000D03*
X155320000Y-130780000D03*
X153320000Y-130780000D03*
X151320000Y-130780000D03*
X149320000Y-130780000D03*
X147320000Y-130780000D03*
X183320000Y-132780000D03*
X181320000Y-132780000D03*
X179320000Y-132780000D03*
X177320000Y-132780000D03*
X175320000Y-132780000D03*
X173320000Y-132780000D03*
X169320000Y-132780000D03*
X167320000Y-132780000D03*
X165320000Y-132780000D03*
X159320000Y-132780000D03*
X157320000Y-132780000D03*
X155320000Y-132780000D03*
X153320000Y-132780000D03*
X151320000Y-132780000D03*
X149320000Y-132780000D03*
X147320000Y-132780000D03*
X183320000Y-134780000D03*
X181320000Y-134780000D03*
X179320000Y-134780000D03*
X177320000Y-134780000D03*
X175320000Y-134780000D03*
X173320000Y-134780000D03*
X169320000Y-134780000D03*
X167320000Y-134780000D03*
X165320000Y-134780000D03*
X159320000Y-134780000D03*
X157320000Y-134780000D03*
X155320000Y-134780000D03*
X153320000Y-134780000D03*
X151320000Y-134780000D03*
X149320000Y-134780000D03*
X147320000Y-134780000D03*
X183320000Y-136780000D03*
X181320000Y-136780000D03*
X179320000Y-136780000D03*
X177320000Y-136780000D03*
X175320000Y-136780000D03*
X173320000Y-136780000D03*
X169320000Y-136780000D03*
X167320000Y-136780000D03*
X165320000Y-136780000D03*
X159320000Y-136780000D03*
X157320000Y-136780000D03*
X155320000Y-136780000D03*
X153320000Y-136780000D03*
X151320000Y-136780000D03*
X149320000Y-136780000D03*
X147320000Y-136780000D03*
X183320000Y-138780000D03*
X181320000Y-138780000D03*
X179320000Y-138780000D03*
X177320000Y-138780000D03*
X175320000Y-138780000D03*
X173320000Y-138780000D03*
X169320000Y-138780000D03*
X167320000Y-138780000D03*
X165320000Y-138780000D03*
X159320000Y-138780000D03*
X157320000Y-138780000D03*
X155320000Y-138780000D03*
X153320000Y-138780000D03*
X151320000Y-138780000D03*
X149320000Y-138780000D03*
X147320000Y-138780000D03*
X183320000Y-140780000D03*
X181320000Y-140780000D03*
X179320000Y-140780000D03*
X177320000Y-140780000D03*
X175320000Y-140780000D03*
X173320000Y-140780000D03*
X159320000Y-140780000D03*
X157320000Y-140780000D03*
X155320000Y-140780000D03*
X153320000Y-140780000D03*
X151320000Y-140780000D03*
X149320000Y-140780000D03*
X147320000Y-140780000D03*
X183320000Y-142780000D03*
X181320000Y-142780000D03*
X179320000Y-142780000D03*
X177320000Y-142780000D03*
X175320000Y-142780000D03*
X173320000Y-142780000D03*
X159320000Y-142780000D03*
X157320000Y-142780000D03*
X155320000Y-142780000D03*
X153320000Y-142780000D03*
X151320000Y-142780000D03*
X149320000Y-142780000D03*
X147320000Y-142780000D03*
X183320000Y-144780000D03*
X181320000Y-144780000D03*
X179320000Y-144780000D03*
X177320000Y-144780000D03*
X175320000Y-144780000D03*
X173320000Y-144780000D03*
X171320000Y-144780000D03*
X169320000Y-144780000D03*
X167320000Y-144780000D03*
X165320000Y-144780000D03*
X163320000Y-144780000D03*
X161320000Y-144780000D03*
X159320000Y-144780000D03*
X157320000Y-144780000D03*
X155320000Y-144780000D03*
X153320000Y-144780000D03*
X151320000Y-144780000D03*
X149320000Y-144780000D03*
X166000000Y-131000000D03*
X165000000Y-121000000D03*
X164000000Y-116000000D03*
X164005330Y-126105332D03*
X147320000Y-144780000D03*
D16*
X166972500Y-130000000D02*
X166862500Y-130000000D01*
X166000000Y-131000000D02*
X166000000Y-130972500D01*
X151000000Y-124000000D02*
X154000000Y-124000000D01*
X166862500Y-130000000D02*
X165950000Y-129087500D01*
X166000000Y-130962500D02*
X165037500Y-130000000D01*
X165950000Y-129087500D02*
X165037500Y-130000000D01*
X166000000Y-131000000D02*
X166000000Y-130962500D01*
X165950000Y-127500000D02*
X165950000Y-129087500D01*
X166000000Y-130972500D02*
X166972500Y-130000000D01*
X154000000Y-124000000D02*
X166000000Y-112000000D01*
X165000000Y-121075000D02*
X164075000Y-122000000D01*
X165000000Y-125000000D02*
X165000000Y-123010000D01*
X165000000Y-121000000D02*
X165000000Y-121065000D01*
X165000000Y-121000000D02*
X165000000Y-121075000D01*
X165000000Y-121065000D02*
X165972500Y-122037500D01*
X165000000Y-123010000D02*
X165972500Y-122037500D01*
X165000000Y-125000000D02*
X165000000Y-122925000D01*
X165000000Y-122925000D02*
X164075000Y-122000000D01*
X164000000Y-141460000D02*
X163460000Y-142000000D01*
X164050000Y-127500000D02*
X164000000Y-127550000D01*
X164000000Y-127550000D02*
X164000000Y-141460000D01*
X163460000Y-112000000D02*
X160920000Y-112000000D01*
X167010000Y-123940000D02*
X167010000Y-119010000D01*
X165950000Y-125000000D02*
X167010000Y-123940000D01*
X167010000Y-119010000D02*
X164000000Y-116000000D01*
X171080000Y-112000000D02*
X171080000Y-121920000D01*
X166550000Y-126450000D02*
X165200000Y-126450000D01*
X165000000Y-127500000D02*
X165000000Y-126400000D01*
X165000000Y-126650000D02*
X165000000Y-127500000D01*
X171080000Y-121920000D02*
X166550000Y-126450000D01*
X165000000Y-126400000D02*
X164705332Y-126105332D01*
X164705332Y-126105332D02*
X164005330Y-126105332D01*
X165200000Y-126450000D02*
X165000000Y-126650000D01*
X160920000Y-142000000D02*
X160920000Y-128130000D01*
X160920000Y-128130000D02*
X164050000Y-125000000D01*
G04 #@! TA.AperFunction,Conductor*
G36*
X163168834Y-127045047D02*
G01*
X163224767Y-127086919D01*
X163249184Y-127152383D01*
X163249500Y-127161229D01*
X163249500Y-128686638D01*
X163229815Y-128753677D01*
X163213181Y-128774319D01*
X163212500Y-128775000D01*
X163212500Y-131224999D01*
X163213181Y-131225680D01*
X163246666Y-131287003D01*
X163249500Y-131313361D01*
X163249500Y-140563113D01*
X163229815Y-140630152D01*
X163177011Y-140675907D01*
X163157594Y-140682888D01*
X162996341Y-140726095D01*
X162996335Y-140726098D01*
X162782171Y-140825964D01*
X162782169Y-140825965D01*
X162588600Y-140961503D01*
X162466673Y-141083430D01*
X162405350Y-141116914D01*
X162335658Y-141111930D01*
X162279725Y-141070058D01*
X162262810Y-141039081D01*
X162213797Y-140907671D01*
X162213793Y-140907664D01*
X162127547Y-140792455D01*
X162127544Y-140792452D01*
X162012335Y-140706206D01*
X162012328Y-140706202D01*
X161877482Y-140655908D01*
X161877483Y-140655908D01*
X161817883Y-140649501D01*
X161817881Y-140649500D01*
X161817873Y-140649500D01*
X161817865Y-140649500D01*
X161794500Y-140649500D01*
X161727461Y-140629815D01*
X161681706Y-140577011D01*
X161670500Y-140525500D01*
X161670500Y-130747311D01*
X161690185Y-130680272D01*
X161742989Y-130634517D01*
X161812147Y-130624573D01*
X161875703Y-130653598D01*
X161912206Y-130708307D01*
X161940641Y-130794119D01*
X161940643Y-130794124D01*
X162032684Y-130943345D01*
X162156654Y-131067315D01*
X162305875Y-131159356D01*
X162305880Y-131159358D01*
X162472302Y-131214505D01*
X162472309Y-131214506D01*
X162575019Y-131224999D01*
X162712499Y-131224999D01*
X162712500Y-131224998D01*
X162712500Y-128775000D01*
X162575027Y-128775000D01*
X162575012Y-128775001D01*
X162472302Y-128785494D01*
X162305880Y-128840641D01*
X162305875Y-128840643D01*
X162156654Y-128932684D01*
X162032684Y-129056654D01*
X161940643Y-129205875D01*
X161940641Y-129205880D01*
X161912206Y-129291693D01*
X161872433Y-129349138D01*
X161807917Y-129375961D01*
X161739142Y-129363646D01*
X161687942Y-129316103D01*
X161670500Y-129252689D01*
X161670500Y-128492229D01*
X161690185Y-128425190D01*
X161706819Y-128404548D01*
X163037819Y-127073548D01*
X163099142Y-127040063D01*
X163168834Y-127045047D01*
G37*
G04 #@! TD.AperFunction*
G04 #@! TA.AperFunction,Conductor*
G36*
X169894855Y-112666546D02*
G01*
X169911575Y-112685842D01*
X170041501Y-112871396D01*
X170041506Y-112871402D01*
X170208595Y-113038492D01*
X170208598Y-113038494D01*
X170208599Y-113038495D01*
X170276623Y-113086125D01*
X170320248Y-113140701D01*
X170329500Y-113187700D01*
X170329500Y-121557769D01*
X170309815Y-121624808D01*
X170293181Y-121645450D01*
X169346681Y-122591949D01*
X169285358Y-122625434D01*
X169215666Y-122620450D01*
X169159733Y-122578578D01*
X169135316Y-122513114D01*
X169135000Y-122504268D01*
X169135000Y-122287500D01*
X168297500Y-122287500D01*
X168297500Y-123262499D01*
X168376769Y-123262499D01*
X168443808Y-123282184D01*
X168489563Y-123334988D01*
X168499507Y-123404146D01*
X168470482Y-123467702D01*
X168464450Y-123474180D01*
X167972181Y-123966449D01*
X167910858Y-123999934D01*
X167841166Y-123994950D01*
X167785233Y-123953078D01*
X167760816Y-123887614D01*
X167760500Y-123878768D01*
X167760500Y-123350861D01*
X167780185Y-123283822D01*
X167796819Y-123263180D01*
X167797500Y-123262499D01*
X167797500Y-121787500D01*
X168297500Y-121787500D01*
X169134999Y-121787500D01*
X169134999Y-121512528D01*
X169134998Y-121512513D01*
X169124505Y-121409802D01*
X169069358Y-121243380D01*
X169069356Y-121243375D01*
X168977315Y-121094154D01*
X168853345Y-120970184D01*
X168704124Y-120878143D01*
X168704119Y-120878141D01*
X168537697Y-120822994D01*
X168537690Y-120822993D01*
X168434986Y-120812500D01*
X168297500Y-120812500D01*
X168297500Y-121787500D01*
X167797500Y-121787500D01*
X167797500Y-120812500D01*
X167796819Y-120811819D01*
X167763334Y-120750496D01*
X167760500Y-120724138D01*
X167760500Y-118936079D01*
X167731659Y-118791092D01*
X167731658Y-118791091D01*
X167731658Y-118791087D01*
X167675084Y-118654505D01*
X167642186Y-118605270D01*
X167642185Y-118605268D01*
X167592956Y-118531589D01*
X167592952Y-118531584D01*
X164753307Y-115691939D01*
X164730653Y-115655869D01*
X164728813Y-115656756D01*
X164725792Y-115650484D01*
X164725789Y-115650480D01*
X164725789Y-115650478D01*
X164629816Y-115497738D01*
X164502262Y-115370184D01*
X164349523Y-115274211D01*
X164179253Y-115214631D01*
X164136274Y-115209788D01*
X164071861Y-115182720D01*
X164032307Y-115125125D01*
X164030170Y-115055288D01*
X164062477Y-114998889D01*
X165688499Y-113372867D01*
X165749820Y-113339384D01*
X165786984Y-113337022D01*
X165947235Y-113351042D01*
X165999999Y-113355659D01*
X166000000Y-113355659D01*
X166000001Y-113355659D01*
X166039234Y-113352226D01*
X166235408Y-113335063D01*
X166463663Y-113273903D01*
X166677830Y-113174035D01*
X166871401Y-113038495D01*
X167038495Y-112871401D01*
X167168425Y-112685842D01*
X167223002Y-112642217D01*
X167292500Y-112635023D01*
X167354855Y-112666546D01*
X167371575Y-112685842D01*
X167501500Y-112871395D01*
X167501505Y-112871401D01*
X167668599Y-113038495D01*
X167736620Y-113086124D01*
X167862165Y-113174032D01*
X167862167Y-113174033D01*
X167862170Y-113174035D01*
X168076337Y-113273903D01*
X168304592Y-113335063D01*
X168492918Y-113351539D01*
X168539999Y-113355659D01*
X168540000Y-113355659D01*
X168540001Y-113355659D01*
X168579234Y-113352226D01*
X168775408Y-113335063D01*
X169003663Y-113273903D01*
X169217830Y-113174035D01*
X169411401Y-113038495D01*
X169578495Y-112871401D01*
X169708425Y-112685842D01*
X169763002Y-112642217D01*
X169832500Y-112635023D01*
X169894855Y-112666546D01*
G37*
G04 #@! TD.AperFunction*
G04 #@! TA.AperFunction,Conductor*
G36*
X184943039Y-108019685D02*
G01*
X184988794Y-108072489D01*
X185000000Y-108124000D01*
X185000000Y-145876000D01*
X184980315Y-145943039D01*
X184927511Y-145988794D01*
X184876000Y-146000000D01*
X147124000Y-146000000D01*
X147056961Y-145980315D01*
X147011206Y-145927511D01*
X147000000Y-145876000D01*
X147000000Y-123999999D01*
X149644341Y-123999999D01*
X149644341Y-124000000D01*
X149664936Y-124235403D01*
X149664938Y-124235413D01*
X149726094Y-124463655D01*
X149726096Y-124463659D01*
X149726097Y-124463663D01*
X149820021Y-124665084D01*
X149825965Y-124677830D01*
X149825967Y-124677834D01*
X149961501Y-124871395D01*
X149961506Y-124871402D01*
X150128597Y-125038493D01*
X150128603Y-125038498D01*
X150314158Y-125168425D01*
X150357783Y-125223002D01*
X150364977Y-125292500D01*
X150333454Y-125354855D01*
X150314158Y-125371575D01*
X150128597Y-125501505D01*
X149961505Y-125668597D01*
X149825965Y-125862169D01*
X149825964Y-125862171D01*
X149726098Y-126076335D01*
X149726094Y-126076344D01*
X149664938Y-126304586D01*
X149664936Y-126304596D01*
X149644341Y-126539999D01*
X149644341Y-126540000D01*
X149664936Y-126775403D01*
X149664938Y-126775413D01*
X149726094Y-127003655D01*
X149726096Y-127003659D01*
X149726097Y-127003663D01*
X149804435Y-127171658D01*
X149825965Y-127217830D01*
X149825967Y-127217834D01*
X149934281Y-127372521D01*
X149961501Y-127411396D01*
X149961506Y-127411402D01*
X150083818Y-127533714D01*
X150117303Y-127595037D01*
X150112319Y-127664729D01*
X150070447Y-127720662D01*
X150039471Y-127737577D01*
X149907912Y-127786646D01*
X149907906Y-127786649D01*
X149792812Y-127872809D01*
X149792809Y-127872812D01*
X149706649Y-127987906D01*
X149706645Y-127987913D01*
X149656403Y-128122620D01*
X149656401Y-128122627D01*
X149650000Y-128182155D01*
X149650000Y-128830000D01*
X150566988Y-128830000D01*
X150534075Y-128887007D01*
X150500000Y-129014174D01*
X150500000Y-129145826D01*
X150534075Y-129272993D01*
X150566988Y-129330000D01*
X149650000Y-129330000D01*
X149650000Y-129977844D01*
X149656401Y-130037372D01*
X149656403Y-130037379D01*
X149706645Y-130172086D01*
X149706649Y-130172093D01*
X149792809Y-130287187D01*
X149792812Y-130287190D01*
X149907906Y-130373350D01*
X149907913Y-130373354D01*
X150042620Y-130423596D01*
X150042627Y-130423598D01*
X150102155Y-130429999D01*
X150102172Y-130430000D01*
X150750000Y-130430000D01*
X150750000Y-129513012D01*
X150807007Y-129545925D01*
X150934174Y-129580000D01*
X151065826Y-129580000D01*
X151192993Y-129545925D01*
X151250000Y-129513012D01*
X151250000Y-130430000D01*
X151897828Y-130430000D01*
X151897844Y-130429999D01*
X151957372Y-130423598D01*
X151957379Y-130423596D01*
X152092086Y-130373354D01*
X152092093Y-130373350D01*
X152207187Y-130287190D01*
X152207190Y-130287187D01*
X152293350Y-130172093D01*
X152293354Y-130172086D01*
X152343596Y-130037379D01*
X152343598Y-130037372D01*
X152349999Y-129977844D01*
X152350000Y-129977827D01*
X152350000Y-129330000D01*
X151433012Y-129330000D01*
X151465925Y-129272993D01*
X151500000Y-129145826D01*
X151500000Y-129014174D01*
X151465925Y-128887007D01*
X151433012Y-128830000D01*
X152350000Y-128830000D01*
X152350000Y-128182172D01*
X152349999Y-128182155D01*
X152343598Y-128122627D01*
X152343596Y-128122620D01*
X152293354Y-127987913D01*
X152293350Y-127987906D01*
X152207190Y-127872812D01*
X152207187Y-127872809D01*
X152092093Y-127786649D01*
X152092088Y-127786646D01*
X151960528Y-127737577D01*
X151904595Y-127695705D01*
X151880178Y-127630241D01*
X151895030Y-127561968D01*
X151916175Y-127533720D01*
X152038495Y-127411401D01*
X152174035Y-127217830D01*
X152273903Y-127003663D01*
X152335063Y-126775408D01*
X152355659Y-126540000D01*
X152335063Y-126304592D01*
X152273903Y-126076337D01*
X152174035Y-125862171D01*
X152038495Y-125668599D01*
X152038494Y-125668597D01*
X151871402Y-125501506D01*
X151871396Y-125501501D01*
X151685842Y-125371575D01*
X151642217Y-125316998D01*
X151635023Y-125247500D01*
X151666546Y-125185145D01*
X151685842Y-125168425D01*
X151708026Y-125152891D01*
X151871401Y-125038495D01*
X152038495Y-124871401D01*
X152086127Y-124803376D01*
X152140704Y-124759751D01*
X152187701Y-124750500D01*
X154073920Y-124750500D01*
X154171462Y-124731096D01*
X154218913Y-124721658D01*
X154355495Y-124665084D01*
X154445292Y-124605084D01*
X154445294Y-124605083D01*
X154478409Y-124582957D01*
X154478410Y-124582955D01*
X154478416Y-124582952D01*
X156536381Y-122524986D01*
X160912501Y-122524986D01*
X160922994Y-122627697D01*
X160978141Y-122794119D01*
X160978143Y-122794124D01*
X161070184Y-122943345D01*
X161194154Y-123067315D01*
X161343375Y-123159356D01*
X161343380Y-123159358D01*
X161509802Y-123214505D01*
X161509809Y-123214506D01*
X161612519Y-123224999D01*
X161749999Y-123224999D01*
X161750000Y-123224998D01*
X161750000Y-122250000D01*
X160912501Y-122250000D01*
X160912501Y-122524986D01*
X156536381Y-122524986D01*
X157586354Y-121475013D01*
X160912500Y-121475013D01*
X160912500Y-121750000D01*
X161750000Y-121750000D01*
X161750000Y-120775000D01*
X161612527Y-120775000D01*
X161612512Y-120775001D01*
X161509802Y-120785494D01*
X161343380Y-120840641D01*
X161343375Y-120840643D01*
X161194154Y-120932684D01*
X161070184Y-121056654D01*
X160978143Y-121205875D01*
X160978141Y-121205880D01*
X160922994Y-121372302D01*
X160922993Y-121372309D01*
X160912500Y-121475013D01*
X157586354Y-121475013D01*
X162998889Y-116062477D01*
X163060210Y-116028994D01*
X163129902Y-116033978D01*
X163185835Y-116075850D01*
X163209788Y-116136274D01*
X163214631Y-116179251D01*
X163214631Y-116179254D01*
X163274211Y-116349523D01*
X163370184Y-116502262D01*
X163497738Y-116629816D01*
X163650478Y-116725789D01*
X163650480Y-116725789D01*
X163650484Y-116725792D01*
X163656756Y-116728813D01*
X163655869Y-116730653D01*
X163691939Y-116753307D01*
X166223181Y-119284549D01*
X166256666Y-119345872D01*
X166259500Y-119372230D01*
X166259500Y-120688000D01*
X166239815Y-120755039D01*
X166187011Y-120800794D01*
X166135500Y-120812000D01*
X165870291Y-120812000D01*
X165803252Y-120792315D01*
X165757497Y-120739511D01*
X165753249Y-120728955D01*
X165750773Y-120721880D01*
X165725789Y-120650478D01*
X165629816Y-120497738D01*
X165502262Y-120370184D01*
X165349523Y-120274211D01*
X165179254Y-120214631D01*
X165179249Y-120214630D01*
X165000004Y-120194435D01*
X164999996Y-120194435D01*
X164820750Y-120214630D01*
X164820745Y-120214631D01*
X164650476Y-120274211D01*
X164497737Y-120370184D01*
X164370184Y-120497737D01*
X164274212Y-120650475D01*
X164274211Y-120650476D01*
X164259872Y-120691456D01*
X164219150Y-120748231D01*
X164154197Y-120773978D01*
X164142831Y-120774500D01*
X163687498Y-120774500D01*
X163687480Y-120774501D01*
X163584703Y-120785000D01*
X163584700Y-120785001D01*
X163418168Y-120840185D01*
X163418163Y-120840187D01*
X163268842Y-120932289D01*
X163144788Y-121056343D01*
X163144783Y-121056349D01*
X163142741Y-121059661D01*
X163140747Y-121061453D01*
X163140307Y-121062011D01*
X163140211Y-121061935D01*
X163090791Y-121106383D01*
X163021828Y-121117602D01*
X162957747Y-121089755D01*
X162931668Y-121059656D01*
X162929819Y-121056659D01*
X162929816Y-121056655D01*
X162805845Y-120932684D01*
X162656624Y-120840643D01*
X162656619Y-120840641D01*
X162490197Y-120785494D01*
X162490190Y-120785493D01*
X162387486Y-120775000D01*
X162250000Y-120775000D01*
X162250000Y-123224999D01*
X162387472Y-123224999D01*
X162387486Y-123224998D01*
X162490197Y-123214505D01*
X162656619Y-123159358D01*
X162656624Y-123159356D01*
X162805845Y-123067315D01*
X162929818Y-122943342D01*
X162931665Y-122940348D01*
X162933469Y-122938724D01*
X162934298Y-122937677D01*
X162934476Y-122937818D01*
X162983610Y-122893621D01*
X163052573Y-122882396D01*
X163116656Y-122910236D01*
X163142743Y-122940341D01*
X163144788Y-122943656D01*
X163268844Y-123067712D01*
X163418166Y-123159814D01*
X163584703Y-123214999D01*
X163687491Y-123225500D01*
X164125500Y-123225499D01*
X164192539Y-123245183D01*
X164238294Y-123297987D01*
X164249500Y-123349499D01*
X164249500Y-123775500D01*
X164229815Y-123842539D01*
X164177011Y-123888294D01*
X164125500Y-123899500D01*
X163702129Y-123899500D01*
X163702123Y-123899501D01*
X163642516Y-123905908D01*
X163507671Y-123956202D01*
X163507664Y-123956206D01*
X163392455Y-124042452D01*
X163392452Y-124042455D01*
X163306206Y-124157664D01*
X163306202Y-124157671D01*
X163255908Y-124292517D01*
X163249501Y-124352116D01*
X163249500Y-124352135D01*
X163249500Y-124687770D01*
X163229815Y-124754809D01*
X163213181Y-124775451D01*
X160337048Y-127651583D01*
X160328265Y-127664729D01*
X160295321Y-127714035D01*
X160290893Y-127720662D01*
X160254916Y-127774504D01*
X160254912Y-127774511D01*
X160198343Y-127911082D01*
X160198340Y-127911092D01*
X160169500Y-128056079D01*
X160169500Y-140525500D01*
X160149815Y-140592539D01*
X160097011Y-140638294D01*
X160045505Y-140649500D01*
X160022132Y-140649500D01*
X160022123Y-140649501D01*
X159962516Y-140655908D01*
X159827671Y-140706202D01*
X159827664Y-140706206D01*
X159712455Y-140792452D01*
X159712452Y-140792455D01*
X159626206Y-140907664D01*
X159626202Y-140907671D01*
X159575908Y-141042517D01*
X159569501Y-141102116D01*
X159569500Y-141102135D01*
X159569500Y-142897870D01*
X159569501Y-142897876D01*
X159575908Y-142957483D01*
X159626202Y-143092328D01*
X159626206Y-143092335D01*
X159712452Y-143207544D01*
X159712455Y-143207547D01*
X159827664Y-143293793D01*
X159827671Y-143293797D01*
X159962517Y-143344091D01*
X159962516Y-143344091D01*
X159969444Y-143344835D01*
X160022127Y-143350500D01*
X161817872Y-143350499D01*
X161877483Y-143344091D01*
X162012331Y-143293796D01*
X162127546Y-143207546D01*
X162213796Y-143092331D01*
X162262810Y-142960916D01*
X162304681Y-142904984D01*
X162370145Y-142880566D01*
X162438418Y-142895417D01*
X162466673Y-142916569D01*
X162588599Y-143038495D01*
X162685384Y-143106265D01*
X162782165Y-143174032D01*
X162782167Y-143174033D01*
X162782170Y-143174035D01*
X162996337Y-143273903D01*
X163224592Y-143335063D01*
X163401034Y-143350500D01*
X163459999Y-143355659D01*
X163460000Y-143355659D01*
X163460001Y-143355659D01*
X163518966Y-143350500D01*
X163695408Y-143335063D01*
X163923663Y-143273903D01*
X164137830Y-143174035D01*
X164331401Y-143038495D01*
X164498495Y-142871401D01*
X164628730Y-142685405D01*
X164683307Y-142641781D01*
X164752805Y-142634587D01*
X164815160Y-142666110D01*
X164831879Y-142685405D01*
X164961890Y-142871078D01*
X165128917Y-143038105D01*
X165322421Y-143173600D01*
X165536507Y-143273429D01*
X165536516Y-143273433D01*
X165750000Y-143330634D01*
X165750000Y-142433012D01*
X165807007Y-142465925D01*
X165934174Y-142500000D01*
X166065826Y-142500000D01*
X166192993Y-142465925D01*
X166250000Y-142433012D01*
X166250000Y-143330633D01*
X166463483Y-143273433D01*
X166463492Y-143273429D01*
X166677578Y-143173600D01*
X166871082Y-143038105D01*
X167038105Y-142871082D01*
X167168119Y-142685405D01*
X167222696Y-142641781D01*
X167292195Y-142634588D01*
X167354549Y-142666110D01*
X167371269Y-142685405D01*
X167501505Y-142871401D01*
X167668599Y-143038495D01*
X167765384Y-143106265D01*
X167862165Y-143174032D01*
X167862167Y-143174033D01*
X167862170Y-143174035D01*
X168076337Y-143273903D01*
X168304592Y-143335063D01*
X168481034Y-143350500D01*
X168539999Y-143355659D01*
X168540000Y-143355659D01*
X168540001Y-143355659D01*
X168598966Y-143350500D01*
X168775408Y-143335063D01*
X169003663Y-143273903D01*
X169217830Y-143174035D01*
X169411401Y-143038495D01*
X169578495Y-142871401D01*
X169708425Y-142685842D01*
X169763002Y-142642217D01*
X169832500Y-142635023D01*
X169894855Y-142666546D01*
X169911575Y-142685842D01*
X170041500Y-142871395D01*
X170041505Y-142871401D01*
X170208599Y-143038495D01*
X170305384Y-143106265D01*
X170402165Y-143174032D01*
X170402167Y-143174033D01*
X170402170Y-143174035D01*
X170616337Y-143273903D01*
X170844592Y-143335063D01*
X171021034Y-143350500D01*
X171079999Y-143355659D01*
X171080000Y-143355659D01*
X171080001Y-143355659D01*
X171138966Y-143350500D01*
X171315408Y-143335063D01*
X171543663Y-143273903D01*
X171757830Y-143174035D01*
X171951401Y-143038495D01*
X172118495Y-142871401D01*
X172254035Y-142677830D01*
X172353903Y-142463663D01*
X172415063Y-142235408D01*
X172435659Y-142000000D01*
X172415063Y-141764592D01*
X172353903Y-141536337D01*
X172254035Y-141322171D01*
X172248731Y-141314595D01*
X172118494Y-141128597D01*
X171951402Y-140961506D01*
X171951395Y-140961501D01*
X171757834Y-140825967D01*
X171757830Y-140825965D01*
X171757828Y-140825964D01*
X171543663Y-140726097D01*
X171543659Y-140726096D01*
X171543655Y-140726094D01*
X171315413Y-140664938D01*
X171315403Y-140664936D01*
X171080001Y-140644341D01*
X171079999Y-140644341D01*
X170844596Y-140664936D01*
X170844586Y-140664938D01*
X170616344Y-140726094D01*
X170616335Y-140726098D01*
X170402171Y-140825964D01*
X170402169Y-140825965D01*
X170208597Y-140961505D01*
X170041505Y-141128597D01*
X169911575Y-141314158D01*
X169856998Y-141357783D01*
X169787500Y-141364977D01*
X169725145Y-141333454D01*
X169708425Y-141314158D01*
X169578494Y-141128597D01*
X169411402Y-140961506D01*
X169411395Y-140961501D01*
X169217834Y-140825967D01*
X169217830Y-140825965D01*
X169217828Y-140825964D01*
X169003663Y-140726097D01*
X169003659Y-140726096D01*
X169003655Y-140726094D01*
X168775413Y-140664938D01*
X168775403Y-140664936D01*
X168540001Y-140644341D01*
X168539999Y-140644341D01*
X168304596Y-140664936D01*
X168304586Y-140664938D01*
X168076344Y-140726094D01*
X168076335Y-140726098D01*
X167862171Y-140825964D01*
X167862169Y-140825965D01*
X167668597Y-140961505D01*
X167501508Y-141128594D01*
X167371269Y-141314595D01*
X167316692Y-141358219D01*
X167247193Y-141365412D01*
X167184839Y-141333890D01*
X167168119Y-141314594D01*
X167038113Y-141128926D01*
X167038108Y-141128920D01*
X166871082Y-140961894D01*
X166677578Y-140826399D01*
X166463492Y-140726570D01*
X166463486Y-140726567D01*
X166250000Y-140669364D01*
X166250000Y-141566988D01*
X166192993Y-141534075D01*
X166065826Y-141500000D01*
X165934174Y-141500000D01*
X165807007Y-141534075D01*
X165750000Y-141566988D01*
X165750000Y-140669364D01*
X165749999Y-140669364D01*
X165536513Y-140726567D01*
X165536507Y-140726570D01*
X165322422Y-140826399D01*
X165322420Y-140826400D01*
X165128926Y-140961886D01*
X165128920Y-140961891D01*
X164962181Y-141128631D01*
X164900858Y-141162116D01*
X164831166Y-141157132D01*
X164775233Y-141115260D01*
X164750816Y-141049796D01*
X164750500Y-141040950D01*
X164750500Y-131349499D01*
X164770185Y-131282460D01*
X164822989Y-131236705D01*
X164874500Y-131225499D01*
X165142831Y-131225499D01*
X165209870Y-131245184D01*
X165255625Y-131297988D01*
X165259872Y-131308544D01*
X165274210Y-131349521D01*
X165274211Y-131349522D01*
X165370184Y-131502262D01*
X165497738Y-131629816D01*
X165650478Y-131725789D01*
X165820745Y-131785368D01*
X165820750Y-131785369D01*
X165999996Y-131805565D01*
X166000000Y-131805565D01*
X166000004Y-131805565D01*
X166179249Y-131785369D01*
X166179252Y-131785368D01*
X166179255Y-131785368D01*
X166349522Y-131725789D01*
X166502262Y-131629816D01*
X166629816Y-131502262D01*
X166725789Y-131349522D01*
X166738748Y-131312485D01*
X166768118Y-131265748D01*
X166772060Y-131261807D01*
X166833387Y-131228329D01*
X166859730Y-131225499D01*
X167360002Y-131225499D01*
X167360008Y-131225499D01*
X167462797Y-131214999D01*
X167629334Y-131159814D01*
X167778656Y-131067712D01*
X167902712Y-130943656D01*
X167904752Y-130940347D01*
X167906745Y-130938555D01*
X167907193Y-130937989D01*
X167907289Y-130938065D01*
X167956694Y-130893623D01*
X168025656Y-130882395D01*
X168089740Y-130910234D01*
X168115829Y-130940339D01*
X168117681Y-130943341D01*
X168117683Y-130943344D01*
X168241654Y-131067315D01*
X168390875Y-131159356D01*
X168390880Y-131159358D01*
X168557302Y-131214505D01*
X168557309Y-131214506D01*
X168660019Y-131224999D01*
X168797499Y-131224999D01*
X169297500Y-131224999D01*
X169434972Y-131224999D01*
X169434986Y-131224998D01*
X169537697Y-131214505D01*
X169704119Y-131159358D01*
X169704124Y-131159356D01*
X169853345Y-131067315D01*
X169977315Y-130943345D01*
X170069356Y-130794124D01*
X170069358Y-130794119D01*
X170124505Y-130627697D01*
X170124506Y-130627690D01*
X170134999Y-130524986D01*
X170135000Y-130524973D01*
X170135000Y-130250000D01*
X169297500Y-130250000D01*
X169297500Y-131224999D01*
X168797499Y-131224999D01*
X168797500Y-131224998D01*
X168797500Y-129750000D01*
X169297500Y-129750000D01*
X170134999Y-129750000D01*
X170134999Y-129475028D01*
X170134998Y-129475013D01*
X170124505Y-129372302D01*
X170069358Y-129205880D01*
X170069356Y-129205875D01*
X169977315Y-129056654D01*
X169853345Y-128932684D01*
X169704124Y-128840643D01*
X169704119Y-128840641D01*
X169537697Y-128785494D01*
X169537690Y-128785493D01*
X169434986Y-128775000D01*
X169297500Y-128775000D01*
X169297500Y-129750000D01*
X168797500Y-129750000D01*
X168797500Y-128775000D01*
X168660027Y-128775000D01*
X168660012Y-128775001D01*
X168557302Y-128785494D01*
X168390880Y-128840641D01*
X168390875Y-128840643D01*
X168241654Y-128932684D01*
X168117683Y-129056655D01*
X168117679Y-129056660D01*
X168115826Y-129059665D01*
X168114018Y-129061290D01*
X168113202Y-129062323D01*
X168113025Y-129062183D01*
X168063874Y-129106385D01*
X167994911Y-129117601D01*
X167930831Y-129089752D01*
X167904753Y-129059653D01*
X167904737Y-129059628D01*
X167902712Y-129056344D01*
X167778656Y-128932288D01*
X167629334Y-128840186D01*
X167462797Y-128785001D01*
X167462795Y-128785000D01*
X167360016Y-128774500D01*
X167360009Y-128774500D01*
X166824500Y-128774500D01*
X166757461Y-128754815D01*
X166711706Y-128702011D01*
X166700500Y-128650500D01*
X166700500Y-128346728D01*
X166708318Y-128303394D01*
X166744091Y-128207483D01*
X166750500Y-128147873D01*
X166750499Y-127262138D01*
X166770183Y-127195100D01*
X166822987Y-127149345D01*
X166827047Y-127147578D01*
X166905490Y-127115086D01*
X166905489Y-127115086D01*
X166905495Y-127115084D01*
X166954729Y-127082186D01*
X167028416Y-127032952D01*
X171662951Y-122398416D01*
X171745084Y-122275495D01*
X171801658Y-122138913D01*
X171807127Y-122111417D01*
X171830500Y-121993918D01*
X171830500Y-113187700D01*
X171850185Y-113120661D01*
X171883375Y-113086126D01*
X171951401Y-113038495D01*
X172118495Y-112871401D01*
X172254035Y-112677830D01*
X172353903Y-112463663D01*
X172415063Y-112235408D01*
X172435659Y-112000000D01*
X172415063Y-111764592D01*
X172353903Y-111536337D01*
X172254035Y-111322171D01*
X172248425Y-111314158D01*
X172118494Y-111128597D01*
X171951402Y-110961506D01*
X171951395Y-110961501D01*
X171757834Y-110825967D01*
X171757830Y-110825965D01*
X171757828Y-110825964D01*
X171543663Y-110726097D01*
X171543659Y-110726096D01*
X171543655Y-110726094D01*
X171315413Y-110664938D01*
X171315403Y-110664936D01*
X171080001Y-110644341D01*
X171079999Y-110644341D01*
X170844596Y-110664936D01*
X170844586Y-110664938D01*
X170616344Y-110726094D01*
X170616335Y-110726098D01*
X170402171Y-110825964D01*
X170402169Y-110825965D01*
X170208597Y-110961505D01*
X170041505Y-111128597D01*
X169911575Y-111314158D01*
X169856998Y-111357783D01*
X169787500Y-111364977D01*
X169725145Y-111333454D01*
X169708425Y-111314158D01*
X169578494Y-111128597D01*
X169411402Y-110961506D01*
X169411395Y-110961501D01*
X169217834Y-110825967D01*
X169217830Y-110825965D01*
X169217828Y-110825964D01*
X169003663Y-110726097D01*
X169003659Y-110726096D01*
X169003655Y-110726094D01*
X168775413Y-110664938D01*
X168775403Y-110664936D01*
X168540001Y-110644341D01*
X168539999Y-110644341D01*
X168304596Y-110664936D01*
X168304586Y-110664938D01*
X168076344Y-110726094D01*
X168076335Y-110726098D01*
X167862171Y-110825964D01*
X167862169Y-110825965D01*
X167668597Y-110961505D01*
X167501505Y-111128597D01*
X167371575Y-111314158D01*
X167316998Y-111357783D01*
X167247500Y-111364977D01*
X167185145Y-111333454D01*
X167168425Y-111314158D01*
X167038494Y-111128597D01*
X166871402Y-110961506D01*
X166871395Y-110961501D01*
X166677834Y-110825967D01*
X166677830Y-110825965D01*
X166677828Y-110825964D01*
X166463663Y-110726097D01*
X166463659Y-110726096D01*
X166463655Y-110726094D01*
X166235413Y-110664938D01*
X166235403Y-110664936D01*
X166000001Y-110644341D01*
X165999999Y-110644341D01*
X165764596Y-110664936D01*
X165764586Y-110664938D01*
X165536344Y-110726094D01*
X165536335Y-110726098D01*
X165322171Y-110825964D01*
X165322169Y-110825965D01*
X165128597Y-110961505D01*
X164961505Y-111128597D01*
X164831575Y-111314158D01*
X164776998Y-111357783D01*
X164707500Y-111364977D01*
X164645145Y-111333454D01*
X164628425Y-111314158D01*
X164498494Y-111128597D01*
X164331402Y-110961506D01*
X164331395Y-110961501D01*
X164137834Y-110825967D01*
X164137830Y-110825965D01*
X164137828Y-110825964D01*
X163923663Y-110726097D01*
X163923659Y-110726096D01*
X163923655Y-110726094D01*
X163695413Y-110664938D01*
X163695403Y-110664936D01*
X163460001Y-110644341D01*
X163459999Y-110644341D01*
X163224596Y-110664936D01*
X163224586Y-110664938D01*
X162996344Y-110726094D01*
X162996335Y-110726098D01*
X162782171Y-110825964D01*
X162782169Y-110825965D01*
X162588597Y-110961505D01*
X162421506Y-111128596D01*
X162373874Y-111196623D01*
X162319297Y-111240248D01*
X162272299Y-111249500D01*
X162107701Y-111249500D01*
X162040662Y-111229815D01*
X162006126Y-111196623D01*
X161958494Y-111128597D01*
X161791402Y-110961506D01*
X161791395Y-110961501D01*
X161597834Y-110825967D01*
X161597830Y-110825965D01*
X161597828Y-110825964D01*
X161383663Y-110726097D01*
X161383659Y-110726096D01*
X161383655Y-110726094D01*
X161155413Y-110664938D01*
X161155403Y-110664936D01*
X160920001Y-110644341D01*
X160919999Y-110644341D01*
X160684596Y-110664936D01*
X160684586Y-110664938D01*
X160456344Y-110726094D01*
X160456335Y-110726098D01*
X160242171Y-110825964D01*
X160242169Y-110825965D01*
X160048597Y-110961505D01*
X159881505Y-111128597D01*
X159745965Y-111322169D01*
X159745964Y-111322171D01*
X159646098Y-111536335D01*
X159646094Y-111536344D01*
X159584938Y-111764586D01*
X159584936Y-111764596D01*
X159564341Y-111999999D01*
X159564341Y-112000000D01*
X159584936Y-112235403D01*
X159584938Y-112235413D01*
X159646094Y-112463655D01*
X159646096Y-112463659D01*
X159646097Y-112463663D01*
X159650000Y-112472032D01*
X159745965Y-112677830D01*
X159745967Y-112677834D01*
X159833873Y-112803376D01*
X159881505Y-112871401D01*
X160048599Y-113038495D01*
X160116620Y-113086124D01*
X160242165Y-113174032D01*
X160242167Y-113174033D01*
X160242170Y-113174035D01*
X160456337Y-113273903D01*
X160684592Y-113335063D01*
X160872918Y-113351539D01*
X160919999Y-113355659D01*
X160920000Y-113355659D01*
X160920001Y-113355659D01*
X160959234Y-113352226D01*
X161155408Y-113335063D01*
X161383663Y-113273903D01*
X161597830Y-113174035D01*
X161791401Y-113038495D01*
X161958495Y-112871401D01*
X162006127Y-112803376D01*
X162060704Y-112759751D01*
X162107701Y-112750500D01*
X162272299Y-112750500D01*
X162339338Y-112770185D01*
X162373873Y-112803376D01*
X162421505Y-112871401D01*
X162588599Y-113038495D01*
X162656620Y-113086124D01*
X162782165Y-113174032D01*
X162782167Y-113174033D01*
X162782170Y-113174035D01*
X162996337Y-113273903D01*
X163224592Y-113335063D01*
X163308173Y-113342375D01*
X163373241Y-113367827D01*
X163414220Y-113424418D01*
X163418098Y-113494180D01*
X163385046Y-113553584D01*
X153725451Y-123213181D01*
X153664128Y-123246666D01*
X153637770Y-123249500D01*
X152187701Y-123249500D01*
X152120662Y-123229815D01*
X152086126Y-123196623D01*
X152038494Y-123128597D01*
X151871402Y-122961506D01*
X151871395Y-122961501D01*
X151845461Y-122943342D01*
X151832521Y-122934281D01*
X151677834Y-122825967D01*
X151677830Y-122825965D01*
X151609536Y-122794119D01*
X151463663Y-122726097D01*
X151463659Y-122726096D01*
X151463655Y-122726094D01*
X151235413Y-122664938D01*
X151235403Y-122664936D01*
X151000001Y-122644341D01*
X150999999Y-122644341D01*
X150764596Y-122664936D01*
X150764586Y-122664938D01*
X150536344Y-122726094D01*
X150536335Y-122726098D01*
X150322171Y-122825964D01*
X150322169Y-122825965D01*
X150128597Y-122961505D01*
X149961505Y-123128597D01*
X149825965Y-123322169D01*
X149825964Y-123322171D01*
X149726098Y-123536335D01*
X149726094Y-123536344D01*
X149664938Y-123764586D01*
X149664936Y-123764596D01*
X149644341Y-123999999D01*
X147000000Y-123999999D01*
X147000000Y-108124000D01*
X147019685Y-108056961D01*
X147072489Y-108011206D01*
X147124000Y-108000000D01*
X184876000Y-108000000D01*
X184943039Y-108019685D01*
G37*
G04 #@! TD.AperFunction*
M02*
