G04 #@! TF.GenerationSoftware,KiCad,Pcbnew,8.0.6*
G04 #@! TF.CreationDate,2025-08-21T09:44:45+02:00*
G04 #@! TF.ProjectId,StackBoard_OPA836,53746163-6b42-46f6-9172-645f4f504138,rev?*
G04 #@! TF.SameCoordinates,Original*
G04 #@! TF.FileFunction,Legend,Bot*
G04 #@! TF.FilePolarity,Positive*
%FSLAX46Y46*%
G04 Gerber Fmt 4.6, Leading zero omitted, Abs format (unit mm)*
G04 Created by KiCad (PCBNEW 8.0.6) date 2025-08-21 09:44:45*
%MOMM*%
%LPD*%
G01*
G04 APERTURE LIST*
%ADD10C,0.100000*%
%ADD11R,1.700000X1.700000*%
%ADD12O,1.700000X1.700000*%
G04 APERTURE END LIST*
D10*
X174579598Y-143652419D02*
X174579598Y-144366704D01*
X174579598Y-144366704D02*
X174531979Y-144509561D01*
X174531979Y-144509561D02*
X174436741Y-144604800D01*
X174436741Y-144604800D02*
X174293884Y-144652419D01*
X174293884Y-144652419D02*
X174198646Y-144652419D01*
X175531979Y-144652419D02*
X175055789Y-144652419D01*
X175055789Y-144652419D02*
X175055789Y-143652419D01*
X176436741Y-144557180D02*
X176389122Y-144604800D01*
X176389122Y-144604800D02*
X176246265Y-144652419D01*
X176246265Y-144652419D02*
X176151027Y-144652419D01*
X176151027Y-144652419D02*
X176008170Y-144604800D01*
X176008170Y-144604800D02*
X175912932Y-144509561D01*
X175912932Y-144509561D02*
X175865313Y-144414323D01*
X175865313Y-144414323D02*
X175817694Y-144223847D01*
X175817694Y-144223847D02*
X175817694Y-144080990D01*
X175817694Y-144080990D02*
X175865313Y-143890514D01*
X175865313Y-143890514D02*
X175912932Y-143795276D01*
X175912932Y-143795276D02*
X176008170Y-143700038D01*
X176008170Y-143700038D02*
X176151027Y-143652419D01*
X176151027Y-143652419D02*
X176246265Y-143652419D01*
X176246265Y-143652419D02*
X176389122Y-143700038D01*
X176389122Y-143700038D02*
X176436741Y-143747657D01*
X177151027Y-143652419D02*
X177151027Y-144366704D01*
X177151027Y-144366704D02*
X177103408Y-144509561D01*
X177103408Y-144509561D02*
X177008170Y-144604800D01*
X177008170Y-144604800D02*
X176865313Y-144652419D01*
X176865313Y-144652419D02*
X176770075Y-144652419D01*
X178103408Y-144652419D02*
X177627218Y-144652419D01*
X177627218Y-144652419D02*
X177627218Y-143652419D01*
X179008170Y-144557180D02*
X178960551Y-144604800D01*
X178960551Y-144604800D02*
X178817694Y-144652419D01*
X178817694Y-144652419D02*
X178722456Y-144652419D01*
X178722456Y-144652419D02*
X178579599Y-144604800D01*
X178579599Y-144604800D02*
X178484361Y-144509561D01*
X178484361Y-144509561D02*
X178436742Y-144414323D01*
X178436742Y-144414323D02*
X178389123Y-144223847D01*
X178389123Y-144223847D02*
X178389123Y-144080990D01*
X178389123Y-144080990D02*
X178436742Y-143890514D01*
X178436742Y-143890514D02*
X178484361Y-143795276D01*
X178484361Y-143795276D02*
X178579599Y-143700038D01*
X178579599Y-143700038D02*
X178722456Y-143652419D01*
X178722456Y-143652419D02*
X178817694Y-143652419D01*
X178817694Y-143652419D02*
X178960551Y-143700038D01*
X178960551Y-143700038D02*
X179008170Y-143747657D01*
X179722456Y-143652419D02*
X179722456Y-144366704D01*
X179722456Y-144366704D02*
X179674837Y-144509561D01*
X179674837Y-144509561D02*
X179579599Y-144604800D01*
X179579599Y-144604800D02*
X179436742Y-144652419D01*
X179436742Y-144652419D02*
X179341504Y-144652419D01*
X180674837Y-144652419D02*
X180198647Y-144652419D01*
X180198647Y-144652419D02*
X180198647Y-143652419D01*
X181579599Y-144557180D02*
X181531980Y-144604800D01*
X181531980Y-144604800D02*
X181389123Y-144652419D01*
X181389123Y-144652419D02*
X181293885Y-144652419D01*
X181293885Y-144652419D02*
X181151028Y-144604800D01*
X181151028Y-144604800D02*
X181055790Y-144509561D01*
X181055790Y-144509561D02*
X181008171Y-144414323D01*
X181008171Y-144414323D02*
X180960552Y-144223847D01*
X180960552Y-144223847D02*
X180960552Y-144080990D01*
X180960552Y-144080990D02*
X181008171Y-143890514D01*
X181008171Y-143890514D02*
X181055790Y-143795276D01*
X181055790Y-143795276D02*
X181151028Y-143700038D01*
X181151028Y-143700038D02*
X181293885Y-143652419D01*
X181293885Y-143652419D02*
X181389123Y-143652419D01*
X181389123Y-143652419D02*
X181531980Y-143700038D01*
X181531980Y-143700038D02*
X181579599Y-143747657D01*
X182293885Y-143652419D02*
X182293885Y-144366704D01*
X182293885Y-144366704D02*
X182246266Y-144509561D01*
X182246266Y-144509561D02*
X182151028Y-144604800D01*
X182151028Y-144604800D02*
X182008171Y-144652419D01*
X182008171Y-144652419D02*
X181912933Y-144652419D01*
X183246266Y-144652419D02*
X182770076Y-144652419D01*
X182770076Y-144652419D02*
X182770076Y-143652419D01*
X184151028Y-144557180D02*
X184103409Y-144604800D01*
X184103409Y-144604800D02*
X183960552Y-144652419D01*
X183960552Y-144652419D02*
X183865314Y-144652419D01*
X183865314Y-144652419D02*
X183722457Y-144604800D01*
X183722457Y-144604800D02*
X183627219Y-144509561D01*
X183627219Y-144509561D02*
X183579600Y-144414323D01*
X183579600Y-144414323D02*
X183531981Y-144223847D01*
X183531981Y-144223847D02*
X183531981Y-144080990D01*
X183531981Y-144080990D02*
X183579600Y-143890514D01*
X183579600Y-143890514D02*
X183627219Y-143795276D01*
X183627219Y-143795276D02*
X183722457Y-143700038D01*
X183722457Y-143700038D02*
X183865314Y-143652419D01*
X183865314Y-143652419D02*
X183960552Y-143652419D01*
X183960552Y-143652419D02*
X184103409Y-143700038D01*
X184103409Y-143700038D02*
X184151028Y-143747657D01*
%LPC*%
D11*
X160920000Y-142000000D03*
D12*
X163460000Y-142000000D03*
X166000000Y-142000000D03*
X168540000Y-142000000D03*
X171080000Y-142000000D03*
X160920000Y-112000000D03*
X163460000Y-112000000D03*
X166000000Y-112000000D03*
X168540000Y-112000000D03*
X171080000Y-112000000D03*
D11*
X151000000Y-129080000D03*
D12*
X151000000Y-126540000D03*
X151000000Y-124000000D03*
%LPD*%
M02*
