G04 #@! TF.GenerationSoftware,KiCad,Pcbnew,8.0.6*
G04 #@! TF.CreationDate,2025-08-21T09:53:28+02:00*
G04 #@! TF.ProjectId,OpAmpDevBoardProject,4f70416d-7044-4657-9642-6f6172645072,rev?*
G04 #@! TF.SameCoordinates,Original*
G04 #@! TF.FileFunction,Legend,Bot*
G04 #@! TF.FilePolarity,Positive*
%FSLAX46Y46*%
G04 Gerber Fmt 4.6, Leading zero omitted, Abs format (unit mm)*
G04 Created by KiCad (PCBNEW 8.0.6) date 2025-08-21 09:53:28*
%MOMM*%
%LPD*%
G01*
G04 APERTURE LIST*
%ADD10C,0.100000*%
%ADD11C,0.150000*%
%ADD12R,1.300000X1.300000*%
%ADD13C,1.300000*%
%ADD14R,1.700000X1.700000*%
%ADD15C,1.446000*%
%ADD16C,3.015000*%
%ADD17C,4.000000*%
%ADD18C,1.800000*%
%ADD19O,1.700000X1.700000*%
%ADD20C,3.200000*%
G04 APERTURE END LIST*
D10*
X62589598Y-250872419D02*
X62589598Y-251586704D01*
X62589598Y-251586704D02*
X62541979Y-251729561D01*
X62541979Y-251729561D02*
X62446741Y-251824800D01*
X62446741Y-251824800D02*
X62303884Y-251872419D01*
X62303884Y-251872419D02*
X62208646Y-251872419D01*
X63541979Y-251872419D02*
X63065789Y-251872419D01*
X63065789Y-251872419D02*
X63065789Y-250872419D01*
X64446741Y-251777180D02*
X64399122Y-251824800D01*
X64399122Y-251824800D02*
X64256265Y-251872419D01*
X64256265Y-251872419D02*
X64161027Y-251872419D01*
X64161027Y-251872419D02*
X64018170Y-251824800D01*
X64018170Y-251824800D02*
X63922932Y-251729561D01*
X63922932Y-251729561D02*
X63875313Y-251634323D01*
X63875313Y-251634323D02*
X63827694Y-251443847D01*
X63827694Y-251443847D02*
X63827694Y-251300990D01*
X63827694Y-251300990D02*
X63875313Y-251110514D01*
X63875313Y-251110514D02*
X63922932Y-251015276D01*
X63922932Y-251015276D02*
X64018170Y-250920038D01*
X64018170Y-250920038D02*
X64161027Y-250872419D01*
X64161027Y-250872419D02*
X64256265Y-250872419D01*
X64256265Y-250872419D02*
X64399122Y-250920038D01*
X64399122Y-250920038D02*
X64446741Y-250967657D01*
X65161027Y-250872419D02*
X65161027Y-251586704D01*
X65161027Y-251586704D02*
X65113408Y-251729561D01*
X65113408Y-251729561D02*
X65018170Y-251824800D01*
X65018170Y-251824800D02*
X64875313Y-251872419D01*
X64875313Y-251872419D02*
X64780075Y-251872419D01*
X66113408Y-251872419D02*
X65637218Y-251872419D01*
X65637218Y-251872419D02*
X65637218Y-250872419D01*
X67018170Y-251777180D02*
X66970551Y-251824800D01*
X66970551Y-251824800D02*
X66827694Y-251872419D01*
X66827694Y-251872419D02*
X66732456Y-251872419D01*
X66732456Y-251872419D02*
X66589599Y-251824800D01*
X66589599Y-251824800D02*
X66494361Y-251729561D01*
X66494361Y-251729561D02*
X66446742Y-251634323D01*
X66446742Y-251634323D02*
X66399123Y-251443847D01*
X66399123Y-251443847D02*
X66399123Y-251300990D01*
X66399123Y-251300990D02*
X66446742Y-251110514D01*
X66446742Y-251110514D02*
X66494361Y-251015276D01*
X66494361Y-251015276D02*
X66589599Y-250920038D01*
X66589599Y-250920038D02*
X66732456Y-250872419D01*
X66732456Y-250872419D02*
X66827694Y-250872419D01*
X66827694Y-250872419D02*
X66970551Y-250920038D01*
X66970551Y-250920038D02*
X67018170Y-250967657D01*
X67732456Y-250872419D02*
X67732456Y-251586704D01*
X67732456Y-251586704D02*
X67684837Y-251729561D01*
X67684837Y-251729561D02*
X67589599Y-251824800D01*
X67589599Y-251824800D02*
X67446742Y-251872419D01*
X67446742Y-251872419D02*
X67351504Y-251872419D01*
X68684837Y-251872419D02*
X68208647Y-251872419D01*
X68208647Y-251872419D02*
X68208647Y-250872419D01*
X69589599Y-251777180D02*
X69541980Y-251824800D01*
X69541980Y-251824800D02*
X69399123Y-251872419D01*
X69399123Y-251872419D02*
X69303885Y-251872419D01*
X69303885Y-251872419D02*
X69161028Y-251824800D01*
X69161028Y-251824800D02*
X69065790Y-251729561D01*
X69065790Y-251729561D02*
X69018171Y-251634323D01*
X69018171Y-251634323D02*
X68970552Y-251443847D01*
X68970552Y-251443847D02*
X68970552Y-251300990D01*
X68970552Y-251300990D02*
X69018171Y-251110514D01*
X69018171Y-251110514D02*
X69065790Y-251015276D01*
X69065790Y-251015276D02*
X69161028Y-250920038D01*
X69161028Y-250920038D02*
X69303885Y-250872419D01*
X69303885Y-250872419D02*
X69399123Y-250872419D01*
X69399123Y-250872419D02*
X69541980Y-250920038D01*
X69541980Y-250920038D02*
X69589599Y-250967657D01*
X70303885Y-250872419D02*
X70303885Y-251586704D01*
X70303885Y-251586704D02*
X70256266Y-251729561D01*
X70256266Y-251729561D02*
X70161028Y-251824800D01*
X70161028Y-251824800D02*
X70018171Y-251872419D01*
X70018171Y-251872419D02*
X69922933Y-251872419D01*
X71256266Y-251872419D02*
X70780076Y-251872419D01*
X70780076Y-251872419D02*
X70780076Y-250872419D01*
X72161028Y-251777180D02*
X72113409Y-251824800D01*
X72113409Y-251824800D02*
X71970552Y-251872419D01*
X71970552Y-251872419D02*
X71875314Y-251872419D01*
X71875314Y-251872419D02*
X71732457Y-251824800D01*
X71732457Y-251824800D02*
X71637219Y-251729561D01*
X71637219Y-251729561D02*
X71589600Y-251634323D01*
X71589600Y-251634323D02*
X71541981Y-251443847D01*
X71541981Y-251443847D02*
X71541981Y-251300990D01*
X71541981Y-251300990D02*
X71589600Y-251110514D01*
X71589600Y-251110514D02*
X71637219Y-251015276D01*
X71637219Y-251015276D02*
X71732457Y-250920038D01*
X71732457Y-250920038D02*
X71875314Y-250872419D01*
X71875314Y-250872419D02*
X71970552Y-250872419D01*
X71970552Y-250872419D02*
X72113409Y-250920038D01*
X72113409Y-250920038D02*
X72161028Y-250967657D01*
D11*
X292714285Y-241254819D02*
X292714285Y-240254819D01*
X292714285Y-240731009D02*
X292142857Y-240731009D01*
X292142857Y-241254819D02*
X292142857Y-240254819D01*
X291142857Y-241254819D02*
X291714285Y-241254819D01*
X291428571Y-241254819D02*
X291428571Y-240254819D01*
X291428571Y-240254819D02*
X291523809Y-240397676D01*
X291523809Y-240397676D02*
X291619047Y-240492914D01*
X291619047Y-240492914D02*
X291714285Y-240540533D01*
X290523809Y-240254819D02*
X290428571Y-240254819D01*
X290428571Y-240254819D02*
X290333333Y-240302438D01*
X290333333Y-240302438D02*
X290285714Y-240350057D01*
X290285714Y-240350057D02*
X290238095Y-240445295D01*
X290238095Y-240445295D02*
X290190476Y-240635771D01*
X290190476Y-240635771D02*
X290190476Y-240873866D01*
X290190476Y-240873866D02*
X290238095Y-241064342D01*
X290238095Y-241064342D02*
X290285714Y-241159580D01*
X290285714Y-241159580D02*
X290333333Y-241207200D01*
X290333333Y-241207200D02*
X290428571Y-241254819D01*
X290428571Y-241254819D02*
X290523809Y-241254819D01*
X290523809Y-241254819D02*
X290619047Y-241207200D01*
X290619047Y-241207200D02*
X290666666Y-241159580D01*
X290666666Y-241159580D02*
X290714285Y-241064342D01*
X290714285Y-241064342D02*
X290761904Y-240873866D01*
X290761904Y-240873866D02*
X290761904Y-240635771D01*
X290761904Y-240635771D02*
X290714285Y-240445295D01*
X290714285Y-240445295D02*
X290666666Y-240350057D01*
X290666666Y-240350057D02*
X290619047Y-240302438D01*
X290619047Y-240302438D02*
X290523809Y-240254819D01*
X289809523Y-240350057D02*
X289761904Y-240302438D01*
X289761904Y-240302438D02*
X289666666Y-240254819D01*
X289666666Y-240254819D02*
X289428571Y-240254819D01*
X289428571Y-240254819D02*
X289333333Y-240302438D01*
X289333333Y-240302438D02*
X289285714Y-240350057D01*
X289285714Y-240350057D02*
X289238095Y-240445295D01*
X289238095Y-240445295D02*
X289238095Y-240540533D01*
X289238095Y-240540533D02*
X289285714Y-240683390D01*
X289285714Y-240683390D02*
X289857142Y-241254819D01*
X289857142Y-241254819D02*
X289238095Y-241254819D01*
X55714285Y-241254819D02*
X55714285Y-240254819D01*
X55714285Y-240731009D02*
X55142857Y-240731009D01*
X55142857Y-241254819D02*
X55142857Y-240254819D01*
X54142857Y-241254819D02*
X54714285Y-241254819D01*
X54428571Y-241254819D02*
X54428571Y-240254819D01*
X54428571Y-240254819D02*
X54523809Y-240397676D01*
X54523809Y-240397676D02*
X54619047Y-240492914D01*
X54619047Y-240492914D02*
X54714285Y-240540533D01*
X53523809Y-240254819D02*
X53428571Y-240254819D01*
X53428571Y-240254819D02*
X53333333Y-240302438D01*
X53333333Y-240302438D02*
X53285714Y-240350057D01*
X53285714Y-240350057D02*
X53238095Y-240445295D01*
X53238095Y-240445295D02*
X53190476Y-240635771D01*
X53190476Y-240635771D02*
X53190476Y-240873866D01*
X53190476Y-240873866D02*
X53238095Y-241064342D01*
X53238095Y-241064342D02*
X53285714Y-241159580D01*
X53285714Y-241159580D02*
X53333333Y-241207200D01*
X53333333Y-241207200D02*
X53428571Y-241254819D01*
X53428571Y-241254819D02*
X53523809Y-241254819D01*
X53523809Y-241254819D02*
X53619047Y-241207200D01*
X53619047Y-241207200D02*
X53666666Y-241159580D01*
X53666666Y-241159580D02*
X53714285Y-241064342D01*
X53714285Y-241064342D02*
X53761904Y-240873866D01*
X53761904Y-240873866D02*
X53761904Y-240635771D01*
X53761904Y-240635771D02*
X53714285Y-240445295D01*
X53714285Y-240445295D02*
X53666666Y-240350057D01*
X53666666Y-240350057D02*
X53619047Y-240302438D01*
X53619047Y-240302438D02*
X53523809Y-240254819D01*
X52238095Y-241254819D02*
X52809523Y-241254819D01*
X52523809Y-241254819D02*
X52523809Y-240254819D01*
X52523809Y-240254819D02*
X52619047Y-240397676D01*
X52619047Y-240397676D02*
X52714285Y-240492914D01*
X52714285Y-240492914D02*
X52809523Y-240540533D01*
X292714285Y-51254819D02*
X292714285Y-50254819D01*
X292714285Y-50731009D02*
X292142857Y-50731009D01*
X292142857Y-51254819D02*
X292142857Y-50254819D01*
X291142857Y-51254819D02*
X291714285Y-51254819D01*
X291428571Y-51254819D02*
X291428571Y-50254819D01*
X291428571Y-50254819D02*
X291523809Y-50397676D01*
X291523809Y-50397676D02*
X291619047Y-50492914D01*
X291619047Y-50492914D02*
X291714285Y-50540533D01*
X290523809Y-50254819D02*
X290428571Y-50254819D01*
X290428571Y-50254819D02*
X290333333Y-50302438D01*
X290333333Y-50302438D02*
X290285714Y-50350057D01*
X290285714Y-50350057D02*
X290238095Y-50445295D01*
X290238095Y-50445295D02*
X290190476Y-50635771D01*
X290190476Y-50635771D02*
X290190476Y-50873866D01*
X290190476Y-50873866D02*
X290238095Y-51064342D01*
X290238095Y-51064342D02*
X290285714Y-51159580D01*
X290285714Y-51159580D02*
X290333333Y-51207200D01*
X290333333Y-51207200D02*
X290428571Y-51254819D01*
X290428571Y-51254819D02*
X290523809Y-51254819D01*
X290523809Y-51254819D02*
X290619047Y-51207200D01*
X290619047Y-51207200D02*
X290666666Y-51159580D01*
X290666666Y-51159580D02*
X290714285Y-51064342D01*
X290714285Y-51064342D02*
X290761904Y-50873866D01*
X290761904Y-50873866D02*
X290761904Y-50635771D01*
X290761904Y-50635771D02*
X290714285Y-50445295D01*
X290714285Y-50445295D02*
X290666666Y-50350057D01*
X290666666Y-50350057D02*
X290619047Y-50302438D01*
X290619047Y-50302438D02*
X290523809Y-50254819D01*
X289333333Y-50588152D02*
X289333333Y-51254819D01*
X289571428Y-50207200D02*
X289809523Y-50921485D01*
X289809523Y-50921485D02*
X289190476Y-50921485D01*
X55714285Y-51254819D02*
X55714285Y-50254819D01*
X55714285Y-50731009D02*
X55142857Y-50731009D01*
X55142857Y-51254819D02*
X55142857Y-50254819D01*
X54142857Y-51254819D02*
X54714285Y-51254819D01*
X54428571Y-51254819D02*
X54428571Y-50254819D01*
X54428571Y-50254819D02*
X54523809Y-50397676D01*
X54523809Y-50397676D02*
X54619047Y-50492914D01*
X54619047Y-50492914D02*
X54714285Y-50540533D01*
X53523809Y-50254819D02*
X53428571Y-50254819D01*
X53428571Y-50254819D02*
X53333333Y-50302438D01*
X53333333Y-50302438D02*
X53285714Y-50350057D01*
X53285714Y-50350057D02*
X53238095Y-50445295D01*
X53238095Y-50445295D02*
X53190476Y-50635771D01*
X53190476Y-50635771D02*
X53190476Y-50873866D01*
X53190476Y-50873866D02*
X53238095Y-51064342D01*
X53238095Y-51064342D02*
X53285714Y-51159580D01*
X53285714Y-51159580D02*
X53333333Y-51207200D01*
X53333333Y-51207200D02*
X53428571Y-51254819D01*
X53428571Y-51254819D02*
X53523809Y-51254819D01*
X53523809Y-51254819D02*
X53619047Y-51207200D01*
X53619047Y-51207200D02*
X53666666Y-51159580D01*
X53666666Y-51159580D02*
X53714285Y-51064342D01*
X53714285Y-51064342D02*
X53761904Y-50873866D01*
X53761904Y-50873866D02*
X53761904Y-50635771D01*
X53761904Y-50635771D02*
X53714285Y-50445295D01*
X53714285Y-50445295D02*
X53666666Y-50350057D01*
X53666666Y-50350057D02*
X53619047Y-50302438D01*
X53619047Y-50302438D02*
X53523809Y-50254819D01*
X52857142Y-50254819D02*
X52238095Y-50254819D01*
X52238095Y-50254819D02*
X52571428Y-50635771D01*
X52571428Y-50635771D02*
X52428571Y-50635771D01*
X52428571Y-50635771D02*
X52333333Y-50683390D01*
X52333333Y-50683390D02*
X52285714Y-50731009D01*
X52285714Y-50731009D02*
X52238095Y-50826247D01*
X52238095Y-50826247D02*
X52238095Y-51064342D01*
X52238095Y-51064342D02*
X52285714Y-51159580D01*
X52285714Y-51159580D02*
X52333333Y-51207200D01*
X52333333Y-51207200D02*
X52428571Y-51254819D01*
X52428571Y-51254819D02*
X52714285Y-51254819D01*
X52714285Y-51254819D02*
X52809523Y-51207200D01*
X52809523Y-51207200D02*
X52857142Y-51159580D01*
%LPC*%
D12*
X113580000Y-227000000D03*
D13*
X113580000Y-229540000D03*
X113580000Y-232080000D03*
D14*
X224000000Y-158000000D03*
X285805000Y-220000000D03*
X143000000Y-202000000D03*
D12*
X125500000Y-213000000D03*
D13*
X122960000Y-213000000D03*
X120420000Y-213000000D03*
D15*
X280805000Y-205000000D03*
X280805000Y-202460000D03*
D16*
X285885000Y-199920000D03*
X285885000Y-210080000D03*
D12*
X229000000Y-172080000D03*
D13*
X229000000Y-169540000D03*
X229000000Y-167000000D03*
D15*
X280805000Y-105000000D03*
X280805000Y-102460000D03*
D16*
X285885000Y-99920000D03*
X285885000Y-110080000D03*
D12*
X229000000Y-133920000D03*
D13*
X229000000Y-136460000D03*
X229000000Y-139000000D03*
D12*
X243920000Y-228000000D03*
D13*
X246460000Y-228000000D03*
X249000000Y-228000000D03*
D12*
X92580000Y-213000000D03*
D13*
X90040000Y-213000000D03*
X87500000Y-213000000D03*
D14*
X78500000Y-202000000D03*
D17*
X242600000Y-181050000D03*
X251400000Y-181050000D03*
D18*
X249500000Y-188050000D03*
X247000000Y-188050000D03*
X244500000Y-188050000D03*
D12*
X93000000Y-193000000D03*
D13*
X90460000Y-193000000D03*
X87920000Y-193000000D03*
X93000000Y-190460000D03*
X90460000Y-190460000D03*
X87920000Y-190460000D03*
D12*
X208500000Y-77050000D03*
D13*
X208500000Y-74510000D03*
X208500000Y-71970000D03*
D12*
X139580000Y-227000000D03*
D13*
X139580000Y-229540000D03*
X139580000Y-232080000D03*
D17*
X118180000Y-124100000D03*
X126980000Y-124100000D03*
D18*
X125080000Y-131100000D03*
X122580000Y-131100000D03*
X120080000Y-131100000D03*
D12*
X243920000Y-216000000D03*
D13*
X246460000Y-216000000D03*
X249000000Y-216000000D03*
D12*
X92580000Y-202000000D03*
D13*
X90040000Y-202000000D03*
X87500000Y-202000000D03*
D14*
X264805000Y-105000000D03*
D12*
X224000000Y-241000000D03*
D13*
X224000000Y-238460000D03*
X224000000Y-235920000D03*
D12*
X201500000Y-227000000D03*
D13*
X201500000Y-229540000D03*
X201500000Y-232080000D03*
D14*
X272805000Y-205000000D03*
X224000000Y-76000000D03*
D12*
X244000000Y-99000000D03*
D13*
X246540000Y-99000000D03*
X249080000Y-99000000D03*
D17*
X118180000Y-178050000D03*
X126980000Y-178050000D03*
D18*
X125080000Y-185050000D03*
X122580000Y-185050000D03*
X120080000Y-185050000D03*
D14*
X61500000Y-245000000D03*
D12*
X139080000Y-77050000D03*
D13*
X139080000Y-74510000D03*
X139080000Y-71970000D03*
D12*
X113080000Y-77050000D03*
D13*
X113080000Y-74510000D03*
X113080000Y-71970000D03*
D14*
X63280000Y-213000000D03*
D12*
X125500000Y-202000000D03*
D13*
X122960000Y-202000000D03*
X120420000Y-202000000D03*
D14*
X61000000Y-143380000D03*
D19*
X61000000Y-145920000D03*
X61000000Y-148460000D03*
X61000000Y-151000000D03*
X61000000Y-153540000D03*
X61000000Y-156080000D03*
X61000000Y-158620000D03*
D14*
X142500000Y-102000000D03*
D12*
X216000000Y-202000000D03*
D13*
X213460000Y-202000000D03*
X210920000Y-202000000D03*
D12*
X244000000Y-108460000D03*
D13*
X246540000Y-108460000D03*
X249080000Y-108460000D03*
X244000000Y-111000000D03*
X246540000Y-111000000D03*
X249080000Y-111000000D03*
D14*
X61500000Y-55000000D03*
X109500000Y-102000000D03*
X283500000Y-55500000D03*
D12*
X146580000Y-227000000D03*
D13*
X146580000Y-229540000D03*
X146580000Y-232080000D03*
D12*
X157580000Y-102050000D03*
D13*
X155040000Y-102050000D03*
X152500000Y-102050000D03*
D12*
X179080000Y-77050000D03*
D13*
X179080000Y-74510000D03*
X179080000Y-71970000D03*
D15*
X64000000Y-201460000D03*
X64000000Y-204000000D03*
D16*
X58920000Y-206540000D03*
X58920000Y-196380000D03*
D12*
X193580000Y-91970000D03*
D13*
X193580000Y-94510000D03*
X193580000Y-97050000D03*
D12*
X208580000Y-227000000D03*
D13*
X208580000Y-229540000D03*
X208580000Y-232080000D03*
D14*
X89460000Y-169000000D03*
D19*
X92000000Y-169000000D03*
D14*
X121460000Y-135000000D03*
D19*
X124000000Y-135000000D03*
D14*
X285805000Y-94000000D03*
X175500000Y-102000000D03*
X248000000Y-172000000D03*
D19*
X245460000Y-172000000D03*
D14*
X274920000Y-168000000D03*
D19*
X277460000Y-168000000D03*
X280000000Y-168000000D03*
X282540000Y-168000000D03*
X285080000Y-168000000D03*
X274920000Y-138000000D03*
X277460000Y-138000000D03*
X280000000Y-138000000D03*
X282540000Y-138000000D03*
X285080000Y-138000000D03*
D12*
X244000000Y-88000000D03*
D13*
X246540000Y-88000000D03*
X249080000Y-88000000D03*
D14*
X224000000Y-228000000D03*
D12*
X93000000Y-114000000D03*
D13*
X90460000Y-114000000D03*
X87920000Y-114000000D03*
X93000000Y-111460000D03*
X90460000Y-111460000D03*
X87920000Y-111460000D03*
D12*
X126000000Y-114000000D03*
D13*
X123460000Y-114000000D03*
X120920000Y-114000000D03*
X126000000Y-111460000D03*
X123460000Y-111460000D03*
X120920000Y-111460000D03*
D12*
X106580000Y-227000000D03*
D13*
X106580000Y-229540000D03*
X106580000Y-232080000D03*
D12*
X93080000Y-91000000D03*
D13*
X90540000Y-91000000D03*
X88000000Y-91000000D03*
D12*
X193580000Y-213000000D03*
D13*
X193580000Y-210460000D03*
X193580000Y-207920000D03*
D12*
X106080000Y-77050000D03*
D13*
X106080000Y-74510000D03*
X106080000Y-71970000D03*
D12*
X185480000Y-213000000D03*
D13*
X185480000Y-210460000D03*
X185480000Y-207920000D03*
D17*
X85680000Y-124050000D03*
X94480000Y-124050000D03*
D18*
X92580000Y-131050000D03*
X90080000Y-131050000D03*
X87580000Y-131050000D03*
D12*
X186080000Y-91970000D03*
D13*
X186080000Y-94510000D03*
X186080000Y-97050000D03*
D14*
X88460000Y-135000000D03*
D19*
X91000000Y-135000000D03*
D12*
X126080000Y-193000000D03*
D13*
X123540000Y-193000000D03*
X121000000Y-193000000D03*
X126080000Y-190460000D03*
X123540000Y-190460000D03*
X121000000Y-190460000D03*
D12*
X201500000Y-77050000D03*
D13*
X201500000Y-74510000D03*
X201500000Y-71970000D03*
D14*
X224000000Y-149000000D03*
D12*
X244000000Y-76000000D03*
D13*
X246540000Y-76000000D03*
X249080000Y-76000000D03*
D14*
X121460000Y-169000000D03*
D19*
X124000000Y-169000000D03*
D12*
X146080000Y-77050000D03*
D13*
X146080000Y-74510000D03*
X146080000Y-71970000D03*
D12*
X157580000Y-202000000D03*
D13*
X155040000Y-202000000D03*
X152500000Y-202000000D03*
D12*
X244000000Y-193000000D03*
D13*
X246540000Y-193000000D03*
X249080000Y-193000000D03*
X244000000Y-195540000D03*
X246540000Y-195540000D03*
X249080000Y-195540000D03*
D12*
X93080000Y-102000000D03*
D13*
X90540000Y-102000000D03*
X88000000Y-102000000D03*
D14*
X109830000Y-202000000D03*
D17*
X242600000Y-121050000D03*
X251400000Y-121050000D03*
D18*
X249500000Y-128050000D03*
X247000000Y-128050000D03*
X244500000Y-128050000D03*
D14*
X47025000Y-143380000D03*
D19*
X47025000Y-145920000D03*
X47025000Y-148460000D03*
X47025000Y-151000000D03*
X47025000Y-153540000D03*
X47025000Y-156080000D03*
X47025000Y-158620000D03*
D14*
X247540000Y-132000000D03*
D19*
X245000000Y-132000000D03*
D15*
X64080000Y-101460000D03*
X64080000Y-104000000D03*
D16*
X59000000Y-106540000D03*
X59000000Y-96380000D03*
D14*
X63280000Y-219250000D03*
D12*
X125580000Y-91050000D03*
D13*
X123040000Y-91050000D03*
X120500000Y-91050000D03*
D14*
X283500000Y-245000000D03*
X64000000Y-80450000D03*
D12*
X244000000Y-205000000D03*
D13*
X246540000Y-205000000D03*
X249080000Y-205000000D03*
D14*
X175000000Y-202000000D03*
D12*
X171580000Y-227000000D03*
D13*
X171580000Y-229540000D03*
X171580000Y-232080000D03*
D14*
X78500000Y-102000000D03*
D12*
X216000000Y-102000000D03*
D13*
X213460000Y-102000000D03*
X210920000Y-102000000D03*
D17*
X85680000Y-178050000D03*
X94480000Y-178050000D03*
D18*
X92580000Y-185050000D03*
X90080000Y-185050000D03*
X87580000Y-185050000D03*
D12*
X178580000Y-227000000D03*
D13*
X178580000Y-229540000D03*
X178580000Y-232080000D03*
D14*
X64080000Y-88050000D03*
X272805000Y-105000000D03*
D12*
X172080000Y-77050000D03*
D13*
X172080000Y-74510000D03*
X172080000Y-71970000D03*
D14*
X264805000Y-205000000D03*
D12*
X125580000Y-102050000D03*
D13*
X123040000Y-102050000D03*
X120500000Y-102050000D03*
D12*
X224000000Y-63000000D03*
D13*
X224000000Y-65540000D03*
X224000000Y-68080000D03*
D20*
X291000000Y-245000000D03*
X54000000Y-245000000D03*
X291000000Y-55000000D03*
X54000000Y-55000000D03*
%LPD*%
M02*
