%TF.GenerationSoftware,KiCad,Pcbnew,8.0.6*%
%TF.CreationDate,2025-08-20T21:32:22+02:00*%
%TF.ProjectId,OpAmpDevBoardProject,4f70416d-7044-4657-9642-6f6172645072,rev?*%
%TF.SameCoordinates,Original*%
%TF.FileFunction,Paste,Top*%
%TF.FilePolarity,Positive*%
%FSLAX46Y46*%
G04 Gerber Fmt 4.6, Leading zero omitted, Abs format (unit mm)*
G04 Created by KiCad (PCBNEW 8.0.6) date 2025-08-20 21:32:22*
%MOMM*%
%LPD*%
G01*
G04 APERTURE LIST*
G04 Aperture macros list*
%AMRoundRect*
0 Rectangle with rounded corners*
0 $1 Rounding radius*
0 $2 $3 $4 $5 $6 $7 $8 $9 X,Y pos of 4 corners*
0 Add a 4 corners polygon primitive as box body*
4,1,4,$2,$3,$4,$5,$6,$7,$8,$9,$2,$3,0*
0 Add four circle primitives for the rounded corners*
1,1,$1+$1,$2,$3*
1,1,$1+$1,$4,$5*
1,1,$1+$1,$6,$7*
1,1,$1+$1,$8,$9*
0 Add four rect primitives between the rounded corners*
20,1,$1+$1,$2,$3,$4,$5,0*
20,1,$1+$1,$4,$5,$6,$7,0*
20,1,$1+$1,$6,$7,$8,$9,0*
20,1,$1+$1,$8,$9,$2,$3,0*%
G04 Aperture macros list end*
%ADD10RoundRect,0.250000X0.337500X0.475000X-0.337500X0.475000X-0.337500X-0.475000X0.337500X-0.475000X0*%
%ADD11RoundRect,0.250000X-0.450000X0.350000X-0.450000X-0.350000X0.450000X-0.350000X0.450000X0.350000X0*%
%ADD12RoundRect,0.250000X-0.350000X-0.450000X0.350000X-0.450000X0.350000X0.450000X-0.350000X0.450000X0*%
%ADD13RoundRect,0.250000X-0.475000X0.337500X-0.475000X-0.337500X0.475000X-0.337500X0.475000X0.337500X0*%
%ADD14RoundRect,0.250000X0.450000X-0.350000X0.450000X0.350000X-0.450000X0.350000X-0.450000X-0.350000X0*%
%ADD15RoundRect,0.250000X0.475000X-0.337500X0.475000X0.337500X-0.475000X0.337500X-0.475000X-0.337500X0*%
%ADD16RoundRect,0.250000X0.350000X0.450000X-0.350000X0.450000X-0.350000X-0.450000X0.350000X-0.450000X0*%
G04 APERTURE END LIST*
D10*
%TO.C,C102*%
X156080000Y-109050000D03*
X154005000Y-109050000D03*
%TD*%
D11*
%TO.C,R105*%
X197000000Y-85000000D03*
X197000000Y-87000000D03*
%TD*%
D12*
%TO.C,R103*%
X90080000Y-85050000D03*
X92080000Y-85050000D03*
%TD*%
D10*
%TO.C,C101*%
X247000000Y-234000000D03*
X244925000Y-234000000D03*
%TD*%
D12*
%TO.C,R104*%
X122080000Y-85050000D03*
X124080000Y-85050000D03*
%TD*%
D10*
%TO.C,C108*%
X246000000Y-70000000D03*
X243925000Y-70000000D03*
%TD*%
D13*
%TO.C,C107*%
X197000000Y-235925000D03*
X197000000Y-238000000D03*
%TD*%
D11*
%TO.C,R106*%
X213000000Y-66000000D03*
X213000000Y-68000000D03*
%TD*%
%TO.C,R110*%
X213000000Y-236000000D03*
X213000000Y-238000000D03*
%TD*%
D14*
%TO.C,R109*%
X196000000Y-220000000D03*
X196000000Y-218000000D03*
%TD*%
D10*
%TO.C,C105*%
X156117500Y-209000000D03*
X154042500Y-209000000D03*
%TD*%
D15*
%TO.C,C106*%
X182000000Y-220075000D03*
X182000000Y-218000000D03*
%TD*%
D12*
%TO.C,R108*%
X122580000Y-219000000D03*
X124580000Y-219000000D03*
%TD*%
D16*
%TO.C,R101*%
X247000000Y-222000000D03*
X245000000Y-222000000D03*
%TD*%
D15*
%TO.C,C104*%
X197000000Y-68075000D03*
X197000000Y-66000000D03*
%TD*%
D16*
%TO.C,R112*%
X246000000Y-82000000D03*
X244000000Y-82000000D03*
%TD*%
D13*
%TO.C,C103*%
X183000000Y-85000000D03*
X183000000Y-87075000D03*
%TD*%
D14*
%TO.C,R102*%
X229000000Y-241000000D03*
X229000000Y-239000000D03*
%TD*%
D11*
%TO.C,R111*%
X228000000Y-63000000D03*
X228000000Y-65000000D03*
%TD*%
D12*
%TO.C,R107*%
X89180000Y-219300000D03*
X91180000Y-219300000D03*
%TD*%
M02*
