M48
; DRILL file {KiCad 8.0.6} date 2025-08-20T21:33:29+0200
; FORMAT={-:-/ absolute / metric / decimal}
; #@! TF.CreationDate,2025-08-20T21:33:29+02:00
; #@! TF.GenerationSoftware,Kicad,Pcbnew,8.0.6
; #@! TF.FileFunction,Plated,1,4,PTH
FMAT,2
METRIC
; #@! TA.AperFunction,Plated,PTH,ViaDrill
T1C0.300
; #@! TA.AperFunction,Plated,PTH,ComponentDrill
T2C0.800
; #@! TA.AperFunction,Plated,PTH,ComponentDrill
T3C0.890
; #@! TA.AperFunction,Plated,PTH,ComponentDrill
T4C1.000
; #@! TA.AperFunction,Plated,PTH,ComponentDrill
T5C2.010
%
G90
G05
T1
X45.72Y-50.8
X45.72Y-53.34
X45.72Y-55.88
X45.72Y-58.42
X45.72Y-60.96
X45.72Y-63.5
X45.72Y-66.04
X45.72Y-81.28
X45.72Y-83.82
X45.72Y-86.36
X45.72Y-88.9
X45.72Y-91.44
X45.72Y-93.98
X45.72Y-96.52
X45.72Y-111.76
X45.72Y-114.3
X45.72Y-116.84
X45.72Y-119.38
X45.72Y-121.92
X45.72Y-124.46
X45.72Y-127.0
X45.72Y-162.56
X45.72Y-165.1
X45.72Y-180.34
X45.72Y-182.88
X45.72Y-185.42
X45.72Y-187.96
X45.72Y-190.5
X45.72Y-193.04
X45.72Y-195.58
X45.72Y-210.82
X45.72Y-213.36
X45.72Y-215.9
X45.72Y-218.44
X45.72Y-220.98
X45.72Y-223.52
X45.72Y-226.06
X45.72Y-241.3
X45.72Y-243.84
X45.72Y-246.38
X45.72Y-248.92
X45.72Y-251.46
X45.9Y-48.26
X45.9Y-68.58
X45.9Y-71.12
X45.9Y-73.66
X45.9Y-76.2
X45.9Y-78.74
X45.9Y-99.06
X45.9Y-101.6
X45.9Y-104.14
X45.9Y-106.68
X45.9Y-109.22
X45.9Y-129.54
X45.9Y-132.08
X45.9Y-134.62
X45.9Y-137.16
X45.9Y-139.7
X45.9Y-167.64
X45.9Y-170.18
X45.9Y-172.72
X45.9Y-175.26
X45.9Y-177.8
X45.9Y-198.12
X45.9Y-200.66
X45.9Y-203.2
X45.9Y-205.74
X45.9Y-208.28
X45.9Y-228.6
X45.9Y-231.14
X45.9Y-233.68
X45.9Y-236.22
X45.9Y-238.76
X48.08Y-50.8
X48.08Y-53.34
X48.08Y-55.88
X48.08Y-58.42
X48.08Y-60.96
X48.08Y-63.5
X48.08Y-66.04
X48.08Y-81.28
X48.08Y-83.82
X48.08Y-86.36
X48.08Y-88.9
X48.08Y-91.44
X48.08Y-93.98
X48.08Y-96.52
X48.08Y-111.76
X48.08Y-114.3
X48.08Y-116.84
X48.08Y-119.38
X48.08Y-121.92
X48.08Y-124.46
X48.08Y-127.0
X48.08Y-162.56
X48.08Y-165.1
X48.08Y-180.34
X48.08Y-182.88
X48.08Y-185.42
X48.08Y-187.96
X48.08Y-190.5
X48.08Y-193.04
X48.08Y-195.58
X48.08Y-210.82
X48.08Y-213.36
X48.08Y-215.9
X48.08Y-218.44
X48.08Y-220.98
X48.08Y-223.52
X48.08Y-226.06
X48.26Y-48.26
X48.26Y-241.3
X48.26Y-243.84
X48.26Y-246.38
X48.26Y-248.92
X48.26Y-251.46
X48.44Y-68.58
X48.44Y-71.12
X48.44Y-73.66
X48.44Y-76.2
X48.44Y-78.74
X48.44Y-99.06
X48.44Y-101.6
X48.44Y-104.14
X48.44Y-106.68
X48.44Y-109.22
X48.44Y-129.54
X48.44Y-132.08
X48.44Y-134.62
X48.44Y-137.16
X48.44Y-139.7
X48.44Y-167.64
X48.44Y-170.18
X48.44Y-172.72
X48.44Y-175.26
X48.44Y-177.8
X48.44Y-198.12
X48.44Y-200.66
X48.44Y-203.2
X48.44Y-205.74
X48.44Y-208.28
X48.44Y-228.6
X48.44Y-231.14
X48.44Y-233.68
X48.44Y-236.22
X48.44Y-238.76
X50.62Y-50.8
X50.62Y-53.34
X50.62Y-55.88
X50.62Y-58.42
X50.62Y-60.96
X50.62Y-63.5
X50.62Y-66.04
X50.62Y-81.28
X50.62Y-83.82
X50.62Y-86.36
X50.62Y-88.9
X50.62Y-91.44
X50.62Y-93.98
X50.62Y-96.52
X50.62Y-111.76
X50.62Y-114.3
X50.62Y-116.84
X50.62Y-119.38
X50.62Y-121.92
X50.62Y-124.46
X50.62Y-127.0
X50.62Y-162.56
X50.62Y-165.1
X50.62Y-180.34
X50.62Y-182.88
X50.62Y-185.42
X50.62Y-187.96
X50.62Y-190.5
X50.62Y-193.04
X50.62Y-195.58
X50.62Y-210.82
X50.62Y-213.36
X50.62Y-215.9
X50.62Y-218.44
X50.62Y-220.98
X50.62Y-223.52
X50.62Y-226.06
X50.8Y-48.26
X50.8Y-68.58
X50.8Y-71.12
X50.8Y-73.66
X50.8Y-76.2
X50.8Y-78.74
X50.8Y-99.06
X50.8Y-101.6
X50.8Y-104.14
X50.8Y-106.68
X50.8Y-109.22
X50.8Y-129.54
X50.8Y-132.08
X50.8Y-134.62
X50.8Y-137.16
X50.8Y-139.7
X50.8Y-167.64
X50.8Y-170.18
X50.8Y-172.72
X50.8Y-175.26
X50.8Y-177.8
X50.8Y-198.12
X50.8Y-200.66
X50.8Y-203.2
X50.8Y-205.74
X50.8Y-208.28
X50.8Y-228.6
X50.8Y-231.14
X50.8Y-233.68
X50.8Y-236.22
X50.8Y-238.76
X50.8Y-241.3
X50.8Y-243.84
X50.8Y-246.38
X50.8Y-248.92
X50.8Y-251.46
X53.16Y-50.8
X53.16Y-58.42
X53.16Y-60.96
X53.16Y-63.5
X53.16Y-66.04
X53.16Y-81.28
X53.16Y-83.82
X53.16Y-86.36
X53.16Y-88.9
X53.16Y-91.44
X53.16Y-93.98
X53.16Y-96.52
X53.16Y-111.76
X53.16Y-114.3
X53.16Y-116.84
X53.16Y-119.38
X53.16Y-121.92
X53.16Y-124.46
X53.16Y-127.0
X53.16Y-162.56
X53.16Y-165.1
X53.16Y-180.34
X53.16Y-182.88
X53.16Y-185.42
X53.16Y-187.96
X53.16Y-190.5
X53.16Y-193.04
X53.16Y-195.58
X53.16Y-210.82
X53.16Y-213.36
X53.16Y-215.9
X53.16Y-218.44
X53.16Y-220.98
X53.16Y-223.52
X53.16Y-226.06
X53.34Y-48.26
X53.34Y-68.58
X53.34Y-71.12
X53.34Y-73.66
X53.34Y-76.2
X53.34Y-78.74
X53.34Y-99.06
X53.34Y-101.6
X53.34Y-104.14
X53.34Y-106.68
X53.34Y-109.22
X53.34Y-129.54
X53.34Y-132.08
X53.34Y-134.62
X53.34Y-137.16
X53.34Y-139.7
X53.34Y-167.64
X53.34Y-170.18
X53.34Y-172.72
X53.34Y-175.26
X53.34Y-177.8
X53.34Y-198.12
X53.34Y-200.66
X53.34Y-203.2
X53.34Y-205.74
X53.34Y-208.28
X53.34Y-228.6
X53.34Y-231.14
X53.34Y-233.68
X53.34Y-236.22
X53.34Y-238.76
X53.34Y-241.3
X53.34Y-248.92
X53.34Y-251.46
X55.7Y-210.82
X55.7Y-213.36
X55.7Y-215.9
X55.7Y-218.44
X55.7Y-220.98
X55.7Y-223.52
X55.7Y-226.06
X55.88Y-96.52
X55.88Y-99.06
X55.88Y-101.6
X55.88Y-104.14
X55.88Y-106.68
X55.88Y-109.22
X55.88Y-162.56
X55.88Y-165.1
X55.88Y-180.34
X55.88Y-182.88
X55.88Y-185.42
X55.88Y-187.96
X55.88Y-190.5
X55.88Y-193.04
X55.88Y-195.58
X55.88Y-198.12
X55.88Y-200.66
X55.88Y-203.2
X55.88Y-205.74
X55.88Y-208.28
X55.88Y-228.6
X55.88Y-231.14
X55.88Y-233.68
X55.88Y-236.22
X55.88Y-238.76
X55.88Y-241.3
X55.88Y-248.92
X55.88Y-251.46
X56.06Y-50.8
X56.06Y-53.34
X56.06Y-55.88
X56.06Y-58.42
X56.06Y-60.96
X56.06Y-63.5
X56.06Y-66.04
X56.06Y-81.28
X56.06Y-83.82
X56.06Y-86.36
X56.06Y-88.9
X56.06Y-91.44
X56.06Y-93.98
X56.06Y-111.76
X56.06Y-114.3
X56.06Y-116.84
X56.06Y-119.38
X56.06Y-121.92
X56.06Y-124.46
X56.06Y-127.0
X56.06Y-167.64
X56.06Y-170.18
X56.06Y-172.72
X56.06Y-175.26
X56.06Y-177.8
X56.24Y-48.26
X56.24Y-68.58
X56.24Y-71.12
X56.24Y-73.66
X56.24Y-76.2
X56.24Y-78.74
X56.24Y-129.54
X56.24Y-132.08
X56.24Y-134.62
X56.24Y-137.16
X56.24Y-139.7
X58.24Y-162.56
X58.24Y-165.1
X58.24Y-180.34
X58.24Y-182.88
X58.24Y-185.42
X58.24Y-187.96
X58.24Y-190.5
X58.24Y-193.04
X58.24Y-210.82
X58.24Y-213.36
X58.24Y-215.9
X58.24Y-218.44
X58.24Y-220.98
X58.24Y-223.52
X58.24Y-226.06
X58.42Y-50.8
X58.42Y-53.34
X58.42Y-55.88
X58.42Y-58.42
X58.42Y-60.96
X58.42Y-63.5
X58.42Y-66.04
X58.42Y-81.28
X58.42Y-83.82
X58.42Y-86.36
X58.42Y-88.9
X58.42Y-91.44
X58.42Y-93.98
X58.42Y-99.06
X58.42Y-101.6
X58.42Y-104.14
X58.42Y-109.22
X58.42Y-111.76
X58.42Y-114.3
X58.42Y-116.84
X58.42Y-119.38
X58.42Y-121.92
X58.42Y-124.46
X58.42Y-127.0
X58.42Y-200.66
X58.42Y-203.2
X58.42Y-228.6
X58.42Y-231.14
X58.42Y-233.68
X58.42Y-236.22
X58.42Y-238.76
X58.42Y-241.3
X58.42Y-243.84
X58.42Y-246.38
X58.42Y-248.92
X58.42Y-251.46
X58.6Y-48.26
X58.6Y-167.64
X58.6Y-170.18
X58.6Y-172.72
X58.6Y-175.26
X58.6Y-177.8
X58.78Y-68.58
X58.78Y-71.12
X58.78Y-73.66
X58.78Y-76.2
X58.78Y-78.74
X58.78Y-129.54
X58.78Y-132.08
X58.78Y-134.62
X58.78Y-137.16
X58.78Y-139.7
X60.78Y-162.56
X60.78Y-165.1
X60.78Y-180.34
X60.78Y-182.88
X60.78Y-185.42
X60.78Y-187.96
X60.78Y-190.5
X60.78Y-193.04
X60.96Y-50.8
X60.96Y-58.42
X60.96Y-60.96
X60.96Y-63.5
X60.96Y-66.04
X60.96Y-81.28
X60.96Y-83.82
X60.96Y-86.36
X60.96Y-88.9
X60.96Y-91.44
X60.96Y-93.98
X60.96Y-99.06
X60.96Y-101.6
X60.96Y-104.14
X60.96Y-109.22
X60.96Y-111.76
X60.96Y-114.3
X60.96Y-116.84
X60.96Y-119.38
X60.96Y-121.92
X60.96Y-124.46
X60.96Y-127.0
X60.96Y-167.64
X60.96Y-170.18
X60.96Y-172.72
X60.96Y-175.26
X60.96Y-177.8
X60.96Y-198.12
X60.96Y-200.66
X60.96Y-203.2
X60.96Y-210.82
X60.96Y-213.36
X60.96Y-215.9
X60.96Y-218.44
X60.96Y-220.98
X60.96Y-223.52
X60.96Y-226.06
X60.96Y-228.6
X60.96Y-231.14
X60.96Y-233.68
X60.96Y-236.22
X60.96Y-238.76
X60.96Y-241.3
X60.96Y-248.92
X60.96Y-251.46
X61.14Y-48.26
X61.14Y-68.58
X61.14Y-71.12
X61.14Y-73.66
X61.14Y-76.2
X61.14Y-78.74
X61.14Y-129.54
X61.14Y-132.08
X61.14Y-134.62
X61.14Y-137.16
X61.14Y-139.7
X63.0Y-146.0
X63.32Y-180.34
X63.32Y-182.88
X63.32Y-185.42
X63.32Y-187.96
X63.32Y-190.5
X63.32Y-193.04
X63.5Y-50.8
X63.5Y-53.34
X63.5Y-55.88
X63.5Y-58.42
X63.5Y-60.96
X63.5Y-63.5
X63.5Y-66.04
X63.5Y-111.76
X63.5Y-114.3
X63.5Y-116.84
X63.5Y-119.38
X63.5Y-121.92
X63.5Y-124.46
X63.5Y-127.0
X63.5Y-154.94
X63.5Y-165.1
X63.5Y-167.64
X63.5Y-170.18
X63.5Y-172.72
X63.5Y-175.26
X63.5Y-177.8
X63.5Y-195.58
X63.5Y-198.12
X63.5Y-223.52
X63.5Y-226.06
X63.68Y-48.26
X63.68Y-68.58
X63.68Y-71.12
X63.68Y-73.66
X63.68Y-76.2
X63.68Y-78.74
X63.68Y-106.68
X63.68Y-109.22
X63.68Y-129.54
X63.68Y-132.08
X63.68Y-134.62
X63.68Y-137.16
X63.68Y-139.7
X63.68Y-228.6
X63.68Y-231.14
X63.68Y-233.68
X63.68Y-236.22
X63.68Y-238.76
X63.68Y-241.3
X63.68Y-243.84
X63.68Y-246.38
X63.68Y-248.92
X63.68Y-251.46
X65.86Y-180.34
X65.86Y-182.88
X65.86Y-185.42
X65.86Y-187.96
X65.86Y-190.5
X65.86Y-193.04
X65.86Y-215.9
X65.86Y-218.44
X65.86Y-220.98
X65.86Y-223.52
X65.86Y-226.06
X66.04Y-48.26
X66.04Y-50.8
X66.04Y-53.34
X66.04Y-55.88
X66.04Y-58.42
X66.04Y-60.96
X66.04Y-63.5
X66.04Y-66.04
X66.04Y-68.58
X66.04Y-71.12
X66.04Y-73.66
X66.04Y-76.2
X66.04Y-78.74
X66.04Y-81.28
X66.04Y-83.82
X66.04Y-86.36
X66.04Y-88.9
X66.04Y-91.44
X66.04Y-93.98
X66.04Y-96.52
X66.04Y-99.06
X66.04Y-106.68
X66.04Y-109.22
X66.04Y-147.32
X66.04Y-154.94
X66.04Y-157.48
X66.04Y-167.64
X66.04Y-170.18
X66.04Y-172.72
X66.04Y-175.26
X66.04Y-177.8
X66.04Y-195.58
X66.04Y-198.12
X66.04Y-200.66
X66.04Y-203.2
X66.04Y-205.74
X66.04Y-208.28
X66.04Y-210.82
X66.04Y-213.36
X66.22Y-104.14
X66.22Y-111.76
X66.22Y-114.3
X66.22Y-116.84
X66.22Y-119.38
X66.22Y-121.92
X66.22Y-124.46
X66.22Y-127.0
X66.22Y-228.6
X66.22Y-231.14
X66.22Y-233.68
X66.22Y-236.22
X66.22Y-238.76
X66.22Y-241.3
X66.22Y-243.84
X66.22Y-246.38
X66.22Y-248.92
X66.22Y-251.46
X66.4Y-129.54
X66.4Y-132.08
X66.4Y-134.62
X66.4Y-137.16
X66.4Y-139.7
X68.0Y-151.0
X68.22Y-180.34
X68.22Y-182.88
X68.22Y-185.42
X68.22Y-187.96
X68.22Y-190.5
X68.22Y-193.04
X68.4Y-203.2
X68.4Y-205.74
X68.4Y-208.28
X68.4Y-210.82
X68.4Y-213.36
X68.4Y-215.9
X68.4Y-218.44
X68.4Y-220.98
X68.4Y-223.52
X68.4Y-226.06
X68.58Y-48.26
X68.58Y-50.8
X68.58Y-53.34
X68.58Y-55.88
X68.58Y-58.42
X68.58Y-60.96
X68.58Y-63.5
X68.58Y-66.04
X68.58Y-68.58
X68.58Y-71.12
X68.58Y-73.66
X68.58Y-76.2
X68.58Y-78.74
X68.58Y-81.28
X68.58Y-83.82
X68.58Y-86.36
X68.58Y-88.9
X68.58Y-91.44
X68.58Y-93.98
X68.58Y-96.52
X68.58Y-99.06
X68.58Y-104.14
X68.58Y-106.68
X68.58Y-109.22
X68.58Y-111.76
X68.58Y-114.3
X68.58Y-116.84
X68.58Y-119.38
X68.58Y-121.92
X68.58Y-124.46
X68.58Y-127.0
X68.58Y-147.32
X68.58Y-157.48
X68.58Y-160.02
X68.58Y-170.18
X68.58Y-172.72
X68.58Y-175.26
X68.58Y-177.8
X68.58Y-195.58
X68.58Y-198.12
X68.58Y-200.66
X68.58Y-228.6
X68.58Y-231.14
X68.58Y-233.68
X68.58Y-236.22
X68.58Y-238.76
X68.76Y-241.3
X68.76Y-243.84
X68.76Y-246.38
X68.76Y-248.92
X68.76Y-251.46
X68.94Y-129.54
X68.94Y-132.08
X68.94Y-134.62
X68.94Y-137.16
X68.94Y-139.7
X70.0Y-153.0
X70.76Y-180.34
X70.76Y-182.88
X70.76Y-185.42
X70.76Y-187.96
X70.76Y-190.5
X70.76Y-193.04
X70.94Y-172.72
X70.94Y-175.26
X70.94Y-177.8
X70.94Y-203.2
X70.94Y-205.74
X70.94Y-208.28
X70.94Y-210.82
X70.94Y-213.36
X70.94Y-215.9
X70.94Y-218.44
X70.94Y-220.98
X70.94Y-223.52
X70.94Y-226.06
X71.12Y-48.26
X71.12Y-50.8
X71.12Y-53.34
X71.12Y-55.88
X71.12Y-58.42
X71.12Y-60.96
X71.12Y-63.5
X71.12Y-66.04
X71.12Y-68.58
X71.12Y-71.12
X71.12Y-73.66
X71.12Y-76.2
X71.12Y-78.74
X71.12Y-81.28
X71.12Y-83.82
X71.12Y-86.36
X71.12Y-88.9
X71.12Y-91.44
X71.12Y-93.98
X71.12Y-96.52
X71.12Y-99.06
X71.12Y-104.14
X71.12Y-106.68
X71.12Y-109.22
X71.12Y-111.76
X71.12Y-114.3
X71.12Y-116.84
X71.12Y-119.38
X71.12Y-121.92
X71.12Y-124.46
X71.12Y-127.0
X71.12Y-147.32
X71.12Y-149.86
X71.12Y-160.02
X71.12Y-162.56
X71.12Y-195.58
X71.12Y-198.12
X71.12Y-200.66
X71.12Y-228.6
X71.12Y-231.14
X71.12Y-233.68
X71.12Y-236.22
X71.12Y-238.76
X71.3Y-129.54
X71.3Y-132.08
X71.3Y-134.62
X71.3Y-137.16
X71.3Y-139.7
X71.3Y-241.3
X71.3Y-243.84
X71.3Y-246.38
X71.3Y-248.92
X71.3Y-251.46
X73.3Y-180.34
X73.3Y-182.88
X73.3Y-185.42
X73.3Y-187.96
X73.3Y-190.5
X73.3Y-193.04
X73.48Y-175.26
X73.48Y-177.8
X73.48Y-203.2
X73.48Y-205.74
X73.48Y-208.28
X73.48Y-210.82
X73.48Y-213.36
X73.66Y-48.26
X73.66Y-50.8
X73.66Y-53.34
X73.66Y-55.88
X73.66Y-58.42
X73.66Y-60.96
X73.66Y-63.5
X73.66Y-66.04
X73.66Y-68.58
X73.66Y-71.12
X73.66Y-73.66
X73.66Y-76.2
X73.66Y-78.74
X73.66Y-81.28
X73.66Y-83.82
X73.66Y-86.36
X73.66Y-88.9
X73.66Y-91.44
X73.66Y-93.98
X73.66Y-96.52
X73.66Y-99.06
X73.66Y-104.14
X73.66Y-111.76
X73.66Y-114.3
X73.66Y-116.84
X73.66Y-119.38
X73.66Y-121.92
X73.66Y-124.46
X73.66Y-127.0
X73.66Y-147.32
X73.66Y-149.86
X73.66Y-154.94
X73.66Y-162.56
X73.66Y-165.1
X73.66Y-195.58
X73.66Y-198.12
X73.66Y-200.66
X73.66Y-215.9
X73.66Y-218.44
X73.66Y-220.98
X73.66Y-223.52
X73.66Y-226.06
X73.66Y-228.6
X73.66Y-231.14
X73.66Y-233.68
X73.66Y-236.22
X73.66Y-238.76
X73.84Y-106.68
X73.84Y-109.22
X73.84Y-129.54
X73.84Y-132.08
X73.84Y-134.62
X73.84Y-137.16
X73.84Y-139.7
X73.84Y-241.3
X73.84Y-243.84
X73.84Y-246.38
X73.84Y-248.92
X73.84Y-251.46
X76.02Y-203.2
X76.02Y-205.74
X76.02Y-208.28
X76.02Y-210.82
X76.02Y-213.36
X76.02Y-215.9
X76.02Y-218.44
X76.02Y-220.98
X76.02Y-223.52
X76.02Y-226.06
X76.2Y-48.26
X76.2Y-50.8
X76.2Y-53.34
X76.2Y-55.88
X76.2Y-58.42
X76.2Y-60.96
X76.2Y-63.5
X76.2Y-66.04
X76.2Y-68.58
X76.2Y-71.12
X76.2Y-73.66
X76.2Y-76.2
X76.2Y-78.74
X76.2Y-81.28
X76.2Y-83.82
X76.2Y-86.36
X76.2Y-88.9
X76.2Y-91.44
X76.2Y-93.98
X76.2Y-96.52
X76.2Y-99.06
X76.2Y-106.68
X76.2Y-109.22
X76.2Y-147.32
X76.2Y-149.86
X76.2Y-154.94
X76.2Y-157.48
X76.2Y-165.1
X76.2Y-167.64
X76.2Y-177.8
X76.2Y-180.34
X76.2Y-182.88
X76.2Y-185.42
X76.2Y-187.96
X76.2Y-190.5
X76.2Y-193.04
X76.2Y-195.58
X76.2Y-198.12
X76.2Y-200.66
X76.2Y-228.6
X76.2Y-231.14
X76.2Y-233.68
X76.2Y-236.22
X76.2Y-238.76
X76.2Y-241.3
X76.2Y-243.84
X76.2Y-246.38
X76.2Y-248.92
X76.2Y-251.46
X76.38Y-104.14
X76.38Y-111.76
X76.38Y-114.3
X76.38Y-116.84
X76.38Y-119.38
X76.38Y-121.92
X76.38Y-124.46
X76.38Y-127.0
X76.56Y-129.54
X76.56Y-132.08
X76.56Y-134.62
X76.56Y-137.16
X76.56Y-139.7
X78.56Y-205.74
X78.56Y-208.28
X78.56Y-210.82
X78.56Y-213.36
X78.56Y-215.9
X78.56Y-218.44
X78.56Y-220.98
X78.56Y-223.52
X78.56Y-226.06
X78.74Y-48.26
X78.74Y-50.8
X78.74Y-53.34
X78.74Y-55.88
X78.74Y-58.42
X78.74Y-60.96
X78.74Y-63.5
X78.74Y-66.04
X78.74Y-68.58
X78.74Y-71.12
X78.74Y-73.66
X78.74Y-76.2
X78.74Y-78.74
X78.74Y-81.28
X78.74Y-83.82
X78.74Y-86.36
X78.74Y-88.9
X78.74Y-91.44
X78.74Y-93.98
X78.74Y-96.52
X78.74Y-99.06
X78.74Y-104.14
X78.74Y-106.68
X78.74Y-109.22
X78.74Y-111.76
X78.74Y-114.3
X78.74Y-116.84
X78.74Y-119.38
X78.74Y-121.92
X78.74Y-124.46
X78.74Y-127.0
X78.74Y-147.32
X78.74Y-149.86
X78.74Y-154.94
X78.74Y-157.48
X78.74Y-160.02
X78.74Y-167.64
X78.74Y-170.18
X78.74Y-177.8
X78.74Y-180.34
X78.74Y-182.88
X78.74Y-185.42
X78.74Y-187.96
X78.74Y-190.5
X78.74Y-193.04
X78.74Y-195.58
X78.74Y-198.12
X78.74Y-228.6
X78.74Y-231.14
X78.74Y-233.68
X78.74Y-236.22
X78.74Y-238.76
X78.74Y-241.3
X78.74Y-243.84
X78.74Y-246.38
X78.74Y-248.92
X78.74Y-251.46
X79.1Y-129.54
X79.1Y-132.08
X79.1Y-134.62
X79.1Y-137.16
X79.1Y-139.7
X81.1Y-215.9
X81.1Y-218.44
X81.1Y-220.98
X81.1Y-223.52
X81.1Y-226.06
X81.28Y-48.26
X81.28Y-50.8
X81.28Y-53.34
X81.28Y-55.88
X81.28Y-58.42
X81.28Y-60.96
X81.28Y-63.5
X81.28Y-66.04
X81.28Y-68.58
X81.28Y-71.12
X81.28Y-73.66
X81.28Y-76.2
X81.28Y-78.74
X81.28Y-81.28
X81.28Y-83.82
X81.28Y-86.36
X81.28Y-88.9
X81.28Y-91.44
X81.28Y-93.98
X81.28Y-96.52
X81.28Y-99.06
X81.28Y-104.14
X81.28Y-106.68
X81.28Y-109.22
X81.28Y-111.76
X81.28Y-114.3
X81.28Y-116.84
X81.28Y-119.38
X81.28Y-121.92
X81.28Y-124.46
X81.28Y-127.0
X81.28Y-147.32
X81.28Y-149.86
X81.28Y-154.94
X81.28Y-157.48
X81.28Y-160.02
X81.28Y-162.56
X81.28Y-167.64
X81.28Y-170.18
X81.28Y-177.8
X81.28Y-180.34
X81.28Y-182.88
X81.28Y-185.42
X81.28Y-187.96
X81.28Y-190.5
X81.28Y-193.04
X81.28Y-195.58
X81.28Y-198.12
X81.28Y-203.2
X81.28Y-205.74
X81.28Y-208.28
X81.28Y-210.82
X81.28Y-213.36
X81.28Y-241.3
X81.28Y-243.84
X81.28Y-246.38
X81.28Y-248.92
X81.28Y-251.46
X81.46Y-129.54
X81.46Y-132.08
X81.46Y-134.62
X81.46Y-137.16
X81.46Y-139.7
X81.46Y-228.6
X81.46Y-231.14
X81.46Y-233.68
X81.46Y-236.22
X81.46Y-238.76
X83.64Y-203.2
X83.64Y-205.74
X83.64Y-208.28
X83.64Y-210.82
X83.64Y-215.9
X83.64Y-218.44
X83.64Y-220.98
X83.64Y-223.52
X83.64Y-226.06
X83.82Y-48.26
X83.82Y-50.8
X83.82Y-53.34
X83.82Y-55.88
X83.82Y-58.42
X83.82Y-60.96
X83.82Y-63.5
X83.82Y-66.04
X83.82Y-68.58
X83.82Y-71.12
X83.82Y-73.66
X83.82Y-76.2
X83.82Y-78.74
X83.82Y-81.28
X83.82Y-83.82
X83.82Y-86.36
X83.82Y-88.9
X83.82Y-91.44
X83.82Y-93.98
X83.82Y-96.52
X83.82Y-99.06
X83.82Y-104.14
X83.82Y-106.68
X83.82Y-109.22
X83.82Y-111.76
X83.82Y-114.3
X83.82Y-116.84
X83.82Y-119.38
X83.82Y-127.0
X83.82Y-147.32
X83.82Y-149.86
X83.82Y-154.94
X83.82Y-157.48
X83.82Y-160.02
X83.82Y-162.56
X83.82Y-167.64
X83.82Y-170.18
X83.82Y-180.34
X83.82Y-182.88
X83.82Y-185.42
X83.82Y-187.96
X83.82Y-190.5
X83.82Y-193.04
X83.82Y-195.58
X83.82Y-198.12
X83.82Y-213.36
X83.82Y-241.3
X83.82Y-243.84
X83.82Y-246.38
X83.82Y-248.92
X83.82Y-251.46
X84.0Y-129.54
X84.0Y-132.08
X84.0Y-134.62
X84.0Y-137.16
X84.0Y-139.7
X84.0Y-228.6
X84.0Y-231.14
X84.0Y-233.68
X84.0Y-236.22
X84.0Y-238.76
X86.18Y-215.9
X86.18Y-218.44
X86.18Y-220.98
X86.18Y-223.52
X86.18Y-226.06
X86.36Y-48.26
X86.36Y-50.8
X86.36Y-53.34
X86.36Y-55.88
X86.36Y-58.42
X86.36Y-60.96
X86.36Y-63.5
X86.36Y-66.04
X86.36Y-68.58
X86.36Y-71.12
X86.36Y-73.66
X86.36Y-76.2
X86.36Y-78.74
X86.36Y-81.28
X86.36Y-83.82
X86.36Y-86.36
X86.36Y-88.9
X86.36Y-93.98
X86.36Y-96.52
X86.36Y-99.06
X86.36Y-104.14
X86.36Y-106.68
X86.36Y-109.22
X86.36Y-116.84
X86.36Y-119.38
X86.36Y-127.0
X86.36Y-129.54
X86.36Y-134.62
X86.36Y-137.16
X86.36Y-139.7
X86.36Y-147.32
X86.36Y-149.86
X86.36Y-154.94
X86.36Y-157.48
X86.36Y-160.02
X86.36Y-162.56
X86.36Y-167.64
X86.36Y-170.18
X86.36Y-182.88
X86.36Y-187.96
X86.36Y-190.5
X86.36Y-193.04
X86.36Y-195.58
X86.36Y-198.12
X86.36Y-203.2
X86.36Y-205.74
X86.36Y-208.28
X86.36Y-210.82
X86.36Y-228.6
X86.36Y-231.14
X86.36Y-233.68
X86.36Y-236.22
X86.36Y-238.76
X86.36Y-241.3
X86.36Y-243.84
X86.36Y-246.38
X86.36Y-248.92
X86.36Y-251.46
X88.72Y-208.28
X88.72Y-210.82
X88.9Y-48.26
X88.9Y-50.8
X88.9Y-53.34
X88.9Y-55.88
X88.9Y-58.42
X88.9Y-60.96
X88.9Y-63.5
X88.9Y-66.04
X88.9Y-68.58
X88.9Y-71.12
X88.9Y-73.66
X88.9Y-76.2
X88.9Y-78.74
X88.9Y-81.28
X88.9Y-83.82
X88.9Y-93.98
X88.9Y-96.52
X88.9Y-99.06
X88.9Y-104.14
X88.9Y-106.68
X88.9Y-109.22
X88.9Y-116.84
X88.9Y-119.38
X88.9Y-121.92
X88.9Y-124.46
X88.9Y-127.0
X88.9Y-129.54
X88.9Y-137.16
X88.9Y-139.7
X88.9Y-147.32
X88.9Y-149.86
X88.9Y-154.94
X88.9Y-157.48
X88.9Y-160.02
X88.9Y-162.56
X88.9Y-187.96
X88.9Y-195.58
X88.9Y-198.12
X88.9Y-205.74
X88.9Y-215.9
X88.9Y-220.98
X88.9Y-223.52
X88.9Y-226.06
X88.9Y-228.6
X88.9Y-231.14
X88.9Y-233.68
X88.9Y-236.22
X88.9Y-238.76
X89.0Y-217.0
X89.08Y-241.3
X89.08Y-243.84
X89.08Y-246.38
X89.08Y-248.92
X89.08Y-251.46
X91.0Y-107.0
X91.0Y-204.0
X91.44Y-48.26
X91.44Y-50.8
X91.44Y-53.34
X91.44Y-55.88
X91.44Y-58.42
X91.44Y-60.96
X91.44Y-63.5
X91.44Y-66.04
X91.44Y-68.58
X91.44Y-71.12
X91.44Y-73.66
X91.44Y-76.2
X91.44Y-78.74
X91.44Y-81.28
X91.44Y-83.82
X91.44Y-88.9
X91.44Y-93.98
X91.44Y-96.52
X91.44Y-99.06
X91.44Y-116.84
X91.44Y-119.38
X91.44Y-137.16
X91.44Y-139.7
X91.44Y-147.32
X91.44Y-149.86
X91.44Y-154.94
X91.44Y-157.48
X91.44Y-160.02
X91.44Y-162.56
X91.44Y-177.8
X91.44Y-180.34
X91.44Y-182.88
X91.44Y-187.96
X91.44Y-195.58
X91.44Y-198.12
X91.44Y-205.74
X91.44Y-208.28
X91.44Y-210.82
X91.44Y-215.9
X91.44Y-220.98
X91.44Y-223.52
X91.44Y-226.06
X91.44Y-228.6
X91.44Y-231.14
X91.44Y-233.68
X91.44Y-236.22
X91.44Y-238.76
X91.62Y-241.3
X91.62Y-243.84
X91.62Y-246.38
X91.62Y-248.92
X91.62Y-251.46
X92.0Y-122.0
X93.0Y-86.0
X93.0Y-107.0
X93.0Y-219.0
X93.28Y-204.0
X93.8Y-215.9
X93.8Y-220.98
X93.8Y-223.52
X93.8Y-226.06
X93.98Y-48.26
X93.98Y-50.8
X93.98Y-53.34
X93.98Y-55.88
X93.98Y-58.42
X93.98Y-60.96
X93.98Y-63.5
X93.98Y-66.04
X93.98Y-68.58
X93.98Y-71.12
X93.98Y-73.66
X93.98Y-76.2
X93.98Y-78.74
X93.98Y-81.28
X93.98Y-83.82
X93.98Y-88.9
X93.98Y-93.98
X93.98Y-96.52
X93.98Y-99.06
X93.98Y-104.14
X93.98Y-127.0
X93.98Y-134.62
X93.98Y-137.16
X93.98Y-139.7
X93.98Y-147.32
X93.98Y-149.86
X93.98Y-154.94
X93.98Y-157.48
X93.98Y-160.02
X93.98Y-162.56
X93.98Y-167.64
X93.98Y-170.18
X93.98Y-182.88
X93.98Y-195.58
X93.98Y-198.12
X93.98Y-200.66
X93.98Y-205.74
X93.98Y-208.28
X93.98Y-210.82
X93.98Y-228.6
X93.98Y-231.14
X93.98Y-233.68
X93.98Y-236.22
X93.98Y-238.76
X94.16Y-241.3
X94.16Y-243.84
X94.16Y-246.38
X94.16Y-248.92
X94.16Y-251.46
X95.0Y-192.0
X96.34Y-203.2
X96.34Y-205.74
X96.34Y-208.28
X96.34Y-210.82
X96.34Y-215.9
X96.34Y-218.44
X96.34Y-220.98
X96.34Y-223.52
X96.34Y-226.06
X96.52Y-48.26
X96.52Y-50.8
X96.52Y-53.34
X96.52Y-55.88
X96.52Y-58.42
X96.52Y-60.96
X96.52Y-63.5
X96.52Y-66.04
X96.52Y-68.58
X96.52Y-71.12
X96.52Y-73.66
X96.52Y-76.2
X96.52Y-78.74
X96.52Y-81.28
X96.52Y-83.82
X96.52Y-86.36
X96.52Y-91.44
X96.52Y-93.98
X96.52Y-96.52
X96.52Y-99.06
X96.52Y-101.6
X96.52Y-106.68
X96.52Y-109.22
X96.52Y-111.76
X96.52Y-114.3
X96.52Y-116.84
X96.52Y-119.38
X96.52Y-127.0
X96.52Y-129.54
X96.52Y-132.08
X96.52Y-134.62
X96.52Y-137.16
X96.52Y-139.7
X96.52Y-147.32
X96.52Y-149.86
X96.52Y-154.94
X96.52Y-157.48
X96.52Y-160.02
X96.52Y-162.56
X96.52Y-167.64
X96.52Y-170.18
X96.52Y-180.34
X96.52Y-182.88
X96.52Y-185.42
X96.52Y-187.96
X96.52Y-190.5
X96.52Y-195.58
X96.52Y-198.12
X96.52Y-200.66
X96.52Y-228.6
X96.52Y-231.14
X96.52Y-233.68
X96.52Y-236.22
X96.52Y-238.76
X96.7Y-241.3
X96.7Y-243.84
X96.7Y-246.38
X96.7Y-248.92
X96.7Y-251.46
X98.88Y-215.9
X98.88Y-218.44
X98.88Y-220.98
X98.88Y-223.52
X98.88Y-226.06
X99.06Y-48.26
X99.06Y-50.8
X99.06Y-53.34
X99.06Y-55.88
X99.06Y-58.42
X99.06Y-60.96
X99.06Y-63.5
X99.06Y-66.04
X99.06Y-68.58
X99.06Y-71.12
X99.06Y-73.66
X99.06Y-76.2
X99.06Y-78.74
X99.06Y-81.28
X99.06Y-83.82
X99.06Y-86.36
X99.06Y-88.9
X99.06Y-93.98
X99.06Y-96.52
X99.06Y-99.06
X99.06Y-104.14
X99.06Y-106.68
X99.06Y-109.22
X99.06Y-111.76
X99.06Y-114.3
X99.06Y-116.84
X99.06Y-119.38
X99.06Y-121.92
X99.06Y-124.46
X99.06Y-127.0
X99.06Y-129.54
X99.06Y-132.08
X99.06Y-134.62
X99.06Y-137.16
X99.06Y-139.7
X99.06Y-147.32
X99.06Y-149.86
X99.06Y-154.94
X99.06Y-157.48
X99.06Y-160.02
X99.06Y-162.56
X99.06Y-167.64
X99.06Y-170.18
X99.06Y-177.8
X99.06Y-180.34
X99.06Y-182.88
X99.06Y-185.42
X99.06Y-187.96
X99.06Y-190.5
X99.06Y-193.04
X99.06Y-198.12
X99.06Y-200.66
X99.06Y-203.2
X99.06Y-205.74
X99.06Y-208.28
X99.06Y-213.36
X99.06Y-228.6
X99.06Y-231.14
X99.06Y-233.68
X99.06Y-236.22
X99.06Y-238.76
X99.24Y-241.3
X99.24Y-243.84
X99.24Y-246.38
X99.24Y-248.92
X99.24Y-251.46
X101.42Y-203.2
X101.42Y-205.74
X101.6Y-48.26
X101.6Y-50.8
X101.6Y-53.34
X101.6Y-55.88
X101.6Y-58.42
X101.6Y-60.96
X101.6Y-63.5
X101.6Y-66.04
X101.6Y-68.58
X101.6Y-71.12
X101.6Y-73.66
X101.6Y-76.2
X101.6Y-78.74
X101.6Y-81.28
X101.6Y-83.82
X101.6Y-86.36
X101.6Y-88.9
X101.6Y-91.44
X101.6Y-96.52
X101.6Y-99.06
X101.6Y-104.14
X101.6Y-106.68
X101.6Y-109.22
X101.6Y-111.76
X101.6Y-114.3
X101.6Y-116.84
X101.6Y-119.38
X101.6Y-121.92
X101.6Y-124.46
X101.6Y-127.0
X101.6Y-129.54
X101.6Y-132.08
X101.6Y-134.62
X101.6Y-137.16
X101.6Y-139.7
X101.6Y-147.32
X101.6Y-149.86
X101.6Y-154.94
X101.6Y-157.48
X101.6Y-160.02
X101.6Y-162.56
X101.6Y-167.64
X101.6Y-170.18
X101.6Y-177.8
X101.6Y-180.34
X101.6Y-182.88
X101.6Y-185.42
X101.6Y-187.96
X101.6Y-190.5
X101.6Y-193.04
X101.6Y-195.58
X101.6Y-200.66
X101.6Y-210.82
X101.6Y-213.36
X101.6Y-215.9
X101.6Y-218.44
X101.6Y-220.98
X101.6Y-223.52
X101.6Y-226.06
X101.6Y-228.6
X101.6Y-228.6
X101.6Y-231.14
X101.6Y-233.68
X101.6Y-236.22
X101.6Y-238.76
X101.6Y-241.3
X101.6Y-243.84
X101.6Y-246.38
X101.6Y-248.92
X101.6Y-251.46
X104.14Y-48.26
X104.14Y-50.8
X104.14Y-53.34
X104.14Y-55.88
X104.14Y-58.42
X104.14Y-60.96
X104.14Y-63.5
X104.14Y-66.04
X104.14Y-68.58
X104.14Y-71.12
X104.14Y-73.66
X104.14Y-76.2
X104.14Y-78.74
X104.14Y-81.28
X104.14Y-83.82
X104.14Y-86.36
X104.14Y-88.9
X104.14Y-91.44
X104.14Y-93.98
X104.14Y-99.06
X104.14Y-104.14
X104.14Y-106.68
X104.14Y-109.22
X104.14Y-111.76
X104.14Y-114.3
X104.14Y-116.84
X104.14Y-119.38
X104.14Y-121.92
X104.14Y-124.46
X104.14Y-127.0
X104.14Y-129.54
X104.14Y-132.08
X104.14Y-134.62
X104.14Y-137.16
X104.14Y-139.7
X104.14Y-147.32
X104.14Y-149.86
X104.14Y-154.94
X104.14Y-157.48
X104.14Y-160.02
X104.14Y-162.56
X104.14Y-167.64
X104.14Y-170.18
X104.14Y-177.8
X104.14Y-180.34
X104.14Y-182.88
X104.14Y-185.42
X104.14Y-187.96
X104.14Y-190.5
X104.14Y-193.04
X104.14Y-195.58
X104.14Y-198.12
X104.14Y-203.2
X104.14Y-208.28
X104.14Y-210.82
X104.14Y-213.36
X104.14Y-215.9
X104.14Y-218.44
X104.14Y-220.98
X104.14Y-223.52
X104.14Y-226.06
X104.14Y-228.6
X104.14Y-228.6
X104.14Y-231.14
X104.14Y-233.68
X104.14Y-236.22
X104.14Y-238.76
X104.14Y-241.3
X104.14Y-243.84
X104.14Y-246.38
X104.14Y-248.92
X104.14Y-251.46
X106.68Y-48.26
X106.68Y-50.8
X106.68Y-53.34
X106.68Y-55.88
X106.68Y-58.42
X106.68Y-60.96
X106.68Y-63.5
X106.68Y-66.04
X106.68Y-68.58
X106.68Y-81.28
X106.68Y-83.82
X106.68Y-86.36
X106.68Y-88.9
X106.68Y-91.44
X106.68Y-93.98
X106.68Y-96.52
X106.68Y-104.14
X106.68Y-104.14
X106.68Y-106.68
X106.68Y-106.68
X106.68Y-109.22
X106.68Y-109.22
X106.68Y-111.76
X106.68Y-114.3
X106.68Y-116.84
X106.68Y-119.38
X106.68Y-121.92
X106.68Y-124.46
X106.68Y-127.0
X106.68Y-129.54
X106.68Y-132.08
X106.68Y-134.62
X106.68Y-137.16
X106.68Y-139.7
X106.68Y-147.32
X106.68Y-149.86
X106.68Y-154.94
X106.68Y-157.48
X106.68Y-160.02
X106.68Y-162.56
X106.68Y-167.64
X106.68Y-170.18
X106.68Y-177.8
X106.68Y-180.34
X106.68Y-182.88
X106.68Y-185.42
X106.68Y-187.96
X106.68Y-190.5
X106.68Y-193.04
X106.68Y-195.58
X106.68Y-198.12
X106.68Y-200.66
X106.68Y-205.74
X106.68Y-208.28
X106.68Y-210.82
X106.68Y-213.36
X106.68Y-215.9
X106.68Y-218.44
X106.68Y-220.98
X106.68Y-223.52
X106.68Y-236.22
X106.68Y-238.76
X106.68Y-241.3
X106.68Y-243.84
X106.68Y-246.38
X106.68Y-248.92
X106.68Y-251.46
X106.86Y-233.68
X109.22Y-48.26
X109.22Y-50.8
X109.22Y-53.34
X109.22Y-55.88
X109.22Y-58.42
X109.22Y-60.96
X109.22Y-63.5
X109.22Y-66.04
X109.22Y-68.58
X109.22Y-71.12
X109.22Y-73.66
X109.22Y-104.14
X109.22Y-106.68
X109.22Y-109.22
X109.22Y-111.76
X109.22Y-114.3
X109.22Y-116.84
X109.22Y-119.38
X109.22Y-121.92
X109.22Y-124.46
X109.22Y-127.0
X109.22Y-129.54
X109.22Y-132.08
X109.22Y-134.62
X109.22Y-137.16
X109.22Y-139.7
X109.22Y-147.32
X109.22Y-149.86
X109.22Y-154.94
X109.22Y-157.48
X109.22Y-160.02
X109.22Y-162.56
X109.22Y-167.64
X109.22Y-170.18
X109.22Y-177.8
X109.22Y-180.34
X109.22Y-182.88
X109.22Y-185.42
X109.22Y-187.96
X109.22Y-190.5
X109.22Y-193.04
X109.22Y-195.58
X109.22Y-198.12
X109.22Y-228.6
X109.22Y-236.22
X109.22Y-238.76
X109.22Y-241.3
X109.22Y-243.84
X109.22Y-246.38
X109.22Y-248.92
X109.22Y-251.46
X109.4Y-233.68
X110.29Y-78.29
X111.58Y-236.22
X111.58Y-238.76
X111.76Y-48.26
X111.76Y-50.8
X111.76Y-53.34
X111.76Y-55.88
X111.76Y-58.42
X111.76Y-60.96
X111.76Y-63.5
X111.76Y-66.04
X111.76Y-68.58
X111.76Y-81.28
X111.76Y-83.82
X111.76Y-86.36
X111.76Y-88.9
X111.76Y-91.44
X111.76Y-93.98
X111.76Y-96.52
X111.76Y-99.06
X111.76Y-101.6
X111.76Y-104.14
X111.76Y-106.68
X111.76Y-109.22
X111.76Y-111.76
X111.76Y-114.3
X111.76Y-116.84
X111.76Y-119.38
X111.76Y-121.92
X111.76Y-124.46
X111.76Y-127.0
X111.76Y-129.54
X111.76Y-132.08
X111.76Y-134.62
X111.76Y-137.16
X111.76Y-139.7
X111.76Y-147.32
X111.76Y-149.86
X111.76Y-154.94
X111.76Y-157.48
X111.76Y-160.02
X111.76Y-162.56
X111.76Y-167.64
X111.76Y-170.18
X111.76Y-177.8
X111.76Y-180.34
X111.76Y-182.88
X111.76Y-185.42
X111.76Y-187.96
X111.76Y-190.5
X111.76Y-193.04
X111.76Y-195.58
X111.76Y-198.12
X111.76Y-200.66
X111.76Y-205.74
X111.76Y-208.28
X111.76Y-210.82
X111.76Y-213.36
X111.76Y-215.9
X111.76Y-218.44
X111.76Y-220.98
X111.76Y-223.52
X111.76Y-233.68
X111.76Y-241.3
X111.76Y-243.84
X111.76Y-246.38
X111.76Y-248.92
X111.76Y-251.46
X114.12Y-236.22
X114.12Y-238.76
X114.3Y-48.26
X114.3Y-50.8
X114.3Y-53.34
X114.3Y-55.88
X114.3Y-58.42
X114.3Y-60.96
X114.3Y-63.5
X114.3Y-66.04
X114.3Y-68.58
X114.3Y-81.28
X114.3Y-83.82
X114.3Y-86.36
X114.3Y-88.9
X114.3Y-91.44
X114.3Y-93.98
X114.3Y-96.52
X114.3Y-99.06
X114.3Y-101.6
X114.3Y-104.14
X114.3Y-106.68
X114.3Y-109.22
X114.3Y-111.76
X114.3Y-114.3
X114.3Y-116.84
X114.3Y-119.38
X114.3Y-121.92
X114.3Y-124.46
X114.3Y-127.0
X114.3Y-129.54
X114.3Y-132.08
X114.3Y-134.62
X114.3Y-137.16
X114.3Y-139.7
X114.3Y-147.32
X114.3Y-149.86
X114.3Y-154.94
X114.3Y-157.48
X114.3Y-160.02
X114.3Y-162.56
X114.3Y-167.64
X114.3Y-170.18
X114.3Y-177.8
X114.3Y-180.34
X114.3Y-182.88
X114.3Y-185.42
X114.3Y-187.96
X114.3Y-190.5
X114.3Y-193.04
X114.3Y-195.58
X114.3Y-198.12
X114.3Y-200.66
X114.3Y-205.74
X114.3Y-208.28
X114.3Y-210.82
X114.3Y-213.36
X114.3Y-215.9
X114.3Y-218.44
X114.3Y-220.98
X114.3Y-223.52
X114.3Y-233.68
X114.48Y-228.6
X114.48Y-241.3
X114.48Y-243.84
X114.48Y-246.38
X114.48Y-248.92
X114.48Y-251.46
X116.66Y-236.22
X116.66Y-238.76
X116.84Y-48.26
X116.84Y-50.8
X116.84Y-53.34
X116.84Y-55.88
X116.84Y-58.42
X116.84Y-60.96
X116.84Y-63.5
X116.84Y-66.04
X116.84Y-68.58
X116.84Y-71.12
X116.84Y-73.66
X116.84Y-76.835
X116.84Y-81.28
X116.84Y-83.82
X116.84Y-86.36
X116.84Y-88.9
X116.84Y-91.44
X116.84Y-93.98
X116.84Y-96.52
X116.84Y-99.06
X116.84Y-101.6
X116.84Y-104.14
X116.84Y-106.68
X116.84Y-109.22
X116.84Y-111.76
X116.84Y-114.3
X116.84Y-116.84
X116.84Y-119.38
X116.84Y-127.0
X116.84Y-129.54
X116.84Y-132.08
X116.84Y-134.62
X116.84Y-137.16
X116.84Y-139.7
X116.84Y-147.32
X116.84Y-149.86
X116.84Y-154.94
X116.84Y-157.48
X116.84Y-160.02
X116.84Y-162.56
X116.84Y-167.64
X116.84Y-170.18
X116.84Y-182.88
X116.84Y-185.42
X116.84Y-187.96
X116.84Y-190.5
X116.84Y-193.04
X116.84Y-195.58
X116.84Y-198.12
X116.84Y-200.66
X116.84Y-205.74
X116.84Y-208.28
X116.84Y-210.82
X116.84Y-213.36
X116.84Y-215.9
X116.84Y-218.44
X116.84Y-220.98
X116.84Y-223.52
X116.84Y-233.68
X117.02Y-228.6
X117.02Y-241.3
X117.02Y-243.84
X117.02Y-246.38
X117.02Y-248.92
X117.02Y-251.46
X119.2Y-236.22
X119.2Y-238.76
X119.38Y-48.26
X119.38Y-50.8
X119.38Y-53.34
X119.38Y-55.88
X119.38Y-58.42
X119.38Y-60.96
X119.38Y-63.5
X119.38Y-66.04
X119.38Y-68.58
X119.38Y-71.12
X119.38Y-73.66
X119.38Y-76.835
X119.38Y-81.28
X119.38Y-83.82
X119.38Y-86.36
X119.38Y-88.9
X119.38Y-93.98
X119.38Y-96.52
X119.38Y-99.06
X119.38Y-104.14
X119.38Y-106.68
X119.38Y-109.22
X119.38Y-116.84
X119.38Y-119.38
X119.38Y-127.0
X119.38Y-134.62
X119.38Y-137.16
X119.38Y-139.7
X119.38Y-147.32
X119.38Y-149.86
X119.38Y-154.94
X119.38Y-157.48
X119.38Y-160.02
X119.38Y-162.56
X119.38Y-167.64
X119.38Y-170.18
X119.38Y-182.88
X119.38Y-187.96
X119.38Y-190.5
X119.38Y-193.04
X119.38Y-195.58
X119.38Y-198.12
X119.38Y-200.66
X119.38Y-205.74
X119.38Y-208.28
X119.38Y-210.82
X119.38Y-215.9
X119.38Y-218.44
X119.38Y-220.98
X119.38Y-223.52
X119.38Y-228.6
X119.38Y-233.68
X119.56Y-241.3
X119.56Y-243.84
X119.56Y-246.38
X119.56Y-248.92
X119.56Y-251.46
X121.74Y-236.22
X121.74Y-238.76
X121.92Y-48.26
X121.92Y-50.8
X121.92Y-53.34
X121.92Y-55.88
X121.92Y-58.42
X121.92Y-60.96
X121.92Y-63.5
X121.92Y-66.04
X121.92Y-68.58
X121.92Y-71.12
X121.92Y-73.66
X121.92Y-76.835
X121.92Y-81.28
X121.92Y-93.98
X121.92Y-96.52
X121.92Y-99.06
X121.92Y-104.14
X121.92Y-106.68
X121.92Y-109.22
X121.92Y-116.84
X121.92Y-119.38
X121.92Y-121.92
X121.92Y-124.46
X121.92Y-127.0
X121.92Y-137.16
X121.92Y-139.7
X121.92Y-147.32
X121.92Y-149.86
X121.92Y-154.94
X121.92Y-157.48
X121.92Y-160.02
X121.92Y-162.56
X121.92Y-187.96
X121.92Y-195.58
X121.92Y-198.12
X121.92Y-200.66
X121.92Y-205.74
X121.92Y-208.28
X121.92Y-210.82
X121.92Y-215.9
X121.92Y-220.98
X121.92Y-223.52
X121.92Y-228.6
X121.92Y-233.68
X122.0Y-218.0
X122.1Y-241.3
X122.1Y-243.84
X122.1Y-246.38
X122.1Y-248.92
X122.1Y-251.46
X124.46Y-48.26
X124.46Y-50.8
X124.46Y-53.34
X124.46Y-55.88
X124.46Y-58.42
X124.46Y-60.96
X124.46Y-63.5
X124.46Y-66.04
X124.46Y-68.58
X124.46Y-71.12
X124.46Y-73.66
X124.46Y-76.835
X124.46Y-81.28
X124.46Y-88.9
X124.46Y-93.98
X124.46Y-96.52
X124.46Y-99.06
X124.46Y-104.14
X124.46Y-106.68
X124.46Y-137.16
X124.46Y-139.7
X124.46Y-147.32
X124.46Y-149.86
X124.46Y-154.94
X124.46Y-157.48
X124.46Y-160.02
X124.46Y-162.56
X124.46Y-180.34
X124.46Y-182.88
X124.46Y-195.58
X124.46Y-198.12
X124.46Y-205.74
X124.46Y-208.28
X124.46Y-210.82
X124.46Y-215.9
X124.46Y-220.98
X124.46Y-223.52
X124.46Y-228.6
X124.46Y-236.22
X124.46Y-238.76
X124.64Y-233.68
X124.64Y-241.3
X124.64Y-243.84
X124.64Y-246.38
X124.64Y-248.92
X124.64Y-251.46
X124.965Y-108.965
X125.0Y-86.0
X125.0Y-200.0
X126.0Y-100.0
X126.0Y-219.0
X127.0Y-48.26
X127.0Y-50.8
X127.0Y-53.34
X127.0Y-55.88
X127.0Y-58.42
X127.0Y-60.96
X127.0Y-63.5
X127.0Y-66.04
X127.0Y-68.58
X127.0Y-71.12
X127.0Y-73.66
X127.0Y-76.835
X127.0Y-81.28
X127.0Y-83.82
X127.0Y-86.36
X127.0Y-93.98
X127.0Y-96.52
X127.0Y-99.06
X127.0Y-104.14
X127.0Y-106.68
X127.0Y-116.84
X127.0Y-119.38
X127.0Y-129.54
X127.0Y-132.08
X127.0Y-134.62
X127.0Y-137.16
X127.0Y-139.7
X127.0Y-147.32
X127.0Y-149.86
X127.0Y-154.94
X127.0Y-157.48
X127.0Y-160.02
X127.0Y-162.56
X127.0Y-167.64
X127.0Y-170.18
X127.0Y-182.88
X127.0Y-185.42
X127.0Y-195.58
X127.0Y-198.12
X127.0Y-203.2
X127.0Y-205.74
X127.0Y-208.28
X127.0Y-210.82
X127.0Y-213.36
X127.0Y-215.9
X127.0Y-220.98
X127.0Y-223.52
X127.0Y-228.6
X127.0Y-236.22
X127.0Y-238.76
X127.0Y-241.3
X127.0Y-243.84
X127.0Y-246.38
X127.0Y-248.92
X127.0Y-251.46
X127.18Y-233.68
X128.0Y-192.0
X128.0Y-202.0
X129.36Y-236.22
X129.36Y-238.76
X129.54Y-48.26
X129.54Y-50.8
X129.54Y-53.34
X129.54Y-55.88
X129.54Y-58.42
X129.54Y-60.96
X129.54Y-63.5
X129.54Y-66.04
X129.54Y-68.58
X129.54Y-71.12
X129.54Y-73.66
X129.54Y-76.835
X129.54Y-81.28
X129.54Y-83.82
X129.54Y-86.36
X129.54Y-93.98
X129.54Y-96.52
X129.54Y-99.06
X129.54Y-104.14
X129.54Y-106.68
X129.54Y-109.22
X129.54Y-111.76
X129.54Y-114.3
X129.54Y-116.84
X129.54Y-119.38
X129.54Y-121.92
X129.54Y-127.0
X129.54Y-129.54
X129.54Y-132.08
X129.54Y-134.62
X129.54Y-137.16
X129.54Y-139.7
X129.54Y-147.32
X129.54Y-149.86
X129.54Y-154.94
X129.54Y-157.48
X129.54Y-160.02
X129.54Y-162.56
X129.54Y-167.64
X129.54Y-170.18
X129.54Y-180.34
X129.54Y-182.88
X129.54Y-185.42
X129.54Y-187.96
X129.54Y-190.5
X129.54Y-195.58
X129.54Y-198.12
X129.54Y-200.66
X129.54Y-203.2
X129.54Y-205.74
X129.54Y-208.28
X129.54Y-210.82
X129.54Y-213.36
X129.54Y-218.44
X129.54Y-220.98
X129.54Y-223.52
X129.54Y-228.6
X129.54Y-233.68
X129.54Y-241.3
X129.54Y-243.84
X129.54Y-246.38
X129.54Y-248.92
X129.54Y-251.46
X131.9Y-236.22
X131.9Y-238.76
X132.08Y-48.26
X132.08Y-50.8
X132.08Y-53.34
X132.08Y-55.88
X132.08Y-58.42
X132.08Y-60.96
X132.08Y-63.5
X132.08Y-66.04
X132.08Y-68.58
X132.08Y-71.12
X132.08Y-73.66
X132.08Y-76.835
X132.08Y-81.28
X132.08Y-83.82
X132.08Y-86.36
X132.08Y-88.9
X132.08Y-91.44
X132.08Y-96.52
X132.08Y-99.06
X132.08Y-104.14
X132.08Y-106.68
X132.08Y-109.22
X132.08Y-111.76
X132.08Y-114.3
X132.08Y-116.84
X132.08Y-119.38
X132.08Y-121.92
X132.08Y-124.46
X132.08Y-127.0
X132.08Y-129.54
X132.08Y-132.08
X132.08Y-134.62
X132.08Y-137.16
X132.08Y-139.7
X132.08Y-147.32
X132.08Y-149.86
X132.08Y-154.94
X132.08Y-157.48
X132.08Y-160.02
X132.08Y-162.56
X132.08Y-167.64
X132.08Y-170.18
X132.08Y-177.8
X132.08Y-180.34
X132.08Y-182.88
X132.08Y-185.42
X132.08Y-187.96
X132.08Y-190.5
X132.08Y-193.04
X132.08Y-198.12
X132.08Y-200.66
X132.08Y-203.2
X132.08Y-205.74
X132.08Y-208.28
X132.08Y-210.82
X132.08Y-215.9
X132.08Y-218.44
X132.08Y-220.98
X132.08Y-223.52
X132.08Y-228.6
X132.08Y-233.68
X132.08Y-241.3
X132.08Y-243.84
X132.08Y-246.38
X132.08Y-248.92
X132.08Y-251.46
X134.44Y-236.22
X134.44Y-238.76
X134.62Y-48.26
X134.62Y-50.8
X134.62Y-53.34
X134.62Y-55.88
X134.62Y-58.42
X134.62Y-60.96
X134.62Y-63.5
X134.62Y-66.04
X134.62Y-68.58
X134.62Y-71.12
X134.62Y-73.66
X134.62Y-76.835
X134.62Y-81.28
X134.62Y-83.82
X134.62Y-86.36
X134.62Y-88.9
X134.62Y-91.44
X134.62Y-93.98
X134.62Y-99.06
X134.62Y-104.14
X134.62Y-106.68
X134.62Y-109.22
X134.62Y-111.76
X134.62Y-114.3
X134.62Y-116.84
X134.62Y-119.38
X134.62Y-121.92
X134.62Y-124.46
X134.62Y-127.0
X134.62Y-129.54
X134.62Y-132.08
X134.62Y-134.62
X134.62Y-137.16
X134.62Y-139.7
X134.62Y-147.32
X134.62Y-149.86
X134.62Y-154.94
X134.62Y-157.48
X134.62Y-160.02
X134.62Y-162.56
X134.62Y-167.64
X134.62Y-170.18
X134.62Y-177.8
X134.62Y-180.34
X134.62Y-182.88
X134.62Y-185.42
X134.62Y-187.96
X134.62Y-190.5
X134.62Y-193.04
X134.62Y-195.58
X134.62Y-200.66
X134.62Y-205.74
X134.62Y-208.28
X134.62Y-213.36
X134.62Y-215.9
X134.62Y-218.44
X134.62Y-220.98
X134.62Y-223.52
X134.62Y-228.6
X134.62Y-233.68
X134.62Y-241.3
X134.62Y-243.84
X134.62Y-246.38
X134.62Y-248.92
X134.62Y-251.46
X134.657Y-203.192
X136.98Y-236.22
X136.98Y-238.76
X137.16Y-48.26
X137.16Y-50.8
X137.16Y-53.34
X137.16Y-55.88
X137.16Y-58.42
X137.16Y-60.96
X137.16Y-63.5
X137.16Y-66.04
X137.16Y-68.58
X137.16Y-71.12
X137.16Y-73.66
X137.16Y-76.835
X137.16Y-81.28
X137.16Y-83.82
X137.16Y-86.36
X137.16Y-88.9
X137.16Y-91.44
X137.16Y-93.98
X137.16Y-96.52
X137.16Y-104.14
X137.16Y-106.68
X137.16Y-109.22
X137.16Y-111.76
X137.16Y-114.3
X137.16Y-116.84
X137.16Y-119.38
X137.16Y-121.92
X137.16Y-124.46
X137.16Y-127.0
X137.16Y-129.54
X137.16Y-132.08
X137.16Y-134.62
X137.16Y-137.16
X137.16Y-139.7
X137.16Y-147.32
X137.16Y-149.86
X137.16Y-154.94
X137.16Y-157.48
X137.16Y-160.02
X137.16Y-162.56
X137.16Y-167.64
X137.16Y-170.18
X137.16Y-177.8
X137.16Y-180.34
X137.16Y-182.88
X137.16Y-185.42
X137.16Y-187.96
X137.16Y-190.5
X137.16Y-193.04
X137.16Y-195.58
X137.16Y-198.12
X137.16Y-203.2
X137.16Y-205.74
X137.16Y-210.82
X137.16Y-213.36
X137.16Y-215.9
X137.16Y-218.44
X137.16Y-220.98
X137.16Y-223.52
X137.16Y-233.68
X137.16Y-241.3
X137.16Y-243.84
X137.16Y-246.38
X137.16Y-248.92
X137.16Y-251.46
X139.0Y-75.9
X139.52Y-236.22
X139.52Y-238.76
X139.7Y-48.26
X139.7Y-50.8
X139.7Y-53.34
X139.7Y-55.88
X139.7Y-58.42
X139.7Y-60.96
X139.7Y-63.5
X139.7Y-66.04
X139.7Y-68.58
X139.7Y-81.28
X139.7Y-83.82
X139.7Y-86.36
X139.7Y-88.9
X139.7Y-91.44
X139.7Y-93.98
X139.7Y-96.52
X139.7Y-99.06
X139.7Y-104.14
X139.7Y-106.68
X139.7Y-109.22
X139.7Y-111.76
X139.7Y-114.3
X139.7Y-116.84
X139.7Y-119.38
X139.7Y-121.92
X139.7Y-124.46
X139.7Y-127.0
X139.7Y-129.54
X139.7Y-132.08
X139.7Y-134.62
X139.7Y-137.16
X139.7Y-139.7
X139.7Y-147.32
X139.7Y-149.86
X139.7Y-154.94
X139.7Y-157.48
X139.7Y-160.02
X139.7Y-162.56
X139.7Y-167.64
X139.7Y-170.18
X139.7Y-177.8
X139.7Y-180.34
X139.7Y-182.88
X139.7Y-185.42
X139.7Y-187.96
X139.7Y-190.5
X139.7Y-193.04
X139.7Y-195.58
X139.7Y-198.12
X139.7Y-208.28
X139.7Y-210.82
X139.7Y-213.36
X139.7Y-215.9
X139.7Y-218.44
X139.7Y-220.98
X139.7Y-223.52
X139.7Y-233.68
X139.88Y-241.3
X139.88Y-243.84
X139.88Y-246.38
X139.88Y-248.92
X139.88Y-251.46
X142.0Y-226.0
X142.24Y-48.26
X142.24Y-50.8
X142.24Y-53.34
X142.24Y-55.88
X142.24Y-58.42
X142.24Y-60.96
X142.24Y-63.5
X142.24Y-66.04
X142.24Y-68.58
X142.24Y-71.12
X142.24Y-73.66
X142.24Y-104.14
X142.24Y-106.68
X142.24Y-109.22
X142.24Y-111.76
X142.24Y-114.3
X142.24Y-116.84
X142.24Y-119.38
X142.24Y-121.92
X142.24Y-124.46
X142.24Y-127.0
X142.24Y-129.54
X142.24Y-132.08
X142.24Y-134.62
X142.24Y-137.16
X142.24Y-139.7
X142.24Y-147.32
X142.24Y-149.86
X142.24Y-154.94
X142.24Y-157.48
X142.24Y-160.02
X142.24Y-162.56
X142.24Y-167.64
X142.24Y-170.18
X142.24Y-177.8
X142.24Y-180.34
X142.24Y-182.88
X142.24Y-185.42
X142.24Y-187.96
X142.24Y-190.5
X142.24Y-193.04
X142.24Y-195.58
X142.24Y-198.12
X142.24Y-228.6
X142.24Y-236.22
X142.24Y-238.76
X142.42Y-233.68
X142.42Y-241.3
X142.42Y-243.84
X142.42Y-246.38
X142.42Y-248.92
X142.42Y-251.46
X144.0Y-78.0
X144.015Y-225.985
X144.78Y-48.26
X144.78Y-50.8
X144.78Y-53.34
X144.78Y-55.88
X144.78Y-58.42
X144.78Y-60.96
X144.78Y-63.5
X144.78Y-66.04
X144.78Y-68.58
X144.78Y-81.28
X144.78Y-83.82
X144.78Y-86.36
X144.78Y-88.9
X144.78Y-91.44
X144.78Y-93.98
X144.78Y-96.52
X144.78Y-99.06
X144.78Y-104.14
X144.78Y-106.68
X144.78Y-109.22
X144.78Y-111.76
X144.78Y-114.3
X144.78Y-116.84
X144.78Y-119.38
X144.78Y-121.92
X144.78Y-124.46
X144.78Y-127.0
X144.78Y-129.54
X144.78Y-132.08
X144.78Y-134.62
X144.78Y-137.16
X144.78Y-139.7
X144.78Y-147.32
X144.78Y-149.86
X144.78Y-154.94
X144.78Y-157.48
X144.78Y-160.02
X144.78Y-162.56
X144.78Y-167.64
X144.78Y-170.18
X144.78Y-177.8
X144.78Y-180.34
X144.78Y-182.88
X144.78Y-185.42
X144.78Y-187.96
X144.78Y-190.5
X144.78Y-193.04
X144.78Y-195.58
X144.78Y-198.12
X144.78Y-203.2
X144.78Y-205.74
X144.78Y-208.28
X144.78Y-210.82
X144.78Y-213.36
X144.78Y-215.9
X144.78Y-218.44
X144.78Y-220.98
X144.78Y-223.52
X144.78Y-236.22
X144.78Y-238.76
X144.96Y-233.68
X144.96Y-241.3
X144.96Y-243.84
X144.96Y-246.38
X144.96Y-248.92
X144.96Y-251.46
X147.14Y-236.22
X147.14Y-238.76
X147.32Y-48.26
X147.32Y-50.8
X147.32Y-53.34
X147.32Y-55.88
X147.32Y-58.42
X147.32Y-60.96
X147.32Y-63.5
X147.32Y-66.04
X147.32Y-68.58
X147.32Y-81.28
X147.32Y-83.82
X147.32Y-86.36
X147.32Y-88.9
X147.32Y-91.44
X147.32Y-93.98
X147.32Y-96.52
X147.32Y-99.06
X147.32Y-101.6
X147.32Y-104.14
X147.32Y-106.68
X147.32Y-109.22
X147.32Y-111.76
X147.32Y-114.3
X147.32Y-116.84
X147.32Y-119.38
X147.32Y-121.92
X147.32Y-124.46
X147.32Y-127.0
X147.32Y-129.54
X147.32Y-132.08
X147.32Y-134.62
X147.32Y-137.16
X147.32Y-139.7
X147.32Y-147.32
X147.32Y-149.86
X147.32Y-154.94
X147.32Y-157.48
X147.32Y-160.02
X147.32Y-162.56
X147.32Y-167.64
X147.32Y-170.18
X147.32Y-177.8
X147.32Y-180.34
X147.32Y-182.88
X147.32Y-185.42
X147.32Y-187.96
X147.32Y-190.5
X147.32Y-193.04
X147.32Y-195.58
X147.32Y-198.12
X147.32Y-203.2
X147.32Y-205.74
X147.32Y-208.28
X147.32Y-210.82
X147.32Y-213.36
X147.32Y-215.9
X147.32Y-218.44
X147.32Y-220.98
X147.32Y-223.52
X147.32Y-233.68
X147.5Y-241.3
X147.5Y-243.84
X147.5Y-246.38
X147.5Y-248.92
X147.5Y-251.46
X149.68Y-236.22
X149.68Y-238.76
X149.86Y-48.26
X149.86Y-50.8
X149.86Y-53.34
X149.86Y-55.88
X149.86Y-58.42
X149.86Y-60.96
X149.86Y-63.5
X149.86Y-66.04
X149.86Y-68.58
X149.86Y-71.12
X149.86Y-73.66
X149.86Y-76.2
X149.86Y-81.28
X149.86Y-83.82
X149.86Y-86.36
X149.86Y-88.9
X149.86Y-91.44
X149.86Y-93.98
X149.86Y-96.52
X149.86Y-99.06
X149.86Y-101.6
X149.86Y-104.14
X149.86Y-106.68
X149.86Y-109.22
X149.86Y-111.76
X149.86Y-114.3
X149.86Y-116.84
X149.86Y-119.38
X149.86Y-121.92
X149.86Y-124.46
X149.86Y-127.0
X149.86Y-129.54
X149.86Y-132.08
X149.86Y-134.62
X149.86Y-137.16
X149.86Y-139.7
X149.86Y-147.32
X149.86Y-149.86
X149.86Y-154.94
X149.86Y-157.48
X149.86Y-160.02
X149.86Y-162.56
X149.86Y-167.64
X149.86Y-170.18
X149.86Y-177.8
X149.86Y-180.34
X149.86Y-182.88
X149.86Y-185.42
X149.86Y-187.96
X149.86Y-190.5
X149.86Y-193.04
X149.86Y-195.58
X149.86Y-198.12
X149.86Y-203.2
X149.86Y-205.74
X149.86Y-208.28
X149.86Y-210.82
X149.86Y-213.36
X149.86Y-215.9
X149.86Y-218.44
X149.86Y-220.98
X149.86Y-223.52
X149.86Y-228.6
X149.86Y-233.68
X150.04Y-241.3
X150.04Y-243.84
X150.04Y-246.38
X150.04Y-248.92
X150.04Y-251.46
X152.22Y-236.22
X152.22Y-238.76
X152.4Y-48.26
X152.4Y-50.8
X152.4Y-53.34
X152.4Y-55.88
X152.4Y-58.42
X152.4Y-60.96
X152.4Y-63.5
X152.4Y-66.04
X152.4Y-68.58
X152.4Y-71.12
X152.4Y-73.66
X152.4Y-76.2
X152.4Y-81.28
X152.4Y-83.82
X152.4Y-86.36
X152.4Y-88.9
X152.4Y-91.44
X152.4Y-93.98
X152.4Y-96.52
X152.4Y-99.06
X152.4Y-104.14
X152.4Y-106.68
X152.4Y-109.22
X152.4Y-111.76
X152.4Y-114.3
X152.4Y-116.84
X152.4Y-119.38
X152.4Y-121.92
X152.4Y-124.46
X152.4Y-127.0
X152.4Y-129.54
X152.4Y-132.08
X152.4Y-134.62
X152.4Y-137.16
X152.4Y-139.7
X152.4Y-147.32
X152.4Y-149.86
X152.4Y-154.94
X152.4Y-157.48
X152.4Y-160.02
X152.4Y-162.56
X152.4Y-167.64
X152.4Y-170.18
X152.4Y-177.8
X152.4Y-180.34
X152.4Y-182.88
X152.4Y-185.42
X152.4Y-187.96
X152.4Y-190.5
X152.4Y-193.04
X152.4Y-195.58
X152.4Y-198.12
X152.4Y-205.74
X152.4Y-208.28
X152.4Y-210.82
X152.4Y-213.36
X152.4Y-215.9
X152.4Y-218.44
X152.4Y-220.98
X152.4Y-223.52
X152.4Y-228.6
X152.4Y-233.68
X152.4Y-241.3
X152.4Y-243.84
X152.4Y-246.38
X152.4Y-248.92
X152.4Y-251.46
X154.0Y-207.0
X154.76Y-236.22
X154.76Y-238.76
X154.94Y-48.26
X154.94Y-50.8
X154.94Y-53.34
X154.94Y-55.88
X154.94Y-58.42
X154.94Y-60.96
X154.94Y-63.5
X154.94Y-66.04
X154.94Y-68.58
X154.94Y-71.12
X154.94Y-73.66
X154.94Y-76.2
X154.94Y-81.28
X154.94Y-83.82
X154.94Y-86.36
X154.94Y-88.9
X154.94Y-91.44
X154.94Y-93.98
X154.94Y-96.52
X154.94Y-99.06
X154.94Y-111.76
X154.94Y-114.3
X154.94Y-116.84
X154.94Y-119.38
X154.94Y-121.92
X154.94Y-124.46
X154.94Y-127.0
X154.94Y-129.54
X154.94Y-132.08
X154.94Y-134.62
X154.94Y-137.16
X154.94Y-139.7
X154.94Y-147.32
X154.94Y-149.86
X154.94Y-154.94
X154.94Y-157.48
X154.94Y-160.02
X154.94Y-162.56
X154.94Y-167.64
X154.94Y-170.18
X154.94Y-177.8
X154.94Y-180.34
X154.94Y-182.88
X154.94Y-185.42
X154.94Y-187.96
X154.94Y-190.5
X154.94Y-193.04
X154.94Y-195.58
X154.94Y-198.12
X154.94Y-210.82
X154.94Y-213.36
X154.94Y-215.9
X154.94Y-218.44
X154.94Y-220.98
X154.94Y-223.52
X154.94Y-228.6
X154.94Y-233.68
X154.94Y-241.3
X154.94Y-243.84
X154.94Y-246.38
X154.94Y-248.92
X154.94Y-251.46
X156.0Y-108.0
X156.0Y-203.0
X156.0Y-208.0
X157.3Y-236.22
X157.3Y-238.76
X157.48Y-48.26
X157.48Y-50.8
X157.48Y-53.34
X157.48Y-55.88
X157.48Y-58.42
X157.48Y-60.96
X157.48Y-63.5
X157.48Y-66.04
X157.48Y-68.58
X157.48Y-71.12
X157.48Y-73.66
X157.48Y-76.2
X157.48Y-81.28
X157.48Y-83.82
X157.48Y-86.36
X157.48Y-88.9
X157.48Y-91.44
X157.48Y-93.98
X157.48Y-96.52
X157.48Y-99.06
X157.48Y-109.22
X157.48Y-111.76
X157.48Y-114.3
X157.48Y-116.84
X157.48Y-119.38
X157.48Y-121.92
X157.48Y-124.46
X157.48Y-127.0
X157.48Y-129.54
X157.48Y-132.08
X157.48Y-134.62
X157.48Y-137.16
X157.48Y-139.7
X157.48Y-147.32
X157.48Y-149.86
X157.48Y-154.94
X157.48Y-157.48
X157.48Y-160.02
X157.48Y-162.56
X157.48Y-167.64
X157.48Y-170.18
X157.48Y-177.8
X157.48Y-180.34
X157.48Y-182.88
X157.48Y-185.42
X157.48Y-187.96
X157.48Y-190.5
X157.48Y-193.04
X157.48Y-195.58
X157.48Y-198.12
X157.48Y-210.82
X157.48Y-213.36
X157.48Y-215.9
X157.48Y-218.44
X157.48Y-220.98
X157.48Y-223.52
X157.48Y-228.6
X157.48Y-233.68
X157.48Y-241.3
X157.48Y-243.84
X157.48Y-246.38
X157.48Y-248.92
X157.48Y-251.46
X159.0Y-204.0
X159.84Y-236.22
X159.84Y-238.76
X160.02Y-48.26
X160.02Y-50.8
X160.02Y-53.34
X160.02Y-55.88
X160.02Y-58.42
X160.02Y-60.96
X160.02Y-63.5
X160.02Y-66.04
X160.02Y-68.58
X160.02Y-71.12
X160.02Y-73.66
X160.02Y-76.2
X160.02Y-81.28
X160.02Y-83.82
X160.02Y-86.36
X160.02Y-88.9
X160.02Y-91.44
X160.02Y-93.98
X160.02Y-96.52
X160.02Y-99.06
X160.02Y-104.14
X160.02Y-106.68
X160.02Y-109.22
X160.02Y-111.76
X160.02Y-114.3
X160.02Y-116.84
X160.02Y-119.38
X160.02Y-121.92
X160.02Y-124.46
X160.02Y-127.0
X160.02Y-129.54
X160.02Y-132.08
X160.02Y-134.62
X160.02Y-137.16
X160.02Y-139.7
X160.02Y-147.32
X160.02Y-149.86
X160.02Y-154.94
X160.02Y-157.48
X160.02Y-160.02
X160.02Y-162.56
X160.02Y-167.64
X160.02Y-170.18
X160.02Y-177.8
X160.02Y-180.34
X160.02Y-182.88
X160.02Y-185.42
X160.02Y-187.96
X160.02Y-190.5
X160.02Y-193.04
X160.02Y-195.58
X160.02Y-198.12
X160.02Y-205.74
X160.02Y-208.28
X160.02Y-210.82
X160.02Y-213.36
X160.02Y-215.9
X160.02Y-218.44
X160.02Y-220.98
X160.02Y-223.52
X160.02Y-233.68
X160.02Y-241.3
X160.02Y-243.84
X160.02Y-246.38
X160.02Y-248.92
X160.02Y-251.46
X160.2Y-228.6
X162.38Y-236.22
X162.38Y-238.76
X162.56Y-48.26
X162.56Y-50.8
X162.56Y-53.34
X162.56Y-55.88
X162.56Y-58.42
X162.56Y-60.96
X162.56Y-63.5
X162.56Y-66.04
X162.56Y-68.58
X162.56Y-71.12
X162.56Y-73.66
X162.56Y-76.2
X162.56Y-81.28
X162.56Y-83.82
X162.56Y-86.36
X162.56Y-88.9
X162.56Y-91.44
X162.56Y-93.98
X162.56Y-96.52
X162.56Y-99.06
X162.56Y-104.14
X162.56Y-106.68
X162.56Y-109.22
X162.56Y-111.76
X162.56Y-114.3
X162.56Y-116.84
X162.56Y-119.38
X162.56Y-121.92
X162.56Y-124.46
X162.56Y-127.0
X162.56Y-129.54
X162.56Y-132.08
X162.56Y-134.62
X162.56Y-137.16
X162.56Y-139.7
X162.56Y-147.32
X162.56Y-149.86
X162.56Y-154.94
X162.56Y-157.48
X162.56Y-160.02
X162.56Y-162.56
X162.56Y-167.64
X162.56Y-170.18
X162.56Y-177.8
X162.56Y-180.34
X162.56Y-182.88
X162.56Y-185.42
X162.56Y-187.96
X162.56Y-190.5
X162.56Y-193.04
X162.56Y-195.58
X162.56Y-198.12
X162.56Y-203.2
X162.56Y-205.74
X162.56Y-208.28
X162.56Y-210.82
X162.56Y-213.36
X162.56Y-215.9
X162.56Y-218.44
X162.56Y-220.98
X162.56Y-223.52
X162.56Y-233.68
X162.56Y-241.3
X162.56Y-243.84
X162.56Y-246.38
X162.56Y-248.92
X162.56Y-251.46
X162.74Y-228.6
X164.92Y-236.22
X164.92Y-238.76
X165.1Y-48.26
X165.1Y-50.8
X165.1Y-53.34
X165.1Y-55.88
X165.1Y-58.42
X165.1Y-60.96
X165.1Y-63.5
X165.1Y-66.04
X165.1Y-68.58
X165.1Y-71.12
X165.1Y-73.66
X165.1Y-81.28
X165.1Y-83.82
X165.1Y-86.36
X165.1Y-88.9
X165.1Y-91.44
X165.1Y-93.98
X165.1Y-96.52
X165.1Y-99.06
X165.1Y-104.14
X165.1Y-106.68
X165.1Y-109.22
X165.1Y-111.76
X165.1Y-114.3
X165.1Y-116.84
X165.1Y-119.38
X165.1Y-121.92
X165.1Y-124.46
X165.1Y-127.0
X165.1Y-129.54
X165.1Y-132.08
X165.1Y-134.62
X165.1Y-137.16
X165.1Y-139.7
X165.1Y-147.32
X165.1Y-149.86
X165.1Y-154.94
X165.1Y-157.48
X165.1Y-160.02
X165.1Y-162.56
X165.1Y-167.64
X165.1Y-170.18
X165.1Y-177.8
X165.1Y-180.34
X165.1Y-182.88
X165.1Y-185.42
X165.1Y-187.96
X165.1Y-190.5
X165.1Y-193.04
X165.1Y-195.58
X165.1Y-198.12
X165.1Y-203.2
X165.1Y-205.74
X165.1Y-208.28
X165.1Y-210.82
X165.1Y-213.36
X165.1Y-215.9
X165.1Y-218.44
X165.1Y-220.98
X165.1Y-223.52
X165.1Y-228.6
X165.1Y-233.68
X165.136Y-76.153
X165.28Y-241.3
X165.28Y-243.84
X165.28Y-246.38
X165.28Y-248.92
X165.28Y-251.46
X167.64Y-48.26
X167.64Y-50.8
X167.64Y-53.34
X167.64Y-55.88
X167.64Y-58.42
X167.64Y-60.96
X167.64Y-63.5
X167.64Y-66.04
X167.64Y-68.58
X167.64Y-71.12
X167.64Y-73.66
X167.64Y-81.28
X167.64Y-83.82
X167.64Y-86.36
X167.64Y-88.9
X167.64Y-91.44
X167.64Y-93.98
X167.64Y-96.52
X167.64Y-99.06
X167.64Y-104.14
X167.64Y-106.68
X167.64Y-109.22
X167.64Y-111.76
X167.64Y-114.3
X167.64Y-116.84
X167.64Y-119.38
X167.64Y-121.92
X167.64Y-124.46
X167.64Y-127.0
X167.64Y-129.54
X167.64Y-132.08
X167.64Y-134.62
X167.64Y-137.16
X167.64Y-139.7
X167.64Y-147.32
X167.64Y-149.86
X167.64Y-154.94
X167.64Y-157.48
X167.64Y-160.02
X167.64Y-162.56
X167.64Y-167.64
X167.64Y-170.18
X167.64Y-177.8
X167.64Y-180.34
X167.64Y-182.88
X167.64Y-185.42
X167.64Y-187.96
X167.64Y-190.5
X167.64Y-193.04
X167.64Y-195.58
X167.64Y-198.12
X167.64Y-203.2
X167.64Y-205.74
X167.64Y-208.28
X167.64Y-210.82
X167.64Y-213.36
X167.64Y-215.9
X167.64Y-218.44
X167.64Y-220.98
X167.64Y-223.52
X167.64Y-228.6
X167.67Y-76.188
X167.82Y-233.68
X167.82Y-236.22
X167.82Y-238.76
X167.82Y-241.3
X167.82Y-243.84
X167.82Y-246.38
X167.82Y-248.92
X167.82Y-251.46
X170.0Y-76.0
X170.18Y-48.26
X170.18Y-50.8
X170.18Y-53.34
X170.18Y-55.88
X170.18Y-58.42
X170.18Y-60.96
X170.18Y-63.5
X170.18Y-66.04
X170.18Y-68.58
X170.18Y-71.12
X170.18Y-73.66
X170.18Y-81.28
X170.18Y-83.82
X170.18Y-86.36
X170.18Y-88.9
X170.18Y-91.44
X170.18Y-93.98
X170.18Y-96.52
X170.18Y-99.06
X170.18Y-104.14
X170.18Y-106.68
X170.18Y-109.22
X170.18Y-111.76
X170.18Y-114.3
X170.18Y-116.84
X170.18Y-119.38
X170.18Y-121.92
X170.18Y-124.46
X170.18Y-127.0
X170.18Y-129.54
X170.18Y-132.08
X170.18Y-134.62
X170.18Y-137.16
X170.18Y-139.7
X170.18Y-147.32
X170.18Y-149.86
X170.18Y-154.94
X170.18Y-157.48
X170.18Y-160.02
X170.18Y-162.56
X170.18Y-167.64
X170.18Y-170.18
X170.18Y-177.8
X170.18Y-180.34
X170.18Y-182.88
X170.18Y-185.42
X170.18Y-187.96
X170.18Y-190.5
X170.18Y-193.04
X170.18Y-195.58
X170.18Y-198.12
X170.18Y-203.2
X170.18Y-205.74
X170.18Y-208.28
X170.18Y-210.82
X170.18Y-213.36
X170.18Y-215.9
X170.18Y-218.44
X170.18Y-220.98
X170.18Y-223.52
X170.36Y-233.68
X170.36Y-236.22
X170.36Y-238.76
X170.36Y-241.3
X170.36Y-243.84
X170.36Y-246.38
X170.36Y-248.92
X170.36Y-251.46
X172.72Y-48.26
X172.72Y-50.8
X172.72Y-53.34
X172.72Y-55.88
X172.72Y-58.42
X172.72Y-60.96
X172.72Y-63.5
X172.72Y-66.04
X172.72Y-68.58
X172.72Y-81.28
X172.72Y-83.82
X172.72Y-86.36
X172.72Y-88.9
X172.72Y-91.44
X172.72Y-93.98
X172.72Y-96.52
X172.72Y-99.06
X172.72Y-104.14
X172.72Y-106.68
X172.72Y-109.22
X172.72Y-111.76
X172.72Y-114.3
X172.72Y-116.84
X172.72Y-119.38
X172.72Y-121.92
X172.72Y-124.46
X172.72Y-127.0
X172.72Y-129.54
X172.72Y-132.08
X172.72Y-134.62
X172.72Y-137.16
X172.72Y-139.7
X172.72Y-147.32
X172.72Y-149.86
X172.72Y-154.94
X172.72Y-157.48
X172.72Y-160.02
X172.72Y-162.56
X172.72Y-167.64
X172.72Y-170.18
X172.72Y-177.8
X172.72Y-180.34
X172.72Y-182.88
X172.72Y-185.42
X172.72Y-187.96
X172.72Y-190.5
X172.72Y-193.04
X172.72Y-195.58
X172.72Y-198.12
X172.72Y-203.2
X172.72Y-205.74
X172.72Y-208.28
X172.72Y-210.82
X172.72Y-213.36
X172.72Y-215.9
X172.72Y-218.44
X172.72Y-220.98
X172.72Y-223.52
X172.72Y-233.68
X172.72Y-236.22
X172.72Y-238.76
X172.9Y-241.3
X172.9Y-243.84
X172.9Y-246.38
X172.9Y-248.92
X172.9Y-251.46
X174.0Y-226.0
X175.26Y-48.26
X175.26Y-50.8
X175.26Y-53.34
X175.26Y-55.88
X175.26Y-58.42
X175.26Y-60.96
X175.26Y-63.5
X175.26Y-66.04
X175.26Y-68.58
X175.26Y-71.12
X175.26Y-104.14
X175.26Y-106.68
X175.26Y-109.22
X175.26Y-111.76
X175.26Y-114.3
X175.26Y-116.84
X175.26Y-119.38
X175.26Y-121.92
X175.26Y-124.46
X175.26Y-127.0
X175.26Y-129.54
X175.26Y-132.08
X175.26Y-134.62
X175.26Y-137.16
X175.26Y-139.7
X175.26Y-147.32
X175.26Y-149.86
X175.26Y-154.94
X175.26Y-157.48
X175.26Y-160.02
X175.26Y-162.56
X175.26Y-167.64
X175.26Y-170.18
X175.26Y-177.8
X175.26Y-180.34
X175.26Y-182.88
X175.26Y-185.42
X175.26Y-187.96
X175.26Y-190.5
X175.26Y-193.04
X175.26Y-195.58
X175.26Y-198.12
X175.26Y-228.6
X175.26Y-233.68
X175.26Y-236.22
X175.26Y-238.76
X175.44Y-241.3
X175.44Y-243.84
X175.44Y-246.38
X175.44Y-248.92
X175.44Y-251.46
X176.015Y-225.985
X177.8Y-48.26
X177.8Y-50.8
X177.8Y-53.34
X177.8Y-55.88
X177.8Y-58.42
X177.8Y-60.96
X177.8Y-63.5
X177.8Y-66.04
X177.8Y-68.58
X177.8Y-78.74
X177.8Y-81.28
X177.8Y-83.82
X177.8Y-86.36
X177.8Y-88.9
X177.8Y-91.44
X177.8Y-93.98
X177.8Y-96.52
X177.8Y-99.06
X177.8Y-101.6
X177.8Y-104.14
X177.8Y-106.68
X177.8Y-109.22
X177.8Y-111.76
X177.8Y-114.3
X177.8Y-116.84
X177.8Y-119.38
X177.8Y-121.92
X177.8Y-124.46
X177.8Y-127.0
X177.8Y-129.54
X177.8Y-132.08
X177.8Y-134.62
X177.8Y-137.16
X177.8Y-139.7
X177.8Y-147.32
X177.8Y-149.86
X177.8Y-154.94
X177.8Y-157.48
X177.8Y-160.02
X177.8Y-162.56
X177.8Y-167.64
X177.8Y-170.18
X177.8Y-177.8
X177.8Y-180.34
X177.8Y-182.88
X177.8Y-185.42
X177.8Y-187.96
X177.8Y-190.5
X177.8Y-193.04
X177.8Y-195.58
X177.8Y-198.12
X177.8Y-203.2
X177.8Y-205.74
X177.8Y-208.28
X177.8Y-210.82
X177.8Y-213.36
X177.8Y-215.9
X177.8Y-218.44
X177.8Y-220.98
X177.8Y-223.52
X177.8Y-233.68
X177.8Y-236.22
X177.8Y-238.76
X177.8Y-241.3
X177.8Y-243.84
X177.8Y-246.38
X177.8Y-248.92
X177.8Y-251.46
X180.34Y-48.26
X180.34Y-50.8
X180.34Y-53.34
X180.34Y-55.88
X180.34Y-58.42
X180.34Y-60.96
X180.34Y-63.5
X180.34Y-66.04
X180.34Y-68.58
X180.34Y-81.28
X180.34Y-83.82
X180.34Y-86.36
X180.34Y-88.9
X180.34Y-91.44
X180.34Y-93.98
X180.34Y-96.52
X180.34Y-99.06
X180.34Y-101.6
X180.34Y-104.14
X180.34Y-106.68
X180.34Y-109.22
X180.34Y-111.76
X180.34Y-114.3
X180.34Y-116.84
X180.34Y-119.38
X180.34Y-121.92
X180.34Y-124.46
X180.34Y-127.0
X180.34Y-129.54
X180.34Y-132.08
X180.34Y-134.62
X180.34Y-137.16
X180.34Y-139.7
X180.34Y-147.32
X180.34Y-149.86
X180.34Y-154.94
X180.34Y-157.48
X180.34Y-160.02
X180.34Y-162.56
X180.34Y-167.64
X180.34Y-170.18
X180.34Y-177.8
X180.34Y-180.34
X180.34Y-182.88
X180.34Y-185.42
X180.34Y-187.96
X180.34Y-190.5
X180.34Y-193.04
X180.34Y-195.58
X180.34Y-198.12
X180.34Y-203.2
X180.34Y-205.74
X180.34Y-208.28
X180.34Y-210.82
X180.34Y-213.36
X180.34Y-215.9
X180.34Y-218.44
X180.34Y-220.98
X180.34Y-223.52
X180.34Y-228.6
X180.34Y-233.68
X180.34Y-236.22
X180.34Y-238.76
X180.34Y-241.3
X180.34Y-243.84
X180.34Y-246.38
X180.34Y-248.92
X180.34Y-251.46
X182.88Y-48.26
X182.88Y-50.8
X182.88Y-53.34
X182.88Y-55.88
X182.88Y-58.42
X182.88Y-60.96
X182.88Y-63.5
X182.88Y-66.04
X182.88Y-68.58
X182.88Y-71.12
X182.88Y-76.2
X182.88Y-81.28
X182.88Y-99.06
X182.88Y-101.6
X182.88Y-104.14
X182.88Y-106.68
X182.88Y-109.22
X182.88Y-111.76
X182.88Y-114.3
X182.88Y-116.84
X182.88Y-119.38
X182.88Y-121.92
X182.88Y-124.46
X182.88Y-127.0
X182.88Y-129.54
X182.88Y-132.08
X182.88Y-134.62
X182.88Y-137.16
X182.88Y-139.7
X182.88Y-147.32
X182.88Y-149.86
X182.88Y-154.94
X182.88Y-157.48
X182.88Y-160.02
X182.88Y-162.56
X182.88Y-167.64
X182.88Y-170.18
X182.88Y-177.8
X182.88Y-180.34
X182.88Y-182.88
X182.88Y-185.42
X182.88Y-187.96
X182.88Y-190.5
X182.88Y-193.04
X182.88Y-195.58
X182.88Y-198.12
X182.88Y-203.2
X182.88Y-205.74
X182.88Y-215.9
X182.88Y-220.98
X182.88Y-223.52
X182.88Y-233.68
X182.88Y-236.22
X182.88Y-238.76
X182.88Y-241.3
X182.88Y-243.84
X182.88Y-246.38
X182.88Y-248.92
X182.88Y-251.46
X183.06Y-228.6
X185.42Y-48.26
X185.42Y-50.8
X185.42Y-53.34
X185.42Y-55.88
X185.42Y-58.42
X185.42Y-60.96
X185.42Y-63.5
X185.42Y-66.04
X185.42Y-68.58
X185.42Y-71.12
X185.42Y-76.2
X185.42Y-81.28
X185.42Y-83.82
X185.42Y-86.36
X185.42Y-88.9
X185.42Y-99.06
X185.42Y-101.6
X185.42Y-104.14
X185.42Y-106.68
X185.42Y-109.22
X185.42Y-111.76
X185.42Y-114.3
X185.42Y-116.84
X185.42Y-119.38
X185.42Y-121.92
X185.42Y-124.46
X185.42Y-127.0
X185.42Y-129.54
X185.42Y-132.08
X185.42Y-134.62
X185.42Y-137.16
X185.42Y-139.7
X185.42Y-147.32
X185.42Y-149.86
X185.42Y-154.94
X185.42Y-157.48
X185.42Y-160.02
X185.42Y-162.56
X185.42Y-167.64
X185.42Y-170.18
X185.42Y-177.8
X185.42Y-180.34
X185.42Y-182.88
X185.42Y-185.42
X185.42Y-187.96
X185.42Y-190.5
X185.42Y-193.04
X185.42Y-195.58
X185.42Y-198.12
X185.42Y-203.2
X185.42Y-205.74
X185.42Y-215.9
X185.42Y-218.44
X185.42Y-220.98
X185.42Y-223.52
X185.42Y-233.68
X185.42Y-236.22
X185.42Y-238.76
X185.42Y-241.3
X185.42Y-243.84
X185.42Y-246.38
X185.42Y-248.92
X185.42Y-251.46
X185.6Y-228.6
X187.96Y-48.26
X187.96Y-50.8
X187.96Y-53.34
X187.96Y-55.88
X187.96Y-58.42
X187.96Y-60.96
X187.96Y-63.5
X187.96Y-66.04
X187.96Y-68.58
X187.96Y-71.12
X187.96Y-76.2
X187.96Y-81.28
X187.96Y-83.82
X187.96Y-86.36
X187.96Y-88.9
X187.96Y-93.98
X187.96Y-96.52
X187.96Y-99.06
X187.96Y-101.6
X187.96Y-104.14
X187.96Y-106.68
X187.96Y-109.22
X187.96Y-111.76
X187.96Y-114.3
X187.96Y-116.84
X187.96Y-119.38
X187.96Y-121.92
X187.96Y-124.46
X187.96Y-127.0
X187.96Y-129.54
X187.96Y-132.08
X187.96Y-134.62
X187.96Y-137.16
X187.96Y-139.7
X187.96Y-147.32
X187.96Y-149.86
X187.96Y-154.94
X187.96Y-157.48
X187.96Y-160.02
X187.96Y-162.56
X187.96Y-167.64
X187.96Y-170.18
X187.96Y-177.8
X187.96Y-180.34
X187.96Y-182.88
X187.96Y-185.42
X187.96Y-187.96
X187.96Y-190.5
X187.96Y-193.04
X187.96Y-195.58
X187.96Y-198.12
X187.96Y-208.28
X187.96Y-210.82
X187.96Y-215.9
X187.96Y-218.44
X187.96Y-220.98
X187.96Y-223.52
X187.96Y-228.6
X187.96Y-233.68
X187.96Y-236.22
X187.96Y-238.76
X187.96Y-241.3
X187.96Y-243.84
X187.96Y-246.38
X187.96Y-248.92
X187.96Y-251.46
X188.072Y-203.171
X188.072Y-205.711
X190.5Y-48.26
X190.5Y-50.8
X190.5Y-53.34
X190.5Y-55.88
X190.5Y-58.42
X190.5Y-60.96
X190.5Y-63.5
X190.5Y-66.04
X190.5Y-68.58
X190.5Y-71.12
X190.5Y-76.2
X190.5Y-81.28
X190.5Y-83.82
X190.5Y-86.36
X190.5Y-88.9
X190.5Y-93.98
X190.5Y-96.52
X190.5Y-99.06
X190.5Y-101.6
X190.5Y-104.14
X190.5Y-106.68
X190.5Y-109.22
X190.5Y-111.76
X190.5Y-114.3
X190.5Y-116.84
X190.5Y-119.38
X190.5Y-121.92
X190.5Y-124.46
X190.5Y-127.0
X190.5Y-129.54
X190.5Y-132.08
X190.5Y-134.62
X190.5Y-137.16
X190.5Y-139.7
X190.5Y-147.32
X190.5Y-149.86
X190.5Y-154.94
X190.5Y-157.48
X190.5Y-160.02
X190.5Y-162.56
X190.5Y-167.64
X190.5Y-170.18
X190.5Y-177.8
X190.5Y-180.34
X190.5Y-182.88
X190.5Y-185.42
X190.5Y-187.96
X190.5Y-190.5
X190.5Y-193.04
X190.5Y-195.58
X190.5Y-198.12
X190.5Y-208.28
X190.5Y-210.82
X190.5Y-215.9
X190.5Y-218.44
X190.5Y-220.98
X190.5Y-223.52
X190.5Y-228.6
X190.5Y-233.68
X190.5Y-236.22
X190.5Y-238.76
X190.612Y-203.171
X190.612Y-205.711
X190.68Y-241.3
X190.68Y-243.84
X190.68Y-246.38
X190.68Y-248.92
X190.68Y-251.46
X193.04Y-48.26
X193.04Y-50.8
X193.04Y-53.34
X193.04Y-55.88
X193.04Y-58.42
X193.04Y-60.96
X193.04Y-63.5
X193.04Y-66.04
X193.04Y-68.58
X193.04Y-71.12
X193.04Y-76.2
X193.04Y-81.28
X193.04Y-83.82
X193.04Y-86.36
X193.04Y-88.9
X193.04Y-99.06
X193.04Y-101.6
X193.04Y-104.14
X193.04Y-106.68
X193.04Y-109.22
X193.04Y-111.76
X193.04Y-114.3
X193.04Y-116.84
X193.04Y-119.38
X193.04Y-121.92
X193.04Y-124.46
X193.04Y-127.0
X193.04Y-129.54
X193.04Y-132.08
X193.04Y-134.62
X193.04Y-137.16
X193.04Y-139.7
X193.04Y-147.32
X193.04Y-149.86
X193.04Y-154.94
X193.04Y-157.48
X193.04Y-160.02
X193.04Y-162.56
X193.04Y-167.64
X193.04Y-170.18
X193.04Y-177.8
X193.04Y-180.34
X193.04Y-182.88
X193.04Y-185.42
X193.04Y-187.96
X193.04Y-190.5
X193.04Y-193.04
X193.04Y-195.58
X193.04Y-198.12
X193.04Y-203.2
X193.04Y-205.74
X193.04Y-215.9
X193.04Y-218.44
X193.04Y-220.98
X193.04Y-223.52
X193.04Y-228.6
X193.04Y-233.68
X193.04Y-236.22
X193.04Y-238.76
X193.22Y-241.3
X193.22Y-243.84
X193.22Y-246.38
X193.22Y-248.92
X193.22Y-251.46
X195.58Y-48.26
X195.58Y-50.8
X195.58Y-53.34
X195.58Y-55.88
X195.58Y-58.42
X195.58Y-60.96
X195.58Y-63.5
X195.58Y-66.04
X195.58Y-68.58
X195.58Y-71.12
X195.58Y-76.2
X195.58Y-81.28
X195.58Y-83.82
X195.58Y-86.36
X195.58Y-88.9
X195.58Y-99.06
X195.58Y-101.6
X195.58Y-104.14
X195.58Y-106.68
X195.58Y-109.22
X195.58Y-111.76
X195.58Y-114.3
X195.58Y-116.84
X195.58Y-119.38
X195.58Y-121.92
X195.58Y-124.46
X195.58Y-127.0
X195.58Y-129.54
X195.58Y-132.08
X195.58Y-134.62
X195.58Y-137.16
X195.58Y-139.7
X195.58Y-147.32
X195.58Y-149.86
X195.58Y-154.94
X195.58Y-157.48
X195.58Y-160.02
X195.58Y-162.56
X195.58Y-167.64
X195.58Y-170.18
X195.58Y-177.8
X195.58Y-180.34
X195.58Y-182.88
X195.58Y-185.42
X195.58Y-187.96
X195.58Y-190.5
X195.58Y-193.04
X195.58Y-195.58
X195.58Y-198.12
X195.58Y-203.2
X195.58Y-205.74
X195.58Y-220.98
X195.58Y-223.52
X195.58Y-228.6
X195.58Y-233.68
X195.76Y-241.3
X195.76Y-243.84
X195.76Y-246.38
X195.76Y-248.92
X195.76Y-251.46
X197.0Y-235.0
X198.0Y-66.0
X198.0Y-238.0
X198.12Y-48.26
X198.12Y-50.8
X198.12Y-53.34
X198.12Y-55.88
X198.12Y-58.42
X198.12Y-60.96
X198.12Y-63.5
X198.12Y-81.28
X198.12Y-83.82
X198.12Y-88.9
X198.12Y-91.44
X198.12Y-93.98
X198.12Y-96.52
X198.12Y-99.06
X198.12Y-101.6
X198.12Y-104.14
X198.12Y-106.68
X198.12Y-109.22
X198.12Y-111.76
X198.12Y-114.3
X198.12Y-116.84
X198.12Y-119.38
X198.12Y-121.92
X198.12Y-124.46
X198.12Y-127.0
X198.12Y-129.54
X198.12Y-132.08
X198.12Y-134.62
X198.12Y-137.16
X198.12Y-139.7
X198.12Y-147.32
X198.12Y-149.86
X198.12Y-154.94
X198.12Y-157.48
X198.12Y-160.02
X198.12Y-162.56
X198.12Y-167.64
X198.12Y-170.18
X198.12Y-177.8
X198.12Y-180.34
X198.12Y-182.88
X198.12Y-185.42
X198.12Y-187.96
X198.12Y-190.5
X198.12Y-193.04
X198.12Y-195.58
X198.12Y-198.12
X198.12Y-203.2
X198.12Y-205.74
X198.12Y-208.28
X198.12Y-210.82
X198.12Y-215.9
X198.12Y-218.44
X198.12Y-220.98
X198.12Y-223.52
X198.12Y-228.6
X198.12Y-233.68
X198.3Y-241.3
X198.3Y-243.84
X198.3Y-246.38
X198.3Y-248.92
X198.3Y-251.46
X199.0Y-74.55
X200.66Y-48.26
X200.66Y-50.8
X200.66Y-53.34
X200.66Y-55.88
X200.66Y-58.42
X200.66Y-60.96
X200.66Y-63.5
X200.66Y-68.58
X200.66Y-81.28
X200.66Y-83.82
X200.66Y-86.36
X200.66Y-88.9
X200.66Y-91.44
X200.66Y-93.98
X200.66Y-96.52
X200.66Y-99.06
X200.66Y-101.6
X200.66Y-104.14
X200.66Y-106.68
X200.66Y-109.22
X200.66Y-111.76
X200.66Y-114.3
X200.66Y-116.84
X200.66Y-119.38
X200.66Y-121.92
X200.66Y-124.46
X200.66Y-127.0
X200.66Y-129.54
X200.66Y-132.08
X200.66Y-134.62
X200.66Y-137.16
X200.66Y-139.7
X200.66Y-147.32
X200.66Y-149.86
X200.66Y-154.94
X200.66Y-157.48
X200.66Y-160.02
X200.66Y-162.56
X200.66Y-167.64
X200.66Y-170.18
X200.66Y-177.8
X200.66Y-180.34
X200.66Y-182.88
X200.66Y-185.42
X200.66Y-187.96
X200.66Y-190.5
X200.66Y-193.04
X200.66Y-195.58
X200.66Y-198.12
X200.66Y-203.2
X200.66Y-205.74
X200.66Y-208.28
X200.66Y-210.82
X200.66Y-215.9
X200.66Y-218.44
X200.66Y-220.98
X200.66Y-223.52
X200.66Y-233.68
X200.66Y-236.22
X200.84Y-241.3
X200.84Y-243.84
X200.84Y-246.38
X200.84Y-248.92
X200.84Y-251.46
X203.2Y-48.26
X203.2Y-50.8
X203.2Y-53.34
X203.2Y-55.88
X203.2Y-58.42
X203.2Y-60.96
X203.2Y-63.5
X203.2Y-68.58
X203.2Y-71.12
X203.2Y-73.66
X203.2Y-81.28
X203.2Y-83.82
X203.2Y-86.36
X203.2Y-88.9
X203.2Y-91.44
X203.2Y-93.98
X203.2Y-96.52
X203.2Y-99.06
X203.2Y-101.6
X203.2Y-104.14
X203.2Y-106.68
X203.2Y-109.22
X203.2Y-111.76
X203.2Y-114.3
X203.2Y-116.84
X203.2Y-119.38
X203.2Y-121.92
X203.2Y-124.46
X203.2Y-127.0
X203.2Y-129.54
X203.2Y-132.08
X203.2Y-134.62
X203.2Y-137.16
X203.2Y-139.7
X203.2Y-147.32
X203.2Y-149.86
X203.2Y-154.94
X203.2Y-157.48
X203.2Y-160.02
X203.2Y-162.56
X203.2Y-167.64
X203.2Y-170.18
X203.2Y-177.8
X203.2Y-180.34
X203.2Y-182.88
X203.2Y-185.42
X203.2Y-187.96
X203.2Y-190.5
X203.2Y-193.04
X203.2Y-195.58
X203.2Y-198.12
X203.2Y-203.2
X203.2Y-205.74
X203.2Y-208.28
X203.2Y-210.82
X203.2Y-215.9
X203.2Y-218.44
X203.2Y-220.98
X203.2Y-223.52
X203.2Y-231.14
X203.2Y-233.68
X203.2Y-236.22
X203.2Y-241.3
X203.2Y-243.84
X203.2Y-246.38
X203.2Y-248.92
X203.2Y-251.46
X204.0Y-78.0
X204.0Y-226.0
X205.74Y-48.26
X205.74Y-50.8
X205.74Y-53.34
X205.74Y-55.88
X205.74Y-58.42
X205.74Y-60.96
X205.74Y-63.5
X205.74Y-68.58
X205.74Y-71.12
X205.74Y-73.66
X205.74Y-78.74
X205.74Y-81.28
X205.74Y-83.82
X205.74Y-86.36
X205.74Y-88.9
X205.74Y-91.44
X205.74Y-93.98
X205.74Y-96.52
X205.74Y-99.06
X205.74Y-101.6
X205.74Y-104.14
X205.74Y-106.68
X205.74Y-109.22
X205.74Y-111.76
X205.74Y-114.3
X205.74Y-116.84
X205.74Y-119.38
X205.74Y-121.92
X205.74Y-124.46
X205.74Y-127.0
X205.74Y-129.54
X205.74Y-132.08
X205.74Y-134.62
X205.74Y-137.16
X205.74Y-139.7
X205.74Y-147.32
X205.74Y-149.86
X205.74Y-154.94
X205.74Y-157.48
X205.74Y-160.02
X205.74Y-162.56
X205.74Y-167.64
X205.74Y-170.18
X205.74Y-177.8
X205.74Y-180.34
X205.74Y-182.88
X205.74Y-185.42
X205.74Y-187.96
X205.74Y-190.5
X205.74Y-193.04
X205.74Y-195.58
X205.74Y-198.12
X205.74Y-203.2
X205.74Y-205.74
X205.74Y-208.28
X205.74Y-228.6
X205.74Y-231.14
X205.74Y-233.68
X205.74Y-236.22
X205.74Y-241.3
X205.74Y-243.84
X205.74Y-246.38
X205.74Y-248.92
X205.74Y-251.46
X208.198Y-78.717
X208.28Y-48.26
X208.28Y-50.8
X208.28Y-53.34
X208.28Y-55.88
X208.28Y-58.42
X208.28Y-60.96
X208.28Y-63.5
X208.28Y-68.58
X208.28Y-81.28
X208.28Y-83.82
X208.28Y-86.36
X208.28Y-88.9
X208.28Y-91.44
X208.28Y-93.98
X208.28Y-96.52
X208.28Y-99.06
X208.28Y-101.6
X208.28Y-104.14
X208.28Y-106.68
X208.28Y-109.22
X208.28Y-111.76
X208.28Y-114.3
X208.28Y-116.84
X208.28Y-119.38
X208.28Y-121.92
X208.28Y-124.46
X208.28Y-127.0
X208.28Y-129.54
X208.28Y-132.08
X208.28Y-134.62
X208.28Y-137.16
X208.28Y-139.7
X208.28Y-147.32
X208.28Y-149.86
X208.28Y-154.94
X208.28Y-157.48
X208.28Y-160.02
X208.28Y-162.56
X208.28Y-167.64
X208.28Y-170.18
X208.28Y-177.8
X208.28Y-180.34
X208.28Y-182.88
X208.28Y-185.42
X208.28Y-187.96
X208.28Y-190.5
X208.28Y-193.04
X208.28Y-195.58
X208.28Y-198.12
X208.28Y-203.2
X208.28Y-205.74
X208.28Y-208.28
X208.28Y-210.82
X208.28Y-213.36
X208.28Y-215.9
X208.28Y-218.44
X208.28Y-220.98
X208.28Y-223.52
X208.28Y-233.68
X208.28Y-236.22
X208.28Y-241.3
X208.28Y-243.84
X208.28Y-246.38
X208.28Y-248.92
X208.28Y-251.46
X210.82Y-48.26
X210.82Y-50.8
X210.82Y-53.34
X210.82Y-55.88
X210.82Y-58.42
X210.82Y-60.96
X210.82Y-63.5
X210.82Y-71.12
X210.82Y-73.66
X210.82Y-76.2
X210.82Y-78.74
X210.82Y-81.28
X210.82Y-83.82
X210.82Y-86.36
X210.82Y-88.9
X210.82Y-91.44
X210.82Y-93.98
X210.82Y-96.52
X210.82Y-99.06
X210.82Y-104.14
X210.82Y-106.68
X210.82Y-109.22
X210.82Y-111.76
X210.82Y-114.3
X210.82Y-116.84
X210.82Y-119.38
X210.82Y-121.92
X210.82Y-124.46
X210.82Y-127.0
X210.82Y-129.54
X210.82Y-132.08
X210.82Y-134.62
X210.82Y-137.16
X210.82Y-139.7
X210.82Y-147.32
X210.82Y-149.86
X210.82Y-154.94
X210.82Y-157.48
X210.82Y-160.02
X210.82Y-162.56
X210.82Y-167.64
X210.82Y-170.18
X210.82Y-177.8
X210.82Y-180.34
X210.82Y-182.88
X210.82Y-185.42
X210.82Y-187.96
X210.82Y-190.5
X210.82Y-193.04
X210.82Y-195.58
X210.82Y-198.12
X210.82Y-205.74
X210.82Y-210.82
X210.82Y-213.36
X210.82Y-215.9
X210.82Y-218.44
X210.82Y-220.98
X210.82Y-223.52
X210.82Y-226.06
X210.82Y-231.14
X210.82Y-233.68
X210.82Y-236.22
X210.82Y-241.3
X210.82Y-243.84
X210.82Y-246.38
X210.82Y-248.92
X210.82Y-251.46
X211.0Y-238.0
X213.0Y-67.1
X213.0Y-235.0
X213.36Y-48.26
X213.36Y-50.8
X213.36Y-53.34
X213.36Y-55.88
X213.36Y-58.42
X213.36Y-60.96
X213.36Y-63.5
X213.36Y-71.12
X213.36Y-73.66
X213.36Y-76.2
X213.36Y-78.74
X213.36Y-81.28
X213.36Y-83.82
X213.36Y-104.14
X213.36Y-106.68
X213.36Y-109.22
X213.36Y-111.76
X213.36Y-114.3
X213.36Y-116.84
X213.36Y-119.38
X213.36Y-121.92
X213.36Y-124.46
X213.36Y-127.0
X213.36Y-129.54
X213.36Y-132.08
X213.36Y-134.62
X213.36Y-137.16
X213.36Y-139.7
X213.36Y-147.32
X213.36Y-149.86
X213.36Y-154.94
X213.36Y-157.48
X213.36Y-160.02
X213.36Y-162.56
X213.36Y-167.64
X213.36Y-170.18
X213.36Y-177.8
X213.36Y-180.34
X213.36Y-182.88
X213.36Y-185.42
X213.36Y-187.96
X213.36Y-190.5
X213.36Y-193.04
X213.36Y-195.58
X213.36Y-198.12
X213.36Y-208.28
X213.36Y-210.82
X213.36Y-213.36
X213.36Y-215.9
X213.36Y-218.44
X213.36Y-220.98
X213.36Y-223.52
X213.36Y-226.06
X213.36Y-228.6
X213.36Y-241.3
X213.36Y-243.84
X213.36Y-246.38
X213.36Y-248.92
X213.36Y-251.46
X214.0Y-239.0
X215.9Y-48.26
X215.9Y-50.8
X215.9Y-53.34
X215.9Y-55.88
X215.9Y-58.42
X215.9Y-60.96
X215.9Y-63.5
X215.9Y-66.04
X215.9Y-68.58
X215.9Y-71.12
X215.9Y-73.66
X215.9Y-76.2
X215.9Y-78.74
X215.9Y-81.28
X215.9Y-86.36
X215.9Y-88.9
X215.9Y-91.44
X215.9Y-93.98
X215.9Y-96.52
X215.9Y-99.06
X215.9Y-104.14
X215.9Y-106.68
X215.9Y-109.22
X215.9Y-111.76
X215.9Y-114.3
X215.9Y-116.84
X215.9Y-119.38
X215.9Y-121.92
X215.9Y-124.46
X215.9Y-127.0
X215.9Y-129.54
X215.9Y-132.08
X215.9Y-134.62
X215.9Y-137.16
X215.9Y-139.7
X215.9Y-147.32
X215.9Y-149.86
X215.9Y-154.94
X215.9Y-157.48
X215.9Y-160.02
X215.9Y-162.56
X215.9Y-167.64
X215.9Y-170.18
X215.9Y-177.8
X215.9Y-180.34
X215.9Y-182.88
X215.9Y-185.42
X215.9Y-187.96
X215.9Y-190.5
X215.9Y-193.04
X215.9Y-195.58
X215.9Y-198.12
X215.9Y-205.74
X215.9Y-208.28
X215.9Y-210.82
X215.9Y-213.36
X215.9Y-215.9
X215.9Y-218.44
X215.9Y-220.98
X215.9Y-223.52
X215.9Y-226.06
X215.9Y-228.6
X215.9Y-231.14
X215.9Y-233.68
X215.9Y-236.22
X215.9Y-238.76
X216.08Y-241.3
X216.08Y-243.84
X216.08Y-246.38
X216.08Y-248.92
X216.08Y-251.46
X218.0Y-202.0
X218.44Y-48.26
X218.44Y-50.8
X218.44Y-53.34
X218.44Y-55.88
X218.44Y-58.42
X218.44Y-60.96
X218.44Y-63.5
X218.44Y-66.04
X218.44Y-68.58
X218.44Y-71.12
X218.44Y-73.66
X218.44Y-76.2
X218.44Y-78.74
X218.44Y-86.36
X218.44Y-88.9
X218.44Y-91.44
X218.44Y-93.98
X218.44Y-96.52
X218.44Y-99.06
X218.44Y-101.6
X218.44Y-104.14
X218.44Y-106.68
X218.44Y-109.22
X218.44Y-111.76
X218.44Y-114.3
X218.44Y-116.84
X218.44Y-119.38
X218.44Y-121.92
X218.44Y-124.46
X218.44Y-127.0
X218.44Y-129.54
X218.44Y-132.08
X218.44Y-134.62
X218.44Y-137.16
X218.44Y-139.7
X218.44Y-147.32
X218.44Y-149.86
X218.44Y-154.94
X218.44Y-157.48
X218.44Y-160.02
X218.44Y-162.56
X218.44Y-167.64
X218.44Y-170.18
X218.44Y-177.8
X218.44Y-180.34
X218.44Y-182.88
X218.44Y-185.42
X218.44Y-187.96
X218.44Y-190.5
X218.44Y-193.04
X218.44Y-195.58
X218.44Y-198.12
X218.44Y-203.2
X218.44Y-205.74
X218.44Y-208.28
X218.44Y-210.82
X218.44Y-213.36
X218.44Y-215.9
X218.44Y-218.44
X218.44Y-220.98
X218.44Y-223.52
X218.44Y-226.06
X218.44Y-228.6
X218.44Y-231.14
X218.44Y-233.68
X218.44Y-236.22
X218.44Y-238.76
X218.62Y-241.3
X218.62Y-243.84
X218.62Y-246.38
X218.62Y-248.92
X218.62Y-251.46
X220.98Y-48.26
X220.98Y-50.8
X220.98Y-53.34
X220.98Y-55.88
X220.98Y-58.42
X220.98Y-60.96
X220.98Y-63.5
X220.98Y-66.04
X220.98Y-68.58
X220.98Y-71.12
X220.98Y-73.66
X220.98Y-76.2
X220.98Y-81.28
X220.98Y-83.82
X220.98Y-86.36
X220.98Y-88.9
X220.98Y-91.44
X220.98Y-93.98
X220.98Y-96.52
X220.98Y-99.06
X220.98Y-101.6
X220.98Y-104.14
X220.98Y-106.68
X220.98Y-109.22
X220.98Y-111.76
X220.98Y-114.3
X220.98Y-116.84
X220.98Y-119.38
X220.98Y-121.92
X220.98Y-124.46
X220.98Y-127.0
X220.98Y-129.54
X220.98Y-132.08
X220.98Y-134.62
X220.98Y-137.16
X220.98Y-139.7
X220.98Y-147.32
X220.98Y-149.86
X220.98Y-154.94
X220.98Y-157.48
X220.98Y-160.02
X220.98Y-162.56
X220.98Y-167.64
X220.98Y-170.18
X220.98Y-177.8
X220.98Y-180.34
X220.98Y-182.88
X220.98Y-185.42
X220.98Y-187.96
X220.98Y-190.5
X220.98Y-193.04
X220.98Y-195.58
X220.98Y-198.12
X220.98Y-203.2
X220.98Y-205.74
X220.98Y-208.28
X220.98Y-210.82
X220.98Y-213.36
X220.98Y-215.9
X220.98Y-218.44
X220.98Y-220.98
X220.98Y-223.52
X220.98Y-226.06
X220.98Y-228.6
X220.98Y-231.14
X220.98Y-233.68
X220.98Y-236.22
X220.98Y-238.76
X221.16Y-241.3
X221.16Y-243.84
X221.16Y-246.38
X221.16Y-248.92
X221.16Y-251.46
X223.52Y-48.26
X223.52Y-50.8
X223.52Y-53.34
X223.52Y-55.88
X223.52Y-58.42
X223.52Y-60.96
X223.52Y-71.12
X223.52Y-73.66
X223.52Y-134.62
X223.52Y-137.16
X223.52Y-139.7
X223.52Y-154.94
X223.52Y-231.14
X223.52Y-233.68
X223.7Y-243.84
X223.7Y-246.38
X223.7Y-248.92
X223.7Y-251.46
X226.0Y-70.0
X226.06Y-48.26
X226.06Y-50.8
X226.06Y-53.34
X226.06Y-55.88
X226.06Y-58.42
X226.06Y-60.96
X226.06Y-71.12
X226.06Y-73.66
X226.06Y-76.2
X226.06Y-78.74
X226.06Y-83.82
X226.06Y-86.36
X226.06Y-88.9
X226.06Y-91.44
X226.06Y-93.98
X226.06Y-96.52
X226.06Y-101.6
X226.06Y-104.14
X226.06Y-106.68
X226.06Y-109.22
X226.06Y-114.3
X226.06Y-116.84
X226.06Y-119.38
X226.06Y-121.92
X226.06Y-124.46
X226.06Y-127.0
X226.06Y-129.54
X226.06Y-147.32
X226.06Y-154.94
X226.06Y-160.02
X226.06Y-162.56
X226.06Y-170.18
X226.06Y-177.8
X226.06Y-180.34
X226.06Y-182.88
X226.06Y-185.42
X226.06Y-187.96
X226.06Y-190.5
X226.06Y-193.04
X226.06Y-198.12
X226.06Y-200.66
X226.06Y-203.2
X226.06Y-205.74
X226.06Y-208.28
X226.06Y-210.82
X226.06Y-213.36
X226.06Y-215.9
X226.06Y-218.44
X226.06Y-220.98
X226.06Y-226.06
X226.06Y-231.14
X226.06Y-233.68
X226.06Y-236.22
X226.06Y-238.76
X226.24Y-243.84
X226.24Y-246.38
X226.24Y-248.92
X226.24Y-251.46
X227.965Y-67.31
X228.6Y-48.26
X228.6Y-50.8
X228.6Y-53.34
X228.6Y-55.88
X228.6Y-58.42
X228.6Y-60.96
X228.6Y-71.12
X228.6Y-73.66
X228.6Y-76.2
X228.6Y-78.74
X228.6Y-83.82
X228.6Y-86.36
X228.6Y-88.9
X228.6Y-91.44
X228.6Y-93.98
X228.6Y-96.52
X228.6Y-101.6
X228.6Y-104.14
X228.6Y-106.68
X228.6Y-109.22
X228.6Y-114.3
X228.6Y-116.84
X228.6Y-119.38
X228.6Y-121.92
X228.6Y-124.46
X228.6Y-127.0
X228.6Y-129.54
X228.6Y-132.08
X228.6Y-147.32
X228.6Y-154.94
X228.6Y-160.02
X228.6Y-162.56
X228.6Y-177.8
X228.6Y-180.34
X228.6Y-182.88
X228.6Y-185.42
X228.6Y-187.96
X228.6Y-190.5
X228.6Y-193.04
X228.6Y-198.12
X228.6Y-200.66
X228.6Y-203.2
X228.6Y-205.74
X228.6Y-208.28
X228.6Y-210.82
X228.6Y-213.36
X228.6Y-215.9
X228.6Y-218.44
X228.6Y-220.98
X228.6Y-226.06
X228.6Y-231.14
X228.6Y-233.68
X228.6Y-236.22
X228.6Y-243.84
X228.6Y-246.38
X228.6Y-248.92
X228.6Y-251.46
X231.14Y-48.26
X231.14Y-50.8
X231.14Y-53.34
X231.14Y-55.88
X231.14Y-58.42
X231.14Y-60.96
X231.14Y-63.5
X231.14Y-67.31
X231.14Y-71.12
X231.14Y-73.66
X231.14Y-76.2
X231.14Y-78.74
X231.14Y-83.82
X231.14Y-86.36
X231.14Y-88.9
X231.14Y-91.44
X231.14Y-93.98
X231.14Y-96.52
X231.14Y-101.6
X231.14Y-104.14
X231.14Y-106.68
X231.14Y-109.22
X231.14Y-114.3
X231.14Y-116.84
X231.14Y-119.38
X231.14Y-121.92
X231.14Y-124.46
X231.14Y-127.0
X231.14Y-129.54
X231.14Y-132.08
X231.14Y-134.62
X231.14Y-137.16
X231.14Y-139.7
X231.14Y-147.32
X231.14Y-154.94
X231.14Y-160.02
X231.14Y-162.56
X231.14Y-167.64
X231.14Y-170.18
X231.14Y-177.8
X231.14Y-180.34
X231.14Y-182.88
X231.14Y-185.42
X231.14Y-187.96
X231.14Y-190.5
X231.14Y-193.04
X231.14Y-198.12
X231.14Y-200.66
X231.14Y-203.2
X231.14Y-205.74
X231.14Y-208.28
X231.14Y-210.82
X231.14Y-213.36
X231.14Y-215.9
X231.14Y-218.44
X231.14Y-220.98
X231.14Y-226.06
X231.14Y-231.14
X231.14Y-233.68
X231.14Y-236.22
X231.14Y-238.76
X231.14Y-241.3
X231.14Y-243.84
X231.14Y-246.38
X231.14Y-248.92
X231.14Y-251.46
X233.68Y-48.26
X233.68Y-50.8
X233.68Y-53.34
X233.68Y-55.88
X233.68Y-58.42
X233.68Y-60.96
X233.68Y-63.5
X233.68Y-67.31
X233.68Y-71.12
X233.68Y-73.66
X233.68Y-76.2
X233.68Y-78.74
X233.68Y-83.82
X233.68Y-86.36
X233.68Y-88.9
X233.68Y-91.44
X233.68Y-93.98
X233.68Y-96.52
X233.68Y-101.6
X233.68Y-104.14
X233.68Y-106.68
X233.68Y-109.22
X233.68Y-114.3
X233.68Y-116.84
X233.68Y-119.38
X233.68Y-121.92
X233.68Y-124.46
X233.68Y-127.0
X233.68Y-129.54
X233.68Y-132.08
X233.68Y-134.62
X233.68Y-137.16
X233.68Y-139.7
X233.68Y-147.32
X233.68Y-154.94
X233.68Y-160.02
X233.68Y-162.56
X233.68Y-167.64
X233.68Y-170.18
X233.68Y-177.8
X233.68Y-180.34
X233.68Y-182.88
X233.68Y-185.42
X233.68Y-187.96
X233.68Y-190.5
X233.68Y-193.04
X233.68Y-198.12
X233.68Y-200.66
X233.68Y-203.2
X233.68Y-205.74
X233.68Y-208.28
X233.68Y-210.82
X233.68Y-213.36
X233.68Y-215.9
X233.68Y-218.44
X233.68Y-220.98
X233.68Y-226.06
X233.68Y-231.14
X233.68Y-233.68
X233.68Y-236.22
X233.68Y-238.76
X233.68Y-241.3
X233.68Y-243.84
X233.68Y-246.38
X233.68Y-248.92
X233.68Y-251.46
X236.22Y-48.26
X236.22Y-50.8
X236.22Y-53.34
X236.22Y-55.88
X236.22Y-58.42
X236.22Y-60.96
X236.22Y-63.5
X236.22Y-67.31
X236.22Y-71.12
X236.22Y-73.66
X236.22Y-76.2
X236.22Y-78.74
X236.22Y-83.82
X236.22Y-86.36
X236.22Y-88.9
X236.22Y-91.44
X236.22Y-93.98
X236.22Y-96.52
X236.22Y-101.6
X236.22Y-104.14
X236.22Y-106.68
X236.22Y-109.22
X236.22Y-114.3
X236.22Y-116.84
X236.22Y-119.38
X236.22Y-121.92
X236.22Y-124.46
X236.22Y-127.0
X236.22Y-129.54
X236.22Y-132.08
X236.22Y-134.62
X236.22Y-137.16
X236.22Y-139.7
X236.22Y-147.32
X236.22Y-154.94
X236.22Y-160.02
X236.22Y-162.56
X236.22Y-167.64
X236.22Y-170.18
X236.22Y-177.8
X236.22Y-180.34
X236.22Y-182.88
X236.22Y-185.42
X236.22Y-187.96
X236.22Y-190.5
X236.22Y-193.04
X236.22Y-198.12
X236.22Y-200.66
X236.22Y-203.2
X236.22Y-205.74
X236.22Y-208.28
X236.22Y-210.82
X236.22Y-213.36
X236.22Y-215.9
X236.22Y-218.44
X236.22Y-220.98
X236.22Y-226.06
X236.22Y-231.14
X236.22Y-233.68
X236.22Y-236.22
X236.22Y-238.76
X236.22Y-241.3
X236.22Y-243.84
X236.22Y-246.38
X236.22Y-248.92
X236.22Y-251.46
X238.76Y-48.26
X238.76Y-50.8
X238.76Y-53.34
X238.76Y-55.88
X238.76Y-58.42
X238.76Y-60.96
X238.76Y-63.5
X238.76Y-67.31
X238.76Y-71.12
X238.76Y-73.66
X238.76Y-76.2
X238.76Y-78.74
X238.76Y-83.82
X238.76Y-86.36
X238.76Y-88.9
X238.76Y-91.44
X238.76Y-93.98
X238.76Y-96.52
X238.76Y-101.6
X238.76Y-104.14
X238.76Y-106.68
X238.76Y-109.22
X238.76Y-114.3
X238.76Y-116.84
X238.76Y-119.38
X238.76Y-121.92
X238.76Y-124.46
X238.76Y-127.0
X238.76Y-129.54
X238.76Y-132.08
X238.76Y-134.62
X238.76Y-137.16
X238.76Y-139.7
X238.76Y-147.32
X238.76Y-154.94
X238.76Y-160.02
X238.76Y-162.56
X238.76Y-167.64
X238.76Y-170.18
X238.76Y-177.8
X238.76Y-180.34
X238.76Y-182.88
X238.76Y-185.42
X238.76Y-187.96
X238.76Y-190.5
X238.76Y-193.04
X238.76Y-198.12
X238.76Y-200.66
X238.76Y-203.2
X238.76Y-205.74
X238.76Y-208.28
X238.76Y-210.82
X238.76Y-213.36
X238.76Y-215.9
X238.76Y-218.44
X238.76Y-220.98
X238.76Y-226.06
X238.76Y-231.14
X238.76Y-233.68
X238.76Y-236.22
X238.76Y-238.76
X238.76Y-241.3
X238.76Y-243.84
X238.76Y-246.38
X238.76Y-248.92
X238.76Y-251.46
X241.3Y-48.26
X241.3Y-50.8
X241.3Y-53.34
X241.3Y-55.88
X241.3Y-58.42
X241.3Y-60.96
X241.3Y-63.5
X241.3Y-67.31
X241.3Y-73.66
X241.3Y-76.2
X241.3Y-78.74
X241.3Y-83.82
X241.3Y-86.36
X241.3Y-88.9
X241.3Y-91.44
X241.3Y-93.98
X241.3Y-96.52
X241.3Y-101.6
X241.3Y-104.14
X241.3Y-106.68
X241.3Y-109.22
X241.3Y-114.3
X241.3Y-116.84
X241.3Y-124.46
X241.3Y-127.0
X241.3Y-129.54
X241.3Y-132.08
X241.3Y-134.62
X241.3Y-137.16
X241.3Y-139.7
X241.3Y-147.32
X241.3Y-154.94
X241.3Y-160.02
X241.3Y-162.56
X241.3Y-167.64
X241.3Y-170.18
X241.3Y-177.8
X241.3Y-185.42
X241.3Y-187.96
X241.3Y-190.5
X241.3Y-193.04
X241.3Y-198.12
X241.3Y-200.66
X241.3Y-203.2
X241.3Y-205.74
X241.3Y-208.28
X241.3Y-210.82
X241.3Y-213.36
X241.3Y-215.9
X241.3Y-218.44
X241.3Y-220.98
X241.3Y-226.06
X241.48Y-231.14
X241.48Y-233.68
X241.48Y-236.22
X241.48Y-241.3
X241.48Y-243.84
X241.48Y-246.38
X241.48Y-248.92
X241.48Y-251.46
X243.84Y-48.26
X243.84Y-50.8
X243.84Y-53.34
X243.84Y-55.88
X243.84Y-58.42
X243.84Y-60.96
X243.84Y-63.5
X243.84Y-66.04
X243.84Y-78.74
X243.84Y-91.44
X243.84Y-93.98
X243.84Y-96.52
X243.84Y-101.6
X243.84Y-104.14
X243.84Y-106.68
X243.84Y-114.3
X243.84Y-116.84
X243.84Y-124.46
X243.84Y-134.62
X243.84Y-137.16
X243.84Y-139.7
X243.84Y-147.32
X243.84Y-154.94
X243.84Y-160.02
X243.84Y-162.56
X243.84Y-167.64
X243.84Y-170.18
X243.84Y-177.8
X243.84Y-185.42
X243.84Y-190.5
X243.84Y-198.12
X243.84Y-200.66
X243.84Y-203.2
X243.84Y-208.28
X243.84Y-210.82
X243.84Y-213.36
X243.84Y-226.06
X244.02Y-238.76
X244.02Y-241.3
X244.02Y-243.84
X244.02Y-246.38
X244.02Y-248.92
X244.02Y-251.46
X245.1Y-82.0
X246.0Y-69.0
X246.0Y-223.0
X246.0Y-233.0
X246.38Y-48.26
X246.38Y-50.8
X246.38Y-53.34
X246.38Y-55.88
X246.38Y-58.42
X246.38Y-60.96
X246.38Y-63.5
X246.38Y-66.04
X246.38Y-134.62
X246.38Y-137.16
X246.38Y-139.7
X246.38Y-147.32
X246.38Y-154.94
X246.38Y-160.02
X246.38Y-162.56
X246.38Y-167.64
X246.38Y-170.18
X246.38Y-177.8
X246.38Y-180.34
X246.38Y-182.88
X246.38Y-185.42
X246.56Y-236.22
X246.56Y-238.76
X246.56Y-241.3
X246.56Y-243.84
X246.56Y-246.38
X246.56Y-248.92
X246.56Y-251.46
X248.92Y-48.26
X248.92Y-50.8
X248.92Y-53.34
X248.92Y-55.88
X248.92Y-58.42
X248.92Y-60.96
X248.92Y-63.5
X248.92Y-66.04
X248.92Y-68.58
X248.92Y-71.12
X248.92Y-73.66
X248.92Y-78.74
X248.92Y-81.28
X248.92Y-83.82
X248.92Y-86.36
X248.92Y-91.44
X248.92Y-93.98
X248.92Y-96.52
X248.92Y-101.6
X248.92Y-114.3
X248.92Y-116.84
X248.92Y-134.62
X248.92Y-137.16
X248.92Y-139.7
X248.92Y-147.32
X248.92Y-154.94
X248.92Y-160.02
X248.92Y-162.56
X248.92Y-167.64
X248.92Y-170.18
X248.92Y-177.8
X248.92Y-185.42
X248.92Y-198.12
X248.92Y-200.66
X248.92Y-203.2
X248.92Y-208.28
X248.92Y-210.82
X248.92Y-213.36
X248.92Y-218.44
X248.92Y-220.98
X248.92Y-223.52
X248.92Y-226.06
X249.1Y-231.14
X249.1Y-233.68
X249.1Y-236.22
X249.1Y-238.76
X249.1Y-241.3
X249.1Y-243.84
X249.1Y-246.38
X249.1Y-248.92
X249.1Y-251.46
X251.46Y-48.26
X251.46Y-50.8
X251.46Y-53.34
X251.46Y-55.88
X251.46Y-58.42
X251.46Y-60.96
X251.46Y-63.5
X251.46Y-66.04
X251.46Y-68.58
X251.46Y-71.12
X251.46Y-73.66
X251.46Y-76.2
X251.46Y-78.74
X251.46Y-81.28
X251.46Y-83.82
X251.46Y-86.36
X251.46Y-88.9
X251.46Y-91.44
X251.46Y-93.98
X251.46Y-96.52
X251.46Y-99.06
X251.46Y-101.6
X251.46Y-104.14
X251.46Y-109.22
X251.46Y-111.76
X251.46Y-114.3
X251.46Y-116.84
X251.46Y-124.46
X251.46Y-127.0
X251.46Y-129.54
X251.46Y-132.08
X251.46Y-134.62
X251.46Y-137.16
X251.46Y-139.7
X251.46Y-147.32
X251.46Y-154.94
X251.46Y-160.02
X251.46Y-162.56
X251.46Y-167.64
X251.46Y-170.18
X251.46Y-177.8
X251.46Y-185.42
X251.46Y-187.96
X251.46Y-190.5
X251.46Y-193.04
X251.46Y-195.58
X251.46Y-198.12
X251.46Y-200.66
X251.46Y-203.2
X251.46Y-205.74
X251.46Y-208.28
X251.46Y-210.82
X251.46Y-213.36
X251.46Y-215.9
X251.46Y-218.44
X251.46Y-220.98
X251.46Y-223.52
X251.46Y-226.06
X251.64Y-228.6
X251.64Y-231.14
X251.64Y-233.68
X251.64Y-236.22
X251.64Y-238.76
X251.64Y-241.3
X251.64Y-243.84
X251.64Y-246.38
X251.64Y-248.92
X251.64Y-251.46
X254.0Y-48.26
X254.0Y-50.8
X254.0Y-53.34
X254.0Y-55.88
X254.0Y-58.42
X254.0Y-60.96
X254.0Y-63.5
X254.0Y-66.04
X254.0Y-68.58
X254.0Y-71.12
X254.0Y-73.66
X254.0Y-76.2
X254.0Y-78.74
X254.0Y-81.28
X254.0Y-83.82
X254.0Y-86.36
X254.0Y-88.9
X254.0Y-91.44
X254.0Y-93.98
X254.0Y-96.52
X254.0Y-99.06
X254.0Y-101.6
X254.0Y-104.14
X254.0Y-109.22
X254.0Y-111.76
X254.0Y-114.3
X254.0Y-116.84
X254.0Y-119.38
X254.0Y-121.92
X254.0Y-124.46
X254.0Y-127.0
X254.0Y-129.54
X254.0Y-132.08
X254.0Y-134.62
X254.0Y-137.16
X254.0Y-139.7
X254.0Y-147.32
X254.0Y-154.94
X254.0Y-160.02
X254.0Y-162.56
X254.0Y-167.64
X254.0Y-170.18
X254.0Y-177.8
X254.0Y-182.88
X254.0Y-185.42
X254.0Y-187.96
X254.0Y-190.5
X254.0Y-193.04
X254.0Y-195.58
X254.0Y-198.12
X254.0Y-200.66
X254.0Y-203.2
X254.0Y-205.74
X254.0Y-208.28
X254.0Y-210.82
X254.0Y-213.36
X254.0Y-215.9
X254.0Y-218.44
X254.0Y-220.98
X254.0Y-223.52
X254.0Y-226.06
X254.0Y-228.6
X254.0Y-231.14
X254.0Y-233.68
X254.0Y-236.22
X254.0Y-238.76
X254.0Y-241.3
X254.0Y-243.84
X254.0Y-246.38
X254.0Y-248.92
X254.0Y-251.46
X256.54Y-48.26
X256.54Y-50.8
X256.54Y-53.34
X256.54Y-55.88
X256.54Y-58.42
X256.54Y-60.96
X256.54Y-63.5
X256.54Y-66.04
X256.54Y-68.58
X256.54Y-71.12
X256.54Y-73.66
X256.54Y-76.2
X256.54Y-78.74
X256.54Y-81.28
X256.54Y-83.82
X256.54Y-86.36
X256.54Y-88.9
X256.54Y-91.44
X256.54Y-93.98
X256.54Y-96.52
X256.54Y-99.06
X256.54Y-101.6
X256.54Y-104.14
X256.54Y-109.22
X256.54Y-111.76
X256.54Y-114.3
X256.54Y-116.84
X256.54Y-119.38
X256.54Y-121.92
X256.54Y-124.46
X256.54Y-127.0
X256.54Y-129.54
X256.54Y-132.08
X256.54Y-134.62
X256.54Y-137.16
X256.54Y-139.7
X256.54Y-147.32
X256.54Y-154.94
X256.54Y-160.02
X256.54Y-162.56
X256.54Y-167.64
X256.54Y-170.18
X256.54Y-177.8
X256.54Y-180.34
X256.54Y-182.88
X256.54Y-185.42
X256.54Y-187.96
X256.54Y-190.5
X256.54Y-193.04
X256.54Y-195.58
X256.54Y-198.12
X256.54Y-200.66
X256.54Y-203.2
X256.54Y-205.74
X256.54Y-208.28
X256.54Y-210.82
X256.54Y-213.36
X256.54Y-215.9
X256.54Y-218.44
X256.54Y-220.98
X256.54Y-223.52
X256.54Y-226.06
X256.54Y-228.6
X256.54Y-231.14
X256.54Y-233.68
X256.54Y-236.22
X256.54Y-238.76
X256.54Y-241.3
X256.54Y-243.84
X256.54Y-246.38
X256.54Y-248.92
X256.54Y-251.46
X259.08Y-48.26
X259.08Y-50.8
X259.08Y-53.34
X259.08Y-55.88
X259.08Y-58.42
X259.08Y-60.96
X259.08Y-63.5
X259.08Y-66.04
X259.08Y-68.58
X259.08Y-71.12
X259.08Y-73.66
X259.08Y-76.2
X259.08Y-78.74
X259.08Y-81.28
X259.08Y-83.82
X259.08Y-86.36
X259.08Y-88.9
X259.08Y-91.44
X259.08Y-93.98
X259.08Y-96.52
X259.08Y-99.06
X259.08Y-101.6
X259.08Y-104.14
X259.08Y-109.22
X259.08Y-111.76
X259.08Y-114.3
X259.08Y-116.84
X259.08Y-119.38
X259.08Y-121.92
X259.08Y-124.46
X259.08Y-127.0
X259.08Y-129.54
X259.08Y-132.08
X259.08Y-134.62
X259.08Y-137.16
X259.08Y-139.7
X259.08Y-147.32
X259.08Y-154.94
X259.08Y-160.02
X259.08Y-162.56
X259.08Y-167.64
X259.08Y-170.18
X259.08Y-177.8
X259.08Y-180.34
X259.08Y-182.88
X259.08Y-185.42
X259.08Y-187.96
X259.08Y-190.5
X259.08Y-193.04
X259.08Y-195.58
X259.08Y-198.12
X259.08Y-200.66
X259.08Y-203.2
X259.08Y-205.74
X259.08Y-208.28
X259.08Y-210.82
X259.08Y-213.36
X259.08Y-215.9
X259.08Y-218.44
X259.08Y-220.98
X259.08Y-223.52
X259.08Y-226.06
X259.08Y-228.6
X259.08Y-231.14
X259.08Y-233.68
X259.08Y-236.22
X259.08Y-238.76
X259.08Y-241.3
X259.08Y-243.84
X259.08Y-246.38
X259.08Y-248.92
X259.08Y-251.46
X261.62Y-48.26
X261.62Y-50.8
X261.62Y-53.34
X261.62Y-55.88
X261.62Y-58.42
X261.62Y-60.96
X261.62Y-63.5
X261.62Y-66.04
X261.62Y-68.58
X261.62Y-71.12
X261.62Y-73.66
X261.62Y-76.2
X261.62Y-78.74
X261.62Y-81.28
X261.62Y-83.82
X261.62Y-86.36
X261.62Y-88.9
X261.62Y-91.44
X261.62Y-93.98
X261.62Y-96.52
X261.62Y-99.06
X261.62Y-101.6
X261.62Y-104.14
X261.62Y-109.22
X261.62Y-111.76
X261.62Y-114.3
X261.62Y-116.84
X261.62Y-119.38
X261.62Y-121.92
X261.62Y-124.46
X261.62Y-127.0
X261.62Y-129.54
X261.62Y-132.08
X261.62Y-134.62
X261.62Y-137.16
X261.62Y-139.7
X261.62Y-147.32
X261.62Y-154.94
X261.62Y-160.02
X261.62Y-162.56
X261.62Y-167.64
X261.62Y-170.18
X261.62Y-177.8
X261.62Y-180.34
X261.62Y-182.88
X261.62Y-185.42
X261.62Y-187.96
X261.62Y-190.5
X261.62Y-193.04
X261.62Y-195.58
X261.62Y-198.12
X261.62Y-200.66
X261.62Y-203.2
X261.62Y-205.74
X261.62Y-208.28
X261.62Y-210.82
X261.62Y-213.36
X261.62Y-215.9
X261.62Y-218.44
X261.62Y-220.98
X261.62Y-223.52
X261.62Y-226.06
X261.62Y-228.6
X261.62Y-231.14
X261.62Y-233.68
X261.62Y-236.22
X261.62Y-238.76
X261.62Y-241.3
X261.62Y-243.84
X261.62Y-246.38
X261.62Y-248.92
X261.62Y-251.46
X264.16Y-48.26
X264.16Y-50.8
X264.16Y-53.34
X264.16Y-55.88
X264.16Y-58.42
X264.16Y-60.96
X264.16Y-63.5
X264.16Y-66.04
X264.16Y-68.58
X264.16Y-71.12
X264.16Y-73.66
X264.16Y-76.2
X264.16Y-78.74
X264.16Y-81.28
X264.16Y-83.82
X264.16Y-86.36
X264.16Y-88.9
X264.16Y-91.44
X264.16Y-93.98
X264.16Y-96.52
X264.16Y-99.06
X264.16Y-101.6
X264.16Y-109.22
X264.16Y-111.76
X264.16Y-114.3
X264.16Y-116.84
X264.16Y-119.38
X264.16Y-121.92
X264.16Y-124.46
X264.16Y-127.0
X264.16Y-129.54
X264.16Y-132.08
X264.16Y-134.62
X264.16Y-137.16
X264.16Y-139.7
X264.16Y-147.32
X264.16Y-154.94
X264.16Y-160.02
X264.16Y-162.56
X264.16Y-167.64
X264.16Y-170.18
X264.16Y-177.8
X264.16Y-180.34
X264.16Y-182.88
X264.16Y-185.42
X264.16Y-187.96
X264.16Y-190.5
X264.16Y-193.04
X264.16Y-195.58
X264.16Y-198.12
X264.16Y-200.66
X264.16Y-203.2
X264.16Y-208.28
X264.16Y-210.82
X264.16Y-213.36
X264.16Y-215.9
X264.16Y-218.44
X264.16Y-220.98
X264.16Y-223.52
X264.16Y-226.06
X264.16Y-228.6
X264.16Y-231.14
X264.16Y-233.68
X264.16Y-236.22
X264.16Y-238.76
X264.16Y-241.3
X264.16Y-243.84
X264.16Y-246.38
X264.16Y-248.92
X264.16Y-251.46
X266.7Y-48.26
X266.7Y-50.8
X266.7Y-53.34
X266.7Y-55.88
X266.7Y-58.42
X266.7Y-60.96
X266.7Y-63.5
X266.7Y-66.04
X266.7Y-68.58
X266.7Y-71.12
X266.7Y-73.66
X266.7Y-76.2
X266.7Y-78.74
X266.7Y-81.28
X266.7Y-83.82
X266.7Y-86.36
X266.7Y-88.9
X266.7Y-91.44
X266.7Y-93.98
X266.7Y-96.52
X266.7Y-99.06
X266.7Y-101.6
X266.7Y-104.14
X266.7Y-109.22
X266.7Y-111.76
X266.7Y-114.3
X266.7Y-116.84
X266.7Y-119.38
X266.7Y-121.92
X266.7Y-124.46
X266.7Y-127.0
X266.7Y-129.54
X266.7Y-132.08
X266.7Y-134.62
X266.7Y-137.16
X266.7Y-139.7
X266.7Y-147.32
X266.7Y-160.02
X266.7Y-162.56
X266.7Y-167.64
X266.7Y-170.18
X266.7Y-177.8
X266.7Y-180.34
X266.7Y-182.88
X266.7Y-185.42
X266.7Y-187.96
X266.7Y-190.5
X266.7Y-193.04
X266.7Y-195.58
X266.7Y-198.12
X266.7Y-200.66
X266.7Y-203.2
X266.88Y-208.28
X266.88Y-210.82
X266.88Y-213.36
X266.88Y-215.9
X266.88Y-218.44
X266.88Y-220.98
X266.88Y-223.52
X266.88Y-226.06
X266.88Y-228.6
X266.88Y-231.14
X266.88Y-233.68
X266.88Y-236.22
X266.88Y-238.76
X266.88Y-241.3
X266.88Y-243.84
X266.88Y-246.38
X266.88Y-248.92
X266.88Y-251.46
X269.24Y-48.26
X269.24Y-50.8
X269.24Y-53.34
X269.24Y-55.88
X269.24Y-58.42
X269.24Y-60.96
X269.24Y-63.5
X269.24Y-66.04
X269.24Y-68.58
X269.24Y-71.12
X269.24Y-73.66
X269.24Y-76.2
X269.24Y-78.74
X269.24Y-81.28
X269.24Y-83.82
X269.24Y-86.36
X269.24Y-88.9
X269.24Y-91.44
X269.24Y-93.98
X269.24Y-96.52
X269.24Y-99.06
X269.24Y-101.6
X269.24Y-104.14
X269.24Y-109.22
X269.24Y-111.76
X269.24Y-114.3
X269.24Y-116.84
X269.24Y-119.38
X269.24Y-121.92
X269.24Y-124.46
X269.24Y-127.0
X269.24Y-129.54
X269.24Y-132.08
X269.24Y-134.62
X269.24Y-137.16
X269.24Y-139.7
X269.24Y-147.32
X269.24Y-154.94
X269.24Y-162.56
X269.24Y-167.64
X269.24Y-170.18
X269.24Y-177.8
X269.24Y-180.34
X269.24Y-182.88
X269.24Y-185.42
X269.24Y-187.96
X269.24Y-190.5
X269.24Y-193.04
X269.24Y-195.58
X269.24Y-198.12
X269.24Y-200.66
X269.24Y-203.2
X269.42Y-208.28
X269.42Y-210.82
X269.42Y-213.36
X269.42Y-215.9
X269.42Y-218.44
X269.42Y-220.98
X269.42Y-223.52
X269.42Y-226.06
X269.42Y-228.6
X269.42Y-231.14
X269.42Y-233.68
X269.42Y-236.22
X269.42Y-238.76
X269.42Y-241.3
X269.42Y-243.84
X269.42Y-246.38
X269.42Y-248.92
X269.42Y-251.46
X271.723Y-195.513
X271.78Y-48.26
X271.78Y-50.8
X271.78Y-53.34
X271.78Y-55.88
X271.78Y-58.42
X271.78Y-60.96
X271.78Y-63.5
X271.78Y-66.04
X271.78Y-68.58
X271.78Y-71.12
X271.78Y-73.66
X271.78Y-76.2
X271.78Y-78.74
X271.78Y-81.28
X271.78Y-83.82
X271.78Y-86.36
X271.78Y-88.9
X271.78Y-91.44
X271.78Y-93.98
X271.78Y-96.52
X271.78Y-99.06
X271.78Y-101.6
X271.78Y-109.22
X271.78Y-111.76
X271.78Y-114.3
X271.78Y-116.84
X271.78Y-119.38
X271.78Y-121.92
X271.78Y-124.46
X271.78Y-127.0
X271.78Y-129.54
X271.78Y-132.08
X271.78Y-134.62
X271.78Y-137.16
X271.78Y-139.7
X271.78Y-147.32
X271.78Y-154.94
X271.78Y-157.48
X271.78Y-167.64
X271.78Y-170.18
X271.78Y-177.8
X271.78Y-180.34
X271.78Y-182.88
X271.78Y-185.42
X271.78Y-187.96
X271.78Y-190.5
X271.78Y-193.04
X271.78Y-198.12
X271.78Y-200.66
X271.78Y-203.2
X271.78Y-208.28
X271.78Y-210.82
X271.78Y-213.36
X271.78Y-215.9
X271.78Y-218.44
X271.78Y-220.98
X271.78Y-223.52
X271.78Y-226.06
X271.78Y-228.6
X271.78Y-231.14
X271.78Y-233.68
X271.78Y-236.22
X271.78Y-238.76
X271.78Y-241.3
X271.78Y-243.84
X271.78Y-246.38
X271.78Y-248.92
X271.78Y-251.46
X273.0Y-162.0
X274.32Y-48.26
X274.32Y-50.8
X274.32Y-53.34
X274.32Y-55.88
X274.32Y-58.42
X274.32Y-60.96
X274.32Y-63.5
X274.32Y-66.04
X274.32Y-68.58
X274.32Y-71.12
X274.32Y-73.66
X274.32Y-76.2
X274.32Y-78.74
X274.32Y-81.28
X274.32Y-83.82
X274.32Y-86.36
X274.32Y-88.9
X274.32Y-91.44
X274.32Y-93.98
X274.32Y-96.52
X274.32Y-99.06
X274.32Y-101.6
X274.32Y-106.68
X274.32Y-109.22
X274.32Y-111.76
X274.32Y-114.3
X274.32Y-116.84
X274.32Y-119.38
X274.32Y-121.92
X274.32Y-124.46
X274.32Y-127.0
X274.32Y-129.54
X274.32Y-132.08
X274.32Y-139.7
X274.32Y-152.4
X274.32Y-154.94
X274.32Y-157.48
X274.32Y-160.02
X274.32Y-170.18
X274.32Y-177.8
X274.32Y-180.34
X274.32Y-182.88
X274.32Y-185.42
X274.32Y-187.96
X274.32Y-190.5
X274.32Y-193.04
X274.32Y-195.58
X274.32Y-198.12
X274.32Y-200.66
X274.32Y-208.28
X274.32Y-210.82
X274.32Y-213.36
X274.32Y-215.9
X274.32Y-218.44
X274.32Y-220.98
X274.32Y-223.52
X274.32Y-226.06
X274.32Y-228.6
X274.32Y-231.14
X274.32Y-233.68
X274.32Y-236.22
X274.32Y-238.76
X274.32Y-241.3
X274.32Y-243.84
X274.32Y-246.38
X274.32Y-248.92
X274.32Y-251.46
X276.86Y-48.26
X276.86Y-50.8
X276.86Y-53.34
X276.86Y-55.88
X276.86Y-58.42
X276.86Y-60.96
X276.86Y-63.5
X276.86Y-66.04
X276.86Y-68.58
X276.86Y-71.12
X276.86Y-73.66
X276.86Y-76.2
X276.86Y-78.74
X276.86Y-81.28
X276.86Y-83.82
X276.86Y-86.36
X276.86Y-88.9
X276.86Y-91.44
X276.86Y-93.98
X276.86Y-96.52
X276.86Y-99.06
X276.86Y-101.6
X276.86Y-104.14
X276.86Y-106.68
X276.86Y-109.22
X276.86Y-111.76
X276.86Y-114.3
X276.86Y-116.84
X276.86Y-119.38
X276.86Y-121.92
X276.86Y-124.46
X276.86Y-127.0
X276.86Y-129.54
X276.86Y-132.08
X276.86Y-134.62
X276.86Y-149.86
X276.86Y-152.4
X276.86Y-154.94
X276.86Y-157.48
X276.86Y-160.02
X276.86Y-177.8
X276.86Y-180.34
X276.86Y-182.88
X276.86Y-185.42
X276.86Y-187.96
X276.86Y-190.5
X276.86Y-193.04
X276.86Y-195.58
X276.86Y-198.12
X276.86Y-203.2
X276.86Y-208.28
X276.86Y-210.82
X276.86Y-213.36
X276.86Y-215.9
X276.86Y-218.44
X276.86Y-220.98
X276.86Y-223.52
X276.86Y-226.06
X276.86Y-228.6
X276.86Y-231.14
X276.86Y-233.68
X276.86Y-236.22
X276.86Y-238.76
X276.86Y-241.3
X276.86Y-243.84
X276.86Y-246.38
X276.86Y-248.92
X276.86Y-251.46
X279.4Y-48.26
X279.4Y-50.8
X279.4Y-53.34
X279.4Y-55.88
X279.4Y-58.42
X279.4Y-60.96
X279.4Y-63.5
X279.4Y-66.04
X279.4Y-68.58
X279.4Y-71.12
X279.4Y-73.66
X279.4Y-76.2
X279.4Y-78.74
X279.4Y-81.28
X279.4Y-83.82
X279.4Y-86.36
X279.4Y-88.9
X279.4Y-91.44
X279.4Y-93.98
X279.4Y-96.52
X279.4Y-99.06
X279.4Y-106.68
X279.4Y-109.22
X279.4Y-111.76
X279.4Y-114.3
X279.4Y-116.84
X279.4Y-119.38
X279.4Y-121.92
X279.4Y-124.46
X279.4Y-127.0
X279.4Y-129.54
X279.4Y-132.08
X279.4Y-134.62
X279.4Y-200.66
X279.4Y-208.28
X279.4Y-210.82
X279.4Y-213.36
X279.4Y-215.9
X279.4Y-218.44
X279.4Y-220.98
X279.4Y-223.52
X279.4Y-226.06
X279.4Y-228.6
X279.4Y-231.14
X279.4Y-233.68
X279.4Y-236.22
X279.4Y-238.76
X279.4Y-241.3
X279.4Y-243.84
X279.4Y-246.38
X279.4Y-248.92
X279.4Y-251.46
X281.94Y-48.26
X281.94Y-50.8
X281.94Y-53.34
X281.94Y-58.42
X281.94Y-60.96
X281.94Y-63.5
X281.94Y-66.04
X281.94Y-68.58
X281.94Y-71.12
X281.94Y-73.66
X281.94Y-76.2
X281.94Y-78.74
X281.94Y-81.28
X281.94Y-83.82
X281.94Y-86.36
X281.94Y-88.9
X281.94Y-91.44
X281.94Y-93.98
X281.94Y-96.52
X281.94Y-99.06
X281.94Y-106.68
X281.94Y-109.22
X281.94Y-111.76
X281.94Y-114.3
X281.94Y-116.84
X281.94Y-119.38
X281.94Y-121.92
X281.94Y-124.46
X281.94Y-127.0
X281.94Y-129.54
X281.94Y-132.08
X281.94Y-134.62
X281.94Y-144.78
X281.94Y-147.32
X281.94Y-149.86
X281.94Y-152.4
X281.94Y-154.94
X281.94Y-157.48
X281.94Y-160.02
X281.94Y-162.56
X281.94Y-170.18
X281.94Y-172.72
X281.94Y-175.26
X281.94Y-177.8
X281.94Y-180.34
X281.94Y-182.88
X281.94Y-185.42
X281.94Y-187.96
X281.94Y-190.5
X281.94Y-193.04
X281.94Y-195.58
X281.94Y-198.12
X281.94Y-200.66
X281.94Y-208.28
X281.94Y-210.82
X281.94Y-213.36
X281.94Y-215.9
X281.94Y-218.44
X281.94Y-220.98
X281.94Y-223.52
X281.94Y-226.06
X281.94Y-228.6
X281.94Y-231.14
X281.94Y-233.68
X281.94Y-236.22
X281.94Y-238.76
X281.94Y-241.3
X281.94Y-243.84
X281.94Y-246.38
X281.94Y-248.92
X281.94Y-251.46
X284.48Y-48.26
X284.48Y-50.8
X284.48Y-53.34
X284.48Y-58.42
X284.48Y-60.96
X284.48Y-63.5
X284.48Y-66.04
X284.48Y-68.58
X284.48Y-71.12
X284.48Y-73.66
X284.48Y-76.2
X284.48Y-78.74
X284.48Y-81.28
X284.48Y-83.82
X284.48Y-86.36
X284.48Y-88.9
X284.48Y-91.44
X284.48Y-96.52
X284.48Y-104.14
X284.48Y-106.68
X284.48Y-109.22
X284.48Y-111.76
X284.48Y-114.3
X284.48Y-116.84
X284.48Y-119.38
X284.48Y-121.92
X284.48Y-124.46
X284.48Y-127.0
X284.48Y-129.54
X284.48Y-132.08
X284.48Y-134.62
X284.48Y-142.24
X284.48Y-144.78
X284.48Y-147.32
X284.48Y-149.86
X284.48Y-152.4
X284.48Y-154.94
X284.48Y-157.48
X284.48Y-160.02
X284.48Y-162.56
X284.48Y-170.18
X284.48Y-172.72
X284.48Y-175.26
X284.48Y-177.8
X284.48Y-180.34
X284.48Y-182.88
X284.48Y-185.42
X284.48Y-187.96
X284.48Y-190.5
X284.48Y-193.04
X284.48Y-195.58
X284.48Y-203.2
X284.48Y-205.74
X284.48Y-213.36
X284.48Y-215.9
X284.48Y-223.52
X284.48Y-226.06
X284.48Y-228.6
X284.48Y-231.14
X284.48Y-233.68
X284.48Y-236.22
X284.48Y-238.76
X284.48Y-241.3
X284.48Y-248.92
X284.48Y-251.46
X287.02Y-48.26
X287.02Y-50.8
X287.02Y-53.34
X287.02Y-55.88
X287.02Y-58.42
X287.02Y-60.96
X287.02Y-63.5
X287.02Y-66.04
X287.02Y-68.58
X287.02Y-71.12
X287.02Y-73.66
X287.02Y-76.2
X287.02Y-78.74
X287.02Y-81.28
X287.02Y-83.82
X287.02Y-86.36
X287.02Y-88.9
X287.02Y-91.44
X287.02Y-96.52
X287.02Y-104.14
X287.02Y-106.68
X287.02Y-109.22
X287.02Y-111.76
X287.02Y-114.3
X287.02Y-116.84
X287.02Y-119.38
X287.02Y-121.92
X287.02Y-124.46
X287.02Y-127.0
X287.02Y-129.54
X287.02Y-132.08
X287.02Y-134.62
X287.02Y-137.16
X287.02Y-139.7
X287.02Y-142.24
X287.02Y-144.78
X287.02Y-147.32
X287.02Y-149.86
X287.02Y-152.4
X287.02Y-154.94
X287.02Y-157.48
X287.02Y-160.02
X287.02Y-162.56
X287.02Y-165.1
X287.02Y-167.64
X287.02Y-170.18
X287.02Y-172.72
X287.02Y-175.26
X287.02Y-177.8
X287.02Y-180.34
X287.02Y-182.88
X287.02Y-185.42
X287.02Y-187.96
X287.02Y-190.5
X287.02Y-193.04
X287.02Y-195.58
X287.02Y-203.2
X287.02Y-205.74
X287.02Y-213.36
X287.02Y-215.9
X287.02Y-223.52
X287.02Y-226.06
X287.02Y-228.6
X287.02Y-231.14
X287.02Y-233.68
X287.02Y-236.22
X287.02Y-238.76
X287.02Y-241.3
X287.02Y-243.84
X287.02Y-246.38
X287.02Y-248.92
X287.02Y-251.46
X289.56Y-48.26
X289.56Y-50.8
X289.56Y-58.42
X289.56Y-60.96
X289.56Y-63.5
X289.56Y-66.04
X289.56Y-68.58
X289.56Y-71.12
X289.56Y-73.66
X289.56Y-76.2
X289.56Y-78.74
X289.56Y-81.28
X289.56Y-83.82
X289.56Y-86.36
X289.56Y-88.9
X289.56Y-91.44
X289.56Y-93.98
X289.56Y-96.52
X289.56Y-99.06
X289.56Y-101.6
X289.56Y-104.14
X289.56Y-106.68
X289.56Y-109.22
X289.56Y-111.76
X289.56Y-114.3
X289.56Y-116.84
X289.56Y-119.38
X289.56Y-121.92
X289.56Y-124.46
X289.56Y-127.0
X289.56Y-129.54
X289.56Y-132.08
X289.56Y-134.62
X289.56Y-137.16
X289.56Y-139.7
X289.56Y-142.24
X289.56Y-144.78
X289.56Y-147.32
X289.56Y-149.86
X289.56Y-152.4
X289.56Y-154.94
X289.56Y-157.48
X289.56Y-160.02
X289.56Y-162.56
X289.56Y-165.1
X289.56Y-167.64
X289.56Y-170.18
X289.56Y-172.72
X289.56Y-175.26
X289.56Y-177.8
X289.56Y-180.34
X289.56Y-182.88
X289.56Y-185.42
X289.56Y-187.96
X289.56Y-190.5
X289.56Y-193.04
X289.56Y-195.58
X289.56Y-198.12
X289.56Y-200.66
X289.56Y-203.2
X289.56Y-205.74
X289.56Y-208.28
X289.56Y-210.82
X289.56Y-213.36
X289.56Y-215.9
X289.56Y-218.44
X289.56Y-220.98
X289.56Y-223.52
X289.56Y-226.06
X289.56Y-228.6
X289.56Y-231.14
X289.56Y-233.68
X289.56Y-236.22
X289.56Y-238.76
X289.56Y-241.3
X289.56Y-248.92
X289.56Y-251.46
X292.1Y-48.26
X292.1Y-50.8
X292.1Y-58.42
X292.1Y-60.96
X292.1Y-63.5
X292.1Y-66.04
X292.1Y-68.58
X292.1Y-71.12
X292.1Y-73.66
X292.1Y-76.2
X292.1Y-78.74
X292.1Y-81.28
X292.1Y-83.82
X292.1Y-86.36
X292.1Y-88.9
X292.1Y-91.44
X292.1Y-93.98
X292.1Y-96.52
X292.1Y-99.06
X292.1Y-101.6
X292.1Y-104.14
X292.1Y-106.68
X292.1Y-109.22
X292.1Y-111.76
X292.1Y-114.3
X292.1Y-116.84
X292.1Y-119.38
X292.1Y-121.92
X292.1Y-124.46
X292.1Y-127.0
X292.1Y-129.54
X292.1Y-132.08
X292.1Y-134.62
X292.1Y-137.16
X292.1Y-139.7
X292.1Y-142.24
X292.1Y-144.78
X292.1Y-147.32
X292.1Y-149.86
X292.1Y-152.4
X292.1Y-154.94
X292.1Y-157.48
X292.1Y-160.02
X292.1Y-162.56
X292.1Y-165.1
X292.1Y-167.64
X292.1Y-170.18
X292.1Y-172.72
X292.1Y-175.26
X292.1Y-177.8
X292.1Y-180.34
X292.1Y-182.88
X292.1Y-185.42
X292.1Y-187.96
X292.1Y-190.5
X292.1Y-193.04
X292.1Y-195.58
X292.1Y-198.12
X292.1Y-200.66
X292.1Y-203.2
X292.1Y-205.74
X292.1Y-208.28
X292.1Y-210.82
X292.1Y-213.36
X292.1Y-215.9
X292.1Y-218.44
X292.1Y-220.98
X292.1Y-223.52
X292.1Y-226.06
X292.1Y-228.6
X292.1Y-231.14
X292.1Y-233.68
X292.1Y-236.22
X292.1Y-238.76
X292.1Y-241.3
X292.1Y-248.92
X292.1Y-251.46
X294.64Y-48.26
X294.64Y-50.8
X294.64Y-53.34
X294.64Y-55.88
X294.64Y-58.42
X294.64Y-60.96
X294.64Y-63.5
X294.64Y-66.04
X294.64Y-68.58
X294.64Y-71.12
X294.64Y-73.66
X294.64Y-76.2
X294.64Y-78.74
X294.64Y-81.28
X294.64Y-83.82
X294.64Y-86.36
X294.64Y-88.9
X294.64Y-91.44
X294.64Y-93.98
X294.64Y-96.52
X294.64Y-99.06
X294.64Y-101.6
X294.64Y-104.14
X294.64Y-106.68
X294.64Y-109.22
X294.64Y-111.76
X294.64Y-114.3
X294.64Y-116.84
X294.64Y-119.38
X294.64Y-121.92
X294.64Y-124.46
X294.64Y-127.0
X294.64Y-129.54
X294.64Y-132.08
X294.64Y-134.62
X294.64Y-137.16
X294.64Y-139.7
X294.64Y-142.24
X294.64Y-144.78
X294.64Y-147.32
X294.64Y-149.86
X294.64Y-152.4
X294.64Y-154.94
X294.64Y-157.48
X294.64Y-160.02
X294.64Y-162.56
X294.64Y-165.1
X294.64Y-167.64
X294.64Y-170.18
X294.64Y-172.72
X294.64Y-175.26
X294.64Y-177.8
X294.64Y-180.34
X294.64Y-182.88
X294.64Y-185.42
X294.64Y-187.96
X294.64Y-190.5
X294.64Y-193.04
X294.64Y-195.58
X294.64Y-198.12
X294.64Y-200.66
X294.64Y-203.2
X294.64Y-205.74
X294.64Y-208.28
X294.64Y-210.82
X294.64Y-213.36
X294.64Y-215.9
X294.64Y-218.44
X294.64Y-220.98
X294.64Y-223.52
X294.64Y-226.06
X294.64Y-228.6
X294.64Y-231.14
X294.64Y-233.68
X294.64Y-236.22
X294.64Y-238.76
X294.64Y-241.3
X294.64Y-243.84
X294.64Y-246.38
X294.64Y-248.92
X294.64Y-251.46
X297.18Y-48.26
X297.18Y-50.8
X297.18Y-53.34
X297.18Y-55.88
X297.18Y-58.42
X297.18Y-60.96
X297.18Y-63.5
X297.18Y-66.04
X297.18Y-68.58
X297.18Y-71.12
X297.18Y-73.66
X297.18Y-76.2
X297.18Y-78.74
X297.18Y-81.28
X297.18Y-83.82
X297.18Y-86.36
X297.18Y-88.9
X297.18Y-91.44
X297.18Y-93.98
X297.18Y-96.52
X297.18Y-99.06
X297.18Y-101.6
X297.18Y-104.14
X297.18Y-106.68
X297.18Y-109.22
X297.18Y-111.76
X297.18Y-114.3
X297.18Y-116.84
X297.18Y-119.38
X297.18Y-121.92
X297.18Y-124.46
X297.18Y-127.0
X297.18Y-129.54
X297.18Y-132.08
X297.18Y-134.62
X297.18Y-137.16
X297.18Y-139.7
X297.18Y-142.24
X297.18Y-144.78
X297.18Y-147.32
X297.18Y-149.86
X297.18Y-152.4
X297.18Y-154.94
X297.18Y-157.48
X297.18Y-160.02
X297.18Y-162.56
X297.18Y-165.1
X297.18Y-167.64
X297.18Y-170.18
X297.18Y-172.72
X297.18Y-175.26
X297.18Y-177.8
X297.18Y-180.34
X297.18Y-182.88
X297.18Y-185.42
X297.18Y-187.96
X297.18Y-190.5
X297.18Y-193.04
X297.18Y-195.58
X297.18Y-198.12
X297.18Y-200.66
X297.18Y-203.2
X297.18Y-205.74
X297.18Y-208.28
X297.18Y-210.82
X297.18Y-213.36
X297.18Y-215.9
X297.18Y-218.44
X297.18Y-220.98
X297.18Y-223.52
X297.18Y-226.06
X297.18Y-228.6
X297.18Y-231.14
X297.18Y-233.68
X297.18Y-236.22
X297.18Y-238.76
X297.18Y-241.3
X297.18Y-243.84
X297.18Y-246.38
X297.18Y-248.92
X297.18Y-251.46
T2
X87.5Y-202.0
X87.5Y-213.0
X87.92Y-111.46
X87.92Y-114.0
X87.92Y-190.46
X87.92Y-193.0
X88.0Y-91.0
X88.0Y-102.0
X90.04Y-202.0
X90.04Y-213.0
X90.46Y-111.46
X90.46Y-114.0
X90.46Y-190.46
X90.46Y-193.0
X90.54Y-91.0
X90.54Y-102.0
X92.58Y-202.0
X92.58Y-213.0
X93.0Y-111.46
X93.0Y-114.0
X93.0Y-190.46
X93.0Y-193.0
X93.08Y-91.0
X93.08Y-102.0
X106.08Y-71.97
X106.08Y-74.51
X106.08Y-77.05
X106.58Y-227.0
X106.58Y-229.54
X106.58Y-232.08
X113.08Y-71.97
X113.08Y-74.51
X113.08Y-77.05
X113.58Y-227.0
X113.58Y-229.54
X113.58Y-232.08
X120.42Y-202.0
X120.42Y-213.0
X120.5Y-91.05
X120.5Y-102.05
X120.92Y-111.46
X120.92Y-114.0
X121.0Y-190.46
X121.0Y-193.0
X122.96Y-202.0
X122.96Y-213.0
X123.04Y-91.05
X123.04Y-102.05
X123.46Y-111.46
X123.46Y-114.0
X123.54Y-190.46
X123.54Y-193.0
X125.5Y-202.0
X125.5Y-213.0
X125.58Y-91.05
X125.58Y-102.05
X126.0Y-111.46
X126.0Y-114.0
X126.08Y-190.46
X126.08Y-193.0
X139.08Y-71.97
X139.08Y-74.51
X139.08Y-77.05
X139.58Y-227.0
X139.58Y-229.54
X139.58Y-232.08
X146.08Y-71.97
X146.08Y-74.51
X146.08Y-77.05
X146.58Y-227.0
X146.58Y-229.54
X146.58Y-232.08
X152.5Y-102.05
X152.5Y-202.0
X155.04Y-102.05
X155.04Y-202.0
X157.58Y-102.05
X157.58Y-202.0
X171.58Y-227.0
X171.58Y-229.54
X171.58Y-232.08
X172.08Y-71.97
X172.08Y-74.51
X172.08Y-77.05
X178.58Y-227.0
X178.58Y-229.54
X178.58Y-232.08
X179.08Y-71.97
X179.08Y-74.51
X179.08Y-77.05
X185.48Y-207.92
X185.48Y-210.46
X185.48Y-213.0
X186.08Y-91.97
X186.08Y-94.51
X186.08Y-97.05
X193.58Y-91.97
X193.58Y-94.51
X193.58Y-97.05
X193.58Y-207.92
X193.58Y-210.46
X193.58Y-213.0
X201.5Y-71.97
X201.5Y-74.51
X201.5Y-77.05
X201.5Y-227.0
X201.5Y-229.54
X201.5Y-232.08
X208.5Y-71.97
X208.5Y-74.51
X208.5Y-77.05
X208.58Y-227.0
X208.58Y-229.54
X208.58Y-232.08
X210.92Y-102.0
X210.92Y-202.0
X213.46Y-102.0
X213.46Y-202.0
X216.0Y-102.0
X216.0Y-202.0
X224.0Y-63.0
X224.0Y-65.54
X224.0Y-68.08
X224.0Y-235.92
X224.0Y-238.46
X224.0Y-241.0
X229.0Y-133.92
X229.0Y-136.46
X229.0Y-139.0
X229.0Y-167.0
X229.0Y-169.54
X229.0Y-172.08
X243.92Y-216.0
X243.92Y-228.0
X244.0Y-76.0
X244.0Y-88.0
X244.0Y-99.0
X244.0Y-108.46
X244.0Y-111.0
X244.0Y-193.0
X244.0Y-195.54
X244.0Y-205.0
X246.46Y-216.0
X246.46Y-228.0
X246.54Y-76.0
X246.54Y-88.0
X246.54Y-99.0
X246.54Y-108.46
X246.54Y-111.0
X246.54Y-193.0
X246.54Y-195.54
X246.54Y-205.0
X249.0Y-216.0
X249.0Y-228.0
X249.08Y-76.0
X249.08Y-88.0
X249.08Y-99.0
X249.08Y-108.46
X249.08Y-111.0
X249.08Y-193.0
X249.08Y-195.54
X249.08Y-205.0
T3
X64.0Y-201.46
X64.0Y-204.0
X64.08Y-101.46
X64.08Y-104.0
X280.805Y-102.46
X280.805Y-105.0
X280.805Y-202.46
X280.805Y-205.0
T4
X47.025Y-143.38
X47.025Y-145.92
X47.025Y-148.46
X47.025Y-151.0
X47.025Y-153.54
X47.025Y-156.08
X47.025Y-158.62
X61.0Y-143.38
X61.0Y-145.92
X61.0Y-148.46
X61.0Y-151.0
X61.0Y-153.54
X61.0Y-156.08
X61.0Y-158.62
X61.5Y-55.0
X61.5Y-245.0
X63.28Y-213.0
X63.28Y-219.25
X64.0Y-80.45
X64.08Y-88.05
X78.5Y-102.0
X78.5Y-202.0
X87.58Y-131.05
X87.58Y-185.05
X88.46Y-135.0
X89.46Y-169.0
X90.08Y-131.05
X90.08Y-185.05
X91.0Y-135.0
X92.0Y-169.0
X92.58Y-131.05
X92.58Y-185.05
X109.5Y-102.0
X109.83Y-202.0
X120.08Y-131.1
X120.08Y-185.05
X121.46Y-135.0
X121.46Y-169.0
X122.58Y-131.1
X122.58Y-185.05
X124.0Y-135.0
X124.0Y-169.0
X125.08Y-131.1
X125.08Y-185.05
X142.5Y-102.0
X143.0Y-202.0
X175.0Y-202.0
X175.5Y-102.0
X224.0Y-76.0
X224.0Y-149.0
X224.0Y-158.0
X224.0Y-228.0
X244.5Y-128.05
X244.5Y-188.05
X245.0Y-132.0
X245.46Y-172.0
X247.0Y-128.05
X247.0Y-188.05
X247.54Y-132.0
X248.0Y-172.0
X249.5Y-128.05
X249.5Y-188.05
X264.805Y-105.0
X264.805Y-205.0
X272.805Y-105.0
X272.805Y-205.0
X274.92Y-138.0
X274.92Y-168.0
X277.46Y-138.0
X277.46Y-168.0
X280.0Y-138.0
X280.0Y-168.0
X282.54Y-138.0
X282.54Y-168.0
X283.5Y-55.5
X283.5Y-245.0
X285.08Y-138.0
X285.08Y-168.0
X285.805Y-94.0
X285.805Y-220.0
T5
X58.92Y-196.38
X58.92Y-206.54
X59.0Y-96.38
X59.0Y-106.54
X285.885Y-99.92
X285.885Y-110.08
X285.885Y-199.92
X285.885Y-210.08
M30
