%TF.GenerationSoftware,KiCad,Pcbnew,8.0.6*%
%TF.CreationDate,2025-08-20T21:32:22+02:00*%
%TF.ProjectId,OpAmpDevBoardProject,4f70416d-7044-4657-9642-6f6172645072,rev?*%
%TF.SameCoordinates,Original*%
%TF.FileFunction,Soldermask,Top*%
%TF.FilePolarity,Negative*%
%FSLAX46Y46*%
G04 Gerber Fmt 4.6, Leading zero omitted, Abs format (unit mm)*
G04 Created by KiCad (PCBNEW 8.0.6) date 2025-08-20 21:32:22*
%MOMM*%
%LPD*%
G01*
G04 APERTURE LIST*
G04 Aperture macros list*
%AMRoundRect*
0 Rectangle with rounded corners*
0 $1 Rounding radius*
0 $2 $3 $4 $5 $6 $7 $8 $9 X,Y pos of 4 corners*
0 Add a 4 corners polygon primitive as box body*
4,1,4,$2,$3,$4,$5,$6,$7,$8,$9,$2,$3,0*
0 Add four circle primitives for the rounded corners*
1,1,$1+$1,$2,$3*
1,1,$1+$1,$4,$5*
1,1,$1+$1,$6,$7*
1,1,$1+$1,$8,$9*
0 Add four rect primitives between the rounded corners*
20,1,$1+$1,$2,$3,$4,$5,0*
20,1,$1+$1,$4,$5,$6,$7,0*
20,1,$1+$1,$6,$7,$8,$9,0*
20,1,$1+$1,$8,$9,$2,$3,0*%
G04 Aperture macros list end*
%ADD10R,1.300000X1.300000*%
%ADD11C,1.300000*%
%ADD12R,1.700000X1.700000*%
%ADD13C,1.446000*%
%ADD14C,3.015000*%
%ADD15C,4.000000*%
%ADD16C,1.800000*%
%ADD17RoundRect,0.250000X0.337500X0.475000X-0.337500X0.475000X-0.337500X-0.475000X0.337500X-0.475000X0*%
%ADD18RoundRect,0.250000X-0.450000X0.350000X-0.450000X-0.350000X0.450000X-0.350000X0.450000X0.350000X0*%
%ADD19O,1.700000X1.700000*%
%ADD20RoundRect,0.250000X-0.350000X-0.450000X0.350000X-0.450000X0.350000X0.450000X-0.350000X0.450000X0*%
%ADD21RoundRect,0.250000X-0.475000X0.337500X-0.475000X-0.337500X0.475000X-0.337500X0.475000X0.337500X0*%
%ADD22RoundRect,0.250000X0.450000X-0.350000X0.450000X0.350000X-0.450000X0.350000X-0.450000X-0.350000X0*%
%ADD23RoundRect,0.250000X0.475000X-0.337500X0.475000X0.337500X-0.475000X0.337500X-0.475000X-0.337500X0*%
%ADD24RoundRect,0.250000X0.350000X0.450000X-0.350000X0.450000X-0.350000X-0.450000X0.350000X-0.450000X0*%
%ADD25C,3.200000*%
G04 APERTURE END LIST*
D10*
%TO.C,SW118*%
X113580000Y-227000000D03*
D11*
X113580000Y-229540000D03*
X113580000Y-232080000D03*
%TD*%
D12*
%TO.C,J108*%
X224000000Y-158000000D03*
%TD*%
%TO.C,J123*%
X285805000Y-220000000D03*
%TD*%
%TO.C,J106*%
X143000000Y-202000000D03*
%TD*%
D10*
%TO.C,SW144*%
X125500000Y-213000000D03*
D11*
X122960000Y-213000000D03*
X120420000Y-213000000D03*
%TD*%
D13*
%TO.C,J121*%
X280805000Y-205000000D03*
X280805000Y-202460000D03*
D14*
X285885000Y-199920000D03*
X285885000Y-210080000D03*
%TD*%
D10*
%TO.C,SW105*%
X229000000Y-172080000D03*
D11*
X229000000Y-169540000D03*
X229000000Y-167000000D03*
%TD*%
D13*
%TO.C,J116*%
X280805000Y-105000000D03*
X280805000Y-102460000D03*
D14*
X285885000Y-99920000D03*
X285885000Y-110080000D03*
%TD*%
D10*
%TO.C,SW127*%
X229000000Y-133920000D03*
D11*
X229000000Y-136460000D03*
X229000000Y-139000000D03*
%TD*%
D10*
%TO.C,SW106*%
X243920000Y-228000000D03*
D11*
X246460000Y-228000000D03*
X249000000Y-228000000D03*
%TD*%
D10*
%TO.C,SW141*%
X92580000Y-213000000D03*
D11*
X90040000Y-213000000D03*
X87500000Y-213000000D03*
%TD*%
D12*
%TO.C,J104*%
X78500000Y-202000000D03*
%TD*%
D15*
%TO.C,RV101*%
X242600000Y-181050000D03*
X251400000Y-181050000D03*
D16*
X249500000Y-188050000D03*
X247000000Y-188050000D03*
X244500000Y-188050000D03*
%TD*%
D17*
%TO.C,C102*%
X156080000Y-109050000D03*
X154005000Y-109050000D03*
%TD*%
D10*
%TO.C,SW149*%
X93000000Y-193000000D03*
D11*
X90460000Y-193000000D03*
X87920000Y-193000000D03*
X93000000Y-190460000D03*
X90460000Y-190460000D03*
X87920000Y-190460000D03*
%TD*%
D10*
%TO.C,SW109*%
X208500000Y-77050000D03*
D11*
X208500000Y-74510000D03*
X208500000Y-71970000D03*
%TD*%
D10*
%TO.C,SW119*%
X139580000Y-227000000D03*
D11*
X139580000Y-229540000D03*
X139580000Y-232080000D03*
%TD*%
D15*
%TO.C,RV107*%
X118180000Y-124100000D03*
X126980000Y-124100000D03*
D16*
X125080000Y-131100000D03*
X122580000Y-131100000D03*
X120080000Y-131100000D03*
%TD*%
D18*
%TO.C,R105*%
X197000000Y-85000000D03*
X197000000Y-87000000D03*
%TD*%
D10*
%TO.C,SW102*%
X243920000Y-216000000D03*
D11*
X246460000Y-216000000D03*
X249000000Y-216000000D03*
%TD*%
D10*
%TO.C,SW133*%
X92580000Y-202000000D03*
D11*
X90040000Y-202000000D03*
X87500000Y-202000000D03*
%TD*%
D12*
%TO.C,J118*%
X264805000Y-105000000D03*
%TD*%
D10*
%TO.C,SW104*%
X224000000Y-241000000D03*
D11*
X224000000Y-238460000D03*
X224000000Y-235920000D03*
%TD*%
D10*
%TO.C,SW125*%
X201500000Y-227000000D03*
D11*
X201500000Y-229540000D03*
X201500000Y-232080000D03*
%TD*%
D12*
%TO.C,J120*%
X272805000Y-205000000D03*
%TD*%
%TO.C,J103*%
X224000000Y-76000000D03*
%TD*%
D10*
%TO.C,SW129*%
X244000000Y-99000000D03*
D11*
X246540000Y-99000000D03*
X249080000Y-99000000D03*
%TD*%
D15*
%TO.C,RV104*%
X118180000Y-178050000D03*
X126980000Y-178050000D03*
D16*
X125080000Y-185050000D03*
X122580000Y-185050000D03*
X120080000Y-185050000D03*
%TD*%
D12*
%TO.C,J131*%
X61500000Y-245000000D03*
%TD*%
D10*
%TO.C,SW112*%
X139080000Y-77050000D03*
D11*
X139080000Y-74510000D03*
X139080000Y-71970000D03*
%TD*%
D10*
%TO.C,SW113*%
X113080000Y-77050000D03*
D11*
X113080000Y-74510000D03*
X113080000Y-71970000D03*
%TD*%
D12*
%TO.C,J114*%
X63280000Y-213000000D03*
%TD*%
D10*
%TO.C,SW134*%
X125500000Y-202000000D03*
D11*
X122960000Y-202000000D03*
X120420000Y-202000000D03*
%TD*%
D12*
%TO.C,J109*%
X61000000Y-143380000D03*
D19*
X61000000Y-145920000D03*
X61000000Y-148460000D03*
X61000000Y-151000000D03*
X61000000Y-153540000D03*
X61000000Y-156080000D03*
X61000000Y-158620000D03*
%TD*%
D20*
%TO.C,R103*%
X90080000Y-85050000D03*
X92080000Y-85050000D03*
%TD*%
D12*
%TO.C,J126*%
X142500000Y-102000000D03*
%TD*%
D10*
%TO.C,SW147*%
X216000000Y-202000000D03*
D11*
X213460000Y-202000000D03*
X210920000Y-202000000D03*
%TD*%
D10*
%TO.C,SW131*%
X244000000Y-108460000D03*
D11*
X246540000Y-108460000D03*
X249080000Y-108460000D03*
X244000000Y-111000000D03*
X246540000Y-111000000D03*
X249080000Y-111000000D03*
%TD*%
D12*
%TO.C,J129*%
X61500000Y-55000000D03*
%TD*%
D17*
%TO.C,C101*%
X247000000Y-234000000D03*
X244925000Y-234000000D03*
%TD*%
D12*
%TO.C,J125*%
X109500000Y-102000000D03*
%TD*%
%TO.C,J130*%
X283500000Y-55500000D03*
%TD*%
D10*
%TO.C,SW120*%
X146580000Y-227000000D03*
D11*
X146580000Y-229540000D03*
X146580000Y-232080000D03*
%TD*%
D10*
%TO.C,SW138*%
X157580000Y-102050000D03*
D11*
X155040000Y-102050000D03*
X152500000Y-102050000D03*
%TD*%
D10*
%TO.C,SW116*%
X179080000Y-77050000D03*
D11*
X179080000Y-74510000D03*
X179080000Y-71970000D03*
%TD*%
D13*
%TO.C,J111*%
X64000000Y-201460000D03*
X64000000Y-204000000D03*
D14*
X58920000Y-206540000D03*
X58920000Y-196380000D03*
%TD*%
D10*
%TO.C,SW108*%
X193580000Y-91970000D03*
D11*
X193580000Y-94510000D03*
X193580000Y-97050000D03*
%TD*%
D10*
%TO.C,SW126*%
X208580000Y-227000000D03*
D11*
X208580000Y-229540000D03*
X208580000Y-232080000D03*
%TD*%
D12*
%TO.C,JP101*%
X89460000Y-169000000D03*
D19*
X92000000Y-169000000D03*
%TD*%
D12*
%TO.C,JP105*%
X121460000Y-135000000D03*
D19*
X124000000Y-135000000D03*
%TD*%
D20*
%TO.C,R104*%
X122080000Y-85050000D03*
X124080000Y-85050000D03*
%TD*%
D17*
%TO.C,C108*%
X246000000Y-70000000D03*
X243925000Y-70000000D03*
%TD*%
D21*
%TO.C,C107*%
X197000000Y-235925000D03*
X197000000Y-238000000D03*
%TD*%
D12*
%TO.C,J122*%
X285805000Y-94000000D03*
%TD*%
%TO.C,J127*%
X175500000Y-102000000D03*
%TD*%
%TO.C,JP103*%
X248000000Y-172000000D03*
D19*
X245460000Y-172000000D03*
%TD*%
D12*
%TO.C,U101*%
X274920000Y-168000000D03*
D19*
X277460000Y-168000000D03*
X280000000Y-168000000D03*
X282540000Y-168000000D03*
X285080000Y-168000000D03*
X274920000Y-138000000D03*
X277460000Y-138000000D03*
X280000000Y-138000000D03*
X282540000Y-138000000D03*
X285080000Y-138000000D03*
%TD*%
D18*
%TO.C,R106*%
X213000000Y-66000000D03*
X213000000Y-68000000D03*
%TD*%
D10*
%TO.C,SW130*%
X244000000Y-88000000D03*
D11*
X246540000Y-88000000D03*
X249080000Y-88000000D03*
%TD*%
D18*
%TO.C,R110*%
X213000000Y-236000000D03*
X213000000Y-238000000D03*
%TD*%
D12*
%TO.C,J102*%
X224000000Y-228000000D03*
%TD*%
D10*
%TO.C,SW140*%
X93000000Y-114000000D03*
D11*
X90460000Y-114000000D03*
X87920000Y-114000000D03*
X93000000Y-111460000D03*
X90460000Y-111460000D03*
X87920000Y-111460000D03*
%TD*%
D10*
%TO.C,SW142*%
X126000000Y-114000000D03*
D11*
X123460000Y-114000000D03*
X120920000Y-114000000D03*
X126000000Y-111460000D03*
X123460000Y-111460000D03*
X120920000Y-111460000D03*
%TD*%
D10*
%TO.C,SW117*%
X106580000Y-227000000D03*
D11*
X106580000Y-229540000D03*
X106580000Y-232080000D03*
%TD*%
D10*
%TO.C,SW145*%
X93080000Y-91000000D03*
D11*
X90540000Y-91000000D03*
X88000000Y-91000000D03*
%TD*%
D10*
%TO.C,SW124*%
X193580000Y-213000000D03*
D11*
X193580000Y-210460000D03*
X193580000Y-207920000D03*
%TD*%
D10*
%TO.C,SW114*%
X106080000Y-77050000D03*
D11*
X106080000Y-74510000D03*
X106080000Y-71970000D03*
%TD*%
D10*
%TO.C,SW123*%
X185480000Y-213000000D03*
D11*
X185480000Y-210460000D03*
X185480000Y-207920000D03*
%TD*%
D15*
%TO.C,RV106*%
X85680000Y-124050000D03*
X94480000Y-124050000D03*
D16*
X92580000Y-131050000D03*
X90080000Y-131050000D03*
X87580000Y-131050000D03*
%TD*%
D10*
%TO.C,SW107*%
X186080000Y-91970000D03*
D11*
X186080000Y-94510000D03*
X186080000Y-97050000D03*
%TD*%
D12*
%TO.C,JP104*%
X88460000Y-135000000D03*
D19*
X91000000Y-135000000D03*
%TD*%
D10*
%TO.C,SW139*%
X126080000Y-193000000D03*
D11*
X123540000Y-193000000D03*
X121000000Y-193000000D03*
X126080000Y-190460000D03*
X123540000Y-190460000D03*
X121000000Y-190460000D03*
%TD*%
D10*
%TO.C,SW110*%
X201500000Y-77050000D03*
D11*
X201500000Y-74510000D03*
X201500000Y-71970000D03*
%TD*%
D22*
%TO.C,R109*%
X196000000Y-220000000D03*
X196000000Y-218000000D03*
%TD*%
D12*
%TO.C,J128*%
X224000000Y-149000000D03*
%TD*%
D17*
%TO.C,C105*%
X156117500Y-209000000D03*
X154042500Y-209000000D03*
%TD*%
D23*
%TO.C,C106*%
X182000000Y-220075000D03*
X182000000Y-218000000D03*
%TD*%
D10*
%TO.C,SW132*%
X244000000Y-76000000D03*
D11*
X246540000Y-76000000D03*
X249080000Y-76000000D03*
%TD*%
D12*
%TO.C,JP102*%
X121460000Y-169000000D03*
D19*
X124000000Y-169000000D03*
%TD*%
D10*
%TO.C,SW111*%
X146080000Y-77050000D03*
D11*
X146080000Y-74510000D03*
X146080000Y-71970000D03*
%TD*%
D10*
%TO.C,SW135*%
X157580000Y-202000000D03*
D11*
X155040000Y-202000000D03*
X152500000Y-202000000D03*
%TD*%
D10*
%TO.C,SW101*%
X244000000Y-193000000D03*
D11*
X246540000Y-193000000D03*
X249080000Y-193000000D03*
X244000000Y-195540000D03*
X246540000Y-195540000D03*
X249080000Y-195540000D03*
%TD*%
D10*
%TO.C,SW136*%
X93080000Y-102000000D03*
D11*
X90540000Y-102000000D03*
X88000000Y-102000000D03*
%TD*%
D12*
%TO.C,J105*%
X109830000Y-202000000D03*
%TD*%
D15*
%TO.C,RV102*%
X242600000Y-121050000D03*
X251400000Y-121050000D03*
D16*
X249500000Y-128050000D03*
X247000000Y-128050000D03*
X244500000Y-128050000D03*
%TD*%
D12*
%TO.C,J101*%
X47025000Y-143380000D03*
D19*
X47025000Y-145920000D03*
X47025000Y-148460000D03*
X47025000Y-151000000D03*
X47025000Y-153540000D03*
X47025000Y-156080000D03*
X47025000Y-158620000D03*
%TD*%
D20*
%TO.C,R108*%
X122580000Y-219000000D03*
X124580000Y-219000000D03*
%TD*%
D12*
%TO.C,JP106*%
X247540000Y-132000000D03*
D19*
X245000000Y-132000000D03*
%TD*%
D24*
%TO.C,R101*%
X247000000Y-222000000D03*
X245000000Y-222000000D03*
%TD*%
D23*
%TO.C,C104*%
X197000000Y-68075000D03*
X197000000Y-66000000D03*
%TD*%
D13*
%TO.C,J110*%
X64080000Y-101460000D03*
X64080000Y-104000000D03*
D14*
X59000000Y-106540000D03*
X59000000Y-96380000D03*
%TD*%
D12*
%TO.C,J115*%
X63280000Y-219250000D03*
%TD*%
D10*
%TO.C,SW146*%
X125580000Y-91050000D03*
D11*
X123040000Y-91050000D03*
X120500000Y-91050000D03*
%TD*%
D12*
%TO.C,J132*%
X283500000Y-245000000D03*
%TD*%
%TO.C,J112*%
X64000000Y-80450000D03*
%TD*%
D10*
%TO.C,SW103*%
X244000000Y-205000000D03*
D11*
X246540000Y-205000000D03*
X249080000Y-205000000D03*
%TD*%
D12*
%TO.C,J107*%
X175000000Y-202000000D03*
%TD*%
D24*
%TO.C,R112*%
X246000000Y-82000000D03*
X244000000Y-82000000D03*
%TD*%
D10*
%TO.C,SW121*%
X171580000Y-227000000D03*
D11*
X171580000Y-229540000D03*
X171580000Y-232080000D03*
%TD*%
D12*
%TO.C,J124*%
X78500000Y-102000000D03*
%TD*%
D21*
%TO.C,C103*%
X183000000Y-85000000D03*
X183000000Y-87075000D03*
%TD*%
D10*
%TO.C,SW148*%
X216000000Y-102000000D03*
D11*
X213460000Y-102000000D03*
X210920000Y-102000000D03*
%TD*%
D22*
%TO.C,R102*%
X229000000Y-241000000D03*
X229000000Y-239000000D03*
%TD*%
D15*
%TO.C,RV103*%
X85680000Y-178050000D03*
X94480000Y-178050000D03*
D16*
X92580000Y-185050000D03*
X90080000Y-185050000D03*
X87580000Y-185050000D03*
%TD*%
D10*
%TO.C,SW122*%
X178580000Y-227000000D03*
D11*
X178580000Y-229540000D03*
X178580000Y-232080000D03*
%TD*%
D12*
%TO.C,J113*%
X64080000Y-88050000D03*
%TD*%
%TO.C,J117*%
X272805000Y-105000000D03*
%TD*%
D10*
%TO.C,SW115*%
X172080000Y-77050000D03*
D11*
X172080000Y-74510000D03*
X172080000Y-71970000D03*
%TD*%
D12*
%TO.C,J119*%
X264805000Y-205000000D03*
%TD*%
D18*
%TO.C,R111*%
X228000000Y-63000000D03*
X228000000Y-65000000D03*
%TD*%
D10*
%TO.C,SW137*%
X125580000Y-102050000D03*
D11*
X123040000Y-102050000D03*
X120500000Y-102050000D03*
%TD*%
D20*
%TO.C,R107*%
X89180000Y-219300000D03*
X91180000Y-219300000D03*
%TD*%
D10*
%TO.C,SW128*%
X224000000Y-63000000D03*
D11*
X224000000Y-65540000D03*
X224000000Y-68080000D03*
%TD*%
D25*
%TO.C,H102*%
X291000000Y-245000000D03*
%TD*%
%TO.C,H101*%
X54000000Y-245000000D03*
%TD*%
%TO.C,H104*%
X291000000Y-55000000D03*
%TD*%
%TO.C,H103*%
X54000000Y-55000000D03*
%TD*%
M02*
